<?xml version="1.0" encoding="UTF-8" standalone="no"?>
<!-- Generator: Adobe Illustrator 16.0.4, SVG Export Plug-In . SVG Version: 6.00 Build 0)  -->

<svg
   xmlns:dc="http://purl.org/dc/elements/1.1/"
   xmlns:cc="http://creativecommons.org/ns#"
   xmlns:rdf="http://www.w3.org/1999/02/22-rdf-syntax-ns#"
   xmlns:svg="http://www.w3.org/2000/svg"
   xmlns="http://www.w3.org/2000/svg"
   xmlns:sodipodi="http://sodipodi.sourceforge.net/DTD/sodipodi-0.dtd"
   xmlns:inkscape="http://www.inkscape.org/namespaces/inkscape"
   version="1.1"
   id="Alien_Head"
   x="0px"
   y="0px"
   width="180"
   height="180"
   viewBox="0 0 180 180"
   enable-background="new 0 0 180 180"
   xml:space="preserve"
   inkscape:version="0.48.3.1 r9886"
   sodipodi:docname="alien_head.svg"
   inkscape:label="Alien Head"><metadata
   id="metadata3020"><rdf:RDF><cc:Work
       rdf:about=""><dc:format>image/svg+xml</dc:format><dc:type
         rdf:resource="http://purl.org/dc/dcmitype/StillImage" /><dc:title /></cc:Work></rdf:RDF></metadata><defs
   id="defs3018" /><sodipodi:namedview
   pagecolor="#ffffff"
   bordercolor="#666666"
   borderopacity="1"
   objecttolerance="10"
   gridtolerance="10"
   guidetolerance="10"
   inkscape:pageopacity="0"
   inkscape:pageshadow="2"
   inkscape:window-width="1409"
   inkscape:window-height="999"
   id="namedview3016"
   showgrid="false"
   inkscape:zoom="3.8944444"
   inkscape:cx="46.990014"
   inkscape:cy="90"
   inkscape:window-x="0"
   inkscape:window-y="31"
   inkscape:window-maximized="0"
   inkscape:current-layer="Alien_Head" />

<path
   style="fill:#000000;fill-opacity:1;fill-rule:evenodd;stroke:#000000;stroke-opacity:1"
   d="M 13.903,65.542 C 15.456281,43.307516 28.305567,21.901758 48.264416,11.504075 74.772055,-4.3956234 110.57664,-3.7550624 135.68901,14.697976 c 16.91611,11.346009 31.12248,29.82357 30.50305,51.059184 0.4936,11.666286 -6.44929,21.013525 -11.93163,30.514825 -4.5711,9.788355 -3.30698,22.726075 -13.72415,28.689255 -9.33997,6.55222 -18.43775,16.19557 -23.30856,27.00112 -4.50705,8.92077 -9.55635,15.0398 -14.25281,23.81093 -5.054749,6.46144 -15.476824,4.36955 -21.48147,0.67276 C 70.762626,164.77647 73.860558,159.10356 61.784715,148.33734 53.236965,139.90953 38.787449,129.397 35.193834,116.93901 32.305518,107.47852 31.038804,97.614637 22.550992,91.020908 18.17503,86.374525 13.059002,72.023998 13.903,65.542 z M 143.09467,81.3905 C 146.09838,70.533445 131.51881,64.283166 122.59929,70.776594 112.57822,78.07195 101.45148,86.65844 99.531232,99.06844 c -1.695531,10.95769 13.416178,7.88238 20.020818,4.66868 9.92518,-4.82941 20.5381,-11.48662 23.54262,-22.34662 z M 73.752432,105.9984 C 85.293089,108.29458 83.953555,93.537456 78.392225,86.986236 70.856319,78.108976 62.682738,68.00482 51.014955,66.299904 40.408486,64.750069 36.580896,79.653816 43.214933,87.453896 c 7.990384,9.39482 18.705982,16.190454 30.537499,18.544504 z"
   id="path3014"
   inkscape:connector-curvature="0"
   sodipodi:nodetypes="cccccccccccccssssssssss" /></svg>