<?xml version="1.0" encoding="UTF-8" standalone="no"?>
<!-- Generator: Adobe Illustrator 16.0.4, SVG Export Plug-In . SVG Version: 6.00 Build 0)  -->

<svg
   xmlns:dc="http://purl.org/dc/elements/1.1/"
   xmlns:cc="http://creativecommons.org/ns#"
   xmlns:rdf="http://www.w3.org/1999/02/22-rdf-syntax-ns#"
   xmlns:svg="http://www.w3.org/2000/svg"
   xmlns="http://www.w3.org/2000/svg"
   xmlns:sodipodi="http://sodipodi.sourceforge.net/DTD/sodipodi-0.dtd"
   xmlns:inkscape="http://www.inkscape.org/namespaces/inkscape"
   version="1.1"
   id="Bunny"
   x="0px"
   y="0px"
   width="180"
   height="180"
   viewBox="0 0 180 180"
   enable-background="new 0 0 180 180"
   xml:space="preserve"
   inkscape:version="0.48.3.1 r9886"
   sodipodi:docname="bunny.svg"><metadata
   id="metadata3111"><rdf:RDF><cc:Work
       rdf:about=""><dc:format>image/svg+xml</dc:format><dc:type
         rdf:resource="http://purl.org/dc/dcmitype/StillImage" /></cc:Work></rdf:RDF></metadata><defs
   id="defs3109" /><sodipodi:namedview
   pagecolor="#ffffff"
   bordercolor="#666666"
   borderopacity="1"
   objecttolerance="10"
   gridtolerance="10"
   guidetolerance="10"
   inkscape:pageopacity="0"
   inkscape:pageshadow="2"
   inkscape:window-width="1097"
   inkscape:window-height="913"
   id="namedview3107"
   showgrid="false"
   inkscape:zoom="3.8444444"
   inkscape:cx="90"
   inkscape:cy="90"
   inkscape:window-x="226"
   inkscape:window-y="81"
   inkscape:window-maximized="0"
   inkscape:current-layer="Bunny" />
<path
   style="fill-rule:evenodd"
   d="M 95.912894,0.00132391 C 90.40174,0.03132684 84.8939,0.59083761 79.442825,1.8215855 62.636034,5.6157639 48.292917,12.729597 40.045866,27.49355 c -0.272912,0.489086 -1.152421,0.894565 -1.795479,0.972899 -2.181094,0.263122 -4.41246,0.182277 -6.560405,0.564909 C 16.833357,31.677641 6.3883638,39.261228 1.5466469,52.412304 -2.6785303,63.89125 1.9819815,75.983562 12.733864,82.007247 c 3.354508,1.880016 7.259261,2.980961 11.187217,4.550654 -1.714821,6.304884 -1.300479,13.03006 0.276228,19.144129 -3.444006,2.00254 -6.860665,3.47884 -9.564381,5.64909 -10.4336677,8.37471 -9.1588774,22.54639 2.451521,29.53218 6.684707,4.02315 16.351015,0.23776 18.576304,-7.31243 0.335893,-1.13886 0.44224,-2.31462 0.725097,-3.86021 7.275835,9.3579 15.670391,17.21339 25.481995,23.72616 3.33462,-1.96337 6.847681,-2.94756 10.565705,-3.13838 3.697029,-0.19282 7.433008,-0.0628 11.497973,-0.0628 -3.671617,-5.70231 -4.739512,-11.56355 -4.626812,-17.73185 0.163527,-8.912 4.517149,-15.65877 12.879111,-20.08565 7.343234,-3.88858 15.086998,-4.70456 22.995948,-1.19258 2.03303,0.90285 2.64128,2.14389 1.86453,3.4836 -0.73145,1.25736 -2.28771,1.63296 -4.07436,0.75321 -8.92656,-4.40177 -20.815674,0.35602 -25.447458,7.21828 -3.996461,5.91824 -3.519416,12.24069 -2.106235,18.64199 0.847465,3.8454 3.304786,6.98026 5.524551,10.23113 0.545825,0.80041 0.792496,2.30357 0.310756,2.98146 -0.491685,0.68793 -2.065907,1.06579 -3.142088,1.03566 -4.593113,-0.13357 -9.149211,-0.64324 -13.742323,-0.69044 -3.592064,-0.0372 -7.008999,0.76652 -9.875136,3.04423 -3.596483,2.85718 -6.344395,6.08896 -6.21512,10.6705 0.133694,4.69 1.732775,6.63354 6.525876,8.31671 6.188603,2.17528 12.696801,2.89234 19.232346,3.01285 7.455934,0.13859 14.952751,0.1293 22.374431,-0.40799 5.23728,-0.38163 10.45964,-1.47429 15.5378,-2.76178 5.68808,-1.44415 7.01342,-3.35982 7.11286,-8.47363 0.0166,-1.04345 -0.18093,-2.09845 -0.2417,-2.69901 4.60968,-1.92721 8.939,-3.75476 13.29346,-5.49217 0.48394,-0.19382 1.37478,0.0249 1.83,0.34523 5.129,3.62345 10.90933,4.64154 17.19516,3.60914 10.53753,-1.73239 18.54427,-10.05965 18.85254,-19.55212 0.25966,-7.8314 -4.38512,-14.34392 -12.39571,-17.29249 -4.80967,-1.77055 -9.71382,-1.68644 -14.70912,-0.40799 -0.21325,-0.40573 -0.40799,-0.76024 -0.58698,-1.12982 -2.47168,-5.16402 -4.72819,-10.43876 -7.49267,-15.47222 -3.01421,-5.4874 -6.69605,-10.633845 -11.35987,-15.127004 -15.819,-15.240957 -35.378669,-24.49592 -57.524387,-29.563529 -3.244017,-0.743169 -6.56372,-1.234765 -9.737023,-1.820261 0.614331,-3.151438 1.188056,-6.218265 1.830009,-9.509298 2.604273,0.171732 5.386437,0.414015 8.148714,0.533525 7.125566,0.309319 14.26522,0.968128 21.373109,0.753212 9.776248,-0.295259 19.534818,-1.148899 29.280128,-2.008565 4.08926,-0.360537 8.19843,-1.108727 12.154,-2.1341 3.71139,-0.960094 4.25391,-3.314382 1.51926,-5.806006 -7.07586,-6.448497 -15.64305,-10.80909 -24.96407,-13.934417 -6.86923,-2.302819 -14.03816,-3.247849 -21.580277,-3.263917 0.268493,-0.306306 0.3149,-0.39619 0.414341,-0.439374 0.636429,-0.289233 1.286116,-0.569177 1.933593,-0.847363 9.909943,-4.262174 19.611883,-8.830152 28.002573,-15.378072 4.55775,-3.5581717 3.95558,-6.7849306 -1.79548,-8.4108636 C 119.25025,2.3159435 115.82531,1.798236 112.45202,1.2880606 106.93741,0.45350201 101.42404,-0.02867903 95.912894,0.00132391 z M 27.442983,43.467915 c 3.226338,0.009 5.853538,2.200634 5.766251,4.801725 -0.08729,2.572971 -2.637422,4.594089 -5.80078,4.582038 -3.301471,-0.01205 -5.798017,-2.109244 -5.731722,-4.801725 0.06519,-2.622181 2.554276,-4.592081 5.766251,-4.582038 z"
   id="path4135"
   inkscape:connector-curvature="0" />
</svg>