<?xml version="1.0" encoding="UTF-8" standalone="no"?>
<!-- Created with Inkscape (http://www.inkscape.org/) -->

<svg
   xmlns:dc="http://purl.org/dc/elements/1.1/"
   xmlns:cc="http://creativecommons.org/ns#"
   xmlns:rdf="http://www.w3.org/1999/02/22-rdf-syntax-ns#"
   xmlns:svg="http://www.w3.org/2000/svg"
   xmlns="http://www.w3.org/2000/svg"
   xmlns:sodipodi="http://sodipodi.sourceforge.net/DTD/sodipodi-0.dtd"
   xmlns:inkscape="http://www.inkscape.org/namespaces/inkscape"
   width="180"
   height="180"
   id="i_love_u"
   version="1.1"
   inkscape:version="0.48.3.1 r9886"
   sodipodi:docname="New document 72">
  <defs
     id="defs6362" />
  <sodipodi:namedview
     id="base"
     pagecolor="#ffffff"
     bordercolor="#666666"
     borderopacity="1.0"
     inkscape:pageopacity="0.0"
     inkscape:pageshadow="2"
     inkscape:zoom="3.9666667"
     inkscape:cx="90"
     inkscape:cy="90"
     inkscape:document-units="px"
     inkscape:current-layer="layer1"
     showgrid="false"
     showguides="true"
     inkscape:guide-bbox="true"
     inkscape:window-width="1293"
     inkscape:window-height="935"
     inkscape:window-x="200"
     inkscape:window-y="107"
     inkscape:window-maximized="0" />
  <metadata
     id="metadata6365">
    <rdf:RDF>
      <cc:Work
         rdf:about="">
        <dc:format>image/svg+xml</dc:format>
        <dc:type
           rdf:resource="http://purl.org/dc/dcmitype/StillImage" />
        <dc:title></dc:title>
      </cc:Work>
    </rdf:RDF>
  </metadata>
  <g
     inkscape:label="Layer 1"
     inkscape:groupmode="layer"
     id="layer1"
     transform="translate(0,-872.36218)">
    <path
       style="fill:#000000"
       d="m 55.075568,977.64661 c -4.537722,-6.38479 -3.001297,-16.08832 -4.913486,-23.83537 -0.453492,-7.2751 -3.167741,-15.46061 0.08858,-22.22279 3.329916,-4.97004 11.964839,-4.75589 15.570474,-0.31811 0.315921,10.48085 0.228796,21.31591 -0.154294,31.89579 -0.998783,5.70942 0.997961,17.32611 -8.366958,15.00585 -0.849941,0.10607 -1.527422,0.002 -2.224316,-0.52537 z"
       id="path6639"
       inkscape:connector-curvature="0" />
    <path
       style="fill:#000000"
       d="m 73.46309,982.06285 c -6.771737,0.1606 -9.805836,-5.45679 -7.440788,-11.31279 1.908067,-12.80922 0.529374,-25.83832 1.401394,-38.6754 3.358268,-5.86395 15.451047,-7.8092 18.350832,-0.0456 4.299185,6.70555 -0.591525,13.30288 -1.879542,19.96341 -0.07399,8.43333 -1.116196,16.79726 -1.541731,25.20716 -0.97625,3.54383 -5.448968,5.52945 -8.890165,4.86325 z"
       id="path6637"
       inkscape:connector-curvature="0" />
    <path
       style="fill:#000000"
       d="m 75.260438,1015.7145 c -7.670186,0.3829 -15.948855,-4.4535 -15.681518,-12.8506 -1.853442,-7.45403 -2.178727,7.5727 -0.526114,9.2186 -7.385002,4.5998 -16.940028,2.4553 -24.98757,1.0458 -6.9725,-3.6086 -8.071027,-11.7937 -7.891571,-18.8435 -0.151675,-16.17764 3.301451,-32.13585 2.297577,-48.30999 -1.846255,-7.89775 -4.930724,-15.64149 -4.061646,-23.92839 -0.08864,-6.32021 -1.990506,-12.89786 -1.083348,-19.05805 0.139462,-8.29505 12.982312,-9.07584 13.074827,-0.40152 1.161105,5.56592 1.785962,12.94384 4.210755,17.24243 2.37247,7.10614 1.35634,15.06409 4.7989,21.8876 1.40677,3.12133 1.274475,10.94212 2.020463,13.7054 1.014499,6.54566 3.275819,12.90527 2.863088,19.60189 -4.5603,3.61802 2.582926,1.21751 2.715832,4.82641 -2.381585,6.98492 4.833049,-2.22728 8.399863,0.53815 3.820189,-1.44055 -4.990928,12.24978 0.951062,6.62146 3.688053,-8.11955 12.521683,1.20181 18.227903,-4.27462 6.677981,-4.64989 3.682681,-14.71104 5.392825,-21.7575 -0.657598,-7.01181 1.572418,-13.69826 4.088811,-19.94247 0.670252,-6.56695 -2.603473,-13.90579 -8.938239,-16.45992 -1.733587,-3.97223 0.370233,-10.84427 0.142947,-15.7105 1.040274,-10.6626 1.180212,-21.46927 0.124242,-32.11521 3.955144,-7.07453 15.582914,-1.82836 15.978459,5.51282 2.106514,10.64787 2.394013,21.59566 2.813584,32.41766 -0.159,18.30702 2.20325,36.67602 1.97768,54.87403 -4.316105,-2.46554 -7.500815,-2.08929 -3.85046,1.95297 -3.426304,0.75167 -10.221712,-1.59667 -3.647064,1.68746 4.053069,0.29934 5.224402,2.12936 5.25981,5.39934 1.690374,-7.6529 10.020544,-8.44178 16.056714,-11.04348 7.51794,-2.16255 13.33933,-8.36599 21.34006,-9.29691 6.96823,-1.81661 16.78065,-1.48012 19.76527,6.41356 0.13828,6.30568 -8.79316,5.89328 -12.68789,8.88604 -4.0453,4.61242 -8.92489,8.96668 -14.47188,11.55736 -8.89505,4.48829 -18.16906,9.33442 -23.9596,17.74368 -6.920529,5.4776 -14.682181,10.3198 -23.130109,12.8845 -2.526053,0.099 -5.058747,0.098 -7.583663,-0.024 z"
       id="path6635"
       inkscape:connector-curvature="0" />
    <path
       style="fill:#000000"
       d="m 53.469394,1051.2417 c -7.324472,-1.7214 -12.933407,-7.4381 -20.321865,-9.0723 -9.963462,-0.7031 -5.047584,-10.7571 -4.728297,-16.9443 1.877201,-3.9867 -1.746056,-16.9022 5.046309,-9.7093 7.307637,1.5461 15.041628,2.0687 22.419252,0.8579 4.198453,-3.3369 6.728203,-3.0019 10.72227,0.3553 4.539966,3.0657 17.385997,-2.1944 13.49856,5.8436 -2.45831,6.6233 0.95624,16.7902 -6.067383,20.7287 -6.18579,4.9336 -12.386835,8.7491 -20.568846,7.9404 z"
       id="path6430"
       inkscape:connector-curvature="0" />
  </g>
</svg>
