<?xml version="1.0" encoding="UTF-8" standalone="no"?>
<!-- Created with Inkscape (http://www.inkscape.org/) -->

<svg
   xmlns:dc="http://purl.org/dc/elements/1.1/"
   xmlns:cc="http://creativecommons.org/ns#"
   xmlns:rdf="http://www.w3.org/1999/02/22-rdf-syntax-ns#"
   xmlns:svg="http://www.w3.org/2000/svg"
   xmlns="http://www.w3.org/2000/svg"
   xmlns:sodipodi="http://sodipodi.sourceforge.net/DTD/sodipodi-0.dtd"
   xmlns:inkscape="http://www.inkscape.org/namespaces/inkscape"
   width="180"
   height="180"
   id="magic_mushroom"
   version="1.1"
   inkscape:version="0.48.3.1 r9886"
   sodipodi:docname="magic_mushroom.svg">
  <defs
     id="defs4" />
  <sodipodi:namedview
     id="base"
     pagecolor="#ffffff"
     bordercolor="#666666"
     borderopacity="1.0"
     inkscape:pageopacity="0.0"
     inkscape:pageshadow="2"
     inkscape:zoom="4.5617978"
     inkscape:cx="87.106588"
     inkscape:cy="85.714292"
     inkscape:document-units="px"
     inkscape:current-layer="layer1"
     showgrid="false"
     inkscape:window-width="1621"
     inkscape:window-height="1112"
     inkscape:window-x="114"
     inkscape:window-y="31"
     inkscape:window-maximized="0" />
  <metadata
     id="metadata7">
    <rdf:RDF>
      <cc:Work
         rdf:about="">
        <dc:format>image/svg+xml</dc:format>
        <dc:type
           rdf:resource="http://purl.org/dc/dcmitype/StillImage" />
        <dc:title></dc:title>
      </cc:Work>
    </rdf:RDF>
  </metadata>
  <g
     inkscape:label="Layer 1"
     inkscape:groupmode="layer"
     id="layer1"
     transform="translate(0,-872.36218)">
    <path
       style="fill:#000000"
       d="M 83.5 21.9375 C 82.960775 21.941441 82.294257 22.0474 81.4375 22.21875 C 76.639068 23.17844 76.222756 23.70605 67.78125 38.5 C 59.594501 52.84749 56.493805 60.08434 57.46875 62.625 C 58.324454 64.85491 61.860835 64.81713 66.375 62.53125 C 72.379071 59.4909 73.875 57.59642 73.875 53.0625 C 73.875 47.72916 74.813432 45.3125 76.84375 45.3125 C 78.060269 45.3125 78.364334 46.69894 78.125 51.1875 L 77.8125 57.0625 L 81.15625 56.71875 C 87.066095 56.11439 92.340787 52.74893 92.75 49.28125 C 93.164851 45.76581 90.190941 33.78323 87.09375 26.40625 C 85.628668 22.91668 85.117674 21.925676 83.5 21.9375 z M 80.21875 29.78125 C 80.522565 29.738801 80.543268 30.464365 80.5625 32.125 C 80.585722 34.13336 80.032975 35.21875 78.9375 35.21875 C 76.815973 35.21875 76.77823 33.99093 78.875 31.21875 C 79.564575 30.307052 79.982449 29.814266 80.21875 29.78125 z "
       transform="translate(0,872.36218)"
       id="path3278" />
    <path
       style="fill:#000000"
       d="m 81.410325,1050.9423 c -17.939124,-4.2242 -18.508129,-13.9175 -3.555898,-60.57695 2.746327,-8.57012 4.993317,-17.24262 4.993317,-19.27225 l 0,-3.69024 -6.866488,0.49668 c -8.713623,0.63028 -8.567125,-1.19046 0.479386,-5.95761 4.631378,-2.44055 6.381587,-4.00102 6.383907,-5.69182 0.0034,-2.29319 -0.245386,-2.27142 -15.968118,1.39854 -20.785594,4.8517 -38.4139,6.69651 -48.034055,5.02676 -12.9196932,-2.24245 -14.9052132,-8.09887 -7.848415,-23.14936 6.293706,-13.42297 27.892794,-39.36573 30.556719,-36.70181 0.976481,0.97648 0.839329,2.48004 -0.560565,6.14563 -2.154188,5.64064 -2.248794,6.45911 -0.746594,6.45911 0.608703,0 2.43479,-2.14352 4.05798,-4.76337 3.706611,-5.98255 8.27778,-10.92774 10.101245,-10.92774 1.895778,0 2.259251,4.37403 1.29835,15.62438 -1.132462,13.25905 -3.080301,21.4818 -5.815609,24.55049 -3.035323,3.40527 -7.656177,5.77768 -11.253443,5.77768 -3.583089,0 -3.708483,-2.27478 -0.522403,-9.47743 1.284385,-2.90356 2.091626,-5.5228 1.793887,-5.82055 -1.086991,-1.08699 -5.055184,4.38178 -5.709245,7.86821 -0.830711,4.42808 -3.611927,8.55056 -5.768592,8.55056 -1.193971,0 -1.617642,-1.46771 -1.617642,-5.60397 0,-3.08218 -0.494752,-5.60397 -1.099443,-5.60397 -1.666766,0 -2.602393,5.12429 -1.757718,9.6268 0.537275,2.86393 0.218801,4.82175 -1.115661,6.85839 -1.541551,2.35271 -1.602377,3.01563 -0.348376,3.79738 3.170445,1.97651 11.981712,2.44702 22.097538,1.17998 12.916982,-1.61787 34.982006,-6.51659 36.547565,-8.11402 0.797983,-0.81423 0.337908,-1.8469 -1.487316,-3.33831 -3.058322,-2.49901 -2.622635,-4.59569 1.518833,-7.30928 6.051771,-3.96527 25.436429,-7.71582 27.777809,-5.37446 0.37887,0.37888 -0.0848,1.86977 -1.03061,3.31309 -3.14221,4.79562 -0.64025,4.9091 10.27898,0.46622 17.30704,-7.04201 33.0044,-16.17588 38.34472,-22.31178 3.19444,-3.67034 3.17297,-4.57227 -0.10883,-4.57227 -5.65995,0 -15.52545,-10.30718 -16.62787,-17.3723 -0.29412,-1.88492 0.23715,-2.2145 3.33896,-2.07131 5.2718,0.24335 9.20039,1.37621 9.20039,2.65305 0,0.6047 -1.31485,1.09945 -2.9219,1.09945 -2.20391,0 -2.75473,0.43563 -2.24158,1.77286 0.37417,0.97507 0.68031,1.97082 0.68031,2.2128 0,1.79815 7.50636,3.76415 13.95245,3.65431 5.46828,-0.0931 7.96858,0.3512 9.26387,1.64649 4.12984,4.12983 -3.91901,13.31416 -19.85639,22.6576 -8.87669,5.20405 -29.60799,14.83403 -37.24833,17.30239 -4.76398,1.53909 -5.74441,2.62728 -4.8673,5.40228 0.52156,1.65011 1.76355,1.89247 8.04506,1.5699 9.17938,-0.47139 9.26216,1.17299 0.29071,5.7748 l -6.14447,3.15175 1.01139,8.05619 c 0.68387,5.44723 0.56076,12.23026 -0.38015,20.94529 -2.05118,18.99894 -1.84615,21.21314 2.71712,29.34354 9.03455,16.0966 10.08016,18.8094 8.43488,21.8836 -4.50328,8.4145 -27.584924,14.7494 -41.662309,11.4346 z"
       id="path3280" />
    <path
       style="fill:#000000"
       d="m 98.525173,919.88658 c -1.584634,-2.96091 -0.773034,-12.60951 1.785307,-21.22438 2.44312,-8.22689 7.2622,-10.16669 12.4268,-5.0021 2.06895,2.06896 2.54501,3.23218 1.67775,4.09944 -0.86727,0.86726 -1.68743,0.81531 -2.89044,-0.18309 -2.10432,-1.74643 -4.01938,-0.64999 -4.01938,2.30125 0,3.51724 2.10693,6.58493 4.52261,6.58493 2.59437,0 2.93315,-1.72126 0.52097,-2.6469 -2.56495,-0.98426 -2.00247,-2.95801 0.84059,-2.94968 4.97737,0.0146 14.8352,9.21696 14.08132,13.14506 -0.39394,2.05262 -13.24354,6.40206 -22.93498,7.76324 -4.04068,0.56751 -4.829028,0.31991 -6.010547,-1.88777 z"
       id="path3274" />
    <path
       style="fill:#000000"
       d="m 134.61505,913.40821 c -3.31266,-0.50487 -6.26665,-5.39405 -8.70779,-14.41239 -2.98385,-11.02321 -2.90692,-11.00537 14.06391,3.25975 6.10964,5.13557 9.71474,8.8829 8.82552,9.1737 -3.67998,1.20348 -11.81833,2.33913 -14.18164,1.97894 z"
       id="path3272" />
    <path
       style="fill:#000000"
       d="m 56.431102,887.86678 c 9.927029,-9.63478 18.505473,-14.99428 24.036322,-15.01702 3.620444,-0.0149 22.847586,4.55285 22.140566,5.25987 -0.31094,0.31094 -4.522067,1.25198 -9.358057,2.0912 -11.474128,1.99118 -24.226218,6.30855 -36.740846,12.43906 l -10.087145,4.94137 10.00916,-9.71448 z"
       id="path3238" />
  </g>
</svg>
