<?xml version="1.0" encoding="UTF-8" standalone="no"?>
<!-- Created with Inkscape (http://www.inkscape.org/) -->

<svg
   xmlns:dc="http://purl.org/dc/elements/1.1/"
   xmlns:cc="http://creativecommons.org/ns#"
   xmlns:rdf="http://www.w3.org/1999/02/22-rdf-syntax-ns#"
   xmlns:svg="http://www.w3.org/2000/svg"
   xmlns="http://www.w3.org/2000/svg"
   xmlns:sodipodi="http://sodipodi.sourceforge.net/DTD/sodipodi-0.dtd"
   xmlns:inkscape="http://www.inkscape.org/namespaces/inkscape"
   width="180"
   height="180"
   id="robot"
   version="1.1"
   inkscape:version="0.48.3.1 r9886"
   sodipodi:docname="robot.svg">
  <defs
     id="defs4188" />
  <sodipodi:namedview
     id="base"
     pagecolor="#ffffff"
     bordercolor="#666666"
     borderopacity="1.0"
     inkscape:pageopacity="0.0"
     inkscape:pageshadow="2"
     inkscape:zoom="4.35"
     inkscape:cx="90"
     inkscape:cy="90"
     inkscape:document-units="px"
     inkscape:current-layer="layer1"
     showgrid="false"
     inkscape:window-width="1362"
     inkscape:window-height="1004"
     inkscape:window-x="315"
     inkscape:window-y="70"
     inkscape:window-maximized="0" />
  <metadata
     id="metadata4191">
    <rdf:RDF>
      <cc:Work
         rdf:about="">
        <dc:format>image/svg+xml</dc:format>
        <dc:type
           rdf:resource="http://purl.org/dc/dcmitype/StillImage" />
        <dc:title></dc:title>
      </cc:Work>
    </rdf:RDF>
  </metadata>
  <g
     inkscape:label="Layer 1"
     inkscape:groupmode="layer"
     id="layer1"
     transform="translate(0,-872.36218)">
    <path
       style="fill:#000000;fill-opacity:1;stroke:none"
       d="m 147.39981,924.776 5.03696,0 c 2.216,0 4,1.784 4,4 l 0,12 c 0,2.216 -1.784,4 -4,4 l -5.03696,0 c -2.216,0 -4,-1.784 -4,-4 l 0,-12 c 0,-2.216 1.784,-4 4,-4 z"
       id="path5604" />
    <path
       style="fill:#000000;fill-opacity:1;stroke:none"
       d="m 27.448282,924.776 5.036964,0 c 2.216,0 4,1.784 4,4 l 0,12 c 0,2.216 -1.784,4 -4,4 l -5.036964,0 c -2.216,0 -4,-1.784 -4,-4 l 0,-12 c 0,-2.216 1.784,-4 4,-4 z"
       id="path5602" />
    <path
       style="fill:#000000;fill-opacity:1;stroke:none"
       d="M 90.1875 1.59375 C 85.565077 1.59375 81.78125 4.8167 81.78125 8.75 C 81.78125 11.40603 83.529493 13.71312 86.0625 14.9375 L 86.0625 27.65625 L 54.375 27.65625 C 47.763297 27.65625 42.4375 32.31451 42.4375 38.125 L 42.4375 80.09375 C 42.4375 85.90424 47.763297 90.5625 54.375 90.5625 L 125.96875 90.5625 C 132.58044 90.5625 137.90625 85.90424 137.90625 80.09375 L 137.90625 38.125 C 137.90625 32.31451 132.58044 27.65625 125.96875 27.65625 L 94.28125 27.65625 L 94.28125 14.9375 C 96.814257 13.71312 98.5625 11.40603 98.5625 8.75 C 98.5625 4.8167 94.809924 1.59375 90.1875 1.59375 z M 54.25 39.09375 L 68.28125 39.09375 L 68.28125 56.78125 L 54.25 56.78125 L 54.25 39.09375 z M 110.34375 39.09375 L 124.375 39.09375 L 124.375 56.78125 L 110.34375 56.78125 L 110.34375 39.09375 z M 61.90625 70.8125 L 118.4375 70.8125 L 118.4375 80.21875 L 61.90625 80.21875 L 61.90625 70.8125 z "
       transform="translate(0,872.36218)"
       id="path5600" />
    <path
       style="fill:#000000;fill-opacity:1;stroke:none"
       d="M 37.15625 96.78125 C 34.917086 96.78125 33.09375 98.56525 33.09375 100.78125 L 33.09375 173.25 C 33.09375 175.466 34.917086 177.25 37.15625 177.25 L 142.84375 177.25 C 145.08291 177.25 146.90625 175.466 146.90625 173.25 L 146.90625 100.78125 C 146.90625 98.56525 145.08291 96.78125 142.84375 96.78125 L 37.15625 96.78125 z M 70.15625 106.21875 C 77.84774 106.01897 85.258508 109.42866 89.53125 115.34375 C 95.22871 107.45696 106.51656 104.01984 116.59375 107.65625 C 128.04323 111.78952 133.60227 123.46368 129 133.75 C 124.58925 143.6144 89.625 168.21875 89.625 168.21875 L 89.53125 168.28125 L 89.4375 168.21875 C 89.4375 168.21875 54.504484 143.6144 50.09375 133.75 C 45.49378 123.46368 51.019252 111.78952 62.46875 107.65625 C 64.987931 106.74715 67.59242 106.28534 70.15625 106.21875 z "
       transform="translate(0,872.36218)"
       id="path5592" />
    <path
       style="fill:#000000;fill-opacity:1;stroke:none"
       d="m 155.82939,976.77356 3.39445,0 c 2.216,0 4,1.784 4,4 l 0,56.64524 c 0,2.216 -1.784,4 -4,4 l -3.39445,0 c -2.216,0 -4,-1.784 -4,-4 l 0,-56.64524 c 0,-2.216 1.784,-4 4,-4 z"
       id="path5588" />
    <path
       style="fill:#000000;fill-opacity:1;stroke:none"
       d="m 21.022064,976.77356 3.394448,0 c 2.216,0 4,1.784 4,4 l 0,56.64524 c 0,2.216 -1.784,4 -4,4 l -3.394448,0 c -2.216,0 -4,-1.784 -4,-4 l 0,-56.64524 c 0,-2.216 1.784,-4 4,-4 z"
       id="path5586" />
    <path
       style="fill:#000000;fill-opacity:1;stroke:none"
       d="m 5.1494327,989.95239 3.3944482,0 c 2.2160001,0 4.0000001,1.784 4.0000001,4 l 0,30.28771 c 0,2.216 -1.784,4 -4.0000001,4 l -3.3944482,0 c -2.216,0 -4,-1.784 -4,-4 l 0,-30.28771 c 0,-2.216 1.784,-4 4,-4 z"
       id="path5584" />
    <path
       style="fill:#000000;fill-opacity:1;stroke:none"
       d="m 171.80095,989.95239 3.39445,0 c 2.216,0 4,1.784 4,4 l 0,30.28771 c 0,2.216 -1.784,4 -4,4 l -3.39445,0 c -2.216,0 -4,-1.784 -4,-4 l 0,-30.28771 c 0,-2.216 1.784,-4 4,-4 z"
       id="rect5354" />
  </g>
</svg>
