<?xml version="1.0" encoding="UTF-8" standalone="no"?>
<!-- Created with Inkscape (http://www.inkscape.org/) -->

<svg
   xmlns:dc="http://purl.org/dc/elements/1.1/"
   xmlns:cc="http://creativecommons.org/ns#"
   xmlns:rdf="http://www.w3.org/1999/02/22-rdf-syntax-ns#"
   xmlns:svg="http://www.w3.org/2000/svg"
   xmlns="http://www.w3.org/2000/svg"
   xmlns:sodipodi="http://sodipodi.sourceforge.net/DTD/sodipodi-0.dtd"
   xmlns:inkscape="http://www.inkscape.org/namespaces/inkscape"
   width="180"
   height="180"
   id="space_invader"
   version="1.1"
   inkscape:version="0.48.3.1 r9886"
   sodipodi:docname="space_invader.svg">
  <defs
     id="defs4" />
  <sodipodi:namedview
     id="base"
     pagecolor="#ffffff"
     bordercolor="#666666"
     borderopacity="1.0"
     inkscape:pageopacity="0.0"
     inkscape:pageshadow="2"
     inkscape:zoom="3.9277778"
     inkscape:cx="90"
     inkscape:cy="90"
     inkscape:document-units="px"
     inkscape:current-layer="layer1"
     showgrid="false"
     inkscape:window-width="1403"
     inkscape:window-height="928"
     inkscape:window-x="155"
     inkscape:window-y="72"
     inkscape:window-maximized="0" />
  <metadata
     id="metadata7">
    <rdf:RDF>
      <cc:Work
         rdf:about="">
        <dc:format>image/svg+xml</dc:format>
        <dc:type
           rdf:resource="http://purl.org/dc/dcmitype/StillImage" />
        <dc:title />
      </cc:Work>
    </rdf:RDF>
  </metadata>
  <g
     inkscape:label="Layer 1"
     inkscape:groupmode="layer"
     id="layer1"
     transform="translate(0,-872.36218)"
     style="display:inline">
    <path
       style="fill:#000000"
       d="M 32.125 24.21875 L 32.125 32.21875 L 32.125 40.21875 L 40.4375 40.53125 L 48.75 40.84375 L 49.03125 48.59375 L 49.375 56.375 L 40.75 56.375 L 32.125 56.375 L 32.125 64.65625 L 32.125 72.96875 L 24.375 72.96875 L 16.59375 72.96875 L 16.3125 81.28125 L 15.96875 89.5625 L 8 89.5625 L 0 89.5625 L 0 114.28125 L 0 138.9375 L 8.3125 138.65625 C 16.068547 138.36385 16.624898 138.15795 16.75 135.90625 C 16.82361 134.58065 16.926302 127.22182 17 119.5625 L 17.125 105.65625 L 24.59375 105.65625 L 32.0625 105.65625 L 32.375 121.96875 L 32.6875 138.3125 L 40.71875 138.84375 L 48.75 139.375 L 48.9375 145.8125 C 49.050446 149.3476 49.184359 152.85725 49.21875 153.59375 C 49.26579 154.60235 53.210425 154.90625 65.25 154.90625 L 81.25 154.90625 L 81.59375 146.78125 C 81.787552 142.31065 81.745463 138.46155 81.5 138.21875 C 81.254521 137.97595 73.926944 137.78125 65.1875 137.78125 L 49.28125 137.78125 L 49.28125 130 L 49.28125 122.25 L 89.71875 122.25 L 130.15625 122.25 L 130.46875 129.96875 L 130.78125 137.75 L 114.375 138 L 98.03125 138.3125 L 97.71875 146.625 L 97.375 154.90625 L 114.0625 154.90625 L 130.6875 154.90625 L 130.6875 146.875 L 130.6875 138.84375 L 138.71875 138.84375 L 146.75 138.84375 L 146.75 122.25 L 146.75 105.65625 L 154.75 105.65625 L 162.75 105.65625 L 163.0625 121.96875 L 163.375 138.3125 L 171.40625 138.3125 L 179.4375 138.3125 L 179.71875 114 L 180 89.6875 L 171.75 89.375 L 163.53125 89.03125 L 163.8125 81.375 C 164.10588 72.43591 163.70975 72.08317 153.46875 72.5625 L 147.28125 72.875 L 147 64.625 L 146.65625 56.375 L 138.6875 56.375 L 130.6875 56.375 L 130.6875 48.34375 L 130.6875 40.3125 L 122.65625 40.3125 C 113.57723 40.3125 114.21904 39.45129 114.625 51.28125 L 114.78125 56.375 L 90.0625 56.375 L 65.34375 56.375 L 65.34375 48.34375 L 65.34375 40.3125 L 57.3125 40.3125 L 49.28125 40.3125 L 49.28125 32.25 L 49.28125 24.21875 L 40.71875 24.21875 L 32.125 24.21875 z M 130.6875 40.3125 L 138.71875 40.3125 L 146.75 40.3125 L 146.75 32.25 L 146.75 24.21875 L 138.71875 24.21875 L 130.6875 24.21875 L 130.6875 32.25 L 130.6875 40.3125 z M 49.28125 73.5 L 57.3125 73.5 L 65.34375 73.5 L 65.34375 81.53125 L 65.34375 89.5625 L 57.3125 89.5625 L 49.28125 89.5625 L 49.28125 81.53125 L 49.28125 73.5 z M 114.625 73.5 L 122.65625 73.5 L 130.6875 73.5 L 130.6875 81.53125 L 130.6875 89.5625 L 122.65625 89.5625 L 114.625 89.5625 L 114.625 81.53125 L 114.625 73.5 z "
       transform="translate(0,872.36218)"
       id="path4093" />
  </g>
</svg>
