<?xml version="1.0" encoding="UTF-8" standalone="no"?>
<!-- Generator: Adobe Illustrator 16.0.4, SVG Export Plug-In . SVG Version: 6.00 Build 0)  -->

<svg
   xmlns:dc="http://purl.org/dc/elements/1.1/"
   xmlns:cc="http://creativecommons.org/ns#"
   xmlns:rdf="http://www.w3.org/1999/02/22-rdf-syntax-ns#"
   xmlns:svg="http://www.w3.org/2000/svg"
   xmlns="http://www.w3.org/2000/svg"
   xmlns:sodipodi="http://sodipodi.sourceforge.net/DTD/sodipodi-0.dtd"
   xmlns:inkscape="http://www.inkscape.org/namespaces/inkscape"
   version="1.1"
   id="unicorn"
   x="0px"
   y="0px"
   width="180"
   height="180"
   viewBox="0 0 180 180"
   enable-background="new 0 0 180 180"
   xml:space="preserve"
   inkscape:version="0.48.3.1 r9886"
   sodipodi:docname="unicorn_black.svg"><metadata
   id="metadata3043"><rdf:RDF><cc:Work
       rdf:about=""><dc:format>image/svg+xml</dc:format><dc:type
         rdf:resource="http://purl.org/dc/dcmitype/StillImage" /></cc:Work></rdf:RDF></metadata><defs
   id="defs3041" /><sodipodi:namedview
   pagecolor="#ffffff"
   bordercolor="#666666"
   borderopacity="1"
   objecttolerance="10"
   gridtolerance="10"
   guidetolerance="10"
   inkscape:pageopacity="0"
   inkscape:pageshadow="2"
   inkscape:window-width="1656"
   inkscape:window-height="1112"
   id="namedview3039"
   showgrid="false"
   inkscape:zoom="4.95"
   inkscape:cx="90"
   inkscape:cy="90"
   inkscape:window-x="145"
   inkscape:window-y="31"
   inkscape:window-maximized="0"
   inkscape:current-layer="layer2" />
<g
   id="layer2"
   transform="translate(-13.44662,-20.090429)"
   inkscape:label="unicorn"
   inkscape:groupmode="layer">
	
		<path
   style="fill:#010101"
   d="M 52.625 5 C 52.422188 4.9888251 52.080602 5.2293113 51.6875 5.6875 C 50.811807 6.707039 49.448559 6.759828 45.875 5.875 C 40.061646 4.437153 38.19166 5.363687 35.21875 11.125 C 33.965881 13.555444 32.047694 16.527633 30.96875 17.71875 L 29 19.875 L 27.09375 19.09375 C 24.285664 16.179771 23.772272 16.648662 24.71875 21.28125 C 24.923726 22.50013 25.03125 23.15625 25.03125 23.15625 L 22.1875 22.8125 C 19.620079 22.499122 -0.890779 16.500695 0.03125 19.75 C 0.634164 21.874719 19.934227 27.97468 21.96875 28.9375 C 23.423858 29.625226 24.85501 30.866535 25.125 31.71875 C 25.394988 32.570964 27.045944 37.247043 28.8125 42.09375 C 30.577033 46.939038 30.75464 49.525101 31.21875 52.5625 C 32.122757 58.485466 34.072011 61.34375 37.1875 61.34375 C 40.175578 61.34375 41.453403 58.614762 40.875 53.53125 C 40.571642 50.868256 42.50374 49.545063 43.25 44.40625 C 44.199511 37.869293 44.290268 35.086478 43.65625 32.53125 C 42.554048 28.092926 42.6359 27.436211 44 29.96875 C 44.621885 31.124417 45.125 32.942177 45.125 34 C 45.125 35.057825 45.88928 37.951755 46.8125 40.4375 C 48.364683 44.619167 48.41585 45.514523 47.59375 52.25 C 46.864679 58.222595 46.905361 60.63093 47.84375 65.6875 C 49.154257 72.754786 50.247713 76 51.3125 76 C 51.722033 76 52.0625 76.45124 52.0625 77 C 52.0625 78.01529 46.771049 80.69823 42.25 81.96875 C 40.870732 82.35586 39.40751 83.55301 39 84.625 C 38.591477 85.69416 38.3122 92.17099 38.40625 99.03125 L 38.59375 111.5 L 41.46875 114.03125 C 43.056325 115.4138 44.375 116.92414 44.375 117.40625 C 44.375 118.67961 47.992033 123.59375 48.9375 123.59375 C 49.978029 123.59375 50.007247 115.44412 48.96875 112.71875 C 48.518769 111.53898 47.358075 110.625 46.3125 110.625 C 42.732874 110.625 41.31984 104.50488 42.53125 94.21875 C 42.979209 90.41001 43.146284 90.25802 47.34375 89.15625 C 49.731178 88.52949 54.291579 87.69678 57.46875 87.3125 C 63.089977 86.63188 63.378927 86.7227 68.625 90.65625 C 79.02513 98.45804 80.979769 99.62553 85.5625 100.75 C 88.540469 101.48027 93.19883 101.56148 98.65625 100.96875 C 103.31583 100.46529 107.44341 100.4298 107.8125 100.90625 C 108.18158 101.38269 109.24709 104.43888 110.1875 107.6875 C 112.47179 115.58148 117.37673 123.53166 123.65625 129.5 C 132.29083 137.70877 132.46364 138.14227 132.8125 151.375 C 133.13608 163.59671 132.86197 164.6549 129.25 164.6875 C 125.50452 164.72438 121.82071 173.52348 125.03125 174.78125 C 126.39029 175.31299 130.63646 174.77236 133.125 173.75 C 133.86621 173.44229 134.46875 172.47001 134.46875 171.5625 C 134.46875 170.65499 135.12157 169.66569 135.90625 169.375 C 137.13789 168.92265 137.41298 167.29677 137.84375 157.40625 C 138.79731 135.51099 138.67374 134.24278 135.625 130.09375 C 134.1436 128.07734 132.09594 124.67532 131.0625 122.5625 L 129.1875 118.71875 L 130.71875 108.4375 C 132.60969 95.89533 132.28443 87.56991 129.625 80.375 C 127.78968 75.407759 127.79903 75.213742 129.21875 73.96875 C 130.02366 73.264005 131.89158 70.036966 133.375 66.78125 C 136.60172 59.698365 141.40279 62.7948 142.84375 68.96875 C 144.69524 76.892521 143.34375 87.90625 143.34375 87.90625 C 143.34375 87.90625 142.78153 100.9182 143.34375 107 C 144.33876 117.78526 149.27824 118.9421 150.90625 120.78125 C 153.64761 123.88666 154.30968 124.12205 159.78125 124.09375 C 164.51769 124.07391 166.25323 123.60888 168.46875 121.6875 C 171.41942 119.1266 177.63591 110.26793 179 106.6875 C 179.74021 104.74626 179.38693 104.83144 175.53125 107.5625 C 172.14274 109.96032 170.24435 110.60365 166.53125 110.53125 L 161.8125 110.4375 L 165.65625 109.09375 C 167.77369 108.36348 170.21411 107.21905 171.0625 106.5625 C 173.75429 104.47665 177.47287 98.31894 178.75 93.84375 L 180 89.53125 L 177.46875 93.5625 C 174.239 98.69423 170.40296 100.875 164.625 100.875 C 160.37394 100.875 159.88179 100.60613 157.6875 97.09375 C 154.88851 92.61857 153.29486 85.638449 152.15625 72.90625 C 150.76788 57.36786 150.6377 56.635458 148.8125 53.65625 C 146.25114 49.474583 140.00019 48.905222 135.375 52.40625 C 132.16546 54.836695 130.98035 56.94003 129.1875 63.3125 C 128.70719 65.014093 127.16008 67.077102 125.59375 68.125 C 123.2144 69.720244 122.52278 69.760598 120.375 68.5 C 118.20397 67.226641 111.25517 64.635468 99.8125 60.84375 C 92.631 58.465772 88.641554 54.809764 85.25 47.5 C 81.687564 39.821559 81.420403 38.15625 83.6875 38.15625 C 84.556116 38.15625 86.28242 37.407518 87.53125 36.5 C 89.83273 34.829603 90.66823 33.403782 88.75 34.4375 C 88.17564 34.74804 86.037556 33.214961 84 31.03125 C 80.59531 27.382749 80.01563 27.117466 76.59375 27.6875 C 74.546083 28.0264 72.875 28.098987 72.875 27.84375 C 72.875 27.588509 73.886191 26.640446 75.15625 25.71875 C 77.913776 23.71654 78.167958 21.9375 75.6875 21.9375 C 74.703608 21.9375 72.267332 21.121905 70.25 20.15625 C 67.439892 18.811991 66.155561 18.694743 64.75 19.59375 C 63.641732 20.302749 62.736716 20.359738 62.46875 19.75 C 62.225052 19.195565 63.20822 18.038296 64.65625 17.1875 C 68.119589 15.155512 68.767014 13.529442 65.875 14.125 C 64.250011 14.459646 62.680037 13.747794 60.53125 11.65625 C 57.629123 8.833024 57.350335 8.764981 53.59375 10.03125 C 49.753234 11.32588 47.338869 10.809901 50.21875 9.3125 C 51.746663 8.518422 52.79228 6.91058 52.8125 5.3125 C 52.814775 5.1178802 52.746687 5.006705 52.625 5 z M 31 34.0625 C 31.599863 33.985715 32.09375 34.50016 32.09375 35.71875 C 32.09375 38.305172 31.060702 38.318898 29.6875 37.09375 C 28.889668 36.381916 28.923467 35.921373 29.875 34.8125 C 30.254198 34.370086 30.640082 34.108571 31 34.0625 z "
   transform="translate(13.44662,20.090429)"
   id="path4183" /><path
   style="fill:#010101"
   d="m 101.13473,183.68996 c -0.95255,-0.55161 -1.73218,-1.53994 -1.73218,-2.20215 0,-1.88026 4.35623,-7.52247 5.8083,-7.52247 1.61892,0 10.00576,-6.93541 12.86946,-10.64347 3.62918,-4.69498 2.77775,-10.91146 -2.93044,-21.4174 -2.2772,-4.18732 -5.62324,-16.04603 -4.83856,-17.14638 0.14662,-0.20562 2.33889,-0.53742 4.86991,-0.73169 l 4.60599,-0.35734 2.45821,6.49159 c 3.15392,8.32505 2.89506,7.49126 4.88204,15.6816 3.04168,12.53508 3.09426,12.14087 -2.38338,18.03264 -2.67056,2.87143 -6.08536,6.72414 -7.58799,8.55477 -1.50264,1.83631 -3.34503,3.64707 -4.09231,4.02994 -0.74727,0.38286 -1.67959,1.87458 -2.07092,3.32094 -0.39134,1.44353 -0.99199,2.86153 -1.3368,3.14937 -1.44196,1.19963 -6.91758,1.69025 -8.52133,0.76005 z"
   id="path4179" /><path
   style="fill:#010101"
   d="m 30.854726,136.04249 c 0,-2.44605 2.130586,-12.17774 3.42188,-15.62771 0.447959,-1.1968 2.433944,-5.5855 4.41285,-9.75298 1.979918,-4.16748 3.814223,-8.7859 4.079156,-10.26203 0.404478,-2.260281 1.661392,-3.262821 7.954051,-6.348374 4.110504,-2.014981 7.837764,-3.855533 8.282689,-4.088084 0.444926,-0.23255 1.367134,1.218057 2.048679,3.227356 l 1.240735,3.651351 -7.055099,2.99622 c -8.111798,3.444311 -9.680159,5.110461 -12.398248,13.168931 -1.241747,3.68678 -2.660452,6.22073 -3.832426,6.84608 -2.495626,1.33148 -3.073018,4.46952 -1.680604,9.14747 l 1.149728,3.86405 -2.834377,2.70552 c -3.448171,3.28693 -4.789014,3.4188 -4.789014,0.4722 z"
   id="path2222" />
</g>
</svg>