<?xml version="1.0" encoding="utf-8"?>
<!-- Generator: Adobe Illustrator 17.0.0, SVG Export Plug-In . SVG Version: 6.00 Build 0)  -->
<!DOCTYPE svg PUBLIC "-//W3C//DTD SVG 1.1//EN" "http://www.w3.org/Graphics/SVG/1.1/DTD/svg11.dtd">
<svg version="1.1"
	 id="acid_tongue" sodipodi:docname="acid_tongue.svg" inkscape:version="0.48.4 r9939" xmlns:sodipodi="http://sodipodi.sourceforge.net/DTD/sodipodi-0.dtd" xmlns:inkscape="http://www.inkscape.org/namespaces/inkscape" xmlns:cc="http://creativecommons.org/ns#" xmlns:svg="http://www.w3.org/2000/svg" xmlns:rdf="http://www.w3.org/1999/02/22-rdf-syntax-ns#" xmlns:dc="http://purl.org/dc/elements/1.1/"
	 xmlns="http://www.w3.org/2000/svg" xmlns:xlink="http://www.w3.org/1999/xlink" x="0px" y="0px" width="180px" height="180px"
	 viewBox="0 0 180 180" enable-background="new 0 0 180 180" xml:space="preserve">
<g>
	<path id="path4238" inkscape:connector-curvature="0" d="M67.203,1.348C56.427,3.905-0.531,49.946,8.307,57.008
		c3.614,3.633,11.09,14.419,11.09,14.419s7.311-7.221,8.442-9.687c-2.044-2.465-3.865-2.88-5.296-5.32
		c-8.671-10.743,34.846-29.84,41.895-28.973c8.633,1.301,14.556,11.969,24.251,8.298c9.402-3.485,20.546-9.174,30.444-3.143
		c1.981,1.177,37.043,27.011,37.04,26.906c-1.357,1.428-2.713,2.855-4.07,4.283c-29.243,23.249-38.329,55.191-52.026,88.324
		c8.514,9.125,62.762-83.064,74.464-90.967c3.562-3.025-39.563-51.728-48.666-54.705c-10.927-3.481-24.066-2.59-31.943,5.13
		C89.452,15.663,78.393-1.307,67.203,1.348L67.203,1.348z"/>
	<path id="path3022" inkscape:connector-curvature="0" d="M68.545,45.707C22.19,45.446-25.7,144.412,19.708,172.257
		c27.377,16.788,55.994,0.721,69.541-24.852c17.586-33.199,26.318-59.735,54.796-86.323c-5.75-1.692-26.055-15.787-30.892-12.833
		c-9.868,6.027-11.257,12.638-24.417,12.655C60.59,60.941,47.558,99.159,41.388,121.77c-11.418-20.284,26.542-61.896,41.25-70.844
		C78.887,46.943,74.189,45.203,68.545,45.707C66.452,45.695,74.821,45.741,68.545,45.707z M24.92,122.926
		c13.205,5.367,26.167,10.966,40.031,14.469c-9.231,6.594-16.555,20.893-18.125,32C36.638,165,26.623,160.263,16.67,155.363
		C13.696,145.689,18.331,130.334,24.92,122.926z"/>
</g>
</svg>
