<?xml version="1.0" encoding="UTF-8" standalone="no"?>
<!-- Created with Inkscape (http://www.inkscape.org/) -->

<svg
   xmlns:dc="http://purl.org/dc/elements/1.1/"
   xmlns:cc="http://creativecommons.org/ns#"
   xmlns:rdf="http://www.w3.org/1999/02/22-rdf-syntax-ns#"
   xmlns:svg="http://www.w3.org/2000/svg"
   xmlns="http://www.w3.org/2000/svg"
   xmlns:sodipodi="http://sodipodi.sourceforge.net/DTD/sodipodi-0.dtd"
   xmlns:inkscape="http://www.inkscape.org/namespaces/inkscape"
   width="180"
   height="180"
   id="acid_tongue"
   version="1.1"
   inkscape:version="0.48.3.1 r9886"
   sodipodi:docname="acid_tongue.svg">
  <defs
     id="defs3018" />
  <sodipodi:namedview
     id="base"
     pagecolor="#ffffff"
     bordercolor="#666666"
     borderopacity="1.0"
     inkscape:pageopacity="0.0"
     inkscape:pageshadow="2"
     inkscape:zoom="5.0388889"
     inkscape:cx="90"
     inkscape:cy="46.698156"
     inkscape:document-units="px"
     inkscape:current-layer="layer1"
     showgrid="false"
     inkscape:window-width="1471"
     inkscape:window-height="1128"
     inkscape:window-x="223"
     inkscape:window-y="31"
     inkscape:window-maximized="0" />
  <metadata
     id="metadata3021">
    <rdf:RDF>
      <cc:Work
         rdf:about="">
        <dc:format>image/svg+xml</dc:format>
        <dc:type
           rdf:resource="http://purl.org/dc/dcmitype/StillImage" />
        <dc:title />
      </cc:Work>
    </rdf:RDF>
  </metadata>
  <g
     inkscape:label="Layer 1"
     inkscape:groupmode="layer"
     id="layer1"
     transform="translate(0,-872.36218)">
    <g
       id="g3086"
       transform="matrix(1.2372527,0,0,1.177101,-16.815098,97.524108)">
      <path
         style="fill:#000000;fill-opacity:1;stroke:none"
         d="m 69.638844,659.30858 c -7.519734,1.87543 -13.697674,4.41545 -19.50888,12.64817 -7.278254,8.01795 -13.393593,14.8733 -21.851353,21.673 -5.684449,3.93038 -10.295365,9.55961 -6.241657,12.96441 2.920883,3.08629 8.963208,12.24984 8.963208,12.24984 0,0 5.909127,-6.13491 6.823246,-8.22923 -1.652295,-2.09432 -3.12347,-2.44634 -4.280495,-4.51924 -3.346833,-4.35842 6.633913,-11.21149 10.931252,-15.19409 7.046222,-4.1366 14.234988,-10.54387 22.930034,-9.41941 7.015808,1.11118 11.884544,10.12042 19.600805,7.04921 7.685918,-2.9945 16.652546,-7.76431 24.606526,-2.67012 7.09879,4.43528 9.82573,13.81498 18.18967,16.61005 4.0867,2.88795 18.02588,3.96119 8.45791,9.88617 -13.37183,11.17465 -24.08759,25.58615 -29.85619,42.10511 -4.05143,10.98647 -7.90761,22.03312 -12.193236,32.92991 1.979022,2.22949 10.328076,-3.5809 13.567676,-6.67734 12.27668,-12.24456 15.72511,-30.04329 23.93595,-44.80853 5.28637,-10.33486 13.24913,-19.09918 22.68158,-25.79427 7.426,-6.62821 -5.31507,-9.09347 -8.62205,-13.36964 -5.447,-6.43102 -12.5238,-11.32575 -17.63634,-17.98902 -3.64772,-6.09593 -5.24262,-12.42319 -13.07533,-15.11542 -8.83192,-2.95737 -19.450848,-2.2001 -25.817639,4.35846 -6.421442,6.15713 -6.121128,-6.164 -10.055526,-7.68802 -3.603241,-1.39575 -7.799881,-1.93507 -11.549161,-1 z"
         id="path4238" />
      <path
         style="fill:#000000;fill-opacity:1;stroke:none"
         d="M 70.6875 45.59375 C 68.595355 45.581979 66.551967 45.804865 64.8125 46.28125 C 44.001965 54.522911 30.829975 67.856109 19.125 86.5 C 11.654321 99.718185 5.4851262 114.263 4.8125 129.40625 C 4.24021 149.41699 9.271488 169.30235 29.6875 175.65625 C 42.027252 180.27113 55.801528 180.75803 66.875 173.84375 C 86.763866 163.13306 94.675198 141.53364 102.15625 122.3125 C 106.95917 108.72587 112.843 95.282973 122.84375 84.34375 C 129.86398 75.908456 138.13416 68.4876 146.1875 60.96875 C 137.08397 58.290622 128.53485 54.537 121.21875 48.65625 C 116.58696 45.342864 113.77473 48.936656 110.0625 53.59375 C 102.95887 62.50092 93.083715 60.435049 83.9375 60.84375 C 70.485583 63.700927 66.036025 74.049672 59.03125 84.53125 C 51.626682 95.956463 47.056604 108.73613 43.53125 121.65625 C 40.832615 116.86207 44.756833 105.40058 47.15625 98.6875 C 53.504196 82.384663 69.011342 60.406403 84.78125 50.8125 C 83.774556 47.715747 76.963936 45.627898 70.6875 45.59375 z M 27.0625 122.8125 L 45.4375 130.28125 C 48.847414 132.18506 62.815522 136.20028 67.09375 137.28125 C 57.980149 143.79209 50.063559 161.53402 48.96875 169.28125 C 35.371544 163.41625 26.895232 159.2286 18.8125 155.25 C 16.06899 146.32546 21.691608 128.85108 27.0625 122.8125 z "
         transform="matrix(0.80824233,0,0,0.84954477,13.590674,658.25963)"
         id="path3022" />
    </g>
  </g>
</svg>
