<?xml version="1.0" encoding="utf-8"?>
<!-- Generator: Adobe Illustrator 17.0.0, SVG Export Plug-In . SVG Version: 6.00 Build 0)  -->
<!DOCTYPE svg PUBLIC "-//W3C//DTD SVG 1.1//EN" "http://www.w3.org/Graphics/SVG/1.1/DTD/svg11.dtd">
<svg version="1.1"
	 id="Alien_Head" sodipodi:docname="alien_head.svg" inkscape:version="0.48.3.1 r9886" xmlns:sodipodi="http://sodipodi.sourceforge.net/DTD/sodipodi-0.dtd" xmlns:inkscape="http://www.inkscape.org/namespaces/inkscape" xmlns:cc="http://creativecommons.org/ns#" xmlns:svg="http://www.w3.org/2000/svg" xmlns:rdf="http://www.w3.org/1999/02/22-rdf-syntax-ns#" xmlns:dc="http://purl.org/dc/elements/1.1/" inkscape:label="Alien Head"
	 xmlns="http://www.w3.org/2000/svg" xmlns:xlink="http://www.w3.org/1999/xlink" x="0px" y="0px" width="180px" height="180px"
	 viewBox="0 0 180 180" enable-background="new 0 0 180 180" xml:space="preserve">
<path id="path3014" inkscape:connector-curvature="0" sodipodi:nodetypes="cccccccccccccssssssssss" d="M13.903,65.542
	C13.708,20.313,68.515-9.102,112.012,3.214c19.864,5.624,39.151,20.081,48.583,38.665c13.302,26.21-3.715,40.71-9.609,64.857
	c-2.784,11.405-10.229,17.495-15.992,22.513c-9.67,8.419-14.03,19.317-21.233,28.965c-5.046,6.757-9.152,20.748-18.801,21.653
	c-12.285,1.153-16.893-8.76-22.816-17.813c-11.749-17.959-31.353-25.713-36.95-45.114C30.247,100.735,11.607,83.177,13.903,65.542
	C15.456,43.308,13.059,72.024,13.903,65.542 M143.095,81.391c2.659-9.609-8.457-15.021-16.394-12.64
	c-11.545,3.463-25.332,18.442-27.169,30.318C96.6,118.013,139.657,93.815,143.095,81.391L143.095,81.391z M73.752,105.998
	c10.083,2.006,9.821-9.595,6.74-15.776C75.411,80.032,62.544,67.985,51.015,66.3C41.438,64.9,38.153,76.586,41.002,83.745
	C45.64,95.402,62.265,103.713,73.752,105.998C85.293,108.295,61.921,103.644,73.752,105.998z"/>
</svg>
