<?xml version="1.0" encoding="utf-8"?>
<!-- Generator: Adobe Illustrator 16.0.4, SVG Export Plug-In . SVG Version: 6.00 Build 0)  -->
<!DOCTYPE svg PUBLIC "-//W3C//DTD SVG 1.1//EN" "http://www.w3.org/Graphics/SVG/1.1/DTD/svg11.dtd">
<svg version="1.1" id="Layer_1" xmlns="http://www.w3.org/2000/svg" xmlns:xlink="http://www.w3.org/1999/xlink" x="0px" y="0px"
	 width="180px" height="180px" viewBox="0 0 180 180" enable-background="new 0 0 180 180" xml:space="preserve">
<path fill-rule="evenodd" clip-rule="evenodd" d="M13.903,65.542C16.017,45.443,24.096,28.2,40.791,16.367
	c33.864-24.009,76.24-21.616,106.723,8.057c12.264,11.94,19.912,26.571,18.406,44.295c-0.451,5.303-2.496,11.042-5.494,15.425
	c-5.1,7.442-7.75,15.448-8.953,24.12c-0.859,6.184-3.705,11.07-8.637,14.799c-4.805,3.639-9.598,7.293-14.467,10.846
	c-6.186,4.51-10.182,10.566-13.363,17.439c-3.867,8.355-8.186,16.5-12.412,24.684c-1.711,3.312-4.113,5.104-8.039,2.967
	c-0.881-0.484-2.279-0.449-3.303-0.164c-6.32,1.748-10.208-1.816-13.119-6.428c-3.116-4.945-5.986-10.146-8.178-15.549
	c-4.867-11.99-12.747-21.463-23.322-28.562c-9.548-6.412-15.265-14.742-16.81-26.27c-1.082-8.062-4.637-15.076-10.805-20.82
	C14.661,77.148,13.773,71.469,13.903,65.542z M143.865,106.041c0.045-11.051-7.979-16.327-16.146-12.75
	c-12.18,5.332-21,14.357-26.369,26.422c-1.186,2.664-1.193,6.852,0.109,9.381c1.762,3.422,6.041,3.041,9.521,2.246
	c10.617-2.432,19.975-7.389,27.191-15.564C141.082,112.477,142.721,108.057,143.865,106.041z M71.955,131.676
	c8.528-0.055,11.463-3.998,9.005-10.338c-4.869-12.559-13.753-21.586-25.792-27.479c-5.978-2.924-9.901-2.482-13.517,1.098
	c-4.419,4.377-5.518,9.096-2.237,14.902C46.95,123.201,59.637,128.795,71.955,131.676z"/>
</svg>
