<?xml version="1.0" encoding="utf-8"?>
<!-- Generator: Adobe Illustrator 17.0.0, SVG Export Plug-In . SVG Version: 6.00 Build 0)  -->
<!DOCTYPE svg PUBLIC "-//W3C//DTD SVG 1.1//EN" "http://www.w3.org/Graphics/SVG/1.1/DTD/svg11.dtd">
<svg version="1.1"
	 id="Bunny" sodipodi:docname="bunny.svg" inkscape:version="0.48.3.1 r9886" xmlns:sodipodi="http://sodipodi.sourceforge.net/DTD/sodipodi-0.dtd" xmlns:inkscape="http://www.inkscape.org/namespaces/inkscape" xmlns:cc="http://creativecommons.org/ns#" xmlns:svg="http://www.w3.org/2000/svg" xmlns:rdf="http://www.w3.org/1999/02/22-rdf-syntax-ns#" xmlns:dc="http://purl.org/dc/elements/1.1/"
	 xmlns="http://www.w3.org/2000/svg" xmlns:xlink="http://www.w3.org/1999/xlink" x="0px" y="0px" width="180px" height="180px"
	 viewBox="0 0 180 180" enable-background="new 0 0 180 180" xml:space="preserve">
<path id="path4135" inkscape:connector-curvature="0" d="M86.004,29.053c6.285-7.17,30.201-11.095,38.291-17.408
	c12.679-9.898-23.87-11.668-28.382-11.643C76.616,0.106,54.334,6.907,42.699,23.29c-5.275,7.428-11.877,5.068-20.247,8.244
	C12.681,35.242,5.17,42.572,1.547,52.412c-3.016,8.195-1.448,17.439,4.309,24.044c3.332,3.823,7.551,6.181,12.257,7.943
	c8.81,3.299,4.5,3.832,4.712,11.803c0.201,7.543,3.845,8.127-3.687,12.262c-4.041,2.218-7.596,5.014-9.741,9.187
	c-4.448,8.657-0.286,18.435,7.688,23.233c9.254,5.57,17.703-2.436,19.301-11.173c5.109,6.571,10.936,12.578,17.412,17.811
	c6.067,4.902,5.923,5.815,13.209,3.681c5.421-1.587,11.372-0.967,16.925-0.967c-6.115-9.498-6.94-24.036,1.233-32.623
	c4.646-4.881,11.589-8.127,18.305-8.566c1.928-0.126,16.454,0.697,13.575,5.663c-1.564,2.688-12.933-1.189-16.379-0.414
	c-8.573,1.925-15.631,8.43-16.224,17.526c-0.263,4.023,7.776,21.357,6.811,22.715c-2.725,3.813-17.607-0.3-22.094,0.999
	c-6.722,1.946-13.203,9.686-10.194,16.927c3.062,7.37,18.643,7.344,25.072,7.463c11.77,0.219,46.66,4.199,44.783-14.342
	c7.918-3.31,11.324-6.268,19.09-2.909c8.128,3.516,18.321,1.667,24.976-4.062c14.983-12.9,3.588-34.218-15.034-32.675
	c-9.588,0.795-10.473-11.987-15.435-19.793c-5.279-8.304-12.559-14.983-20.504-20.697c-16.633-11.962-35.787-18.088-55.726-21.767
	c0.614-3.151,1.188-6.218,1.83-9.509c21.522,1.419,43.562,2.247,64.929-1.54c16.125-2.858,4.418-10.691-4.094-15.336
	C118.07,31.413,98.282,29.079,86.004,29.053 M27.443,43.468c3.226,0.009,5.854,2.201,5.766,4.802
	c-0.21,6.176-11.688,6.094-11.533-0.22C21.742,45.428,24.231,43.458,27.443,43.468C30.669,43.477,24.231,43.458,27.443,43.468z"/>
</svg>
