<?xml version="1.0" encoding="UTF-8" standalone="no"?>
<!-- Generator: Adobe Illustrator 16.0.4, SVG Export Plug-In . SVG Version: 6.00 Build 0)  -->

<svg
   xmlns:dc="http://purl.org/dc/elements/1.1/"
   xmlns:cc="http://creativecommons.org/ns#"
   xmlns:rdf="http://www.w3.org/1999/02/22-rdf-syntax-ns#"
   xmlns:svg="http://www.w3.org/2000/svg"
   xmlns="http://www.w3.org/2000/svg"
   xmlns:sodipodi="http://sodipodi.sourceforge.net/DTD/sodipodi-0.dtd"
   xmlns:inkscape="http://www.inkscape.org/namespaces/inkscape"
   version="1.1"
   id="Bunny"
   x="0px"
   y="0px"
   width="180"
   height="180"
   viewBox="0 0 180 180"
   enable-background="new 0 0 180 180"
   xml:space="preserve"
   inkscape:version="0.48.3.1 r9886"
   sodipodi:docname="bunny.svg"><metadata
   id="metadata3111"><rdf:RDF><cc:Work
       rdf:about=""><dc:format>image/svg+xml</dc:format><dc:type
         rdf:resource="http://purl.org/dc/dcmitype/StillImage" /></cc:Work></rdf:RDF></metadata><defs
   id="defs3109" /><sodipodi:namedview
   pagecolor="#ffffff"
   bordercolor="#666666"
   borderopacity="1"
   objecttolerance="10"
   gridtolerance="10"
   guidetolerance="10"
   inkscape:pageopacity="0"
   inkscape:pageshadow="2"
   inkscape:window-width="640"
   inkscape:window-height="480"
   id="namedview3107"
   showgrid="false"
   inkscape:zoom="1.3111111"
   inkscape:cx="90"
   inkscape:cy="90"
   inkscape:window-x="216"
   inkscape:window-y="217"
   inkscape:window-maximized="0"
   inkscape:current-layer="Bunny" />
<path
   clip-rule="evenodd"
   d="m 93.568,28.578 c 6.826,0.016 13.318,0.933 19.535,3.226 8.436,3.112 16.176,7.459 22.58,13.88 2.475,2.481 1.98,4.836 -1.379,5.792 -3.58,1.021 -7.293,1.768 -10.994,2.127 -8.82,0.856 -17.656,1.701 -26.504,1.995 -6.433,0.214 -12.899,-0.438 -19.348,-0.746 -2.5,-0.119 -4.993,-0.353 -7.35,-0.524 -0.581,3.277 -1.121,6.312 -1.677,9.45 2.872,0.583 5.872,1.067 8.808,1.807 20.043,5.046 37.754,14.255 52.071,29.431 4.221,4.474 7.561,9.61 10.289,15.074 2.502,5.012 4.525,10.259 6.762,15.401 0.162,0.368 0.34,0.728 0.533,1.132 4.521,-1.273 8.959,-1.345 13.312,0.418 7.25,2.936 11.469,9.42 11.234,17.218 -0.279,9.452 -7.525,17.733 -17.062,19.458 -5.689,1.028 -10.92,0.005 -15.562,-3.603 -0.412,-0.319 -1.236,-0.525 -1.674,-0.332 -3.941,1.73 -7.836,3.561 -12.008,5.48 0.055,0.598 0.236,1.637 0.221,2.676 -0.09,5.092 -1.295,7.012 -6.443,8.45 -4.596,1.282 -9.334,2.368 -14.074,2.748 -6.717,0.535 -13.498,0.538 -20.246,0.4 -5.915,-0.12 -11.801,-0.844 -17.402,-3.01 -4.338,-1.676 -5.775,-3.607 -5.896,-8.277 -0.117,-4.562 2.342,-7.783 5.597,-10.628 2.594,-2.268 5.687,-3.059 8.938,-3.022 4.157,0.047 8.307,0.544 12.464,0.677 0.974,0.03 2.394,-0.342 2.839,-1.027 0.436,-0.675 0.215,-2.182 -0.279,-2.979 -2.009,-3.237 -4.237,-6.353 -5.004,-10.182 -1.279,-6.374 -1.713,-12.667 1.904,-18.56 4.192,-6.833 14.963,-11.565 23.042,-7.182 1.617,0.876 3.01,0.489 3.672,-0.763 0.703,-1.334 0.152,-2.564 -1.688,-3.463 -7.158,-3.497 -14.17,-2.665 -20.816,1.207 -7.568,4.408 -11.504,11.098 -11.652,19.972 -0.102,6.142 0.859,12.001 4.182,17.679 -3.679,0 -7.045,-0.149 -10.391,0.043 -3.365,0.19 -6.562,1.18 -9.58,3.135 -8.88,-6.485 -16.462,-14.319 -23.047,-23.637 -0.256,1.539 -0.355,2.728 -0.659,3.862 -2.014,7.518 -10.753,11.291 -16.803,7.285 -10.508,-6.956 -11.664,-21.077 -2.221,-29.416 2.447,-2.161 5.517,-3.616 8.634,-5.61 C 28.999,99.552 28.633,92.835 30.185,86.557 26.63,84.994 23.113,83.902 20.077,82.03 10.346,76.032 6.124,64 9.948,52.57 14.33,39.475 23.771,31.913 37.217,29.278 c 1.944,-0.381 3.978,-0.283 5.952,-0.545 0.582,-0.078 1.366,-0.496 1.613,-0.983 7.464,-14.701 20.442,-21.787 35.653,-25.565 9.867,-2.451 19.894,-2.176 29.876,-0.514 3.053,0.508 6.141,1.009 9.082,1.923 5.205,1.619 5.777,4.818 1.652,8.361 -7.594,6.52 -16.383,11.075 -25.352,15.319 -0.586,0.277 -1.17,0.548 -1.746,0.836 -0.09,0.043 -0.136,0.163 -0.379,0.468 z M 33.345,53.002 c 2.863,0.012 5.182,-1.999 5.261,-4.561 0.079,-2.59 -2.311,-4.78 -5.231,-4.789 -2.907,-0.01 -5.16,1.967 -5.219,4.578 -0.06,2.681 2.201,4.76 5.189,4.772 z"
   id="path3105"
   inkscape:connector-curvature="0"
   style="fill-rule:evenodd" />
</svg>