<?xml version="1.0" encoding="utf-8"?>
<!-- Generator: Adobe Illustrator 16.0.4, SVG Export Plug-In . SVG Version: 6.00 Build 0)  -->
<!DOCTYPE svg PUBLIC "-//W3C//DTD SVG 1.1//EN" "http://www.w3.org/Graphics/SVG/1.1/DTD/svg11.dtd">
<svg version="1.1" id="Layer_1" xmlns="http://www.w3.org/2000/svg" xmlns:xlink="http://www.w3.org/1999/xlink" x="0px" y="0px"
	 width="180px" height="180px" viewBox="0 0 180 180" enable-background="new 0 0 180 180" xml:space="preserve">
<path fill-rule="evenodd" clip-rule="evenodd" d="M93.568,28.578c6.826,0.016,13.318,0.933,19.535,3.226
	c8.436,3.112,16.176,7.459,22.58,13.88c2.475,2.481,1.98,4.836-1.379,5.792c-3.58,1.021-7.293,1.768-10.994,2.127
	c-8.82,0.856-17.656,1.701-26.504,1.995c-6.433,0.214-12.899-0.438-19.348-0.746c-2.5-0.119-4.993-0.353-7.35-0.524
	c-0.581,3.277-1.121,6.312-1.677,9.45c2.872,0.583,5.872,1.067,8.808,1.807c20.043,5.046,37.754,14.255,52.071,29.431
	c4.221,4.474,7.561,9.61,10.289,15.074c2.502,5.012,4.525,10.259,6.762,15.401c0.162,0.368,0.34,0.728,0.533,1.132
	c4.521-1.273,8.959-1.345,13.312,0.418c7.25,2.936,11.469,9.42,11.234,17.218c-0.279,9.452-7.525,17.733-17.062,19.458
	c-5.689,1.028-10.92,0.005-15.562-3.603c-0.412-0.319-1.236-0.525-1.674-0.332c-3.941,1.73-7.836,3.561-12.008,5.48
	c0.055,0.598,0.236,1.637,0.221,2.676c-0.09,5.092-1.295,7.012-6.443,8.45c-4.596,1.282-9.334,2.368-14.074,2.748
	c-6.717,0.535-13.498,0.538-20.246,0.4c-5.915-0.12-11.801-0.844-17.402-3.01c-4.338-1.676-5.775-3.607-5.896-8.277
	c-0.117-4.562,2.342-7.783,5.597-10.628c2.594-2.268,5.687-3.059,8.938-3.022c4.157,0.047,8.307,0.544,12.464,0.677
	c0.974,0.03,2.394-0.342,2.839-1.027c0.436-0.675,0.215-2.182-0.279-2.979c-2.009-3.237-4.237-6.353-5.004-10.182
	c-1.279-6.374-1.713-12.667,1.904-18.56c4.192-6.833,14.963-11.565,23.042-7.182c1.617,0.876,3.01,0.489,3.672-0.763
	c0.703-1.334,0.152-2.564-1.688-3.463c-7.158-3.497-14.17-2.665-20.816,1.207c-7.568,4.408-11.504,11.098-11.652,19.972
	c-0.102,6.142,0.859,12.001,4.182,17.679c-3.679,0-7.045-0.149-10.391,0.043c-3.365,0.19-6.562,1.18-9.58,3.135
	c-8.88-6.485-16.462-14.319-23.047-23.637c-0.256,1.539-0.355,2.728-0.659,3.862c-2.014,7.518-10.753,11.291-16.803,7.285
	c-10.508-6.956-11.664-21.077-2.221-29.416c2.447-2.161,5.517-3.616,8.634-5.61c-1.427-6.088-1.793-12.805-0.241-19.083
	c-3.555-1.563-7.072-2.655-10.108-4.527C10.346,76.032,6.124,64,9.948,52.57c4.382-13.095,13.823-20.657,27.269-23.292
	c1.944-0.381,3.978-0.283,5.952-0.545c0.582-0.078,1.366-0.496,1.613-0.983C52.246,13.049,65.224,5.963,80.435,2.185
	c9.867-2.451,19.894-2.176,29.876-0.514c3.053,0.508,6.141,1.009,9.082,1.923c5.205,1.619,5.777,4.818,1.652,8.361
	c-7.594,6.52-16.383,11.075-25.352,15.319c-0.586,0.277-1.17,0.548-1.746,0.836C93.857,28.153,93.811,28.273,93.568,28.578z
	 M33.345,53.002c2.863,0.012,5.182-1.999,5.261-4.561c0.079-2.59-2.311-4.78-5.231-4.789c-2.907-0.01-5.16,1.967-5.219,4.578
	C28.096,50.911,30.357,52.99,33.345,53.002z"/>
</svg>
