<?xml version="1.0" encoding="utf-8"?>
<!-- Generator: Adobe Illustrator 16.0.4, SVG Export Plug-In . SVG Version: 6.00 Build 0)  -->
<!DOCTYPE svg PUBLIC "-//W3C//DTD SVG 1.1//EN" "http://www.w3.org/Graphics/SVG/1.1/DTD/svg11.dtd">
<svg version="1.1" id="Layer_1" xmlns="http://www.w3.org/2000/svg" xmlns:xlink="http://www.w3.org/1999/xlink" x="0px" y="0px"
	 width="180px" height="180px" viewBox="0 0 180 180" enable-background="new 0 0 180 180" xml:space="preserve">
<g>
	<path fill="#010101" d="M53.029,179.275c-2.916-1.372-4.166-4.849-2.794-7.764l0,0c0-0.002,0.338-0.718,0.963-2.107l0,0
		c0.622-1.394,1.522-3.433,2.601-5.984l0,0c2.157-5.112,5.041-12.288,7.917-20.489l0,0c5.769-16.369,11.418-36.999,11.378-52.729
		l0,0c0-1.681-0.06-3.299-0.188-4.845l0,0C71.89,72.2,64.335,55.684,55.94,41.702l0,0C47.579,27.68,38.526,16.039,34.978,11.638l0,0
		c-1.016-1.259-1.553-1.894-1.556-1.897l0,0C31.34,7.282,31.648,3.6,34.11,1.521l0,0c2.462-2.082,6.141-1.773,8.222,0.688l0,0
		c0.105,0.127,9.757,11.539,19.843,27.376l0,0c10.049,15.9,20.718,35.985,22.359,54.815l0,0c0.153,1.9,0.226,3.837,0.226,5.8l0,0
		c-0.039,18.304-6.098,39.569-12.033,56.59l0,0c-5.957,16.981-11.88,29.57-11.935,29.689l0,0c-0.994,2.114-3.091,3.351-5.281,3.351
		l0,0C54.678,179.831,53.832,179.651,53.029,179.275L53.029,179.275z"/>
	<path fill="#010101" d="M119.205,176.479c-0.05-0.12-5.978-12.705-11.934-29.688l0,0c-5.939-17.022-11.999-38.288-12.039-56.588
		l0,0c0-1.974,0.076-3.91,0.23-5.803l0,0c1.643-18.831,12.312-38.912,22.361-54.812l0,0c10.089-15.837,19.738-27.249,19.843-27.38
		l0,0l0.002,0.003c2.08-2.461,5.759-2.769,8.222-0.691l0,0c2.458,2.081,2.768,5.76,0.688,8.223l0,0c0,0.002-0.541,0.637-1.555,1.896
		l0,0c-1.017,1.256-2.481,3.105-4.248,5.431l0,0c-3.534,4.652-8.29,11.215-13.109,18.782l0,0
		c-9.674,15.082-19.429,34.45-20.574,49.505l0,0c-0.127,1.552-0.192,3.172-0.192,4.846l0,0c-0.026,13.748,4.276,31.295,9.238,46.401
		l0,0c4.943,15.133,10.477,27.929,12.663,32.798l0,0c0.623,1.394,0.96,2.107,0.965,2.11l0,0c1.372,2.916,0.12,6.389-2.797,7.764l0,0
		c-0.803,0.377-1.646,0.557-2.478,0.557l0,0C122.3,179.833,120.2,178.593,119.205,176.479L119.205,176.479z"/>
	<path fill="#010101" d="M84.934,51.948L69.258,24.513c-1.355-2.372-0.889-5.35,1.123-7.194l0,0L86.058,2.948
		c2.232-2.048,5.651-2.048,7.882,0l0,0l15.677,14.371c2.012,1.841,2.478,4.822,1.123,7.194l0,0L95.064,51.948
		c-1.035,1.808-2.981,2.938-5.065,2.938l0,0C87.917,54.886,85.968,53.756,84.934,51.948L84.934,51.948z M81.7,22.771l8.298,14.524
		l8.301-14.527L90,15.159L81.7,22.771L81.7,22.771z"/>
</g>
</svg>
