<?xml version="1.0" encoding="utf-8"?>
<!-- Generator: Adobe Illustrator 17.0.0, SVG Export Plug-In . SVG Version: 6.00 Build 0)  -->
<!DOCTYPE svg PUBLIC "-//W3C//DTD SVG 1.1//EN" "http://www.w3.org/Graphics/SVG/1.1/DTD/svg11.dtd">
<svg version="1.1"
	 id="burning_man" sodipodi:docname="burning-man.svg" inkscape:version="0.48.3.1 r9886" xmlns:sodipodi="http://sodipodi.sourceforge.net/DTD/sodipodi-0.dtd" xmlns:inkscape="http://www.inkscape.org/namespaces/inkscape" xmlns:cc="http://creativecommons.org/ns#" xmlns:svg="http://www.w3.org/2000/svg" xmlns:rdf="http://www.w3.org/1999/02/22-rdf-syntax-ns#" xmlns:dc="http://purl.org/dc/elements/1.1/"
	 xmlns="http://www.w3.org/2000/svg" xmlns:xlink="http://www.w3.org/1999/xlink" x="0px" y="0px" width="180px" height="180px"
	 viewBox="0 0 180 180" enable-background="new 0 0 180 180" xml:space="preserve">
<g id="g3262">
	<path id="path3264" inkscape:connector-curvature="0" fill="#010101" d="M44.301,179.275c-3.718-1.372-5.312-4.849-3.563-7.764l0,0
		c0.409-0.702,0.819-1.405,1.228-2.107c1.128-1.982,2.234-3.977,3.316-5.984c3.608-6.706,6.986-13.538,10.095-20.489
		c7.313-16.273,14.566-34.61,14.508-52.729c0-1.681-0.076-3.299-0.24-4.845c-1.773-16.103-12.046-31.133-21.633-43.655
		c-8.122-10.664-17.12-20.717-26.728-30.064c-0.661-0.632-1.323-1.265-1.984-1.897l0,0c-2.655-2.459-2.262-6.141,0.877-8.22l0,0
		c3.075-2.04,7.731-1.865,10.484,0.688c9.015,8.552,17.469,17.731,25.301,27.376C68.575,45.236,82.184,63.807,84.472,84.4
		c0.195,1.9,0.288,3.837,0.288,5.8c-0.135,19.614-7.48,38.904-15.343,56.59c-4.542,10.144-9.573,20.11-15.218,29.689
		c-1.659,2.264-3.904,3.381-6.734,3.351C46.427,179.46,45.372,179.275,44.301,179.275z"/>
	<path id="path3266" inkscape:connector-curvature="0" fill="#010101" d="M124.752,176.479c-0.062-0.12-7.361-12.705-14.695-29.688
		c-7.62-17.704-14.772-37.063-14.825-56.588l0,0c0-1.974,0.094-3.91,0.283-5.803l0,0c2.198-20.458,15.251-39.028,27.535-54.812
		c7.572-9.653,15.825-18.657,24.434-27.38c2.925-2.286,6.904-2.896,10.126-0.688c3.027,2.081,3.408,5.76,0.847,8.223
		c-0.638,0.632-1.277,1.264-1.915,1.896c-1.772,1.783-3.516,3.593-5.231,5.431c-5.64,6.03-11.047,12.285-16.142,18.782
		c-10.979,13.891-23.628,31.285-25.334,49.505l0,0c-0.156,1.552-0.236,3.172-0.236,4.846l0,0
		c-0.037,15.873,5.495,31.862,11.376,46.401c4.515,11.226,9.738,22.207,15.593,32.798c2.085,3.789,2.814,7.933-2.256,9.874
		c-1.017,0.186-2.034,0.371-3.051,0.557C128.496,179.846,126.326,178.728,124.752,176.479L124.752,176.479L124.752,176.479z"/>
	<path id="path3268" inkscape:connector-curvature="0" fill="#010101" d="M83.935,59.114L65.868,27.667
		c-1.562-2.719-1.025-6.132,1.294-8.246l0,0L85.231,2.948c2.572-2.348,6.513-2.348,9.084,0l0,0l18.068,16.473
		c2.319,2.11,2.856,5.527,1.294,8.246l0,0L95.611,59.114c-1.193,2.072-3.436,3.368-5.838,3.368l0,0
		C87.373,62.482,85.127,61.187,83.935,59.114L83.935,59.114z M80.208,25.67l9.564,16.648l9.567-16.652l-9.565-8.722L80.208,25.67
		L80.208,25.67z"/>
</g>
</svg>
