<?xml version="1.0" encoding="utf-8"?>
<!-- Generator: Adobe Illustrator 16.0.4, SVG Export Plug-In . SVG Version: 6.00 Build 0)  -->
<!DOCTYPE svg PUBLIC "-//W3C//DTD SVG 1.1//EN" "http://www.w3.org/Graphics/SVG/1.1/DTD/svg11.dtd">
<svg version="1.1" id="Layer_1" xmlns="http://www.w3.org/2000/svg" xmlns:xlink="http://www.w3.org/1999/xlink" x="0px" y="0px"
	 width="180px" height="180px" viewBox="0 0 180 180" enable-background="new 0 0 180 180" xml:space="preserve">
<path fill-rule="evenodd" clip-rule="evenodd" d="M0.59,152.577c2.08-14.025,9.335-27.044,7.961-42.136
	c9.792,7.417,12.95,19.593,20.669,29.416c-1.174-6.314-2.581-11.545-3.046-16.86c-0.97-11.094,3.536-20.825,7.878-30.657
	c3.896-8.822,7.284-17.904,10.326-27.066c1.122-3.376,0.615-7.31,0.904-11.813c6.142,13.002,7.669,27.406,17.297,38.161
	c-0.292-4.899-1.645-9.755-0.585-13.99c1.619-6.474,4.329-12.854,7.63-18.655c3.681-6.466,8.599-12.2,12.877-18.325
	c10.306-14.755,12.05-22.958,8.689-40.185c6.45,4.127,19.786,25.017,24.764,38.791c5.527,15.297,5.563,25.229-0.052,46.765
	c10.695-11.958,11.062-27.582,17.71-41.607c0.248,4.068,0.273,7.134,0.646,10.157c1.389,11.26,6.654,21.081,11.431,31.067
	c4.616,9.651,9.564,19.338,9.443,30.314c-0.08,7.193-1.777,14.366-2.719,21.323c9.729-1.076,16.704-14.806,16.007-34.103
	c5.023,8.22,8.256,16.456,9.799,25.391c0.183,1.061,0.554,2.09,0.837,3.133c0,3.62,0,7.24,0,10.857
	c-0.28,0.729-0.68,1.433-0.822,2.188c-2.682,14.212-10.284,24.688-23.278,30.702c-4.041,1.871-8.591,2.605-12.909,3.858
	c-1.096,0-2.192,0-3.289,0c1.077-1.038,2.086-2.162,3.243-3.097c5.574-4.505,10.02-9.968,12.627-16.681
	c1.479-3.806,2.085-7.961,3.085-11.96c-0.429-0.186-0.856-0.373-1.283-0.562c-6.469,11.879-16.396,17.429-30.246,17.354
	c11.535-20.264,1.724-37.283-6.531-55.412c-7.208,22.573-13.795,34.824-20.186,37.927c9.865-22.766,1.021-40.399-12.104-59.867
	c2.322,12.195-3.091,20.279-10.078,27.788c-5.347,5.745-7.847,12.613-6.985,20.591c0.286,2.642,0.594,5.285,1.022,9.092
	c-7.883-11.581-13.313-23.694-24.393-31.229c-1.022,5.767-1.212,11.616-3.152,16.787c-4.065,10.84-5.104,21.511-1.352,32.547
	c0.059,0.174-0.195,0.455-0.482,1.067c-10.374-1.846-18.936-6.188-23.004-18.008c-5.069,11.807-3.119,21.964,2.909,32.199
	c-1.155-0.241-1.815-0.29-2.409-0.514c-9.975-3.777-17.341-9.937-18.849-21.407C0.59,154.805,0.59,153.688,0.59,152.577z"/>
</svg>
