<?xml version="1.0" encoding="UTF-8" standalone="no"?>
<!-- Generator: Adobe Illustrator 15.0.0, SVG Export Plug-In . SVG Version: 6.00 Build 0)  -->

<svg
   xmlns:dc="http://purl.org/dc/elements/1.1/"
   xmlns:cc="http://creativecommons.org/ns#"
   xmlns:rdf="http://www.w3.org/1999/02/22-rdf-syntax-ns#"
   xmlns:svg="http://www.w3.org/2000/svg"
   xmlns="http://www.w3.org/2000/svg"
   xmlns:sodipodi="http://sodipodi.sourceforge.net/DTD/sodipodi-0.dtd"
   xmlns:inkscape="http://www.inkscape.org/namespaces/inkscape"
   version="1.1"
   id="eye"
   x="0px"
   y="0px"
   width="180"
   height="180"
   viewBox="0 0 180 180"
   enable-background="new 0 0 512 512"
   xml:space="preserve"
   inkscape:version="0.48.3.1 r9886"
   sodipodi:docname="eye.svg"><metadata
   id="metadata3071"><rdf:RDF><cc:Work
       rdf:about=""><dc:format>image/svg+xml</dc:format><dc:type
         rdf:resource="http://purl.org/dc/dcmitype/StillImage" /><dc:title /></cc:Work></rdf:RDF></metadata><defs
   id="defs3069" /><sodipodi:namedview
   pagecolor="#ffffff"
   bordercolor="#666666"
   borderopacity="1"
   objecttolerance="10"
   gridtolerance="10"
   guidetolerance="10"
   inkscape:pageopacity="0"
   inkscape:pageshadow="2"
   inkscape:window-width="1635"
   inkscape:window-height="1081"
   id="namedview3067"
   showgrid="false"
   showguides="true"
   inkscape:guide-bbox="true"
   inkscape:zoom="4.7777778"
   inkscape:cx="90"
   inkscape:cy="90"
   inkscape:window-x="0"
   inkscape:window-y="31"
   inkscape:window-maximized="0"
   inkscape:current-layer="eye" />
<g
   id="g3061"
   transform="matrix(0.34925174,0,0,0.34925174,0.68739186,1.1114768)">
	<path
   d="M 90.0625 33.90625 C 85.01686 33.91576 79.953985 34.423078 74.90625 35.40625 C 64.98331 37.33266 55.447131 41.337688 46.5 46.3125 C 32.494307 54.105232 19.702932 64.857921 8.5625 76.90625 C 6.4987715 79.135786 4.4348386 81.398881 2.5625 83.8125 C 0.066397814 87.039282 0.066397814 90.866587 2.5625 94.09375 C 8.2706704 101.45442 15.064742 108.01121 21.96875 114 C 36.836396 126.89914 53.823914 137.68286 72.59375 142.03125 C 78.398663 143.37156 84.230345 144.00608 90.0625 144 C 95.966251 144.00685 101.75829 143.37232 107.5625 142.03125 C 126.33269 137.68286 143.38235 126.89914 158.25 114 C 165.15401 108.01159 171.91683 101.45403 177.625 94.09375 C 180.12075 90.867345 180.12075 87.040044 177.625 83.8125 C 175.75231 81.3985 173.68838 79.136166 171.625 76.90625 C 160.48492 64.857543 147.69215 54.105613 133.6875 46.3125 C 124.74037 41.337688 115.17329 37.333038 105.25 35.40625 C 100.20226 34.422698 95.251333 33.916139 90.0625 33.90625 z M 90.0625 54.84375 C 109.20464 54.880072 124.40625 70.299069 124.40625 89.28125 C 124.4066 108.27216 109.20464 123.65013 90.0625 123.6875 C 71.086256 123.65118 55.71875 108.27251 55.71875 89.28125 C 55.71875 70.299069 71.086256 54.880418 90.0625 54.84375 z M 90.0625 75.9375 C 82.707258 75.9375 76.75 81.896155 76.75 89.25 C 76.75 96.608036 82.707608 102.5625 90.0625 102.5625 C 97.417043 102.5625 103.375 96.608036 103.375 89.25 C 103.375 81.896155 97.416694 75.9375 90.0625 75.9375 z "
   transform="matrix(2.8632642,0,0,2.8632642,-1.9681845,-3.1824517)"
   id="path3080" />
	
</g>
</svg>