<?xml version="1.0" encoding="UTF-8" standalone="no"?>
<!-- Created with Inkscape (http://www.inkscape.org/) -->

<svg
   xmlns:dc="http://purl.org/dc/elements/1.1/"
   xmlns:cc="http://creativecommons.org/ns#"
   xmlns:rdf="http://www.w3.org/1999/02/22-rdf-syntax-ns#"
   xmlns:svg="http://www.w3.org/2000/svg"
   xmlns="http://www.w3.org/2000/svg"
   xmlns:sodipodi="http://sodipodi.sourceforge.net/DTD/sodipodi-0.dtd"
   xmlns:inkscape="http://www.inkscape.org/namespaces/inkscape"
   width="180"
   height="180"
   id="happy_face"
   version="1.1"
   inkscape:version="0.48.3.1 r9886"
   sodipodi:docname="happy_face.svg">
  <defs
     id="defs4" />
  <sodipodi:namedview
     id="base"
     pagecolor="#ffffff"
     bordercolor="#666666"
     borderopacity="1.0"
     inkscape:pageopacity="0.0"
     inkscape:pageshadow="2"
     inkscape:zoom="2.6129032"
     inkscape:cx="43.17284"
     inkscape:cy="47.488925"
     inkscape:document-units="px"
     inkscape:current-layer="layer1"
     showgrid="false"
     inkscape:window-width="1548"
     inkscape:window-height="1031"
     inkscape:window-x="206"
     inkscape:window-y="95"
     inkscape:window-maximized="0"
     showguides="true"
     inkscape:guide-bbox="true" />
  <metadata
     id="metadata7">
    <rdf:RDF>
      <cc:Work
         rdf:about="">
        <dc:format>image/svg+xml</dc:format>
        <dc:type
           rdf:resource="http://purl.org/dc/dcmitype/StillImage" />
        <dc:title></dc:title>
      </cc:Work>
    </rdf:RDF>
  </metadata>
  <g
     inkscape:label="Layer 1"
     inkscape:groupmode="layer"
     id="layer1"
     transform="translate(0,-872.36218)">
    <path
       style="fill:#000000;fill-opacity:1;stroke:none"
       d="m 178.71875,90.25 c 0,48.72038 -39.662,88.21875 -88.59375,88.21875 -48.931749,0 -88.59375,-39.49837 -88.59375,-88.21875 0,-48.720375 39.662001,-88.21875 88.59375,-88.21875 48.93175,0 88.59375,39.498375 88.59375,88.21875 z M 40.5625,59.25 c 0,13.210515 7.625363,23.9375 17.03125,23.9375 9.405887,0 17.03125,-10.726985 17.03125,-23.9375 0,-13.210515 -7.625363,-23.90625 -17.03125,-23.90625 -9.405887,0 -17.03125,10.695735 -17.03125,23.90625 z m 61.0625,1.71875 c 0,13.210515 7.62536,23.9375 17.03125,23.9375 9.40589,0 17.03125,-10.726985 17.03125,-23.9375 0,-13.210515 -7.62536,-23.90625 -17.03125,-23.90625 -9.40589,0 -17.03125,10.695735 -17.03125,23.90625 z M 24,105 l 6,8 5,-4 c 2.78948,7.42975 19.685818,35.30294 35,42 17.283123,7.5581 31.56056,3.2842 45,-6 11.88967,-8.21332 25.35951,-27.88366 27,-33 l 5,3 6,-7 -19,-14 -5,8 5,3 c -0.90244,1.9851 -13.56091,21.7863 -23,30 -11.40067,7.8231 -24.149344,13.2012 -39,7 -13.633563,-5.69298 -27.920457,-33.72715 -30,-39 l 6,-4 -6,-7 z"
       id="path3884"
       inkscape:connector-curvature="0"
       transform="translate(0,872.36218)"
       sodipodi:nodetypes="ssssssssssssssscccsccccccccscccc" />
  </g>
</svg>
