<?xml version="1.0" encoding="utf-8"?>
<!-- Generator: Adobe Illustrator 17.0.0, SVG Export Plug-In . SVG Version: 6.00 Build 0)  -->
<!DOCTYPE svg PUBLIC "-//W3C//DTD SVG 1.1//EN" "http://www.w3.org/Graphics/SVG/1.1/DTD/svg11.dtd">
<svg version="1.1"
	 id="happy_face" sodipodi:docname="happy_face.svg" inkscape:version="0.48.3.1 r9886" xmlns:sodipodi="http://sodipodi.sourceforge.net/DTD/sodipodi-0.dtd" xmlns:inkscape="http://www.inkscape.org/namespaces/inkscape" xmlns:cc="http://creativecommons.org/ns#" xmlns:svg="http://www.w3.org/2000/svg" xmlns:rdf="http://www.w3.org/1999/02/22-rdf-syntax-ns#" xmlns:dc="http://purl.org/dc/elements/1.1/"
	 xmlns="http://www.w3.org/2000/svg" xmlns:xlink="http://www.w3.org/1999/xlink" x="0px" y="0px" width="180px" height="180px"
	 viewBox="0 0 180 180" enable-background="new 0 0 180 180" xml:space="preserve">
<g id="layer1" transform="translate(0,-872.36218)" inkscape:label="Layer 1" inkscape:groupmode="layer">
	<path id="path3884" inkscape:connector-curvature="0" sodipodi:nodetypes="ssssssssssssssscccsccccccccscccc" d="M178.719,962.612
		c0,113.856-177.188,113.856-177.188,0S178.719,848.756,178.719,962.612z M40.563,931.612c0,29.717,34.063,29.717,34.063,0
		C74.625,901.926,40.563,901.926,40.563,931.612z M101.625,933.331c0,29.717,34.063,29.717,34.063,0
		C135.688,903.645,101.625,903.645,101.625,933.331z M24,977.362l6,8l5-4c2.789,7.43,19.686,35.303,35,42
		c17.283,7.558,31.561,3.284,45-6c11.89-8.213,25.36-27.884,27-33l5,3l6-7l-19-14l-5,8l5,3c-0.902,1.985-13.561,21.786-23,30
		c-11.401,7.823-24.149,13.201-39,7c-13.634-5.693-27.92-33.727-30-39l6-4l-6-7L24,977.362z"/>
</g>
</svg>
