<?xml version="1.0" encoding="utf-8"?>
<!-- Generator: Adobe Illustrator 17.0.0, SVG Export Plug-In . SVG Version: 6.00 Build 0)  -->
<!DOCTYPE svg PUBLIC "-//W3C//DTD SVG 1.1//EN" "http://www.w3.org/Graphics/SVG/1.1/DTD/svg11.dtd">
<svg version="1.1"
	 id="legstep" sodipodi:docname="goldenLegstep.svg" inkscape:version="0.48.4 r9939" xmlns:sodipodi="http://sodipodi.sourceforge.net/DTD/sodipodi-0.dtd" xmlns:inkscape="http://www.inkscape.org/namespaces/inkscape" xmlns:cc="http://creativecommons.org/ns#" xmlns:svg="http://www.w3.org/2000/svg" xmlns:rdf="http://www.w3.org/1999/02/22-rdf-syntax-ns#" xmlns:dc="http://purl.org/dc/elements/1.1/"
	 xmlns="http://www.w3.org/2000/svg" xmlns:xlink="http://www.w3.org/1999/xlink" x="0px" y="0px" width="180px" height="180px"
	 viewBox="0 0 180 180" enable-background="new 0 0 180 180" xml:space="preserve">
<path d="M66.831,115.153c-4.421-0.347-2.301,3.91-1.394,6.211c1.984,5.038,1.993,10.505,1.141,15.782
	c-0.944,5.853-2.498,11.634-3.739,17.43c-0.69,3.223,5.506,4.969,7.947,5.931c3.94,1.553,8.1,1.662,12.221,2.365
	c5.375,0.917,9.971,4.259,14.911,6.374c1.852,0.793,3.92,1.747,5.927,2.062c1.636,0.263,1.669-3.268,2.092-4.373
	c0.908-2.358,2.003-4.638,3.106-6.908c-0.818-0.549-3.628-2.81-4.563-1.458c-2.382,3.452-4.749-1.136-5.284-2.745
	c-0.543-1.633-1.935-2.614-3.526-3.086c-2.244-0.648-0.889,0.455-2.36,1.56c-2.672,2.006-7.14-3.294-5.563-5.679
	c0.971-1.468,3.544-6.877,0.343-8.029c-1.006-0.362-1.91,1.439-3.061,0.822c-0.964-0.517-1.302-3.166-1.528-4.074
	c-1.138-4.602,4.815-1.519,5.07-4.817c0.37-4.758-6.802,1.044-6.477-4.127c0.302-4.808,2.557-2.903,5.146-3.415
	c-1.526-5.438-4.417-3.347-9.57-4.88c-2.122-0.631-4.184-1.445-6.212-2.327C70.367,117.295,67.984,115.244,66.831,115.153
	L66.831,115.153z M72.282,132.076c7.532-1.675,10.38,14.598,1.729,15.602C64.124,148.825,66.323,135.851,72.282,132.076z
	 M103.719,176.433c-7.728-2.507-15.021-6.525-23.029-8.028c-3.07-0.576-19.998-3.661-18.482-8.833
	c0.296-1.012,11.262,3.967,13.009,4.482c1.408,0.695,4.377-0.104,9.596,1.32c2.75,0.75,12.793,5.113,17.136,7.52
	c1.783,0.989,2.325,1.854,4.506,1.869c1.578,0.01,0.806-4.936,1.045-5.928c0.617-2.557,4.484-13.085,8.455-11.086
	c2.995,1.683,5.985,3.377,8.968,5.081c2.048,1.17,5.515,2.356,6.941,4.891c2.574,6.59-6.149,8.814-9.812,9.737
	C115.498,179.109,110.134,177.75,103.719,176.433L103.719,176.433z M90.706,148.268c2.259-1.018,4.324-2.391,6.478-3.6
	c0.582-0.327,1.099-0.544,1.694,0.047c0.927,0.919,0.982,1.556-0.053,2.373c-1.103,0.872-2.288,1.635-3.422,2.466
	c-0.781,0.574-1.537,1.182-2.298,1.783c-0.813,0.643-1.773,0.562-2.32-0.286c-0.367-0.568-0.57-1.229-0.677-1.904
	C90.039,148.669,90.321,148.442,90.706,148.268z M94.308,135.263c0.649-0.016,1.109,0.357,1.558,0.694
	c0.606,0.454,0.402,1.148,0.292,1.758c-0.107,0.596-0.625,0.483-1.051,0.505c-2.513,0.126-5.028,0.229-7.539,0.395
	c-1.042,0.071-1.633-0.491-2.085-1.278c-0.499-0.866-0.268-1.328,0.74-1.497c2.004-0.337,4.01-0.665,6.383-0.657
	C92.953,135.204,93.633,135.281,94.308,135.263z M95.632,142.041c0.46,1.389,0.373,1.623-0.884,2.29
	c-0.771,0.408-1.6,0.714-2.27,1.298c-0.398,0.347-0.686,0.231-0.921-0.207c-0.647-1.207-1.022-2.517-1.328-3.835
	c-0.193-0.83,0.203-1.227,1.105-1.328c0.58-0.065,1.164-0.075,1.422-0.089C95.006,140.151,95.006,140.151,95.632,142.041z
	 M100.989,155.121c0.134-0.404,0.391-0.783,0.663-1.118c1.036-1.278,2.099-2.535,3.158-3.797c0.124-0.146,0.264-0.288,0.42-0.4
	c0.493-0.353,0.976-0.31,1.479,0.024c0.479,0.316,0.61,0.734,0.44,1.247c-0.422,1.276-0.708,2.6-1.994,3.422
	c-0.724,0.462-1.304,1.154-1.929,1.762c-0.29,0.282-0.578,0.515-0.971,0.469C101.2,156.756,100.66,156.087,100.989,155.121z
	 M89.501,125.066c-0.799,0.14-1.063-0.258-1.255-0.99c-0.653-2.476-0.69-2.48,1.728-3.172c0.832-0.237,1.618-0.639,2.517-0.637
	c0.576,0.002,0.901,0.152,0.901,0.811c0,0.957-0.097,1.921,0.231,2.87c0.164,0.475-0.11,0.894-0.659,0.886
	c-0.971-0.016-1.909,0.339-2.756,0.225C89.886,125.059,89.688,125.031,89.501,125.066z M89.678,128.386
	c-1.491,0.059-2.994,0.057-4.462,0.414c-0.675,0.164-1.209-0.166-1.349-0.761c-0.142-0.608,0.292-1.18,1.047-1.247
	c1.692-0.15,3.385-0.278,5.081-0.361c1.069-0.053,2.142-0.022,3.213-0.008c1.503,0.02,1.543,0.071,1.687,1.943
	C93.073,128.365,91.371,128.313,89.678,128.386z M106.157,156.581c-0.292-0.211-0.258-0.493-0.028-0.748
	c0.128-0.142,0.28-0.266,0.402-0.414c1.767-2.128,2.237-2.176,4.413-0.45c0.491,0.389,0.933,1.566,0.765,2.042
	c-0.278,0.787-1.15,1.468-1.939,1.401C108.54,158.036,107.296,157.405,106.157,156.581z M97.78,152.055
	c-1.531-0.961-1.525-0.974-0.061-2.006c0.637-0.448,1.278-0.892,1.921-1.33c0.197-0.132,0.44-0.363,0.653-0.181
	c0.663,0.566,1.294,1.17,1.917,1.781c0.158,0.156,0.049,0.365-0.065,0.531c-0.44,0.643-0.892,1.278-1.318,1.929
	c-0.256,0.391-0.602,0.45-0.823,0.404C98.983,153.065,98.433,152.462,97.78,152.055z M93.955,132.408
	c0.055,0.631,0.006,1.142-0.827,1.235c-0.811,0.091-1.604,0.355-2.416,0.456c-0.769,0.097-1.148-0.227-1.324-1.02
	c-0.063-0.28-0.067-0.576-0.069-0.866c-0.016-1.781,0.262-2.055,1.998-1.984c0.146,0.006,0.29,0.02,0.436,0.03
	C93.764,130.394,93.777,130.404,93.955,132.408z M79.259,20.375c0.038-2.372-3.741-1.756-2.467,1.774
	c1.407,3.897,0.46,9.176,5.39,11.076c3.971,1.512,7.904-0.124,1.943-1.209C79.541,31.18,79.211,23.798,79.259,20.375
	C79.285,18.734,79.253,20.809,79.259,20.375z M77.241,45.962c-0.595-4.508-2.048-8.847-3.865-13
	c-0.525-1.199-4.512-5.219-3.319-1.999c3.228,8.544,5.927,16.281,5.625,25.604c-0.158,4.871-1.025,9.68-2.362,14.358
	c-0.224,0.782-1.673,9.375-0.281,6.55C77.731,68.001,78.615,56.308,77.241,45.962C76.539,40.645,77.594,48.619,77.241,45.962z
	 M90.596,67.64c-0.176,12.306-0.533,24.588-0.393,36.898c0.034,2.953,2.221,14.17-1.893,14.385
	c-6.454,0.333-11.303-1.133-17.286-3.557c-2.289-0.933-1.471-10.733-2.051-13.205c-1.513-6.441-4.629-12.017-7.688-17.81
	c-5.619-10.647-12.494-20.41-14.145-32.696C45.434,38.927,49.067,28.9,57.831,19.779C64.584,12.706,64.66,4.107,75.88,1.785
	c9.356-1.938,14.823,19.495,15.148,25.969C91.701,40.909,90.78,54.456,90.596,67.64z"/>
</svg>
