<?xml version="1.0" encoding="utf-8"?>
<!-- Generator: Adobe Illustrator 17.0.0, SVG Export Plug-In . SVG Version: 6.00 Build 0)  -->
<!DOCTYPE svg PUBLIC "-//W3C//DTD SVG 1.1//EN" "http://www.w3.org/Graphics/SVG/1.1/DTD/svg11.dtd">
<svg version="1.1" id="MagicMushroom" xmlns="http://www.w3.org/2000/svg" xmlns:xlink="http://www.w3.org/1999/xlink" x="0px"
	 y="0px" width="180px" height="180px" viewBox="0 0 180 180" enable-background="new 0 0 180 180" xml:space="preserve">
<g>
	<path id="bottom" d="M82.469,95.188c-0.722,0.269-13.609,2.219-13.718-1.019C67.875,90,81.863,89.963,82.974,80.823
		C67.819,84.134,18.4,101.612,7.469,84.525c-7.691-12.022,21.004-55.092,34.174-55.533c2.691,0.092-3.297,8.524-2.72,13.563
		c6.78-4.459,7.563-16.637,15.604-16.789c-0.727,0.059,7.478,52.073-18.833,45.887c-3.11-0.819,6.14-13.736,3.527-14.563
		c-5.803-1.923-7.137,16.494-11.145,16.542c-2.992,0.952-0.492-10.881-2.934-11.332c-6.224,4.033-5.224,17.533-10.558,17.7
		c1.388,13.182,60.642-2.286,66.17-3.512c4.121,0.012-3.215-4.223-3.936-6.648c4.301-7.635,22.777-13.371,32.393-10.01
		c1.289,2.045-2.898,4.056-1.539,7.604c18.511-7.505,37.393-14.046,51.926-29.554c-12.195-4.139-25.386-16.142-25.741-25.551
		c2.083-2.287,16.823,2.435,19.893,8.351c-1.07,2.668-6.167-3.462-9.5-0.68c-6.542,12.674,34.416,0.939,27.234,15.757
		c-9.42,19.426-43.775,29.07-62.254,36.228c-1.729,0.39,0.796,3.41,0.31,5.528c5.144-0.79,14.341-2.388,15.364-0.574
		c0.941,0.839-12.091,8.299-13.044,9.013c-1.838,8.475,1.324,19.126,0.457,27.99c-1.202,12.285-3.922,23.259,3.962,34.182
		c4.436,6.147,12.426,16.381,3.4,22.351c-11.594,7.67-51.805,18.137-52.744-5.913c-0.949-24.28,16.97-68.42,16.124-69.686"/>
	<path id="a" d="M78.127,56.147c-2.772-4.48,1.956-11.564-0.735-11.714C71.275,44.552,72.1,62.23,58.943,63.435
		c-7.593,0,14.533-36.542,16.575-39.536c3.452-5.061,9.445-3.912,11.803,1.732c2.73,6.536,4.025,13.517,5.846,20.325
		C94.629,51.422,82.218,59.59,78.127,56.147C75.355,51.667,79.833,57.583,78.127,56.147z M77.583,38.417
		c6.25,0.333,4.417-10.042,2.174-9.861C77.25,27.743,72.667,39.333,77.583,38.417z"/>
	<path id="g" d="M114.583,23.667c-2.621,0.969-4.137-1.23-6.917,0.083c-2.465,2.584-2.498,8.502-1.167,11
		c1.101,2.066,7.333,0.667,8.103-3.246c-0.103-2.837-6.686,2.329-5.019-1.837c6.917-7.833,14.297-0.5,18.197,11.506
		c0,3.853-26.644,10.397-29.769,5.23c-3.71-6.134,0.454-31.541,10.847-28.89C115.406,19.184,117.75,21.75,114.583,23.667
		C111.962,24.636,117.75,21.75,114.583,23.667z"/>
	<path id="top" d="M112.447,5.928c-21.106,2.271-47.644,7.696-65.963,18.471C61.815,1.151,88.759-4.147,112.447,5.928z"/>
	<path id="i" d="M127.333,16c8.174,6.78,15.083,16.509,16.5,20c0,5.573-11.076,5.006-13.237,1.093
		c-3.365-6.096-5.533-12.776-6.715-19.623C123.881,14.417,126.071,15.018,127.333,16C135.507,22.78,126.071,15.018,127.333,16z"/>
</g>
</svg>
