<?xml version="1.0" encoding="utf-8"?>
<!-- Generator: Adobe Illustrator 17.0.0, SVG Export Plug-In . SVG Version: 6.00 Build 0)  -->
<!DOCTYPE svg PUBLIC "-//W3C//DTD SVG 1.1//EN" "http://www.w3.org/Graphics/SVG/1.1/DTD/svg11.dtd">
<svg version="1.1"
	 id="peace_fingers" sodipodi:docname="peace_fingers.svg" inkscape:version="0.48.3.1 r9886" xmlns:sodipodi="http://sodipodi.sourceforge.net/DTD/sodipodi-0.dtd" xmlns:inkscape="http://www.inkscape.org/namespaces/inkscape" xmlns:cc="http://creativecommons.org/ns#" xmlns:svg="http://www.w3.org/2000/svg" xmlns:rdf="http://www.w3.org/1999/02/22-rdf-syntax-ns#" xmlns:dc="http://purl.org/dc/elements/1.1/"
	 xmlns="http://www.w3.org/2000/svg" xmlns:xlink="http://www.w3.org/1999/xlink" x="0px" y="0px" width="180px" height="180px"
	 viewBox="0 0 180 180" enable-background="new 0 0 180 180" xml:space="preserve">
<path d="M90.593,4.617c5.93,23.794,14.066,53.971,19.662,77.845c-2.939,1.428-6.866-1.669-13.279-2.513
	c-5.002-1.783-9.743-1.551-13.368-1.455C79.415,54.745,73.125,37.25,72.65,7.34C72.599,4.116,87.267,2.807,90.593,4.617z"/>
<path d="M170.217,12.597c-0.972,19.475-25.885,65.783-32.121,83.638c-2.888,3.567-2.077-4.708-8.301-7.887
	c-5.546-2.832-10.911-3.7-14.457-5.538c2.713-15.974,31.427-59.203,39.029-73.999C156.777,3.81,170.427,8.401,170.217,12.597
	L170.217,12.597z"/>
<path d="M68.199,69.546c0.973,5.685,3.797,9.774-2.309,14.102c-1.255,2.099-3.822,2.782-4.257,6.285
	c-0.972,7.831,0.782,8.358,6.14,9.264c3.475,0.006,4.478,1.394,5.751,4.225c2.078,4.624,6.122,8.907-1.948,10.222
	c-6.872-0.265-11.329-1.063-17.395-5.267C49.71,94.922,40.474,68.092,41.149,63.265c4.753-7.491,21.754-5.694,23.5-4.469
	C66.955,64.235,67.426,65.959,68.199,69.546z"/>
<path d="M40.781,85.094c3.053,8.626,9.929,19.905,9.281,25.844c-5.687,2.592-13.045,8.049-17.507-1.065
	c-4.606-9.248-18.08-27.341-17.868-33.123c3.245-5.345,14.998-7.724,20.726-5.929C38.495,73.888,38.993,80.336,40.781,85.094z"/>
<path d="M93.625,81.906c11.404,3.827,26.386,6.801,34.219,11.469c4.757,3.466,19.217,37.329,19.406,43.063
	c-3.328,12.937-11.737,26.652-17.625,39.969c-11.171,0.988-22.407,2.518-33.563,2.875c-3.355-7.666-9.387-18.214-9.844-23.094
	c1.979-5.222,15.231-14.682,25.656-20.625c-0.356-8.893-5.598-20.563-2.25-26.469c-6.627-4.081-13.288-8.464-20.155-12.003
	c-8.727-0.663-22.64,0.98-23.604-2.609c-1.43-6.491-0.374-5.93,6.036-7.654C76.94,85.207,79.06,80.267,93.625,81.906z"/>
<path d="M67.489,116.734c5.255,1.321,21.036,3.205,21.329,10.91c-2.796,6.441-15.08,16.086-19.13,18.603
	c-1.045,3.445-2.311,9.414,0.741,10.731c3.126,0.934,6.883,1.018,9.624,2.503c3.335,6.6,6.751,13.158,10.008,19.801
	c-13.326-0.337-36.656,0.672-44.499-13.54c-3.205-5.808-4.007-14.524-6.048-20.97c-2.056-6.49-5.969-15.457-4.088-22.442
	C42.149,113.537,58.629,115.113,67.489,116.734C72.434,117.978,64.032,116.102,67.489,116.734z"/>
</svg>
