<?xml version="1.0" encoding="UTF-8" standalone="no"?>
<!-- Created with Inkscape (http://www.inkscape.org/) -->

<svg
   xmlns:dc="http://purl.org/dc/elements/1.1/"
   xmlns:cc="http://creativecommons.org/ns#"
   xmlns:rdf="http://www.w3.org/1999/02/22-rdf-syntax-ns#"
   xmlns:svg="http://www.w3.org/2000/svg"
   xmlns="http://www.w3.org/2000/svg"
   xmlns:sodipodi="http://sodipodi.sourceforge.net/DTD/sodipodi-0.dtd"
   xmlns:inkscape="http://www.inkscape.org/namespaces/inkscape"
   width="180"
   height="180"
   id="peace_fingers"
   version="1.1"
   inkscape:version="0.48.3.1 r9886"
   sodipodi:docname="peace_fingers.svg">
  <defs
     id="defs3108" />
  <sodipodi:namedview
     id="base"
     pagecolor="#ffffff"
     bordercolor="#666666"
     borderopacity="1.0"
     inkscape:pageopacity="0.0"
     inkscape:pageshadow="2"
     inkscape:zoom="4.2555556"
     inkscape:cx="90"
     inkscape:cy="90"
     inkscape:document-units="px"
     inkscape:current-layer="layer1"
     showgrid="false"
     inkscape:window-width="1272"
     inkscape:window-height="987"
     inkscape:window-x="320"
     inkscape:window-y="64"
     inkscape:window-maximized="0" />
  <metadata
     id="metadata3111">
    <rdf:RDF>
      <cc:Work
         rdf:about="">
        <dc:format>image/svg+xml</dc:format>
        <dc:type
           rdf:resource="http://purl.org/dc/dcmitype/StillImage" />
        <dc:title></dc:title>
      </cc:Work>
    </rdf:RDF>
  </metadata>
  <g
     inkscape:groupmode="layer"
     id="layer1"
     inkscape:label="Layer">
    <path
       style="fill:#000000"
       d="M 90.592526,4.6173303 C 96.522437,28.410945 104.65822,58.587981 110.25491,82.461977 107.31598,83.889564 103.38842,80.792903 96.97621,79.949361 91.973918,78.165871 87.233368,78.398371 83.608385,78.494722 79.415073,54.744558 76.383312,31.215177 72.649872,7.3400902 75.466172,5.769185 87.266716,2.8074121 90.592526,4.6173303 z M 170.2172,12.597422 c -0.97177,19.474612 -25.88517,65.78348 -32.12086,83.638339 -2.88807,3.567042 -2.62637,-3.807389 -8.3009,-7.887037 -5.90952,-1.964766 -10.91124,-3.699653 -14.45668,-5.53758 2.71343,-15.974281 31.42679,-59.202703 39.02857,-73.998644 2.40923,-5.0027142 16.05925,-0.4110861 15.84987,3.784922 z M 68.198842,69.546263 c 0.972875,5.685401 3.796953,9.774092 -2.308705,14.101642 -1.25491,2.098723 -3.82202,2.782256 -4.256714,6.284635 -0.971952,7.83113 0.782018,8.35811 6.139547,9.263675 3.474949,0.0058 4.478301,1.393575 5.750937,4.225045 2.07836,4.62412 6.122439,8.90724 -1.947818,10.22202 C 64.703612,113.37855 60.247376,112.5806 54.180903,108.37596 49.709762,94.922015 40.474448,68.092355 41.148907,63.265013 c 4.752537,-7.49095 21.753541,-5.69407 23.5,-4.46875 2.306541,5.438375 2.777113,7.163049 3.549935,10.75 z M 40.78125,85.09375 c 3.053353,8.626484 9.928661,19.90451 9.28125,25.84375 -5.687235,2.59242 -13.045121,8.04938 -17.507427,-1.06489 C 27.949181,100.62433 14.474797,82.531791 14.6875,76.75 c 3.244523,-5.344568 14.998395,-7.72361 20.725814,-5.9293 3.081677,3.066885 3.57966,9.515636 5.367936,14.27305 z M 93.625,81.90625 c 11.40441,3.82749 26.38563,6.801084 34.21875,11.46875 4.75694,3.466311 19.21658,37.32917 19.40625,43.0625 -3.32813,12.93724 -11.73672,26.65245 -17.625,39.96875 -11.17093,0.98817 -22.4067,2.5181 -33.5625,2.875 -3.355455,-7.66585 -9.3866,-18.2139 -9.84375,-23.09375 1.97887,-5.2221 15.23071,-14.68194 25.65625,-20.625 0.68253,-8.82458 -2.57696,-17.89039 -2.25,-26.46875 -6.6271,-4.0807 -13.288301,-8.46408 -20.154993,-12.002582 -8.72737,-0.663457 -22.640001,0.979575 -23.6039,-2.608629 -1.429708,-6.490551 -0.373533,-5.930215 6.036061,-7.653526 5.038158,-1.622141 7.157464,-6.56212 21.722832,-4.922763 z m -27.383894,34.12378 c 5.218,1.25712 8.029561,1.99892 14.67497,4.01584 3.23794,2.02556 7.650814,2.40621 7.833924,7.01663 -2.950387,6.51312 -15.913809,16.26701 -20.1875,18.8125 -1.102545,3.48414 -2.439142,9.52043 0.782396,10.85141 3.298843,0.94457 7.263258,1.02989 10.15613,2.53134 3.519865,6.67476 7.124308,13.30582 10.561474,20.0235 C 79.88751,179.03491 69.660121,177.33029 59.46875,176.5 50.968741,173.73665 41.750946,168.85963 41.227026,159.19691 38.286424,146.69457 30.201092,129.5368 32.40625,121.6875 c 2.539529,-3.18309 12.550637,-6.20926 20.305422,-7.10655 5.058115,-1.24022 9.881241,0.8094 13.529434,1.44908 z"
       id="path3176"
       inkscape:connector-curvature="0"
       sodipodi:nodetypes="ccccccsccccsccscsccccccccccccccccccccccccccccccccccc" />
  </g>
</svg>
