<?xml version="1.0" encoding="utf-8"?>
<!-- Generator: Adobe Illustrator 16.0.4, SVG Export Plug-In . SVG Version: 6.00 Build 0)  -->
<!DOCTYPE svg PUBLIC "-//W3C//DTD SVG 1.1//EN" "http://www.w3.org/Graphics/SVG/1.1/DTD/svg11.dtd">
<svg version="1.1" id="Layer_1" xmlns="http://www.w3.org/2000/svg" xmlns:xlink="http://www.w3.org/1999/xlink" x="0px" y="0px"
	 width="180px" height="180px" viewBox="0 0 180 180" enable-background="new 0 0 180 180" xml:space="preserve">
<path d="M86.608,1.902c2.548,0,5.097,0,7.644,0c0.133,0.031,0.264,0.075,0.398,0.088c3.207,0.325,6.434,0.53,9.621,0.989
	c9.119,1.314,17.787,4.131,26.008,8.259c13.104,6.579,23.924,15.904,32.713,27.605c4.166,5.543,7.469,11.565,10.139,17.974
	c4.051,9.724,6.061,19.838,6.316,30.335c0.004,0.19,0.057,0.379,0.086,0.568c0,1.113,0,2.226,0,3.339
	c-0.029,0.135-0.082,0.271-0.086,0.406c-0.1,5.772-0.775,11.479-1.963,17.126c-1.5,7.136-3.777,14.012-7.105,20.506
	c-4.629,9.031-10.639,17.054-17.977,24.069c-9.584,9.162-20.67,15.851-33.219,20.117c-8.443,2.87-17.131,4.424-26.037,4.751
	c-4.503,0.164-9.001,0.009-13.484-0.498c-4.492-0.509-8.952-1.194-13.333-2.339c-9.756-2.544-18.767-6.723-27.096-12.383
	c-9.681-6.58-17.837-14.688-24.345-24.433c-2.996-4.484-5.397-9.278-7.566-14.213c-4.059-9.236-6.274-18.878-6.77-28.935
	c-0.008-0.174-0.058-0.343-0.087-0.516c0-2.477,0-4.953,0-7.43c0.03-0.134,0.076-0.269,0.086-0.403
	c0.197-2.322,0.313-4.654,0.595-6.965c0.81-6.64,2.354-13.113,4.592-19.419c4.666-13.148,12.051-24.525,22.198-34.104
	c6.717-6.339,14.243-11.5,22.578-15.478c11.274-5.38,23.156-8.34,35.631-8.931C86.302,1.983,86.454,1.933,86.608,1.902z
	 M80.685,51.672c0.006,0,0.013,0,0.019,0c0-3.964,0.031-7.929-0.007-11.893c-0.056-5.793-0.158-11.586-0.255-17.379
	c-0.004-0.246-0.112-0.528-0.259-0.727c-1.081-1.453-2.598-2.034-4.312-1.708c-2.422,0.46-4.827,1.05-7.204,1.712
	c-4.488,1.25-8.75,3.108-12.857,5.27c-7.127,3.75-13.429,8.624-18.825,14.602c-12.904,14.297-19.25,31.055-18.624,50.363
	c0.183,5.619,1.278,11.103,2.799,16.501c1.757,6.237,4.342,12.101,8.045,17.445c0.481,0.695,1.114,1.112,1.952,1.176
	c0.444,0.033,0.896,0.02,1.34-0.015c1.453-0.111,2.769-0.585,3.831-1.607c3.372-3.246,6.748-6.492,10.091-9.77
	c4.741-4.646,9.454-9.322,14.177-13.987c1.89-1.864,3.772-3.738,5.665-5.601c4.68-4.606,9.366-9.207,14.04-13.819
	c0.148-0.146,0.264-0.388,0.284-0.596c0.075-0.82,0.147-1.645,0.147-2.467c-0.001-3.389-0.04-6.777-0.044-10.166
	C80.679,63.228,80.685,57.45,80.685,51.672z M99.223,51.47c0.025,0,0.049,0,0.072,0c0,0.574,0,1.147,0,1.721
	c0,4.917,0.004,9.833,0,14.75c-0.002,1.685-0.027,3.37-0.031,5.054c-0.002,0.879,0.033,1.758,0.027,2.637
	c-0.012,1.488-0.088,2.977-0.051,4.463c0.023,0.933,0.01,1.82,0.852,2.627c4.457,4.27,8.832,8.624,13.227,12.959
	c4.213,4.158,8.404,8.341,12.631,12.487c5.607,5.504,11.242,10.981,16.867,16.466c0.488,0.475,0.961,0.981,1.52,1.354
	c1.098,0.731,2.35,1.025,3.662,1.088c1.221,0.058,2.213-0.31,2.881-1.4c0.598-0.978,1.26-1.919,1.842-2.906
	c4.924-8.325,7.438-17.434,8.578-26.951c0.701-5.868,0.445-11.741-0.479-17.584c-1.131-7.155-3.33-13.966-6.588-20.43
	c-4.707-9.333-11.164-17.255-19.326-23.78c-3.623-2.896-7.463-5.473-11.629-7.523c-4.766-2.344-9.633-4.432-14.863-5.538
	c-1.436-0.304-2.84-0.771-4.283-1.004c-1.725-0.28-3.236,0.24-4.336,1.675c-0.152,0.198-0.266,0.479-0.271,0.725
	c-0.111,4.625-0.244,9.25-0.287,13.876C99.188,41.314,99.223,46.392,99.223,51.47z M99.223,108.818c0,0.333,0,0.522,0,0.713
	c0,3.14,0,6.278,0.002,9.419c0.01,8.218,0.01,16.436,0.041,24.654c0.016,3.676,0.049,7.354,0.191,11.027
	c0.039,0.985,0.418,1.992,0.814,2.916c0.359,0.838,1.117,1.262,2.092,1.229c2.016-0.068,4.002-0.317,5.957-0.811
	c4.57-1.152,8.912-2.916,13.15-4.953c3.596-1.727,7.084-3.633,10.232-6.102c1.342-1.052,1.734-3.318,0.928-4.821
	c-0.492-0.917-1.146-1.682-1.873-2.401c-5.307-5.249-10.594-10.518-15.922-15.743c-4.752-4.66-9.549-9.273-14.328-13.905
	C100.117,109.66,99.717,109.287,99.223,108.818z M80.704,108.83c-1.369,1.318-2.637,2.53-3.897,3.752
	c-4.917,4.771-9.855,9.521-14.74,14.323c-4.632,4.553-9.229,9.142-13.788,13.766c-0.758,0.769-1.384,1.732-1.37,2.94
	c0.016,1.474,0.366,2.759,1.714,3.603c0.652,0.409,1.243,0.914,1.888,1.336c5.706,3.729,11.861,6.509,18.323,8.633
	c2.805,0.922,5.679,1.489,8.64,1.596c1.188,0.044,2.003-0.512,2.382-1.554c0.345-0.947,0.653-1.967,0.674-2.962
	c0.122-5.451,0.167-10.903,0.203-16.355c0.022-3.408-0.024-6.816-0.027-10.226c-0.006-5.993-0.002-11.985-0.002-17.979
	C80.704,109.461,80.704,109.217,80.704,108.83z"/>
</svg>
