<?xml version="1.0" encoding="utf-8"?>
<!-- Generator: Adobe Illustrator 17.0.0, SVG Export Plug-In . SVG Version: 6.00 Build 0)  -->
<!DOCTYPE svg PUBLIC "-//W3C//DTD SVG 1.1//EN" "http://www.w3.org/Graphics/SVG/1.1/DTD/svg11.dtd">
<svg version="1.1"
	 id="peace_sign" sodipodi:docname="peace_symbol.svg" inkscape:version="0.48.3.1 r9886" xmlns:sodipodi="http://sodipodi.sourceforge.net/DTD/sodipodi-0.dtd" xmlns:inkscape="http://www.inkscape.org/namespaces/inkscape" xmlns:cc="http://creativecommons.org/ns#" xmlns:svg="http://www.w3.org/2000/svg" xmlns:rdf="http://www.w3.org/1999/02/22-rdf-syntax-ns#" xmlns:dc="http://purl.org/dc/elements/1.1/"
	 xmlns="http://www.w3.org/2000/svg" xmlns:xlink="http://www.w3.org/1999/xlink" x="0px" y="0px" width="180px" height="180px"
	 viewBox="0 0 180 180" enable-background="new 0 0 180 180" xml:space="preserve">
<path id="path3343" inkscape:connector-curvature="0" sodipodi:nodetypes="ccccccccccccccccccccccccccccc" d="M81.692,174.081
	c-34.251-2.85-66.586-26.479-76.797-59.787C-5.643,83.034,5.993,46.653,31.492,26.118C63.65-1.246,114.875-1.693,147.585,24.97
	c23.345,18.008,35.929,48.951,30.722,78.099c-5.338,35.169-35.607,63.43-70.126,69.632
	C99.489,174.422,90.512,174.478,81.692,174.081z M79.921,130.912c0-8.87,0-17.741,0-26.611
	C67.234,116.39,54.42,128.35,41.883,140.595c10.557,8.979,23.859,15.08,37.562,16.795C80.351,148.648,79.725,139.715,79.921,130.912
	L79.921,130.912z M137.985,141.064c-12.602-12.14-25.106-24.383-37.849-36.376c0,17.635,0,35.27,0,52.905
	C113.83,155.595,128.742,148.915,137.985,141.064z M162.119,85.023c-1.371-27.962-22.924-52.331-49.298-60.233
	c-4.629-0.766-13.087-4.755-12.682,0.038c0.01,16.856,0.019,35.907,0.029,52.762c17.009,16.246,33.868,32.651,51.052,48.711
	C159.01,115.384,162.836,96.182,162.119,85.023z M54.531,101.353c8.463-8.003,16.926-16.006,25.39-24.009
	c-0.119-18.192,0.293-36.401-0.309-54.579c-2.866-2.637-12.642,2.357-18.382,4.364C34.473,37.72,15.548,66.165,18.276,95.157
	c0.953,10.744,4.482,21.387,10.555,30.309C37.485,117.523,45.977,109.403,54.531,101.353z"/>
</svg>
