<?xml version="1.0" encoding="UTF-8" standalone="no"?>
<!-- Generator: Adobe Illustrator 16.0.4, SVG Export Plug-In . SVG Version: 6.00 Build 0)  -->

<svg
   xmlns:dc="http://purl.org/dc/elements/1.1/"
   xmlns:cc="http://creativecommons.org/ns#"
   xmlns:rdf="http://www.w3.org/1999/02/22-rdf-syntax-ns#"
   xmlns:svg="http://www.w3.org/2000/svg"
   xmlns="http://www.w3.org/2000/svg"
   xmlns:sodipodi="http://sodipodi.sourceforge.net/DTD/sodipodi-0.dtd"
   xmlns:inkscape="http://www.inkscape.org/namespaces/inkscape"
   version="1.1"
   id="peace_sign"
   x="0px"
   y="0px"
   width="180"
   height="180"
   viewBox="0 0 180 180"
   enable-background="new 0 0 180 180"
   xml:space="preserve"
   inkscape:version="0.48.3.1 r9886"
   sodipodi:docname="peace_symbol.svg"><metadata
   id="metadata3442"><rdf:RDF><cc:Work
       rdf:about=""><dc:format>image/svg+xml</dc:format></cc:Work></rdf:RDF></metadata><defs
   id="defs3440" /><sodipodi:namedview
   pagecolor="#ffffff"
   bordercolor="#666666"
   borderopacity="1"
   objecttolerance="10"
   gridtolerance="10"
   guidetolerance="10"
   inkscape:pageopacity="0"
   inkscape:pageshadow="2"
   inkscape:window-width="1516"
   inkscape:window-height="1041"
   id="namedview3438"
   showgrid="false"
   inkscape:zoom="4.5555556"
   inkscape:cx="90"
   inkscape:cy="90"
   inkscape:window-x="219"
   inkscape:window-y="102"
   inkscape:window-maximized="0"
   inkscape:current-layer="peace_sign" />

<path
   style="fill:#000000"
   d="M 81.691611,174.08126 C 47.44055,171.23108 15.105974,147.60246 4.894712,114.2946 -5.6429374,83.033703 5.9925577,46.653101 31.491817,26.117952 63.649969,-1.2464625 114.8753,-1.6931742 147.5851,24.969917 c 23.34514,18.008058 35.92875,48.950836 30.72197,78.099293 -5.33848,35.16853 -35.60726,63.43026 -70.12575,69.63157 -8.691825,1.72117 -17.669808,1.77714 -26.489709,1.38048 z M 79.92079,130.91193 c 0,-8.8704 0,-17.74079 0,-26.61119 -12.687215,12.08946 -25.500922,24.0493 -38.037791,36.29412 10.55721,8.97858 23.858687,15.0796 37.561796,16.79523 0.90587,-8.74192 0.280595,-17.67487 0.475995,-26.47816 z m 58.06464,10.15247 c -12.6021,-12.13972 -25.10585,-24.38296 -37.84857,-36.37559 0,17.63497 0,35.26994 0,52.90491 13.69361,-1.99907 28.60554,-8.67822 37.84857,-16.52932 z M 162.11927,85.022985 C 160.7484,57.060737 139.19541,32.692348 112.82145,24.789766 c -4.62913,-0.766463 -13.087486,-4.754962 -12.68179,0.03812 0.01,16.855785 0.0192,35.906693 0.0288,52.762478 17.00894,16.245511 33.86845,32.650846 51.05173,48.711336 7.79001,-10.91743 11.61622,-30.119799 10.89908,-41.278715 z M 54.531267,101.35276 C 62.994441,93.349601 71.457616,85.346443 79.92079,77.343284 79.801412,59.151321 80.214226,40.941919 79.611578,22.763811 76.74582,20.126571 66.969274,25.120852 61.229548,27.127833 34.473471,37.720406 15.547728,66.165246 18.276476,95.157232 c 0.952532,10.743608 4.482191,21.386588 10.55531,30.309478 8.65292,-7.94411 17.14531,-16.06355 25.699481,-24.11395 z"
   id="path3343"
   inkscape:connector-curvature="0"
   sodipodi:nodetypes="ccccccccccccccccccccccccccccc" /></svg>