<?xml version="1.0" encoding="utf-8"?>
<!-- Generator: Adobe Illustrator 17.0.0, SVG Export Plug-In . SVG Version: 6.00 Build 0)  -->
<!DOCTYPE svg PUBLIC "-//W3C//DTD SVG 1.1//EN" "http://www.w3.org/Graphics/SVG/1.1/DTD/svg11.dtd">
<svg version="1.1"
	 id="radiation" sodipodi:docname="radiation.svg" inkscape:version="0.48.3.1 r9886" xmlns:sodipodi="http://sodipodi.sourceforge.net/DTD/sodipodi-0.dtd" xmlns:inkscape="http://www.inkscape.org/namespaces/inkscape" xmlns:cc="http://creativecommons.org/ns#" xmlns:svg="http://www.w3.org/2000/svg" xmlns:rdf="http://www.w3.org/1999/02/22-rdf-syntax-ns#" xmlns:dc="http://purl.org/dc/elements/1.1/"
	 xmlns="http://www.w3.org/2000/svg" xmlns:xlink="http://www.w3.org/1999/xlink" x="0px" y="0px" width="180px" height="180px"
	 viewBox="0 0 180 180" enable-background="new 0 0 180 180" xml:space="preserve">
<g id="layer1" transform="translate(0,-872.36218)" inkscape:label="Layer 1" inkscape:groupmode="layer">
	<path id="path7812" inkscape:connector-curvature="0" d="M108.03,956.402c0,9.958-8.072,18.03-18.03,18.03
		s-18.03-8.072-18.03-18.03s8.072-18.03,18.03-18.03S108.03,946.444,108.03,956.402z"/>
	<path id="path7810" inkscape:connector-curvature="0" d="M116.289,952.304c-0.776-5.663-3.768-11.238-8.45-15.743l-4.243-4.083
		c0,0,10.795-18.711,14.89-25.809s15.552-26.529,15.552-26.529s12.496,7.291,19.206,14.226
		c15.294,15.807,22.531,32.133,25.205,56.865l0.516,4.774c0,0-20.723,0-31.084,0s-31.084,0-31.084,0L116.289,952.304z"/>
	<path id="path7808" inkscape:connector-curvature="0" d="M1.551,951.231c2.674-24.732,9.911-41.058,25.205-56.865
		c6.71-6.935,19.206-14.226,19.206-14.226s11.457,19.431,15.552,26.529s14.89,25.809,14.89,25.809l-4.243,4.083
		c-4.681,4.505-7.673,10.079-8.45,15.743l-0.507,3.702c0,0-20.723,0-31.084,0s-31.084,0-31.084,0L1.551,951.231z"/>
	<path id="path7791" inkscape:connector-curvature="0" d="M80.037,1043.916c-9.108-1.054-18.469-3.692-26.748-7.539
		c-4.014-1.865-7.298-3.545-7.298-3.733c0-0.337,27.318-47.917,29.548-51.463l1.139-1.812c0,0,3.423,1.203,4.564,1.604
		c5.801,2.039,11.714,2.039,17.514,0c1.141-0.401,4.564-1.604,4.564-1.604l1.139,1.812c2.229,3.546,29.548,51.127,29.548,51.463
		c0,0.188-3.284,1.868-7.298,3.733c-8.596,3.994-17.657,6.461-27.992,7.622C90.33,1044.941,88.839,1044.934,80.037,1043.916z"/>
</g>
</svg>
