<?xml version="1.0" encoding="UTF-8" standalone="no"?>
<!-- Created with Inkscape (http://www.inkscape.org/) -->

<svg
   xmlns:dc="http://purl.org/dc/elements/1.1/"
   xmlns:cc="http://creativecommons.org/ns#"
   xmlns:rdf="http://www.w3.org/1999/02/22-rdf-syntax-ns#"
   xmlns:svg="http://www.w3.org/2000/svg"
   xmlns="http://www.w3.org/2000/svg"
   xmlns:sodipodi="http://sodipodi.sourceforge.net/DTD/sodipodi-0.dtd"
   xmlns:inkscape="http://www.inkscape.org/namespaces/inkscape"
   width="180"
   height="180"
   id="radiation"
   version="1.1"
   inkscape:version="0.48.3.1 r9886"
   sodipodi:docname="radiation.svg">
  <defs
     id="defs7702" />
  <sodipodi:namedview
     id="base"
     pagecolor="#ffffff"
     bordercolor="#666666"
     borderopacity="1.0"
     inkscape:pageopacity="0.0"
     inkscape:pageshadow="2"
     inkscape:zoom="3.3555556"
     inkscape:cx="59.277079"
     inkscape:cy="90"
     inkscape:document-units="px"
     inkscape:current-layer="layer1"
     showgrid="false"
     inkscape:window-width="1256"
     inkscape:window-height="825"
     inkscape:window-x="297"
     inkscape:window-y="272"
     inkscape:window-maximized="0" />
  <metadata
     id="metadata7705">
    <rdf:RDF>
      <cc:Work
         rdf:about="">
        <dc:format>image/svg+xml</dc:format>
        <dc:type
           rdf:resource="http://purl.org/dc/dcmitype/StillImage" />
        <dc:title></dc:title>
      </cc:Work>
    </rdf:RDF>
  </metadata>
  <g
     inkscape:label="Layer 1"
     inkscape:groupmode="layer"
     id="layer1"
     transform="translate(0,-872.36218)">
    <path
       style="fill:#000000;fill-opacity:1;stroke:none"
       d="m 108.0298,956.40191 c 0,9.95759 -8.072208,18.0298 -18.029793,18.0298 -9.957584,0 -18.0298,-8.07221 -18.0298,-18.0298 0,-9.95758 8.072216,-18.0298 18.0298,-18.0298 9.957585,0 18.029793,8.07222 18.029793,18.0298 z"
       id="path7812"
       inkscape:connector-curvature="0" />
    <path
       style="fill:#000000;fill-opacity:1;stroke:none"
       d="m 116.28902,952.30431 c -0.77625,-5.6633 -3.76846,-11.23823 -8.44958,-15.74278 l -4.24324,-4.08321 c 0,0 10.79511,-18.71135 14.8898,-25.80877 4.09469,-7.09742 15.18782,-26.13279 15.55207,-26.5288 1.07492,-1.16863 12.49574,7.29075 19.20575,14.22565 15.29442,15.80705 22.53101,32.13351 25.20506,56.86506 l 0.51621,4.77442 c 0,0 -20.72291,0 -31.08436,0 -10.36145,0 -31.08436,0 -31.08436,0 z"
       id="path7810"
       inkscape:connector-curvature="0" />
    <path
       style="fill:#000000;fill-opacity:1;stroke:none"
       d="m 1.5511255,951.23146 c 2.6740449,-24.73155 9.9106355,-41.05801 25.2050595,-56.86506 6.710002,-6.9349 18.13082,-15.39428 19.205744,-14.22565 0.364251,0.39601 11.457385,19.43139 15.552084,26.5288 4.094699,7.09742 14.889801,25.80878 14.889801,25.80878 l -4.243241,4.0832 c -4.681126,4.50455 -7.673338,10.07948 -8.449583,15.74278 l -0.507358,3.70157 c 0,0 -20.722907,0 -31.084361,0 -10.361454,0 -31.0843633,0 -31.0843633,0 z"
       id="path7808"
       inkscape:connector-curvature="0" />
    <path
       style="fill:#000000;fill-opacity:1;stroke:none"
       d="m 80.037467,1043.9155 c -9.108311,-1.0541 -18.468602,-3.6924 -26.747593,-7.539 -4.01363,-1.8648 -7.297505,-3.5447 -7.297505,-3.7331 0,-0.3365 27.318373,-47.9172 29.547609,-51.46341 l 1.138884,-1.81169 4.563999,1.60411 c 5.800548,2.03873 11.713746,2.03873 17.514293,0 l 4.564006,-1.60411 1.13888,1.81169 c 2.22924,3.54621 29.5476,51.12691 29.5476,51.46341 0,0.1884 -3.28388,1.8683 -7.2975,3.7331 -8.59627,3.994 -17.65668,6.4611 -27.991638,7.6219 -8.388354,0.9422 -9.879972,0.9357 -18.681035,-0.083 z"
       id="path7791"
       inkscape:connector-curvature="0" />
  </g>
</svg>
