<?xml version="1.0" encoding="utf-8"?>
<!-- Generator: Adobe Illustrator 17.0.0, SVG Export Plug-In . SVG Version: 6.00 Build 0)  -->
<!DOCTYPE svg PUBLIC "-//W3C//DTD SVG 1.1//EN" "http://www.w3.org/Graphics/SVG/1.1/DTD/svg11.dtd">
<svg version="1.1"
	 id="robotheart" sodipodi:docname="robotheart.svg" inkscape:version="0.48.4 r9939" xmlns:dc="http://purl.org/dc/elements/1.1/" xmlns:cc="http://creativecommons.org/ns#" xmlns:svg="http://www.w3.org/2000/svg" xmlns:sodipodi="http://sodipodi.sourceforge.net/DTD/sodipodi-0.dtd" xmlns:rdf="http://www.w3.org/1999/02/22-rdf-syntax-ns#" xmlns:inkscape="http://www.inkscape.org/namespaces/inkscape"
	 xmlns="http://www.w3.org/2000/svg" xmlns:xlink="http://www.w3.org/1999/xlink" x="0px" y="0px" width="180px" height="180px"
	 viewBox="0 0 180 180" enable-background="new 0 0 180 180" xml:space="preserve">
<sodipodi:namedview  inkscape:window-height="1121" inkscape:window-width="1539" inkscape:pageshadow="2" inkscape:pageopacity="0" inkscape:cy="90" inkscape:cx="90" inkscape:zoom="5.2333333" showgrid="false" guidetolerance="10" gridtolerance="10" objecttolerance="10" pagecolor="#ffffff" bordercolor="#666666" borderopacity="1" id="namedview4457" inkscape:current-layer="robotheart" inkscape:window-maximized="0" inkscape:window-y="24" inkscape:window-x="65">
	</sodipodi:namedview>
<path id="rightEar" inkscape:connector-curvature="0" d="M143.295,41h5.409c2.38,0,4.295,2.141,4.295,4.8v14.4
	c0,2.659-1.916,4.8-4.295,4.8h-5.409c-2.38,0-4.295-2.141-4.295-4.8V45.8C139,43.141,140.916,41,143.295,41z"/>
<path id="leftEar" inkscape:connector-curvature="0" d="M31.295,41h5.409C39.084,41,41,43.141,41,45.8v14.4
	c0,2.659-1.916,4.8-4.295,4.8h-5.409C28.916,65,27,62.859,27,60.2V45.8C27,43.141,28.916,41,31.295,41z"/>
<path id="head" inkscape:connector-curvature="0" d="M90.014,1c-4.067,0-7.396,2.826-7.396,6.274c0,2.329,1.538,4.351,3.767,5.425
	V23.85H58.503C52.686,23.849,48,27.933,48,33.027v36.795C48,74.916,52.686,79,58.503,79h62.993C127.314,79,132,74.916,132,69.822
	V33.027c0-5.094-4.686-9.178-10.503-9.178H93.616v-11.15c2.229-1.073,3.767-3.096,3.767-5.425C97.383,3.826,94.081,1,90.014,1z
	 M58.393,33.877h12.346v15.507H58.393V33.877z M107.749,33.877h12.346v15.507h-12.346V33.877z M65.13,61.685h49.74v8.247H65.13
	C65.13,69.932,65.13,61.685,65.13,61.685z"/>
<path id="body" inkscape:connector-curvature="0" d="M38.926,83C36.762,83,35,84.463,35,86.281v59.438
	c0,1.818,1.762,3.281,3.926,3.281h102.147c2.164,0,3.926-1.463,3.926-3.281V86.281c0-1.818-1.762-3.281-3.926-3.281
	C141.074,83,38.926,83,38.926,83z M65.958,86.896c0.179-0.015,0.36,0,0.544,0c2.936,0,5.316,2.02,5.316,4.511
	c0,2.491-2.38,4.511-5.316,4.511c-2.936,0-5.316-2.02-5.316-4.511C61.186,89.071,63.278,87.127,65.958,86.896z M77.677,86.896
	c0.179-0.015,0.36,0,0.544,0c2.936,0,5.316,2.02,5.316,4.511c0,2.491-2.38,4.511-5.316,4.511c-2.936,0-5.316-2.02-5.316-4.511
	C72.905,89.071,74.997,87.127,77.677,86.896z M100.752,86.896c0.179-0.015,0.36,0,0.544,0c2.936,0,5.316,2.02,5.316,4.511
	c0,2.491-2.38,4.511-5.316,4.511c-2.936,0-5.316-2.02-5.316-4.511C95.98,89.071,98.072,87.127,100.752,86.896z M112.471,86.896
	c0.179-0.015,0.36,0,0.544,0c2.936,0,5.316,2.02,5.316,4.511c0,2.491-2.38,4.511-5.316,4.511c-2.936,0-5.316-2.02-5.316-4.511
	C107.699,89.071,109.791,87.127,112.471,86.896z M54.36,96.738c0.179-0.015,0.36,0,0.544,0c2.936,0,5.316,2.02,5.316,4.511
	c0,2.491-2.38,4.511-5.316,4.511s-5.316-2.02-5.316-4.511C49.588,98.914,51.68,96.969,54.36,96.738z M66.079,96.738
	c0.179-0.015,0.36,0,0.544,0c2.936,0,5.316,2.02,5.316,4.511c0,2.491-2.38,4.511-5.316,4.511c-2.936,0-5.316-2.02-5.316-4.511
	C61.307,98.914,63.399,96.969,66.079,96.738z M77.768,96.738c0.179-0.015,0.36,0,0.544,0c2.936,0,5.316,2.02,5.316,4.511
	c0,2.491-2.38,4.511-5.316,4.511c-2.936,0-5.316-2.02-5.316-4.511C72.996,98.914,75.087,96.969,77.768,96.738z M89.456,96.738
	c0.179-0.015,0.36,0,0.544,0c2.936,0,5.316,2.02,5.316,4.511c0,2.491-2.38,4.511-5.316,4.511c-2.936,0-5.316-2.02-5.316-4.511
	C84.684,98.914,86.776,96.969,89.456,96.738z M101.145,96.738c0.179-0.015,0.36,0,0.544,0c2.936,0,5.316,2.02,5.316,4.511
	c0,2.491-2.38,4.511-5.316,4.511c-2.936,0-5.316-2.02-5.316-4.511C96.373,98.914,98.464,96.969,101.145,96.738z M112.834,96.738
	c0.179-0.015,0.36,0,0.544,0c2.936,0,5.316,2.02,5.316,4.511c0,2.491-2.38,4.511-5.316,4.511c-2.936,0-5.316-2.02-5.316-4.511
	C108.062,98.914,110.153,96.969,112.834,96.738z M124.552,96.738c0.179-0.015,0.36,0,0.544,0c2.936,0,5.316,2.02,5.316,4.511
	c0,2.491-2.38,4.511-5.316,4.511s-5.316-2.02-5.316-4.511C119.78,98.914,121.872,96.969,124.552,96.738z M54.36,106.581
	c0.179-0.015,0.36,0,0.544,0c2.936,0,5.316,2.02,5.316,4.511c0,2.491-2.38,4.511-5.316,4.511s-5.316-2.02-5.316-4.511
	C49.588,108.756,51.68,106.812,54.36,106.581z M66.079,106.581c0.179-0.015,0.36,0,0.544,0c2.936,0,5.316,2.02,5.316,4.511
	c0,2.491-2.38,4.511-5.316,4.511c-2.936,0-5.316-2.02-5.316-4.511C61.307,108.756,63.399,106.812,66.079,106.581z M77.768,106.581
	c0.179-0.015,0.36,0,0.544,0c2.936,0,5.316,2.02,5.316,4.511c0,2.491-2.38,4.511-5.316,4.511c-2.936,0-5.316-2.02-5.316-4.511
	C72.996,108.756,75.087,106.812,77.768,106.581z M89.456,106.581c0.179-0.015,0.36,0,0.544,0c2.936,0,5.316,2.02,5.316,4.511
	c0,2.491-2.38,4.511-5.316,4.511c-2.936,0-5.316-2.02-5.316-4.511C84.684,108.756,86.776,106.812,89.456,106.581z M101.145,106.581
	c0.179-0.015,0.36,0,0.544,0c2.936,0,5.316,2.02,5.316,4.511c0,2.491-2.38,4.511-5.316,4.511c-2.936,0-5.316-2.02-5.316-4.511
	C96.373,108.756,98.464,106.812,101.145,106.581z M112.834,106.581c0.179-0.015,0.36,0,0.544,0c2.936,0,5.316,2.02,5.316,4.511
	c0,2.491-2.38,4.511-5.316,4.511c-2.936,0-5.316-2.02-5.316-4.511C108.062,108.756,110.153,106.812,112.834,106.581z
	 M124.552,106.581c0.179-0.015,0.36,0,0.544,0c2.936,0,5.316,2.02,5.316,4.511c0,2.491-2.38,4.511-5.316,4.511
	s-5.316-2.02-5.316-4.511C119.78,108.756,121.872,106.812,124.552,106.581z M65.958,116.423c0.179-0.016,0.36,0,0.544,0
	c2.936,0,5.316,2.02,5.316,4.511c0,2.491-2.38,4.511-5.316,4.511c-2.936,0-5.316-2.02-5.316-4.511
	C61.186,118.598,63.278,116.654,65.958,116.423z M77.677,116.423c0.179-0.016,0.36,0,0.544,0c2.936,0,5.316,2.02,5.316,4.511
	c0,2.491-2.38,4.511-5.316,4.511c-2.936,0-5.316-2.02-5.316-4.511C72.905,118.598,74.997,116.654,77.677,116.423z M89.366,116.423
	c0.179-0.016,0.36,0,0.544,0c2.936,0,5.316,2.02,5.316,4.511c0,2.491-2.38,4.511-5.316,4.511c-2.936,0-5.316-2.02-5.316-4.511
	C84.594,118.598,86.685,116.654,89.366,116.423z M101.054,116.423c0.179-0.016,0.36,0,0.544,0c2.936,0,5.316,2.02,5.316,4.511
	c0,2.491-2.38,4.511-5.316,4.511c-2.936,0-5.316-2.02-5.316-4.511C96.282,118.598,98.374,116.654,101.054,116.423z M112.743,116.423
	c0.179-0.016,0.36,0,0.544,0c2.936,0,5.316,2.02,5.316,4.511c0,2.491-2.38,4.511-5.316,4.511c-2.936,0-5.316-2.02-5.316-4.511
	C107.971,118.598,110.062,116.654,112.743,116.423z M77.556,126.265c0.179-0.016,0.36,0,0.544,0c2.936,0,5.316,2.02,5.316,4.511
	s-2.38,4.511-5.316,4.511c-2.936,0-5.316-2.02-5.316-4.511C72.784,128.441,74.876,126.496,77.556,126.265z M89.275,126.265
	c0.179-0.016,0.36,0,0.544,0c2.936,0,5.316,2.02,5.316,4.511s-2.38,4.511-5.316,4.511c-2.936,0-5.316-2.02-5.316-4.511
	C84.503,128.441,86.595,126.496,89.275,126.265z M100.964,126.265c0.179-0.016,0.36,0,0.544,0c2.936,0,5.316,2.02,5.316,4.511
	s-2.38,4.511-5.316,4.511c-2.936,0-5.316-2.02-5.316-4.511C96.192,128.441,98.283,126.496,100.964,126.265z M89.154,136.107
	c0.179-0.016,0.36,0,0.544,0c2.936,0,5.316,2.02,5.316,4.511s-2.38,4.511-5.316,4.511c-2.936,0-5.316-2.02-5.316-4.511
	C84.382,138.283,86.474,136.338,89.154,136.107z"/>
<path id="leftArm" inkscape:connector-curvature="0" d="M23.362,86h3.277c2.139,0,3.862,1.656,3.862,3.713v52.575
	c0,2.057-1.722,3.713-3.862,3.713h-3.277c-2.139,0-3.862-1.656-3.862-3.713V89.713C19.5,87.656,21.222,86,23.362,86z"/>
<path id="leftHand" inkscape:connector-curvature="0" d="M7.362,98h3.277c2.139,0,3.862,1.677,3.862,3.761v28.478
	c0,2.084-1.722,3.761-3.862,3.761H7.362c-2.139,0-3.862-1.677-3.862-3.761v-28.478C3.5,99.677,5.222,98,7.362,98z"/>
<path id="rightArm" inkscape:connector-curvature="0" d="M153.362,86h3.277c2.139,0,3.862,1.656,3.862,3.713v52.575
	c0,2.057-1.722,3.713-3.862,3.713h-3.277c-2.139,0-3.862-1.656-3.862-3.713V89.713C149.5,87.656,151.222,86,153.362,86z"/>
<path id="rightHand" inkscape:connector-curvature="0" d="M169.362,98h3.277c2.139,0,3.862,1.677,3.862,3.761v28.478
	c0,2.084-1.722,3.761-3.862,3.761h-3.277c-2.139,0-3.862-1.677-3.862-3.761v-28.478C165.5,99.677,167.222,98,169.362,98z"/>
<g id="text">
	<path id="path4437" inkscape:connector-curvature="0" d="M3.419,177.207C3.178,177.736,2.807,178,2.307,178
		c-0.352,0-0.658-0.164-0.918-0.495C1.13,177.174,1,176.705,1,176.098c0-0.712,0.176-1.242,0.528-1.585
		C1.176,174.17,1,173.64,1,172.927c0-0.712,0.176-1.242,0.528-1.585C1.176,170.999,1,170.469,1,169.758
		c0-0.713,0.176-1.243,0.528-1.585C1.176,167.829,1,167.299,1,166.587c0-0.713,0.176-1.242,0.528-1.585
		C1.176,164.658,1,164.129,1,163.416c0-0.713,0.176-1.242,0.528-1.585C1.176,161.489,1,160.959,1,160.245
		c0-0.608,0.129-1.076,0.389-1.406c0.26-0.332,0.565-0.496,0.918-0.496c0.5,0,0.871,0.264,1.112,0.793
		c0.26-0.528,0.639-0.793,1.14-0.793c0.352,0,0.658,0.164,0.918,0.496c0.258,0.33,0.389,0.799,0.389,1.406
		c0,0.713-0.185,1.243-0.556,1.585c0.148,0.132,0.26,0.291,0.334,0.476c0.26-0.528,0.63-0.793,1.112-0.793
		c0.5,0,0.871,0.264,1.112,0.793c0.26-0.528,0.63-0.793,1.112-0.793c0.5,0,0.871,0.264,1.112,0.793
		c0.26-0.528,0.63-0.793,1.112-0.793c0.5,0,0.871,0.264,1.112,0.793c0.093-0.185,0.204-0.343,0.334-0.476
		c-0.371-0.342-0.556-0.872-0.556-1.585c0-0.713,0.185-1.242,0.556-1.585c-0.371-0.342-0.556-0.872-0.556-1.585
		c0-0.712,0.185-1.242,0.556-1.585c-0.13-0.132-0.241-0.289-0.334-0.474c-0.241,0.527-0.612,0.791-1.112,0.791
		c-0.482,0-0.853-0.264-1.112-0.791c-0.241,0.527-0.612,0.791-1.112,0.791c-0.482,0-0.853-0.264-1.112-0.791
		c-0.241,0.527-0.612,0.791-1.112,0.791c-0.482,0-0.853-0.264-1.112-0.791c-0.241,0.527-0.612,0.791-1.112,0.791
		c-0.482,0-0.853-0.264-1.112-0.791c-0.241,0.527-0.612,0.791-1.112,0.791c-0.352,0-0.658-0.163-0.918-0.495
		C1.13,154.981,1,154.513,1,153.904c0-0.606,0.129-1.075,0.389-1.406c0.26-0.33,0.565-0.496,0.918-0.496
		c0.5,0,0.871,0.266,1.112,0.793c0.26-0.527,0.63-0.793,1.112-0.793c0.5,0,0.871,0.266,1.112,0.793
		c0.26-0.527,0.63-0.793,1.112-0.793c0.5,0,0.871,0.266,1.112,0.793c0.26-0.527,0.63-0.793,1.112-0.793
		c0.5,0,0.871,0.266,1.112,0.793c0.26-0.527,0.63-0.793,1.112-0.793c0.5,0,0.871,0.266,1.112,0.793
		c0.26-0.527,0.639-0.793,1.14-0.793c0.351,0,0.658,0.166,0.918,0.496c0.26,0.332,0.389,0.8,0.389,1.406
		c0,0.713-0.185,1.243-0.556,1.585c0.148,0.134,0.258,0.291,0.334,0.476c0.26-0.527,0.639-0.793,1.14-0.793
		c0.352,0,0.658,0.164,0.918,0.496c0.26,0.33,0.389,0.799,0.389,1.406c0,0.713-0.185,1.243-0.556,1.585
		c0.371,0.343,0.556,0.872,0.556,1.585c0,0.608-0.13,1.076-0.389,1.408c-0.26,0.33-0.575,0.495-0.945,0.495
		c-0.482,0-0.853-0.264-1.112-0.793c-0.074,0.185-0.185,0.343-0.334,0.476c0.371,0.343,0.556,0.872,0.556,1.585
		c0,0.608-0.13,1.076-0.389,1.406c-0.26,0.332-0.575,0.496-0.945,0.496c-0.482,0-0.853-0.264-1.112-0.793
		c-0.241,0.528-0.612,0.793-1.112,0.793c-0.482,0-0.853-0.264-1.112-0.793c-0.074,0.185-0.185,0.343-0.334,0.476
		c0.371,0.343,0.556,0.872,0.556,1.585c0,0.712-0.185,1.242-0.556,1.585c0.148,0.132,0.26,0.291,0.334,0.474
		c0.26-0.527,0.639-0.793,1.14-0.793c0.352,0,0.658,0.166,0.918,0.496c0.26,0.332,0.389,0.8,0.389,1.408
		c0,0.712-0.185,1.242-0.556,1.584c0.148,0.134,0.26,0.292,0.334,0.476c0.26-0.527,0.639-0.793,1.14-0.793
		c0.351,0,0.658,0.166,0.918,0.496c0.26,0.332,0.389,0.8,0.389,1.406c0,0.713-0.185,1.243-0.556,1.585
		c0.148,0.134,0.258,0.291,0.334,0.476c0.26-0.527,0.63-0.793,1.112-0.793c0.371,0,0.686,0.164,0.945,0.496
		c0.26,0.33,0.389,0.799,0.389,1.406c0,0.608-0.13,1.076-0.389,1.408c-0.26,0.33-0.575,0.495-0.945,0.495
		c-0.482,0-0.853-0.264-1.112-0.793C14.3,177.736,13.929,178,13.428,178c-0.352,0-0.663-0.164-0.931-0.495
		c-0.269-0.332-0.404-0.8-0.404-1.408c0-0.712,0.185-1.242,0.556-1.585c-0.13-0.132-0.241-0.289-0.334-0.474
		c-0.241,0.527-0.612,0.793-1.112,0.793c-0.352,0-0.663-0.164-0.932-0.496c-0.269-0.33-0.404-0.799-0.404-1.408
		c0-0.712,0.185-1.242,0.556-1.585c-0.13-0.132-0.241-0.289-0.334-0.474c-0.241,0.528-0.612,0.793-1.112,0.793
		c-0.352,0-0.663-0.164-0.931-0.496c-0.269-0.33-0.404-0.799-0.404-1.406c0-0.713,0.185-1.243,0.556-1.585
		c-0.13-0.132-0.241-0.291-0.334-0.476c-0.241,0.528-0.612,0.793-1.112,0.793c-0.482,0-0.853-0.264-1.112-0.793
		c-0.074,0.185-0.185,0.343-0.334,0.476c0.371,0.342,0.556,0.872,0.556,1.585c0,0.712-0.185,1.242-0.556,1.584
		c0.371,0.343,0.556,0.873,0.556,1.585c0,0.713-0.185,1.243-0.556,1.585c0.371,0.343,0.556,0.873,0.556,1.585
		c0,0.608-0.13,1.076-0.389,1.408C5.216,177.836,4.901,178,4.53,178C4.049,178,3.678,177.737,3.419,177.207L3.419,177.207z"/>
	<path id="path4439" inkscape:connector-curvature="0" d="M24.383,177.207c-0.241,0.528-0.612,0.793-1.112,0.793
		c-0.352,0-0.663-0.164-0.932-0.495c-0.269-0.332-0.404-0.8-0.404-1.408c0-0.712,0.185-1.242,0.556-1.585
		c-0.13-0.132-0.241-0.289-0.334-0.474c-0.241,0.527-0.612,0.793-1.112,0.793c-0.352,0-0.663-0.164-0.931-0.496
		c-0.269-0.33-0.404-0.799-0.404-1.408c0-0.712,0.185-1.242,0.556-1.585c-0.371-0.342-0.556-0.872-0.556-1.584
		c0-0.713,0.185-1.243,0.556-1.585c-0.371-0.343-0.556-0.873-0.556-1.585c0-0.713,0.185-1.242,0.556-1.585
		c-0.371-0.343-0.556-0.872-0.556-1.585c0-0.713,0.185-1.242,0.556-1.585c-0.371-0.342-0.556-0.872-0.556-1.585
		c0-0.713,0.185-1.242,0.556-1.585c-0.371-0.342-0.556-0.872-0.556-1.585c0-0.608,0.134-1.076,0.404-1.406
		c0.269-0.332,0.588-0.496,0.959-0.496c0.482,0,0.843,0.266,1.084,0.793c0.093-0.185,0.204-0.342,0.334-0.476
		c-0.371-0.342-0.556-0.872-0.556-1.585c0-0.606,0.134-1.075,0.404-1.406c0.269-0.33,0.588-0.496,0.96-0.496
		c0.482,0,0.843,0.266,1.084,0.793c0.258-0.527,0.629-0.793,1.112-0.793c0.5,0,0.871,0.266,1.112,0.793
		c0.26-0.527,0.63-0.793,1.112-0.793c0.5,0,0.871,0.266,1.112,0.793c0.26-0.527,0.63-0.793,1.112-0.793
		c0.5,0,0.871,0.266,1.112,0.793c0.258-0.527,0.629-0.793,1.112-0.793c0.371,0,0.686,0.166,0.945,0.496
		c0.26,0.332,0.389,0.8,0.389,1.406c0,0.713-0.185,1.243-0.556,1.585c0.148,0.134,0.26,0.291,0.334,0.476
		c0.26-0.527,0.63-0.793,1.112-0.793c0.371,0,0.686,0.164,0.945,0.496c0.26,0.33,0.389,0.799,0.389,1.406
		c0,0.713-0.185,1.243-0.556,1.585c0.371,0.343,0.556,0.872,0.556,1.585c0,0.713-0.185,1.243-0.556,1.585
		c0.371,0.343,0.556,0.872,0.556,1.585c0,0.713-0.185,1.242-0.556,1.585c0.371,0.343,0.556,0.872,0.556,1.585
		c0,0.712-0.185,1.242-0.556,1.585c0.371,0.342,0.556,0.872,0.556,1.585c0,0.712-0.185,1.242-0.556,1.584
		c0.371,0.343,0.556,0.873,0.556,1.585c0,0.609-0.13,1.077-0.389,1.408c-0.26,0.332-0.575,0.496-0.945,0.496
		c-0.482,0-0.853-0.266-1.112-0.793c-0.074,0.185-0.185,0.342-0.334,0.474c0.371,0.343,0.556,0.873,0.556,1.585
		c0,0.608-0.13,1.076-0.389,1.408c-0.26,0.33-0.575,0.495-0.945,0.495c-0.482,0-0.853-0.264-1.112-0.793
		c-0.241,0.528-0.612,0.793-1.112,0.793c-0.482,0-0.853-0.264-1.112-0.793C28.591,177.736,28.22,178,27.72,178
		c-0.482,0-0.853-0.264-1.112-0.793c-0.241,0.528-0.612,0.793-1.112,0.793C25.013,178,24.643,177.737,24.383,177.207z
		 M24.05,174.512c0.148,0.134,0.26,0.291,0.334,0.476c0.258-0.527,0.629-0.793,1.112-0.793c0.5,0,0.871,0.266,1.112,0.793
		c0.26-0.527,0.63-0.793,1.112-0.793c0.5,0,0.871,0.266,1.112,0.793c0.26-0.527,0.63-0.793,1.112-0.793
		c0.5,0,0.871,0.266,1.112,0.793c0.093-0.185,0.204-0.342,0.334-0.476c-0.371-0.342-0.556-0.872-0.556-1.585
		c0-0.712,0.185-1.242,0.556-1.585c-0.371-0.342-0.556-0.872-0.556-1.584c0-0.713,0.185-1.243,0.556-1.585
		c-0.371-0.343-0.556-0.873-0.556-1.585c0-0.713,0.185-1.242,0.556-1.585c-0.371-0.343-0.556-0.872-0.556-1.585
		c0-0.713,0.185-1.242,0.556-1.585c-0.371-0.342-0.556-0.872-0.556-1.585c0-0.713,0.185-1.242,0.556-1.585
		c-0.371-0.342-0.556-0.872-0.556-1.585c0-0.712,0.185-1.242,0.556-1.585c-0.13-0.132-0.241-0.289-0.334-0.474
		c-0.241,0.527-0.612,0.791-1.112,0.791c-0.482,0-0.853-0.264-1.112-0.791c-0.241,0.527-0.612,0.791-1.112,0.791
		c-0.482,0-0.853-0.264-1.112-0.791c-0.241,0.527-0.612,0.791-1.112,0.791c-0.482,0-0.853-0.264-1.112-0.791
		c-0.074,0.185-0.185,0.342-0.334,0.474c0.371,0.343,0.556,0.873,0.556,1.585c0,0.713-0.185,1.243-0.556,1.585
		c0.371,0.343,0.556,0.872,0.556,1.585c0,0.713-0.185,1.243-0.556,1.585c0.371,0.343,0.556,0.872,0.556,1.585
		c0,0.713-0.185,1.242-0.556,1.585c0.371,0.343,0.556,0.872,0.556,1.585c0,0.712-0.185,1.242-0.556,1.585
		c0.371,0.342,0.556,0.872,0.556,1.585c0,0.712-0.185,1.242-0.556,1.584c0.371,0.343,0.556,0.873,0.556,1.585
		C24.606,173.64,24.42,174.17,24.05,174.512z"/>
	<path id="path4441" inkscape:connector-curvature="0" d="M40.816,177.207c-0.241,0.528-0.612,0.793-1.112,0.793
		c-0.352,0-0.658-0.164-0.918-0.495c-0.26-0.332-0.389-0.8-0.389-1.408c0-0.712,0.175-1.242,0.528-1.585
		c-0.352-0.342-0.528-0.872-0.528-1.585c0-0.712,0.175-1.242,0.528-1.585c-0.352-0.342-0.528-0.872-0.528-1.584
		c0-0.713,0.175-1.243,0.528-1.585c-0.352-0.343-0.528-0.873-0.528-1.585c0-0.713,0.175-1.242,0.528-1.585
		c-0.352-0.343-0.528-0.872-0.528-1.585c0-0.713,0.175-1.242,0.528-1.585c-0.352-0.342-0.528-0.872-0.528-1.585
		c0-0.608,0.129-1.076,0.389-1.406c0.258-0.332,0.565-0.496,0.918-0.496c0.5,0,0.871,0.264,1.112,0.793
		c0.26-0.528,0.639-0.793,1.14-0.793c0.352,0,0.658,0.164,0.918,0.496c0.26,0.33,0.389,0.799,0.389,1.406
		c0,0.713-0.185,1.243-0.556,1.585c0.148,0.132,0.26,0.291,0.334,0.476c0.26-0.528,0.63-0.793,1.112-0.793
		c0.5,0,0.871,0.264,1.112,0.793c0.258-0.528,0.629-0.793,1.112-0.793c0.5,0,0.871,0.264,1.112,0.793
		c0.26-0.528,0.63-0.793,1.112-0.793c0.5,0,0.871,0.264,1.112,0.793c0.093-0.185,0.204-0.343,0.334-0.476
		c-0.352-0.342-0.528-0.872-0.528-1.585c0-0.713,0.176-1.242,0.528-1.585c-0.352-0.342-0.528-0.872-0.528-1.585
		c0-0.712,0.176-1.242,0.528-1.585c-0.13-0.132-0.241-0.289-0.334-0.474c-0.241,0.527-0.612,0.791-1.112,0.791
		c-0.482,0-0.853-0.264-1.112-0.791c-0.241,0.527-0.612,0.791-1.112,0.791c-0.482,0-0.853-0.264-1.112-0.791
		c-0.241,0.527-0.612,0.791-1.112,0.791c-0.482,0-0.853-0.264-1.112-0.791c-0.241,0.527-0.612,0.791-1.112,0.791
		c-0.482,0-0.853-0.264-1.112-0.791c-0.241,0.527-0.612,0.791-1.112,0.791c-0.352,0-0.658-0.163-0.918-0.495
		c-0.26-0.33-0.389-0.799-0.389-1.408c0-0.606,0.129-1.075,0.389-1.406c0.258-0.33,0.565-0.496,0.918-0.496
		c0.5,0,0.871,0.266,1.112,0.793c0.26-0.527,0.63-0.793,1.112-0.793c0.5,0,0.871,0.266,1.112,0.793
		c0.26-0.527,0.63-0.793,1.112-0.793c0.5,0,0.871,0.266,1.112,0.793c0.258-0.527,0.629-0.793,1.112-0.793
		c0.5,0,0.871,0.266,1.112,0.793c0.26-0.527,0.63-0.793,1.112-0.793c0.5,0,0.871,0.266,1.112,0.793
		c0.26-0.527,0.639-0.793,1.14-0.793c0.352,0,0.658,0.166,0.918,0.496c0.26,0.332,0.389,0.8,0.389,1.406
		c0,0.713-0.185,1.243-0.556,1.585c0.148,0.134,0.26,0.291,0.334,0.476c0.258-0.527,0.639-0.793,1.14-0.793
		c0.352,0,0.658,0.164,0.918,0.496c0.258,0.33,0.389,0.799,0.389,1.406c0,0.713-0.185,1.243-0.556,1.585
		c0.371,0.343,0.556,0.872,0.556,1.585c0,0.608-0.13,1.076-0.389,1.408c-0.26,0.33-0.576,0.495-0.945,0.495
		c-0.482,0-0.853-0.264-1.112-0.793c-0.074,0.185-0.185,0.343-0.334,0.476c0.371,0.343,0.556,0.872,0.556,1.585
		c0,0.713-0.185,1.242-0.556,1.585c0.148,0.132,0.26,0.291,0.334,0.476c0.258-0.528,0.639-0.793,1.14-0.793
		c0.352,0,0.658,0.164,0.918,0.495c0.258,0.332,0.389,0.8,0.389,1.408c0,0.712-0.185,1.242-0.556,1.585
		c0.371,0.342,0.556,0.872,0.556,1.585c0,0.712-0.185,1.242-0.556,1.584c0.371,0.343,0.556,0.873,0.556,1.585
		c0,0.609-0.13,1.077-0.389,1.408c-0.26,0.332-0.576,0.496-0.945,0.496c-0.482,0-0.853-0.266-1.112-0.793
		c-0.074,0.185-0.185,0.342-0.334,0.474c0.371,0.343,0.556,0.873,0.556,1.585c0,0.608-0.13,1.076-0.389,1.408
		c-0.26,0.33-0.575,0.495-0.945,0.495c-0.482,0-0.853-0.264-1.112-0.793c-0.241,0.528-0.612,0.793-1.112,0.793
		c-0.482,0-0.853-0.264-1.112-0.793c-0.241,0.528-0.612,0.793-1.112,0.793c-0.482,0-0.853-0.264-1.112-0.793
		c-0.241,0.528-0.612,0.793-1.112,0.793c-0.482,0-0.853-0.264-1.112-0.793c-0.241,0.528-0.612,0.793-1.112,0.793
		C41.446,178,41.075,177.737,40.816,177.207L40.816,177.207z M42.706,174.512c0.148,0.134,0.26,0.291,0.334,0.476
		c0.26-0.527,0.63-0.793,1.112-0.793c0.5,0,0.871,0.266,1.112,0.793c0.258-0.527,0.629-0.793,1.112-0.793
		c0.5,0,0.871,0.266,1.112,0.793c0.26-0.527,0.63-0.793,1.112-0.793c0.5,0,0.871,0.266,1.112,0.793
		c0.093-0.185,0.204-0.342,0.334-0.476c-0.352-0.342-0.528-0.872-0.528-1.585c0-0.712,0.176-1.242,0.528-1.585
		c-0.352-0.342-0.528-0.872-0.528-1.584c0-0.713,0.176-1.243,0.528-1.585c-0.352-0.343-0.528-0.873-0.528-1.585
		c0-0.713,0.176-1.242,0.528-1.585c-0.13-0.132-0.241-0.291-0.334-0.476c-0.241,0.528-0.612,0.793-1.112,0.793
		c-0.482,0-0.853-0.264-1.112-0.793c-0.241,0.528-0.612,0.793-1.112,0.793c-0.482,0-0.853-0.264-1.112-0.793
		c-0.241,0.528-0.612,0.793-1.112,0.793c-0.482,0-0.853-0.264-1.112-0.793c-0.074,0.185-0.185,0.343-0.334,0.476
		c0.371,0.343,0.556,0.872,0.556,1.585c0,0.712-0.185,1.242-0.556,1.585c0.371,0.342,0.556,0.872,0.556,1.585
		c0,0.712-0.185,1.242-0.556,1.584c0.371,0.343,0.556,0.873,0.556,1.585C43.262,173.64,43.077,174.17,42.706,174.512z"/>
	<path id="path4443" inkscape:connector-curvature="0" d="M61.78,177.207c-0.241,0.528-0.612,0.793-1.112,0.793
		c-0.352,0-0.663-0.164-0.932-0.495c-0.269-0.332-0.404-0.8-0.404-1.408c0-0.712,0.185-1.242,0.556-1.585
		c-0.13-0.132-0.241-0.289-0.334-0.474c-0.241,0.527-0.612,0.793-1.112,0.793c-0.352,0-0.663-0.164-0.931-0.496
		c-0.269-0.33-0.404-0.799-0.404-1.408c0-0.712,0.185-1.242,0.556-1.585c-0.371-0.342-0.556-0.872-0.556-1.584
		c0-0.713,0.185-1.243,0.556-1.585c-0.371-0.343-0.556-0.873-0.556-1.585c0-0.713,0.185-1.242,0.556-1.585
		c-0.371-0.343-0.556-0.872-0.556-1.585c0-0.713,0.185-1.242,0.556-1.585c-0.371-0.342-0.556-0.872-0.556-1.585
		c0-0.713,0.185-1.242,0.556-1.585c-0.371-0.342-0.556-0.872-0.556-1.585c0-0.608,0.134-1.076,0.404-1.406
		c0.269-0.332,0.588-0.496,0.959-0.496c0.482,0,0.843,0.266,1.084,0.793c0.093-0.185,0.204-0.342,0.334-0.476
		c-0.371-0.342-0.556-0.872-0.556-1.585c0-0.606,0.134-1.075,0.404-1.406c0.269-0.33,0.588-0.496,0.96-0.496
		c0.482,0,0.843,0.266,1.084,0.793c0.258-0.527,0.629-0.793,1.112-0.793c0.5,0,0.871,0.266,1.112,0.793
		c0.26-0.527,0.63-0.793,1.112-0.793c0.5,0,0.871,0.266,1.112,0.793c0.26-0.527,0.63-0.793,1.112-0.793
		c0.5,0,0.871,0.266,1.112,0.793c0.258-0.527,0.629-0.793,1.112-0.793c0.371,0,0.686,0.166,0.945,0.496
		c0.26,0.332,0.389,0.8,0.389,1.406c0,0.713-0.185,1.243-0.556,1.585c0.148,0.134,0.26,0.291,0.334,0.476
		c0.259-0.527,0.63-0.793,1.112-0.793c0.371,0,0.686,0.164,0.945,0.496c0.26,0.33,0.389,0.799,0.389,1.406
		c0,0.713-0.185,1.243-0.556,1.585c0.371,0.343,0.556,0.872,0.556,1.585c0,0.713-0.185,1.243-0.556,1.585
		c0.371,0.343,0.556,0.872,0.556,1.585c0,0.713-0.185,1.242-0.556,1.585c0.371,0.343,0.556,0.872,0.556,1.585
		c0,0.712-0.185,1.242-0.556,1.585c0.371,0.342,0.556,0.872,0.556,1.585c0,0.712-0.185,1.242-0.556,1.584
		c0.371,0.343,0.556,0.873,0.556,1.585c0,0.609-0.13,1.077-0.389,1.408c-0.259,0.332-0.575,0.496-0.945,0.496
		c-0.482,0-0.853-0.266-1.112-0.793c-0.074,0.185-0.185,0.342-0.334,0.474c0.371,0.343,0.556,0.873,0.556,1.585
		c0,0.608-0.13,1.076-0.389,1.408c-0.259,0.33-0.575,0.495-0.945,0.495c-0.482,0-0.853-0.264-1.112-0.793
		c-0.241,0.528-0.612,0.793-1.112,0.793c-0.482,0-0.853-0.264-1.112-0.793c-0.241,0.528-0.612,0.793-1.112,0.793
		c-0.482,0-0.853-0.264-1.112-0.793c-0.241,0.528-0.612,0.793-1.112,0.793C62.409,178,62.039,177.737,61.78,177.207z
		 M61.446,174.512c0.148,0.134,0.26,0.291,0.334,0.476c0.258-0.527,0.629-0.793,1.112-0.793c0.5,0,0.871,0.266,1.112,0.793
		c0.26-0.527,0.63-0.793,1.112-0.793c0.5,0,0.871,0.266,1.112,0.793c0.26-0.527,0.63-0.793,1.112-0.793
		c0.5,0,0.871,0.266,1.112,0.793c0.093-0.185,0.204-0.342,0.334-0.476c-0.371-0.342-0.556-0.872-0.556-1.585
		c0-0.712,0.185-1.242,0.556-1.585c-0.371-0.342-0.556-0.872-0.556-1.584c0-0.713,0.185-1.243,0.556-1.585
		c-0.371-0.343-0.556-0.873-0.556-1.585c0-0.713,0.185-1.242,0.556-1.585c-0.371-0.343-0.556-0.872-0.556-1.585
		c0-0.713,0.185-1.242,0.556-1.585c-0.371-0.342-0.556-0.872-0.556-1.585c0-0.713,0.185-1.242,0.556-1.585
		c-0.371-0.342-0.556-0.872-0.556-1.585c0-0.712,0.185-1.242,0.556-1.585c-0.13-0.132-0.241-0.289-0.334-0.474
		c-0.241,0.527-0.612,0.791-1.112,0.791c-0.482,0-0.853-0.264-1.112-0.791c-0.241,0.527-0.612,0.791-1.112,0.791
		c-0.482,0-0.853-0.264-1.112-0.791c-0.241,0.527-0.612,0.791-1.112,0.791c-0.482,0-0.853-0.264-1.112-0.791
		c-0.074,0.185-0.185,0.342-0.334,0.474c0.371,0.343,0.556,0.873,0.556,1.585c0,0.713-0.185,1.243-0.556,1.585
		c0.371,0.343,0.556,0.872,0.556,1.585c0,0.713-0.185,1.243-0.556,1.585c0.371,0.343,0.556,0.872,0.556,1.585
		c0,0.713-0.185,1.242-0.556,1.585c0.371,0.343,0.556,0.872,0.556,1.585c0,0.712-0.185,1.242-0.556,1.585
		c0.371,0.342,0.556,0.872,0.556,1.585c0,0.712-0.185,1.242-0.556,1.584c0.371,0.343,0.556,0.873,0.556,1.585
		C62.002,173.64,61.817,174.17,61.446,174.512z"/>
	<path id="path4445" inkscape:connector-curvature="0" d="M77.489,155.014c-0.259,0.527-0.63,0.791-1.112,0.791
		c-0.371,0-0.687-0.163-0.945-0.495c-0.26-0.33-0.389-0.799-0.389-1.408c0-0.606,0.134-1.075,0.403-1.406
		c0.269-0.33,0.58-0.496,0.932-0.496c0.482,0,0.853,0.266,1.112,0.793c0.24-0.527,0.612-0.793,1.112-0.793
		c0.482,0,0.853,0.266,1.112,0.793c0.241-0.527,0.612-0.793,1.112-0.793c0.482,0,0.853,0.266,1.112,0.793
		C82.179,152.266,82.55,152,83.05,152c0.482,0,0.853,0.266,1.112,0.793c0.24-0.527,0.612-0.793,1.112-0.793
		c0.482,0,0.853,0.266,1.112,0.793c0.26-0.527,0.63-0.793,1.112-0.793c0.352,0,0.663,0.166,0.932,0.496
		c0.268,0.332,0.403,0.8,0.403,1.406c0,0.609-0.135,1.077-0.403,1.408c-0.269,0.332-0.58,0.495-0.932,0.495
		c-0.5,0-0.871-0.264-1.112-0.791c-0.26,0.527-0.63,0.791-1.112,0.791c-0.5,0-0.871-0.264-1.112-0.791
		c-0.26,0.527-0.63,0.791-1.112,0.791s-0.853-0.264-1.112-0.791c-0.26,0.527-0.63,0.791-1.112,0.791s-0.853-0.264-1.112-0.791
		c-0.26,0.527-0.63,0.791-1.112,0.791S77.748,155.541,77.489,155.014z M81.938,177.207c-0.26,0.528-0.63,0.793-1.112,0.793
		c-0.352,0-0.663-0.164-0.931-0.495c-0.269-0.332-0.404-0.8-0.404-1.408c0-0.712,0.185-1.242,0.556-1.585
		c-0.371-0.342-0.556-0.872-0.556-1.585c0-0.712,0.185-1.242,0.556-1.585c-0.371-0.342-0.556-0.872-0.556-1.584
		c0-0.713,0.185-1.243,0.556-1.585c-0.371-0.343-0.556-0.873-0.556-1.585c0-0.713,0.185-1.242,0.556-1.585
		c-0.371-0.343-0.556-0.872-0.556-1.585c0-0.713,0.185-1.242,0.556-1.585c-0.371-0.342-0.556-0.872-0.556-1.585
		c0-0.608,0.134-1.076,0.404-1.406c0.269-0.332,0.579-0.496,0.931-0.496c0.482,0,0.853,0.264,1.112,0.793
		c0.26-0.528,0.63-0.793,1.112-0.793c0.352,0,0.662,0.164,0.931,0.496c0.269,0.33,0.404,0.799,0.404,1.406
		c0,0.713-0.185,1.243-0.556,1.585c0.371,0.343,0.556,0.872,0.556,1.585c0,0.713-0.185,1.242-0.556,1.585
		c0.371,0.343,0.556,0.872,0.556,1.585c0,0.712-0.185,1.242-0.556,1.585c0.371,0.342,0.556,0.872,0.556,1.585
		c0,0.712-0.185,1.242-0.556,1.584c0.371,0.343,0.556,0.873,0.556,1.585c0,0.713-0.185,1.243-0.556,1.585
		c0.371,0.343,0.556,0.873,0.556,1.585c0,0.608-0.135,1.076-0.404,1.408c-0.269,0.33-0.58,0.495-0.931,0.495
		C82.549,178,82.179,177.737,81.938,177.207z"/>
	<path id="path4447" inkscape:connector-curvature="0" d="M94.198,177.207c-0.26,0.528-0.629,0.793-1.112,0.793
		c-0.37,0-0.686-0.164-0.945-0.495c-0.259-0.332-0.388-0.8-0.388-1.408c0-0.712,0.185-1.242,0.555-1.585
		c-0.37-0.342-0.555-0.872-0.555-1.585c0-0.712,0.185-1.242,0.555-1.585c-0.37-0.342-0.555-0.872-0.555-1.584
		c0-0.713,0.185-1.243,0.555-1.585c-0.37-0.343-0.555-0.873-0.555-1.585c0-0.713,0.185-1.242,0.555-1.585
		c-0.37-0.343-0.555-0.872-0.555-1.585c0-0.713,0.185-1.242,0.555-1.585c-0.37-0.342-0.555-0.872-0.555-1.585
		c0-0.713,0.185-1.242,0.555-1.585c-0.37-0.342-0.555-0.872-0.555-1.585c0-0.712,0.185-1.242,0.555-1.585
		c-0.37-0.342-0.555-0.872-0.555-1.585c0-0.606,0.129-1.075,0.388-1.406c0.26-0.33,0.576-0.496,0.945-0.496
		c0.483,0,0.853,0.266,1.112,0.793c0.241-0.527,0.613-0.793,1.112-0.793c0.352,0,0.664,0.166,0.932,0.496
		c0.269,0.332,0.404,0.8,0.404,1.406c0,0.713-0.186,1.243-0.557,1.585c0.371,0.343,0.557,0.873,0.557,1.585
		c0,0.713-0.186,1.243-0.557,1.585c0.371,0.343,0.557,0.872,0.557,1.585c0,0.713-0.186,1.243-0.557,1.585
		c0.131,0.132,0.241,0.291,0.334,0.476c0.241-0.528,0.613-0.793,1.112-0.793c0.483,0,0.853,0.264,1.112,0.793
		c0.241-0.528,0.612-0.793,1.112-0.793c0.483,0,0.853,0.264,1.112,0.793c0.241-0.528,0.612-0.793,1.112-0.793
		c0.482,0,0.853,0.264,1.112,0.793c0.093-0.185,0.203-0.343,0.334-0.476c-0.371-0.342-0.556-0.872-0.556-1.585
		c0-0.713,0.185-1.242,0.556-1.585c-0.371-0.342-0.556-0.872-0.556-1.585c0-0.712,0.185-1.242,0.556-1.585
		c-0.371-0.342-0.556-0.872-0.556-1.585c0-0.606,0.13-1.075,0.389-1.406c0.259-0.33,0.575-0.496,0.945-0.496
		c0.482,0,0.853,0.266,1.112,0.793c0.24-0.527,0.612-0.793,1.112-0.793c0.352,0,0.662,0.166,0.931,0.496
		c0.269,0.332,0.404,0.8,0.404,1.406c0,0.713-0.186,1.243-0.556,1.585c0.37,0.343,0.556,0.873,0.556,1.585
		c0,0.713-0.186,1.243-0.556,1.585c0.37,0.343,0.556,0.872,0.556,1.585c0,0.713-0.186,1.243-0.556,1.585
		c0.37,0.343,0.556,0.872,0.556,1.585c0,0.713-0.186,1.242-0.556,1.585c0.37,0.343,0.556,0.872,0.556,1.585
		c0,0.712-0.186,1.242-0.556,1.585c0.37,0.342,0.556,0.872,0.556,1.585c0,0.712-0.186,1.242-0.556,1.584
		c0.37,0.343,0.556,0.873,0.556,1.585c0,0.713-0.186,1.243-0.556,1.585c0.37,0.343,0.556,0.873,0.556,1.585
		c0,0.608-0.135,1.076-0.404,1.408c-0.27,0.33-0.58,0.495-0.931,0.495c-0.5,0-0.872-0.264-1.112-0.793
		c-0.26,0.528-0.63,0.793-1.112,0.793c-0.371,0-0.686-0.164-0.945-0.495c-0.26-0.332-0.389-0.8-0.389-1.408
		c0-0.712,0.185-1.242,0.556-1.585c-0.371-0.342-0.556-0.872-0.556-1.585c0-0.712,0.185-1.242,0.556-1.585
		c-0.371-0.342-0.556-0.872-0.556-1.584c0-0.713,0.185-1.243,0.556-1.585c-0.371-0.343-0.556-0.873-0.556-1.585
		c0-0.713,0.185-1.242,0.556-1.585c-0.131-0.132-0.241-0.291-0.334-0.476c-0.259,0.528-0.63,0.793-1.112,0.793
		c-0.5,0-0.871-0.264-1.112-0.793c-0.259,0.528-0.629,0.793-1.112,0.793c-0.5,0-0.871-0.264-1.112-0.793
		c-0.26,0.528-0.629,0.793-1.112,0.793c-0.499,0-0.871-0.264-1.112-0.793c-0.093,0.185-0.203,0.343-0.334,0.476
		c0.371,0.343,0.557,0.872,0.557,1.585c0,0.712-0.186,1.242-0.557,1.585c0.371,0.342,0.557,0.872,0.557,1.585
		c0,0.712-0.186,1.242-0.557,1.584c0.371,0.343,0.557,0.873,0.557,1.585c0,0.713-0.186,1.243-0.557,1.585
		c0.371,0.343,0.557,0.873,0.557,1.585c0,0.608-0.135,1.076-0.404,1.408c-0.269,0.33-0.58,0.495-0.932,0.495
		C94.811,178,94.439,177.737,94.198,177.207z"/>
	<path id="path4449" inkscape:connector-curvature="0" d="M112.299,155.014c-0.26,0.527-0.638,0.791-1.139,0.791
		c-0.353,0-0.659-0.163-0.919-0.495c-0.26-0.33-0.389-0.799-0.389-1.408c0-0.606,0.13-1.075,0.389-1.406
		c0.259-0.33,0.575-0.496,0.945-0.496c0.482,0,0.853,0.266,1.112,0.793c0.24-0.527,0.613-0.793,1.112-0.793
		c0.482,0,0.852,0.266,1.112,0.793c0.24-0.527,0.613-0.793,1.112-0.793c0.482,0,0.852,0.266,1.112,0.793
		c0.24-0.527,0.612-0.793,1.112-0.793c0.482,0,0.852,0.266,1.111,0.793c0.241-0.527,0.613-0.793,1.112-0.793
		c0.483,0,0.853,0.266,1.112,0.793c0.241-0.527,0.613-0.793,1.112-0.793c0.483,0,0.853,0.266,1.112,0.793
		c0.241-0.527,0.612-0.793,1.112-0.793c0.352,0,0.664,0.166,0.931,0.496c0.27,0.332,0.405,0.8,0.405,1.406
		c0,0.609-0.135,1.077-0.405,1.408c-0.268,0.332-0.58,0.495-0.931,0.495c-0.5,0-0.871-0.264-1.112-0.791
		c-0.26,0.527-0.629,0.791-1.112,0.791c-0.499,0-0.871-0.264-1.112-0.791c-0.26,0.527-0.629,0.791-1.112,0.791
		c-0.499,0-0.871-0.264-1.112-0.791c-0.26,0.527-0.629,0.791-1.111,0.791c-0.5,0-0.872-0.264-1.112-0.791
		c-0.261,0.527-0.63,0.791-1.112,0.791c-0.499,0-0.872-0.264-1.112-0.791c-0.261,0.527-0.63,0.791-1.112,0.791
		C112.912,155.805,112.54,155.541,112.299,155.014z M112.299,177.207c-0.26,0.528-0.63,0.793-1.112,0.793
		c-0.371,0-0.686-0.164-0.945-0.495c-0.26-0.332-0.389-0.8-0.389-1.408c0-0.712,0.185-1.242,0.556-1.585
		c-0.371-0.342-0.556-0.872-0.556-1.585c0-0.712,0.185-1.242,0.556-1.585c-0.371-0.342-0.556-0.872-0.556-1.584
		c0-0.713,0.185-1.243,0.556-1.585c-0.371-0.343-0.556-0.873-0.556-1.585c0-0.713,0.185-1.242,0.556-1.585
		c-0.371-0.343-0.556-0.872-0.556-1.585c0-0.713,0.185-1.242,0.556-1.585c-0.371-0.342-0.556-0.872-0.556-1.585
		c0-0.608,0.13-1.076,0.389-1.406c0.259-0.332,0.575-0.496,0.945-0.496c0.482,0,0.853,0.264,1.112,0.793
		c0.24-0.528,0.613-0.793,1.112-0.793c0.482,0,0.852,0.264,1.112,0.793c0.24-0.528,0.613-0.793,1.112-0.793
		c0.482,0,0.852,0.264,1.112,0.793c0.24-0.528,0.612-0.793,1.112-0.793c0.482,0,0.852,0.264,1.111,0.793
		c0.241-0.528,0.613-0.793,1.112-0.793c0.352,0,0.664,0.164,0.932,0.496c0.269,0.33,0.404,0.799,0.404,1.406
		c0,0.608-0.135,1.076-0.404,1.408c-0.269,0.33-0.58,0.495-0.932,0.495c-0.499,0-0.871-0.264-1.112-0.793
		c-0.26,0.528-0.629,0.793-1.111,0.793c-0.5,0-0.872-0.264-1.112-0.793c-0.261,0.528-0.63,0.793-1.112,0.793
		c-0.499,0-0.872-0.264-1.112-0.793c-0.094,0.185-0.204,0.343-0.334,0.476c0.371,0.343,0.556,0.872,0.556,1.585
		c0,0.713-0.185,1.242-0.556,1.585c0.371,0.343,0.556,0.872,0.556,1.585c0,0.712-0.185,1.242-0.556,1.585
		c0.371,0.342,0.556,0.872,0.556,1.585c0,0.712-0.185,1.242-0.556,1.584c0.371,0.343,0.556,0.873,0.556,1.585
		c0,0.713-0.185,1.243-0.556,1.585c0.13,0.134,0.24,0.291,0.334,0.476c0.24-0.527,0.613-0.793,1.112-0.793
		c0.482,0,0.852,0.266,1.112,0.793c0.24-0.527,0.612-0.793,1.112-0.793c0.482,0,0.852,0.266,1.111,0.793
		c0.241-0.527,0.613-0.793,1.112-0.793c0.483,0,0.853,0.266,1.112,0.793c0.241-0.527,0.613-0.793,1.112-0.793
		c0.483,0,0.853,0.266,1.112,0.793c0.241-0.527,0.612-0.793,1.112-0.793c0.352,0,0.664,0.164,0.931,0.496
		c0.27,0.33,0.405,0.799,0.405,1.406c0,0.608-0.135,1.076-0.405,1.408c-0.268,0.33-0.58,0.495-0.931,0.495
		c-0.5,0-0.871-0.264-1.112-0.793c-0.26,0.528-0.629,0.793-1.112,0.793c-0.499,0-0.871-0.264-1.112-0.793
		c-0.26,0.528-0.629,0.793-1.112,0.793c-0.499,0-0.871-0.264-1.112-0.793c-0.26,0.528-0.629,0.793-1.111,0.793
		c-0.5,0-0.872-0.264-1.112-0.793c-0.261,0.528-0.63,0.793-1.112,0.793c-0.499,0-0.872-0.264-1.112-0.793
		c-0.261,0.528-0.63,0.793-1.112,0.793C112.912,178,112.54,177.737,112.299,177.207L112.299,177.207z"/>
	<path id="path4451" inkscape:connector-curvature="0" d="M131.178,177.207c-0.26,0.528-0.639,0.793-1.14,0.793
		c-0.352,0-0.658-0.164-0.918-0.495c-0.26-0.332-0.39-0.8-0.39-1.408c0-0.712,0.185-1.242,0.557-1.585
		c-0.372-0.342-0.557-0.872-0.557-1.585c0-0.712,0.185-1.242,0.557-1.585c-0.372-0.342-0.557-0.872-0.557-1.584
		c0-0.713,0.185-1.243,0.557-1.585c-0.372-0.343-0.557-0.873-0.557-1.585c0-0.713,0.185-1.242,0.557-1.585
		c-0.372-0.343-0.557-0.872-0.557-1.585c0-0.713,0.185-1.242,0.557-1.585c-0.372-0.342-0.557-0.872-0.557-1.585
		c0-0.713,0.185-1.242,0.557-1.585c-0.372-0.342-0.557-0.872-0.557-1.585c0-0.608,0.131-1.076,0.39-1.406
		c0.259-0.332,0.576-0.496,0.945-0.496c0.483,0,0.853,0.266,1.112,0.793c0.074-0.185,0.185-0.342,0.334-0.476
		c-0.372-0.342-0.557-0.872-0.557-1.585c0-0.606,0.131-1.075,0.39-1.406c0.259-0.33,0.574-0.496,0.945-0.496
		c0.481,0,0.853,0.266,1.112,0.793c0.241-0.527,0.612-0.793,1.112-0.793c0.481,0,0.853,0.266,1.112,0.793
		c0.239-0.527,0.612-0.793,1.112-0.793c0.481,0,0.853,0.266,1.112,0.793c0.239-0.527,0.612-0.793,1.112-0.793
		c0.481,0,0.851,0.266,1.112,0.793c0.239-0.527,0.612-0.793,1.112-0.793c0.352,0,0.662,0.166,0.931,0.496
		c0.268,0.332,0.403,0.8,0.403,1.406c0,0.713-0.185,1.243-0.555,1.585c0.129,0.134,0.239,0.291,0.334,0.476
		c0.239-0.527,0.612-0.793,1.11-0.793c0.352,0,0.664,0.164,0.933,0.496c0.268,0.33,0.403,0.799,0.403,1.406
		c0,0.713-0.185,1.243-0.555,1.585c0.37,0.343,0.555,0.872,0.555,1.585c0,0.713-0.185,1.243-0.555,1.585
		c0.37,0.343,0.555,0.872,0.555,1.585c0,0.713-0.185,1.242-0.555,1.585c0.37,0.343,0.555,0.872,0.555,1.585
		c0,0.712-0.185,1.242-0.555,1.585c0.37,0.342,0.555,0.872,0.555,1.585c0,0.712-0.185,1.242-0.555,1.584
		c0.37,0.343,0.555,0.873,0.555,1.585c0,0.713-0.185,1.243-0.555,1.585c0.37,0.343,0.555,0.873,0.555,1.585
		c0,0.608-0.135,1.076-0.403,1.408c-0.27,0.33-0.589,0.495-0.96,0.495c-0.483,0-0.844-0.264-1.084-0.793
		c-0.262,0.528-0.639,0.793-1.14,0.793c-0.352,0-0.658-0.164-0.918-0.495c-0.262-0.332-0.39-0.8-0.39-1.408
		c0-0.712,0.185-1.242,0.557-1.585c-0.372-0.342-0.557-0.872-0.557-1.585c0-0.712,0.185-1.242,0.557-1.585
		c-0.372-0.342-0.557-0.872-0.557-1.584c0-0.713,0.185-1.243,0.557-1.585c-0.149-0.132-0.262-0.291-0.334-0.476
		c-0.262,0.528-0.631,0.793-1.112,0.793c-0.5,0-0.873-0.264-1.112-0.793c-0.26,0.528-0.631,0.793-1.112,0.793
		c-0.5,0-0.873-0.264-1.112-0.793c-0.26,0.528-0.631,0.793-1.112,0.793c-0.5,0-0.871-0.264-1.112-0.793
		c-0.093,0.185-0.205,0.343-0.334,0.476c0.37,0.342,0.555,0.872,0.555,1.585c0,0.712-0.185,1.242-0.555,1.584
		c0.37,0.343,0.555,0.873,0.555,1.585c0,0.713-0.185,1.243-0.555,1.585c0.37,0.343,0.555,0.873,0.555,1.585
		c0,0.608-0.135,1.076-0.403,1.408c-0.27,0.33-0.589,0.495-0.96,0.495C131.779,178,131.42,177.737,131.178,177.207L131.178,177.207z
		 M133.069,165.001c0.129,0.132,0.241,0.291,0.334,0.476c0.241-0.528,0.612-0.793,1.112-0.793c0.481,0,0.853,0.264,1.112,0.793
		c0.239-0.528,0.612-0.793,1.112-0.793c0.481,0,0.853,0.264,1.112,0.793c0.239-0.528,0.612-0.793,1.112-0.793
		c0.481,0,0.851,0.264,1.112,0.793c0.072-0.185,0.185-0.343,0.334-0.476c-0.372-0.343-0.557-0.872-0.557-1.585
		c0-0.713,0.185-1.242,0.557-1.585c-0.372-0.342-0.557-0.872-0.557-1.585c0-0.713,0.185-1.242,0.557-1.585
		c-0.372-0.342-0.557-0.872-0.557-1.585c0-0.712,0.185-1.242,0.557-1.585c-0.149-0.132-0.262-0.289-0.334-0.474
		c-0.262,0.527-0.631,0.791-1.112,0.791c-0.5,0-0.873-0.264-1.112-0.791c-0.26,0.527-0.631,0.791-1.112,0.791
		c-0.5,0-0.873-0.264-1.112-0.791c-0.26,0.527-0.631,0.791-1.112,0.791c-0.5,0-0.871-0.264-1.112-0.791
		c-0.093,0.185-0.205,0.342-0.334,0.474c0.37,0.343,0.555,0.873,0.555,1.585c0,0.713-0.185,1.243-0.555,1.585
		c0.37,0.343,0.555,0.872,0.555,1.585c0,0.713-0.185,1.243-0.555,1.585c0.37,0.343,0.555,0.872,0.555,1.585
		C133.624,164.129,133.439,164.656,133.069,165.001z"/>
	<path id="path4453" inkscape:connector-curvature="0" d="M149.696,177.207c-0.241,0.528-0.612,0.793-1.112,0.793
		c-0.352,0-0.66-0.164-0.918-0.495c-0.262-0.332-0.39-0.8-0.39-1.408c0-0.712,0.175-1.242,0.529-1.585
		c-0.354-0.342-0.529-0.872-0.529-1.585c0-0.712,0.175-1.242,0.529-1.585c-0.354-0.342-0.529-0.872-0.529-1.584
		c0-0.713,0.175-1.243,0.529-1.585c-0.354-0.343-0.529-0.873-0.529-1.585c0-0.713,0.175-1.242,0.529-1.585
		c-0.354-0.343-0.529-0.872-0.529-1.585c0-0.713,0.175-1.242,0.529-1.585c-0.354-0.342-0.529-0.872-0.529-1.585
		c0-0.608,0.129-1.076,0.39-1.406c0.257-0.332,0.565-0.496,0.918-0.496c0.5,0,0.871,0.264,1.112,0.793
		c0.26-0.528,0.639-0.793,1.138-0.793c0.352,0,0.66,0.164,0.92,0.496c0.26,0.33,0.388,0.799,0.388,1.406
		c0,0.713-0.185,1.243-0.555,1.585c0.147,0.132,0.26,0.291,0.334,0.476c0.26-0.528,0.629-0.793,1.112-0.793
		c0.498,0,0.871,0.264,1.112,0.793c0.257-0.528,0.629-0.793,1.11-0.793c0.5,0,0.873,0.264,1.112,0.793
		c0.26-0.528,0.631-0.793,1.112-0.793c0.5,0,0.871,0.264,1.112,0.793c0.093-0.185,0.205-0.343,0.334-0.476
		c-0.37-0.342-0.555-0.872-0.555-1.585c0-0.713,0.185-1.242,0.555-1.585c-0.37-0.342-0.555-0.872-0.555-1.585
		c0-0.712,0.185-1.242,0.555-1.585c-0.129-0.132-0.241-0.289-0.334-0.474c-0.241,0.527-0.612,0.791-1.112,0.791
		c-0.481,0-0.853-0.264-1.112-0.791c-0.239,0.527-0.612,0.791-1.112,0.791c-0.481,0-0.853-0.264-1.11-0.791
		c-0.241,0.527-0.614,0.791-1.112,0.791c-0.483,0-0.853-0.264-1.112-0.791c-0.241,0.527-0.614,0.791-1.112,0.791
		c-0.483,0-0.853-0.264-1.112-0.791c-0.241,0.527-0.612,0.791-1.112,0.791c-0.352,0-0.66-0.163-0.918-0.495
		c-0.262-0.33-0.39-0.799-0.39-1.408c0-0.606,0.129-1.075,0.39-1.406c0.257-0.33,0.565-0.496,0.918-0.496
		c0.5,0,0.871,0.266,1.112,0.793c0.26-0.527,0.629-0.793,1.112-0.793c0.498,0,0.871,0.266,1.112,0.793
		c0.26-0.527,0.629-0.793,1.112-0.793c0.498,0,0.871,0.266,1.112,0.793c0.257-0.527,0.629-0.793,1.11-0.793
		c0.5,0,0.873,0.266,1.112,0.793c0.26-0.527,0.631-0.793,1.112-0.793c0.5,0,0.871,0.266,1.112,0.793
		c0.26-0.527,0.639-0.793,1.14-0.793c0.352,0,0.658,0.166,0.918,0.496c0.259,0.332,0.39,0.8,0.39,1.406
		c0,0.713-0.185,1.243-0.557,1.585c0.149,0.134,0.26,0.291,0.334,0.476c0.26-0.527,0.639-0.793,1.14-0.793
		c0.352,0,0.658,0.164,0.918,0.496c0.26,0.33,0.39,0.799,0.39,1.406c0,0.713-0.185,1.243-0.557,1.585
		c0.372,0.343,0.557,0.872,0.557,1.585c0,0.608-0.131,1.076-0.39,1.408c-0.259,0.33-0.574,0.495-0.945,0.495
		c-0.483,0-0.853-0.264-1.112-0.793c-0.074,0.185-0.185,0.343-0.334,0.476c0.372,0.343,0.557,0.872,0.557,1.585
		c0,0.608-0.131,1.076-0.39,1.406c-0.26,0.332-0.574,0.496-0.945,0.496c-0.481,0-0.853-0.264-1.112-0.793
		c-0.241,0.528-0.612,0.793-1.112,0.793c-0.481,0-0.853-0.264-1.112-0.793c-0.072,0.185-0.185,0.343-0.332,0.476
		c0.37,0.343,0.555,0.872,0.555,1.585c0,0.712-0.185,1.242-0.555,1.585c0.147,0.132,0.26,0.291,0.332,0.474
		c0.26-0.527,0.639-0.793,1.14-0.793c0.352,0,0.658,0.166,0.918,0.496c0.259,0.332,0.39,0.8,0.39,1.408
		c0,0.712-0.185,1.242-0.557,1.584c0.149,0.134,0.26,0.292,0.334,0.476c0.26-0.527,0.639-0.793,1.14-0.793
		c0.352,0,0.658,0.166,0.918,0.496c0.259,0.332,0.39,0.8,0.39,1.406c0,0.713-0.185,1.243-0.557,1.585
		c0.149,0.134,0.26,0.291,0.334,0.476c0.26-0.527,0.629-0.793,1.112-0.793c0.372,0,0.686,0.164,0.945,0.496
		c0.26,0.33,0.39,0.799,0.39,1.406c0,0.608-0.131,1.076-0.39,1.408c-0.259,0.33-0.574,0.495-0.945,0.495
		c-0.483,0-0.853-0.264-1.112-0.793c-0.241,0.528-0.612,0.793-1.112,0.793c-0.352,0-0.662-0.164-0.931-0.495
		c-0.268-0.332-0.403-0.8-0.403-1.408c0-0.712,0.185-1.242,0.555-1.585c-0.129-0.132-0.241-0.289-0.334-0.474
		c-0.241,0.527-0.612,0.793-1.112,0.793c-0.352,0-0.662-0.164-0.931-0.496c-0.268-0.33-0.403-0.799-0.403-1.408
		c0-0.712,0.185-1.242,0.555-1.585c-0.129-0.132-0.241-0.289-0.334-0.474c-0.239,0.528-0.612,0.793-1.112,0.793
		c-0.352,0-0.662-0.164-0.931-0.496c-0.268-0.33-0.403-0.799-0.403-1.406c0-0.713,0.185-1.243,0.555-1.585
		c-0.129-0.132-0.239-0.291-0.332-0.476c-0.241,0.528-0.614,0.793-1.112,0.793c-0.483,0-0.853-0.264-1.112-0.793
		c-0.074,0.185-0.187,0.343-0.334,0.476c0.37,0.342,0.555,0.872,0.555,1.585c0,0.712-0.185,1.242-0.555,1.584
		c0.37,0.343,0.555,0.873,0.555,1.585c0,0.713-0.185,1.243-0.555,1.585c0.37,0.343,0.555,0.873,0.555,1.585
		c0,0.608-0.129,1.076-0.388,1.408c-0.26,0.33-0.576,0.495-0.945,0.495C150.326,178,149.956,177.737,149.696,177.207
		L149.696,177.207z"/>
	<path id="path4455" inkscape:connector-curvature="0" d="M167.657,155.014c-0.26,0.527-0.631,0.791-1.112,0.791
		c-0.372,0-0.686-0.163-0.945-0.495c-0.26-0.33-0.39-0.799-0.39-1.408c0-0.606,0.135-1.075,0.405-1.406
		c0.268-0.33,0.58-0.496,0.931-0.496c0.481,0,0.853,0.266,1.112,0.793c0.241-0.527,0.612-0.793,1.112-0.793
		c0.481,0,0.853,0.266,1.112,0.793c0.239-0.527,0.612-0.793,1.112-0.793c0.481,0,0.853,0.266,1.112,0.793
		c0.239-0.527,0.612-0.793,1.112-0.793c0.481,0,0.851,0.266,1.112,0.793c0.239-0.527,0.612-0.793,1.112-0.793
		c0.481,0,0.851,0.266,1.112,0.793c0.26-0.527,0.629-0.793,1.112-0.793c0.35,0,0.662,0.166,0.931,0.496
		c0.268,0.332,0.403,0.8,0.403,1.406c0,0.609-0.135,1.077-0.403,1.408c-0.27,0.332-0.581,0.495-0.931,0.495
		c-0.5,0-0.873-0.264-1.112-0.791c-0.262,0.527-0.631,0.791-1.112,0.791c-0.5,0-0.873-0.264-1.112-0.791
		c-0.262,0.527-0.631,0.791-1.112,0.791c-0.483,0-0.853-0.264-1.112-0.791c-0.26,0.527-0.631,0.791-1.112,0.791
		c-0.483,0-0.853-0.264-1.112-0.791c-0.26,0.527-0.631,0.791-1.112,0.791C168.286,155.805,167.916,155.541,167.657,155.014
		L167.657,155.014z M172.106,177.207c-0.259,0.528-0.631,0.793-1.112,0.793c-0.352,0-0.664-0.164-0.931-0.495
		c-0.27-0.332-0.405-0.8-0.405-1.408c0-0.712,0.185-1.242,0.557-1.585c-0.372-0.342-0.557-0.872-0.557-1.585
		c0-0.712,0.185-1.242,0.557-1.585c-0.372-0.342-0.557-0.872-0.557-1.584c0-0.713,0.185-1.243,0.557-1.585
		c-0.372-0.343-0.557-0.873-0.557-1.585c0-0.713,0.185-1.242,0.557-1.585c-0.372-0.343-0.557-0.872-0.557-1.585
		c0-0.713,0.185-1.242,0.557-1.585c-0.372-0.342-0.557-0.872-0.557-1.585c0-0.608,0.135-1.076,0.405-1.406
		c0.268-0.332,0.58-0.496,0.931-0.496c0.481,0,0.853,0.264,1.112,0.793c0.26-0.528,0.629-0.793,1.112-0.793
		c0.352,0,0.662,0.164,0.931,0.496c0.268,0.33,0.403,0.799,0.403,1.406c0,0.713-0.185,1.243-0.555,1.585
		c0.37,0.343,0.555,0.872,0.555,1.585c0,0.713-0.185,1.242-0.555,1.585c0.37,0.343,0.555,0.872,0.555,1.585
		c0,0.712-0.185,1.242-0.555,1.585c0.37,0.342,0.555,0.872,0.555,1.585c0,0.712-0.185,1.242-0.555,1.584
		c0.37,0.343,0.555,0.873,0.555,1.585c0,0.713-0.185,1.243-0.555,1.585c0.37,0.343,0.555,0.873,0.555,1.585
		c0,0.608-0.135,1.076-0.403,1.408c-0.27,0.33-0.58,0.495-0.931,0.495C172.717,178,172.346,177.737,172.106,177.207z"/>
</g>
</svg>
