<?xml version="1.0" encoding="utf-8"?>
<!-- Generator: Adobe Illustrator 17.0.0, SVG Export Plug-In . SVG Version: 6.00 Build 0)  -->
<!DOCTYPE svg PUBLIC "-//W3C//DTD SVG 1.1//EN" "http://www.w3.org/Graphics/SVG/1.1/DTD/svg11.dtd">
<svg version="1.1"
	 id="robot" sodipodi:docname="robot.svg" inkscape:version="0.48.3.1 r9886" xmlns:sodipodi="http://sodipodi.sourceforge.net/DTD/sodipodi-0.dtd" xmlns:inkscape="http://www.inkscape.org/namespaces/inkscape" xmlns:cc="http://creativecommons.org/ns#" xmlns:svg="http://www.w3.org/2000/svg" xmlns:rdf="http://www.w3.org/1999/02/22-rdf-syntax-ns#" xmlns:dc="http://purl.org/dc/elements/1.1/"
	 xmlns="http://www.w3.org/2000/svg" xmlns:xlink="http://www.w3.org/1999/xlink" x="0px" y="0px" width="180px" height="180px"
	 viewBox="0 0 180 180" enable-background="new 0 0 180 180" xml:space="preserve">
<g id="layer1" transform="translate(0,-872.36218)" inkscape:label="Layer 1" inkscape:groupmode="layer">
	<path id="path5604" d="M147.4,924.776h5.037c2.216,0,4,1.784,4,4v12c0,2.216-1.784,4-4,4H147.4c-2.216,0-4-1.784-4-4v-12
		C143.4,926.56,145.184,924.776,147.4,924.776z"/>
	<path id="path5602" d="M27.448,924.776h5.037c2.216,0,4,1.784,4,4v12c0,2.216-1.784,4-4,4h-5.037c-2.216,0-4-1.784-4-4v-12
		C23.448,926.56,25.232,924.776,27.448,924.776z"/>
	<path id="path5600" d="M90.188,873.956c-4.622,0-8.406,3.223-8.406,7.156c0,2.656,1.748,4.963,4.281,6.188v12.719H54.375
		c-6.612,0-11.938,4.658-11.938,10.469v41.969c0,5.81,5.326,10.469,11.938,10.469h71.594c6.612,0,11.938-4.658,11.938-10.469
		v-41.969c0-5.81-5.326-10.469-11.938-10.469H94.281V887.3c2.533-1.224,4.281-3.531,4.281-6.188
		C98.563,877.179,94.81,873.956,90.188,873.956z M54.25,911.456h14.031v17.688H54.25V911.456z M110.344,911.456h14.031v17.688
		h-14.031V911.456z M61.906,943.175h56.531v9.406H61.906V943.175z"/>
	<path id="path5592" d="M37.156,969.143c-2.239,0-4.063,1.784-4.063,4v72.469c0,2.216,1.823,4,4.063,4h105.688
		c2.239,0,4.063-1.784,4.063-4v-72.469c0-2.216-1.823-4-4.063-4H37.156z M89.531,987.706c5.697-7.887,16.985-11.324,27.063-7.688
		c11.449,4.133,17.009,15.807,12.406,26.094c-4.411,9.864-39.375,34.469-39.375,34.469l-0.094,0.063l-0.094-0.063
		c0,0-34.933-24.604-39.344-34.469c-4.6-10.286,0.973-21.832,12.375-26.094C71.15,976.774,85.259,981.791,89.531,987.706z"/>
	<path id="path5588" d="M155.829,976.774h3.394c2.216,0,4,1.784,4,4v56.645c0,2.216-1.784,4-4,4h-3.394c-2.216,0-4-1.784-4-4
		v-56.645C151.829,978.558,153.613,976.774,155.829,976.774z"/>
	<path id="path5586" d="M21.022,976.774h3.394c2.216,0,4,1.784,4,4v56.645c0,2.216-1.784,4-4,4h-3.394c-2.216,0-4-1.784-4-4v-56.645
		C17.022,978.558,18.806,976.774,21.022,976.774z"/>
	<path id="path5584" d="M5.149,989.952h3.394c2.216,0,4,1.784,4,4v30.288c0,2.216-1.784,4-4,4H5.149c-2.216,0-4-1.784-4-4v-30.288
		C1.149,991.736,2.933,989.952,5.149,989.952z"/>
	<path id="rect5354" d="M171.801,989.952h3.394c2.216,0,4,1.784,4,4v30.288c0,2.216-1.784,4-4,4h-3.394c-2.216,0-4-1.784-4-4
		v-30.288C167.801,991.736,169.585,989.952,171.801,989.952z"/>
</g>
</svg>
