<?xml version="1.0" encoding="utf-8"?>
<!-- Generator: Adobe Illustrator 17.0.0, SVG Export Plug-In . SVG Version: 6.00 Build 0)  -->
<!DOCTYPE svg PUBLIC "-//W3C//DTD SVG 1.1//EN" "http://www.w3.org/Graphics/SVG/1.1/DTD/svg11.dtd">
<svg version="1.1" id="Layer_1" xmlns="http://www.w3.org/2000/svg" xmlns:xlink="http://www.w3.org/1999/xlink" x="0px" y="0px"
	 width="160px" height="160px" viewBox="0 0 160 160" enable-background="new 0 0 160 160" xml:space="preserve">
<g>
	<g>
		<path d="M38.592,160l0.18-3.899l2.632-2.162V35.982l-2.55-0.49v-9.789l2.514-0.543l0.234-4.552l2.57-0.519v-4.587l30.433-5.375
			l2.222-3.042V1.819l3.074-1.378l2.986,1.304v5.152l2.746,3.28l30.36,5.31v4.565l2.168,0.477l0.269,4.644l2.859,0.432v9.903
			l-2.859,0.421v118.106l2.979,1.877V160H38.592L38.592,160z M70.11,91.117V67.803H50.477v23.313H70.11L70.11,91.117z M79,38
			v114.688l2,0.062V38H79z M43.007,34.701h74.371l0-4.34l0-4.111H43.007V34.701L43.007,34.701z M111.118,122.303V96.782H88.456
			v25.521H111.118L111.118,122.303z M111.085,92.237V66.726h-22.58v25.511H111.085L111.085,92.237z M71.781,122.36V96.752H49.062
			v25.608H71.781L71.781,122.36z M111.257,126.913H88.581v25.381h22.677V126.913L111.257,126.913z M49.082,126.838v25.507h22.651
			v-25.507H49.082L49.082,126.838z M103.015,51.113h-6.389v10.776h6.389V51.113L103.015,51.113z M110.678,61.967V51.078h-6.266
			v10.889H110.678L110.678,61.967z M49.286,38.615v10.966h6.247V38.615H49.286L49.286,38.615z M95.159,49.626V38.635h-6.172v10.991
			H95.159L95.159,49.626z M104.674,38.619v10.944h6.198V38.619H104.674L104.674,38.619z M63.307,49.523V38.659h-6.006v10.863H63.307
			L63.307,49.523z M65.171,38.625v10.927h6.051V38.625H65.171L65.171,38.625z M103.029,49.612V38.657h-6.156v10.955H103.029
			L103.029,49.612z M49.314,51.062v10.894h6.254V51.062H49.314L49.314,51.062z M94.859,61.971V51.053h-5.851v10.918H94.859
			L94.859,61.971z M65.191,51.028v10.906h6.042V51.028H65.191L65.191,51.028z M63.3,61.926v-10.87h-6.013v10.87H63.3L63.3,61.926z"
			/>
		<polygon points="115.887,27.593 115.887,33.488 44.298,33.488 44.298,27.593 115.887,27.593 		"/>
		<polygon points="109.215,98.341 109.215,120.735 90.273,120.735 90.273,98.341 109.215,98.341 		"/>
		<polygon points="109.221,67.969 109.221,90.87 90.338,90.87 90.338,67.969 109.221,67.969 		"/>
		<polygon points="69.97,121.228 50.747,121.228 50.747,98.224 69.97,98.224 69.97,121.228 		"/>
		<polygon points="109.222,151.11 90.314,151.11 90.314,128.115 109.222,128.115 109.222,151.11 		"/>
		<polygon points="50.727,150.975 50.727,128.067 69.884,128.067 69.884,150.975 50.727,150.975 		"/>
	</g>
</g>
</svg>
