<?xml version="1.0" encoding="utf-8"?>
<!-- Generator: Adobe Illustrator 17.0.0, SVG Export Plug-In . SVG Version: 6.00 Build 0)  -->
<!DOCTYPE svg PUBLIC "-//W3C//DTD SVG 1.1//EN" "http://www.w3.org/Graphics/SVG/1.1/DTD/svg11.dtd">
<svg version="1.1"
	 id="UFO" sodipodi:docname="ufo.svg" inkscape:version="0.48.3.1 r9886" xmlns:sodipodi="http://sodipodi.sourceforge.net/DTD/sodipodi-0.dtd" xmlns:inkscape="http://www.inkscape.org/namespaces/inkscape" xmlns:cc="http://creativecommons.org/ns#" xmlns:svg="http://www.w3.org/2000/svg" xmlns:rdf="http://www.w3.org/1999/02/22-rdf-syntax-ns#" xmlns:dc="http://purl.org/dc/elements/1.1/"
	 xmlns="http://www.w3.org/2000/svg" xmlns:xlink="http://www.w3.org/1999/xlink" x="0px" y="0px" width="180px" height="180px"
	 viewBox="0 0 180 180" enable-background="new 0 0 180 180" xml:space="preserve">
<g id="layer1" transform="translate(0,-872.36218)" inkscape:label="Layer 1" inkscape:groupmode="layer">
	<path id="path4955" d="M46,995.322l-8.145-1.745l-15.07,22.917L12,1020.955l14.671,4.622l14.646-4.622l-9.316-4.331L46,995.322
		L46,995.322z"/>
	<path id="path4953" d="M138.55,994.036l-8.169,1.787l13.94,21.214l-9.343,4.353l14.689,4.646l14.714-4.646l-10.817-4.483
		L138.55,994.036L138.55,994.036z"/>
	<path id="path4951" d="M89.781,898.688c-19.752,0-37.415,8.687-41.386,29.47c26.862-5.266,55.407-5.271,82.281-0.078
		C126.706,907.453,109.506,898.645,89.781,898.688z"/>
	<path id="path4949" d="M90,929.246c-20.63,0-41.917,2.232-61.459,9.166c-10.219,3.626-27.853,10.959-27.853,24.241
		c0,12.133,15.078,19.272,24.51,22.99C45.558,993.669,68.27,996.058,90,996.058c20.63,0,41.917-2.232,61.459-9.166
		c10.219-3.626,27.853-10.959,27.853-24.241c0-12.133-15.078-19.272-24.51-22.99C134.442,931.635,111.73,929.246,90,929.246z
		 M22.188,955.527c14.006,0,14.006,15.125,0,15.125S8.181,955.527,22.188,955.527z M55.75,955.527c12.237,0,12.237,15.125,0,15.125
		S43.513,955.527,55.75,955.527z M89.781,955.527c9.899,0,9.899,15.125,0,15.125C79.85,970.652,79.85,955.527,89.781,955.527z
		 M124.469,955.527c12.48,0,12.48,15.125,0,15.125S111.988,955.527,124.469,955.527z M157.125,955.527
		c14.524,0,14.524,15.125,0,15.125S142.601,955.527,157.125,955.527z"/>
</g>
</svg>
