<?xml version="1.0" encoding="UTF-8" standalone="no"?>
<!-- Created with Inkscape (http://www.inkscape.org/) -->

<svg
   xmlns:dc="http://purl.org/dc/elements/1.1/"
   xmlns:cc="http://creativecommons.org/ns#"
   xmlns:rdf="http://www.w3.org/1999/02/22-rdf-syntax-ns#"
   xmlns:svg="http://www.w3.org/2000/svg"
   xmlns="http://www.w3.org/2000/svg"
   xmlns:sodipodi="http://sodipodi.sourceforge.net/DTD/sodipodi-0.dtd"
   xmlns:inkscape="http://www.inkscape.org/namespaces/inkscape"
   width="180"
   height="180"
   id="UFO"
   version="1.1"
   inkscape:version="0.48.3.1 r9886"
   sodipodi:docname="ufo.svg">
  <defs
     id="defs4188" />
  <sodipodi:namedview
     id="base"
     pagecolor="#ffffff"
     bordercolor="#666666"
     borderopacity="1.0"
     inkscape:pageopacity="0.0"
     inkscape:pageshadow="2"
     inkscape:zoom="4.35"
     inkscape:cx="90"
     inkscape:cy="90"
     inkscape:document-units="px"
     inkscape:current-layer="layer1"
     showgrid="false"
     inkscape:window-width="1362"
     inkscape:window-height="1004"
     inkscape:window-x="315"
     inkscape:window-y="70"
     inkscape:window-maximized="0" />
  <metadata
     id="metadata4191">
    <rdf:RDF>
      <cc:Work
         rdf:about="">
        <dc:format>image/svg+xml</dc:format>
        <dc:type
           rdf:resource="http://purl.org/dc/dcmitype/StillImage" />
        <dc:title></dc:title>
      </cc:Work>
    </rdf:RDF>
  </metadata>
  <g
     inkscape:label="Layer 1"
     inkscape:groupmode="layer"
     id="layer1"
     transform="translate(0,-872.36218)">
    <path
       style="fill:#000000;fill-opacity:1;stroke:none"
       d="m 46,991.96968 c -2.823012,-0.51781 -5.540826,-1.09374 -8.145055,-1.74543 L 22.785348,1013.1415 C 16.585681,1013.6824 12,1015.4692 12,1017.6022 c 0,2.5608 6.575258,4.6221 14.671062,4.6221 8.095805,0 14.646154,-2.0613 14.646154,-4.6221 0,-1.9643 -3.86317,-3.6557 -9.315751,-4.3313 L 46,991.96968 z"
       id="path4955" />
    <path
       style="fill:#000000;fill-opacity:1;stroke:none"
       d="m 138.55046,990.68402 c -2.61248,0.65816 -5.3359,1.26356 -8.16899,1.78681 l 13.93975,21.21417 c -5.46861,0.6791 -9.34313,2.3791 -9.34313,4.3534 0,2.5737 6.56959,4.6456 14.6892,4.6456 8.1196,0 14.71418,-2.0719 14.71418,-4.6456 0,-2.1438 -4.59916,-3.9398 -10.81705,-4.4833 l -15.01396,-22.87108 z"
       id="path4953" />
    <path
       style="fill:#000000;fill-opacity:1;stroke:none"
       d="m 89.78125,895.33559 c -20.109875,0 -37.15897,7.34915 -41.386135,29.47017 12.37332,-2.42563 26.437469,-3.79832 41.375,-3.79832 14.750155,0 28.645965,1.35095 40.906245,3.72 -4.25059,-22.08374 -20.80774,-29.39185 -40.89511,-29.39185 z"
       id="path4951" />
    <path
       style="fill:#000000;fill-opacity:1;stroke:none"
       d="M 90 53.53125 C 40.675259 53.53125 0.6875 68.48304 0.6875 86.9375 C 0.6875 105.39196 40.675259 120.34375 90 120.34375 C 139.32474 120.34375 179.3125 105.39196 179.3125 86.9375 C 179.3125 68.48304 139.32474 53.53125 90 53.53125 z M 22.1875 79.8125 C 28.472119 79.8125 33.5625 83.19017 33.5625 87.375 C 33.5625 91.55983 28.472119 94.9375 22.1875 94.9375 C 15.902881 94.9375 10.8125 91.55983 10.8125 87.375 C 10.8125 83.19017 15.902881 79.8125 22.1875 79.8125 z M 55.75 79.8125 C 61.145885 79.8125 65.53125 83.19017 65.53125 87.375 C 65.53125 91.55983 61.145885 94.9375 55.75 94.9375 C 50.354115 94.9375 45.96875 91.55983 45.96875 87.375 C 45.96875 83.19017 50.354115 79.8125 55.75 79.8125 z M 89.78125 79.8125 C 94.034477 79.8125 97.46875 83.19017 97.46875 87.375 C 97.46875 91.55983 94.034477 94.9375 89.78125 94.9375 C 85.528023 94.9375 82.0625 91.55983 82.0625 87.375 C 82.0625 83.19017 85.528023 79.8125 89.78125 79.8125 z M 124.46875 79.8125 C 129.9916 79.8125 134.46875 83.19017 134.46875 87.375 C 134.46875 91.55983 129.9916 94.9375 124.46875 94.9375 C 118.9459 94.9375 114.46875 91.55983 114.46875 87.375 C 114.46875 83.19017 118.9459 79.8125 124.46875 79.8125 z M 157.125 79.8125 C 163.66354 79.8125 168.96875 83.19017 168.96875 87.375 C 168.96875 91.55983 163.66354 94.9375 157.125 94.9375 C 150.58646 94.9375 145.28125 91.55983 145.28125 87.375 C 145.28125 83.19017 150.58646 79.8125 157.125 79.8125 z "
       transform="translate(0,872.36218)"
       id="path4949" />
  </g>
</svg>
