<?xml version="1.0" encoding="utf-8"?>
<!-- Generator: Adobe Illustrator 16.0.4, SVG Export Plug-In . SVG Version: 6.00 Build 0)  -->
<!DOCTYPE svg PUBLIC "-//W3C//DTD SVG 1.1//EN" "http://www.w3.org/Graphics/SVG/1.1/DTD/svg11.dtd">
<svg version="1.1" id="Layer_1" xmlns="http://www.w3.org/2000/svg" xmlns:xlink="http://www.w3.org/1999/xlink" x="0px" y="0px"
	 width="180px" height="180px" viewBox="0 0 180 180" enable-background="new 0 0 180 180" xml:space="preserve">
<g id="layer2" transform="translate(-13.44662,-20.090429)" inkscape:label="unicorn" inkscape:groupmode="layer">
	
		<path id="path2222" sodipodi:nodetypes="cssssssssssssssscccssssssssssssssssssccccccsssssssssssssssssssssssssssssscccscccsssssscsssscccsssssccssccssssscccssssssccssssscccsscccccssccssccssccssc" fill="#010101" d="
		M139.131,169.889c-3.175-0.887,0.449-7.111,4.153-7.137c3.572-0.023,3.854-0.77,3.534-9.389c-0.345-9.332-0.513-9.621-9.052-15.41
		c-6.21-4.209-11.069-9.818-13.328-15.385c-0.93-2.291-1.989-4.441-2.354-4.777c-0.365-0.336-4.434-0.32-9.042,0.035
		c-5.397,0.418-10.003,0.363-12.948-0.152c-4.532-0.793-6.471-1.615-16.756-7.117c-5.188-2.774-5.485-2.837-11.044-2.357
		c-3.142,0.271-7.645,0.854-10.006,1.296c-4.151,0.777-4.309,0.895-4.752,3.581c-1.198,7.254,0.19,11.551,3.73,11.551
		c1.034,0,2.178,0.643,2.623,1.475c1.027,1.922,1.021,7.678-0.008,7.678c-0.935,0-4.535-3.463-4.535-4.361
		c0-0.34-1.286-1.412-2.856-2.387l-2.856-1.77l-0.169-8.797c-0.093-4.838,0.161-9.417,0.565-10.171
		c0.403-0.756,1.851-1.598,3.215-1.871c4.471-0.896,9.718-2.786,9.718-3.502c0-0.387-0.33-0.702-0.735-0.702
		c-1.053,0-2.133-2.29-3.429-7.274c-0.928-3.566-0.973-5.272-0.252-9.484c0.813-4.75,0.755-5.374-0.78-8.323
		c-0.913-1.753-1.659-3.797-1.659-4.543s-0.503-2.022-1.118-2.837c-1.349-1.786-1.436-1.336-0.346,1.794
		c0.627,1.802,0.531,3.781-0.408,8.391c-0.738,3.624-1.029,7.282-0.729,9.16c0.572,3.585-0.694,5.49-3.649,5.49
		c-3.081,0-4.988-2.003-5.882-6.18c-0.459-2.142-2.263-6.69-4.008-10.107c-1.747-3.418-3.393-6.707-3.66-7.308
		s-1.662-1.49-3.101-1.975c-2.012-0.679-2.615-1.306-2.615-2.721c0-1.656,0.28-1.814,2.819-1.593l2.819,0.246l-0.711-2.483
		c-0.936-3.267-0.437-3.595,2.34-1.54l2.296,1.701l1.939-1.527c1.067-0.84,2.954-2.93,4.193-4.644
		c2.94-4.063,4.81-4.72,10.559-3.706c3.534,0.624,4.881,0.594,5.747-0.125c0.622-0.517,1.125-0.64,1.119-0.274
		c-0.02,1.127-1.062,2.277-2.573,2.837c-2.848,1.056-0.464,1.414,3.334,0.501c3.715-0.893,4.006-0.844,6.876,1.147
		c2.125,1.475,3.655,1.983,5.262,1.747c2.86-0.42,2.219,0.729-1.206,2.162c-1.432,0.6-2.406,1.409-2.165,1.8
		c0.265,0.43,1.156,0.383,2.252-0.117c1.39-0.634,2.661-0.538,5.44,0.41c1.995,0.681,4.423,1.238,5.396,1.238
		c2.453,0,2.21,1.258-0.517,2.67c-1.256,0.65-2.285,1.329-2.285,1.509s1.657,0.129,3.682-0.11c3.384-0.402,3.979-0.21,7.346,2.363
		c2.015,1.54,4.128,2.622,4.696,2.403c1.897-0.729,1.061,0.265-1.215,1.443c-1.235,0.64-2.949,1.164-3.808,1.164
		c-2.242,0-1.96,1.188,1.563,6.603c3.354,5.155,7.293,7.729,14.395,9.406c11.316,2.674,18.197,4.5,20.344,5.398
		c2.124,0.889,2.801,0.854,5.154-0.271c1.549-0.739,3.066-2.197,3.541-3.397c1.773-4.494,2.959-5.98,6.133-7.694
		c4.574-2.469,10.755-2.05,13.288,0.899c1.805,2.101,1.93,2.616,3.303,13.574c1.126,8.979,2.706,13.904,5.474,17.06
		c2.17,2.477,2.643,2.66,6.847,2.66c5.714,0,9.5-1.539,12.694-5.158l2.517-2.851l-1.223,3.05c-1.263,3.156-4.955,7.506-7.617,8.977
		c-0.839,0.463-3.238,1.264-5.332,1.779l-3.809,0.938l4.653,0.066c3.672,0.051,5.548-0.389,8.899-2.08
		c3.813-1.926,4.164-1.99,3.432-0.621c-1.349,2.525-7.497,8.764-10.415,10.57c-2.191,1.355-3.894,1.695-8.578,1.709
		c-5.411,0.02-6.062-0.154-8.773-2.344c-1.61-1.297-6.513-2.119-7.497-9.725c-0.556-4.289,0-13.461,0-13.461
		s1.354-7.771-0.477-13.359c-1.425-4.354-6.189-6.532-9.38-1.537c-1.467,2.296-3.317,4.582-4.113,5.079
		c-1.404,0.878-1.392,1.011,0.423,4.514c2.63,5.074,2.95,10.949,1.08,19.794l-1.532,7.246l1.858,2.711
		c1.022,1.49,3.058,3.875,4.523,5.297c3.015,2.926,3.116,3.83,2.173,19.271c-0.426,6.975-0.685,8.119-1.903,8.438
		c-0.776,0.205-1.412,0.895-1.412,1.535s-0.6,1.34-1.333,1.557C144.666,169.879,140.475,170.264,139.131,169.889z M45.636,74.192
		c0-1.375-0.178-1.471-1.178-0.639c-0.941,0.782-0.979,1.105-0.19,1.607C45.626,76.024,45.636,76.016,45.636,74.192z
		 M102.19,161.995c-0.942-0.389-1.713-1.086-1.713-1.553c0-1.326,4.308-5.305,5.744-5.305c1.601,0,9.895-4.891,12.727-7.506
		c3.589-3.311,2.747-7.695-2.898-15.104c-2.252-2.953-5.561-11.316-4.785-12.092c0.145-0.145,2.313-0.379,4.816-0.516l4.555-0.252
		l2.431,4.578c3.119,5.871,2.863,5.283,4.828,11.059c3.008,8.84,3.06,8.562-2.357,12.717c-2.641,2.025-6.018,4.742-7.504,6.033
		c-1.486,1.295-3.308,2.572-4.047,2.842s-1.661,1.322-2.048,2.342c-0.387,1.018-0.981,2.018-1.322,2.221
		C109.191,162.305,103.776,162.651,102.19,161.995z M32.688,128.393c0-1.725,2.107-8.588,3.384-11.021
		c0.443-0.844,2.407-3.939,4.364-6.878c1.958-2.939,3.772-6.196,4.034-7.237c0.4-1.594,1.643-2.301,7.866-4.477
		c4.065-1.421,7.751-2.719,8.191-2.883s1.352,0.859,2.026,2.276l1.227,2.575l-6.977,2.113c-8.022,2.429-9.573,3.604-12.261,9.287
		c-1.228,2.6-2.631,4.387-3.79,4.828c-2.468,0.939-3.039,3.152-1.662,6.451l1.137,2.725l-2.803,1.908
		C34.014,130.378,32.688,130.471,32.688,128.393z M29.059,64.135c-3.119-1.394-1.887-3.934,1.444-2.975
		c1.608,0.464,1.759,0.766,1.066,2.138C30.905,64.613,30.46,64.761,29.059,64.135z M23.423,62.263
		c-2.147-0.455-2.373-2.47-0.277-2.47c1.009,0,2.005,0.273,2.211,0.608C25.975,61.403,24.782,62.551,23.423,62.263z M17.455,59.436
		c0-0.683,0.446-0.949,1.142-0.681c1.479,0.568,1.479,1.801,0,1.801C17.969,60.556,17.455,60.052,17.455,59.436z M13.646,58.292
		c0-0.406,0.514-0.541,1.143-0.3c1.463,0.562,1.463,1.039,0,1.039C14.16,59.03,13.646,58.698,13.646,58.292z"/>
</g>
</svg>
