<?xml version="1.0" encoding="UTF-8" standalone="no"?>
<!-- Generator: Adobe Illustrator 16.0.4, SVG Export Plug-In . SVG Version: 6.00 Build 0)  -->

<svg
   xmlns:dc="http://purl.org/dc/elements/1.1/"
   xmlns:cc="http://creativecommons.org/ns#"
   xmlns:rdf="http://www.w3.org/1999/02/22-rdf-syntax-ns#"
   xmlns:svg="http://www.w3.org/2000/svg"
   xmlns="http://www.w3.org/2000/svg"
   xmlns:sodipodi="http://sodipodi.sourceforge.net/DTD/sodipodi-0.dtd"
   xmlns:inkscape="http://www.inkscape.org/namespaces/inkscape"
   version="1.1"
   id="unicorn"
   x="0px"
   y="0px"
   width="180"
   height="180"
   viewBox="0 0 180 180"
   enable-background="new 0 0 180 180"
   xml:space="preserve"
   inkscape:version="0.48.3.1 r9886"
   sodipodi:docname="unicorn_black.svg"><metadata
   id="metadata3043"><rdf:RDF><cc:Work
       rdf:about=""><dc:format>image/svg+xml</dc:format><dc:type
         rdf:resource="http://purl.org/dc/dcmitype/StillImage" /></cc:Work></rdf:RDF></metadata><defs
   id="defs3041" /><sodipodi:namedview
   pagecolor="#ffffff"
   bordercolor="#666666"
   borderopacity="1"
   objecttolerance="10"
   gridtolerance="10"
   guidetolerance="10"
   inkscape:pageopacity="0"
   inkscape:pageshadow="2"
   inkscape:window-width="1656"
   inkscape:window-height="1112"
   id="namedview3039"
   showgrid="false"
   inkscape:zoom="4.95"
   inkscape:cx="90"
   inkscape:cy="90"
   inkscape:window-x="145"
   inkscape:window-y="31"
   inkscape:window-maximized="0"
   inkscape:current-layer="layer2" />
<g
   id="layer2"
   transform="translate(-13.44662,-20.090429)"
   inkscape:label="unicorn"
   inkscape:groupmode="layer">
	
		<path
   id="path2222"
   sodipodi:nodetypes="cssssssssssssssscccssssssssssssssssssccccccsssssssssssssssssssssssssssssscccscccsssssscsssscccssssscccscccsssscccssssssccssssscccssccccs"
   d="m 138.34342,196.27785 c -3.16425,-1.2508 0.44748,-10.02745 4.13895,-10.06412 3.5599,-0.0324 3.84095,-1.0858 3.52203,-13.23973 -0.34383,-13.15935 -0.51126,-13.56687 -9.02135,-21.73012 -6.18898,-5.93524 -11.03153,-13.84467 -13.28288,-21.69487 -0.92685,-3.23061 -1.98227,-6.2624 -2.34603,-6.7362 -0.36377,-0.47381 -4.41899,-0.45124 -9.01139,0.0494 -5.37873,0.58945 -9.96914,0.51188 -12.904169,-0.21434 -4.516657,-1.11823 -6.449092,-2.27736 -16.699273,-10.03589 -5.170436,-3.91173 -5.466431,-4.00055 -11.006611,-3.3237 -3.131363,0.38215 -7.619119,1.20426 -9.972125,1.82755 -4.136948,1.09566 -4.294413,1.26205 -4.735913,5.04967 -1.193944,10.22909 0.189357,16.28844 3.717372,16.28844 1.0305,0 2.170627,0.90671 2.61412,2.07994 1.023524,2.71026 1.017544,10.82699 -0.008,10.82699 -0.931835,0 -4.519648,-4.88329 -4.519648,-6.14959 0,-0.47944 -1.281646,-1.99111 -2.846331,-3.36599 l -2.846331,-2.49592 -0.168428,-12.40493 c -0.09269,-6.82222 0.160455,-13.27922 0.563088,-14.34245 0.401635,-1.06605 1.844733,-2.2534 3.204115,-2.63836 4.455864,-1.26348 9.685101,-3.92862 9.685101,-4.938273 0,-0.54572 -0.328883,-0.98992 -0.732512,-0.98992 -1.049435,0 -2.125779,-3.22921 -3.417391,-10.257305 -0.924859,-5.028529 -0.969706,-7.434214 -0.251147,-13.373689 0.810247,-6.698126 0.752444,-7.578048 -0.77736,-11.736526 -0.909909,-2.47196 -1.653383,-5.354269 -1.653383,-6.406228 0,-1.051957 -0.501297,-2.851285 -1.114215,-4.000543 -1.344433,-2.518495 -1.431139,-1.883936 -0.344829,2.529776 0.624877,2.541058 0.529202,5.331708 -0.406619,11.832415 -0.735501,5.110316 -2.641678,6.430195 -2.342694,9.078422 0.570064,5.055322 -0.69165,7.741623 -3.636646,7.741623 -3.07057,0 -4.971114,-2.824494 -5.862087,-8.714615 C 45.423416,71.708212 45.241685,69.133317 43.502593,64.314898 41.761507,59.495068 40.12108,54.857145 39.854984,54.009656 39.588887,53.162167 38.19861,51.90856 36.764482,51.224647 34.759293,50.267167 15.727606,44.201272 15.133385,42.088335 14.22465,38.857049 34.437387,44.829699 36.967791,45.141339 l 2.809457,0.346891 c 0,0 -0.102532,-0.673074 -0.304553,-1.885195 -0.932832,-4.606899 -0.435521,-5.069421 2.332078,-2.171601 l 1.884187,0.782472 1.932435,-2.153272 c 1.063388,-1.184511 2.944,-4.131685 4.178805,-6.548651 2.930047,-5.729365 4.793716,-6.655821 10.523253,-5.225947 3.522036,0.879921 4.864476,0.837617 5.727544,-0.176268 0.619894,-0.729037 1.121192,-0.902483 1.115212,-0.386375 -0.01993,1.589218 -1.058405,3.210869 -2.564289,4.000543 -2.838359,1.489098 -0.46243,1.993926 3.322713,0.706475 3.702423,-1.259247 3.992437,-1.19015 6.852721,1.617421 2.117806,2.079945 3.642626,2.796291 5.244186,2.4635 2.850318,-0.592255 2.211488,1.027986 -1.201917,3.048706 -1.427152,0.846078 -2.397855,1.986875 -2.157671,2.538236 0.264103,0.606357 1.152087,0.540081 2.244376,-0.164986 1.385295,-0.894022 2.651992,-0.75865 5.421584,0.578155 1.988246,0.9603 4.408026,1.745743 5.377732,1.745743 2.444695,0 2.202518,1.773945 -0.51525,3.765052 -1.251748,0.916585 -2.277264,1.874064 -2.277264,2.127889 0,0.253822 1.65139,0.181906 3.669534,-0.155115 3.372544,-0.566873 3.96553,-0.296127 7.321131,3.332141 2.008179,2.171602 4.114025,3.697364 4.680105,3.388546 1.89058,-1.027986 1.05741,0.373685 -1.21089,2.034819 -1.23082,0.902485 -2.939016,1.641394 -3.795108,1.641394 -2.23441,0 -1.953364,1.675237 1.557709,9.311099 3.342649,7.269228 7.268309,10.898907 14.346269,13.263698 11.27769,3.770692 18.13539,6.345593 20.27512,7.611891 2.11681,1.253607 2.79152,1.204252 5.13656,-0.382146 1.54375,-1.042087 3.05562,-3.098059 3.52901,-4.790216 1.767,-6.337133 2.94898,-8.432588 6.11224,-10.849555 4.55851,-3.481614 10.71858,-2.890769 13.24301,1.267709 1.79889,2.962687 1.92347,3.688905 3.29182,19.141129 1.12219,12.661589 2.69684,19.606479 5.45547,24.056849 2.16265,3.4929 2.63405,3.75096 6.82382,3.75096 5.69465,0 9.46783,-2.1702 12.65102,-7.27347 l 2.50848,-4.02028 -1.21886,4.30089 c -1.25872,4.45038 -4.93823,10.58447 -7.59121,12.65876 -0.83616,0.6529 -3.22704,1.78241 -5.31395,2.50863 l -3.79611,1.3227 4.63725,0.093 c 3.65957,0.072 5.52922,-0.54854 8.86887,-2.93306 3.80009,-2.71592 4.14991,-2.80617 3.42038,-0.8757 -1.34443,3.56058 -7.47161,12.35839 -10.37974,14.90509 -2.18358,1.91072 -3.88081,2.39018 -8.54896,2.40991 -5.39268,0.0281 -6.04147,-0.21715 -8.7433,-3.30534 -1.60454,-1.82895 -6.49095,-2.98808 -7.47161,-13.71353 -0.55412,-6.04807 0,-18.98178 0,-18.98178 0,0 1.34941,-10.958133 -0.47539,-18.837963 -1.42018,-6.139713 -6.16805,-9.21098 -9.34824,-2.167372 -1.46204,3.237662 -3.30577,6.461222 -4.09908,7.162059 -1.39925,1.238093 -1.38729,1.425653 0.42157,6.365346 2.62109,7.15501 2.94001,15.43952 1.07634,27.91214 l -1.52681,10.21783 1.85171,3.82285 c 1.01854,2.1011 3.04765,5.46426 4.50769,7.46948 3.00479,4.12603 3.10545,5.40079 2.16564,27.17463 -0.42456,9.83567 -0.68268,11.44886 -1.89656,11.8987 -0.77337,0.28908 -1.40722,1.26207 -1.40722,2.16455 0,0.90248 -0.59797,1.88957 -1.32849,2.19558 -2.45266,1.01669 -6.62948,1.55959 -7.96893,1.0308 z M 46.721458,57.982249 c 0,-1.938932 -1.187499,-2.074305 -2.184113,-0.901076 -0.937814,1.102724 -0.975686,1.558196 -0.189357,2.266082 1.353403,1.218354 2.37347,1.207073 2.37347,-1.365006 z M 101.52749,185.14627 c -0.93881,-0.54855 -1.707204,-1.5314 -1.707204,-2.18994 0,-1.86983 4.293414,-7.48075 5.724554,-7.48075 1.59558,0 9.8615,-6.89695 12.68391,-10.58445 3.57685,-4.66895 2.7377,-10.85095 -2.88819,-21.29863 -2.24437,-4.1641 -5.54217,-15.95705 -4.7688,-17.0513 0.14451,-0.20448 2.30517,-0.53444 4.7997,-0.72763 l 4.53958,-0.35536 2.42277,6.45559 c 3.10844,8.27888 2.85331,7.44972 4.81165,15.59464 2.99782,12.46557 3.04964,12.07354 -2.34902,17.93264 -2.63206,2.85551 -5.99762,6.68685 -7.47859,8.50733 -1.48097,1.82613 -3.2968,3.62685 -4.0333,4.0076 -0.7365,0.38073 -1.65538,1.86418 -2.04107,3.30252 -0.38569,1.43552 -0.97768,2.84566 -1.31752,3.1319 -1.42117,1.19298 -6.81784,1.68088 -8.39847,0.75584 z M 32.260781,137.76302 c 0,-2.43248 2.099867,-12.11021 3.372543,-15.54105 0.441501,-1.19016 2.398852,-5.55452 4.349226,-9.69889 1.951372,-4.14437 3.75923,-8.73718 4.020343,-10.20512 0.398646,-2.24775 1.637438,-3.244723 7.83937,-6.313169 4.051239,-2.003807 7.72476,-3.834153 8.16327,-4.065414 0.438511,-0.231261 1.347423,1.211302 2.019141,3.209459 l 1.222846,3.631101 -6.953379,2.979603 c -7.994842,3.42521 -9.540591,5.08212 -12.219491,13.0959 -1.223843,3.66634 -2.622093,6.18624 -3.77717,6.80812 -2.459644,1.3241 -3.028711,4.44473 -1.656373,9.09674 l 1.133151,3.84262 -2.793511,2.69052 c -3.398455,3.2687 -4.719966,3.39984 -4.719966,0.46958 z"
   inkscape:connector-curvature="0"
   style="fill:#010101" />
</g>
</svg>