<?xml version="1.0" encoding="utf-8"?>
<!-- Generator: Adobe Illustrator 17.0.0, SVG Export Plug-In . SVG Version: 6.00 Build 0)  -->
<!DOCTYPE svg PUBLIC "-//W3C//DTD SVG 1.1//EN" "http://www.w3.org/Graphics/SVG/1.1/DTD/svg11.dtd">
<svg version="1.1" id="Layer_1" xmlns="http://www.w3.org/2000/svg" xmlns:xlink="http://www.w3.org/1999/xlink" x="0px" y="0px"
	 width="160px" height="160px" viewBox="0 0 160 160" enable-background="new 0 0 160 160" xml:space="preserve">
<g>
	<g>
		<path d="M-0.239,28.642c0,0,0.432-0.945,0.71-0.888c4.544,0.932,15.743,8.378,17.317,8.296c-0.181-1.455-0.36-2.889-0.613-4.926
			c1.868,1.076,3.227,1.859,4.838,2.788c3.109-3.135,5.289-7.787,9.435-9.514c3.902-1.626,8.454,0,12.682,0
			c-0.885,1.133-1.769,2.266-2.654,3.399c5.75-3.036,10.135,2.411,16.295,2.885c-1.829,1.133-3.151,1.951-4.231,2.62
			c4.223,0.787,8.511,1.587,13.519,2.52c-1.495,1.358-2.424,2.203-3.354,3.047c5.798-1.367,9.115,3.374,14.18,5.47
			c-2.608,0.977-4.656,1.744-6.895,2.583c2.692,6.361,6.492,11.355,13.252,13.278c7.627,2.169,15.278,4.27,22.984,6.132
			c3.767,0.91,5.995-1.535,7.536-4.637c2.802-5.64,6.433-7.86,12.383-7.513c4.041,0.236,6.485,2.251,7.182,6.226
			c0.835,4.764,1.486,9.561,2.239,14.34c0.135,0.854,0.354,1.697,0.579,2.532c3.015,11.183,12.993,13.861,21.312,5.709
			c0.527-0.516,0.905-1.185,1.766-2.337c-0.775,5.947-4.226,9.202-12.794,13.319c2.156-0.284,4.366-0.361,6.452-0.909
			c2.095-0.549,4.067-1.567,6.356-2.485c-3.72,8.808-14.189,14.59-22.492,11.842c-5.151-1.705-10.126-4.742-10.406-11.311
			c-0.18-4.206,0.138-8.431,0.087-12.646c-0.046-3.822,0.101-7.718-0.619-11.43c-0.327-1.688-2.327-3.801-3.967-4.244
			c-1.264-0.342-3.358,1.39-4.721,2.606c-3.652,3.258-4.862,6.651-2.293,11.73c2.728,5.392,1.044,11.548-0.434,17.165
			c-1.049,3.987-0.473,7.107,2.545,9.646c4.739,3.985,5.603,9.016,4.766,14.793c-0.425,2.937-0.293,5.954-0.445,8.933
			c-0.274,5.366-4.264,9.263-9.707,8.589c-1.014-0.126-2.502-0.369-2.832-1.028c-0.372-0.744,0.012-2.269,0.616-3.003
			c0.891-1.083,2.226-2.423,3.443-2.497c3.524-0.217,4.002-2.357,3.921-5.065c-0.089-2.981,0.221-6.104-0.583-8.895
			c-0.699-2.425-2.365-4.83-4.216-6.606c-3.209-3.078-7.258-5.321-10.265-8.555c-2.644-2.844-4.607-6.435-6.37-9.947
			c-1.252-2.495-2.7-3.298-5.446-3.257c-6.307,0.094-12.799,0.624-18.878-0.645c-5.312-1.108-10.138-4.483-15.221-6.762
			c-7.003-3.14-13.915-0.617-20.746,0.791c-0.878,0.181-1.539,3.139-1.672,4.86c-0.288,3.709-0.568,7.146,4.565,8.718
			c3.268,1.001,2.338,4.842,1.265,7.95c-3.628-4.516-11.002-6.23-9.598-14.367c0.606-3.511-0.86-7.891,0.77-10.561
			c1.432-2.346,5.875-2.848,8.98-4.181c0.78-0.335,1.533-0.734,2.339-1.123c-3.206-4.832-4.979-9.998-3.65-15.538
			c1.383-5.761-1.629-10.245-3.206-15.46c-0.474,6.87-0.847,13.43-1.463,19.967c-0.093,0.984-1.227,2.527-2.044,2.642
			c-1.448,0.204-3.346-0.069-4.455-0.923c-1.144-0.881-1.655-2.655-2.295-4.105c-2.299-5.208-4.429-10.494-6.875-15.63
			c-0.567-1.191-2.166-1.872-3.234-2.849C14.388,39.252,2.295,30.97-0.239,28.642"/>
		<path d="M80.181,92.187c3.094-0.206,5.527-0.501,7.952-0.452c0.752,0.015,1.857,0.804,2.168,1.515
			c2.574,5.877,5.225,11.741,7.307,17.797c0.51,1.485-0.432,4.27-1.671,5.405c-3.826,3.504-8.127,6.487-12.22,9.703
			c-0.768,0.603-1.553,1.255-2.113,2.04c-1.95,2.732-5.706,4.028-8.945,3.01c-1.896-0.596-2.548-1.706-1.037-3.206
			c1.295-1.286,2.798-2.426,4.371-3.358c3.287-1.946,6.819-3.504,9.998-5.604c4.212-2.782,4.823-5.669,2.415-10.221
			c-2.021-3.821-4.347-7.479-6.389-11.289C81.276,96.144,80.967,94.53,80.181,92.187z"/>
		<path d="M14.37,96.944c-2.116,1.253-4.15,2.457-6.843,4.052c-0.065-5.658,1.54-9.844,3.81-13.821
			c2.267-3.972,4.516-7.965,7.024-11.783c0.81-1.233,2.299-2.208,3.688-2.83c2.585-1.159,5.323-1.98,8.002-2.931
			c4.285-1.521,4.286-1.517,6.065,3.441c-2.88,0.918-5.747,1.868-8.636,2.743c-3.992,1.21-6.921,3.507-8.835,7.351
			c-1.003,2.014-3.034,3.493-4.229,5.442c-0.797,1.3-1.205,2.99-1.28,4.53C13.08,94.269,13.847,95.439,14.37,96.944z"/>
	</g>
</g>
</svg>
