<?xml version="1.0" encoding="utf-8"?>
<!-- Generator: Adobe Illustrator 17.0.0, SVG Export Plug-In . SVG Version: 6.00 Build 0)  -->
<!DOCTYPE svg PUBLIC "-//W3C//DTD SVG 1.1//EN" "http://www.w3.org/Graphics/SVG/1.1/DTD/svg11.dtd">
<svg version="1.1" id="Layer_1" xmlns="http://www.w3.org/2000/svg" xmlns:xlink="http://www.w3.org/1999/xlink" x="0px" y="0px"
	 width="160px" height="80px" viewBox="0 0 160 80" enable-background="new 0 0 160 80" xml:space="preserve">
<g>
	<path d="M21.281,33.562l-0.164,0.398c-0.528,0.124-1.384,0.169-2.569,0.133c-0.02,0.052-0.08,0.177-0.179,0.372
		c0.05,0.973-0.125,2.362-0.522,4.166c-0.398,1.806-0.807,3.609-1.225,5.415c-0.05,0.018-0.14,0.106-0.269,0.265
		c-0.139,0-0.279-0.168-0.418-0.504c-0.677-3.273-1.409-6.44-2.195-9.502h-3.241c-0.109,1.415-0.403,3.15-0.881,5.201
		c-0.16,0.69-0.553,2.211-1.18,4.564H7.975c-0.657-2.336-1.22-4.777-1.688-7.324c-0.259-1.434-0.538-2.247-0.836-2.441
		c-0.209-0.141-1.125-0.213-2.748-0.213c-0.846,0-1.399,0.071-1.658,0.213c-0.199-0.336-0.299-0.655-0.299-0.955
		c0-1.663,0.493-2.495,1.479-2.495c0.1,0,0.607,0.143,1.523,0.424c0.916,0.284,1.423,0.424,1.523,0.424
		c0.189,0,0.413-0.213,0.672-0.637c0.109,0.177,0.239,0.541,0.388,1.088c0.09-0.07,0.164-0.221,0.224-0.451
		c0.08-0.301,0.154-0.513,0.224-0.637c0.089,0.036,0.179,0.053,0.269,0.053c0.129,0,0.281-0.044,0.456-0.133
		C7.678,30.9,7.79,30.855,7.84,30.855c0.09,0,0.239,0.071,0.448,0.213c0.209,0.143,0.363,0.213,0.463,0.213
		c0.099,0,0.229-0.057,0.388-0.172s0.274-0.172,0.343-0.172c0.389-0.053,1.528-0.08,3.42-0.08c0.109,0,0.478,0.071,1.105,0.213
		c0.627,0.143,0.995,0.213,1.105,0.213c0.089,0,0.187-0.07,0.291-0.213c0.104-0.141,0.211-0.213,0.321-0.213
		c0.099,0,0.251,0.143,0.456,0.424c0.204,0.284,0.355,0.424,0.456,0.424c0.099,0,0.373-0.106,0.821-0.318
		c0.448-0.213,0.722-0.318,0.821-0.318c0.289,0,0.652,0.248,1.09,0.743c0.06,0.195,0.199,0.513,0.418,0.955
		c0.259,0.071,0.518,0.143,0.776,0.213C20.873,33.083,21.112,33.278,21.281,33.562z M5.391,50.972
		c-0.358,0.088-0.647-0.213-0.866-0.903c-0.129-0.567-0.259-1.132-0.388-1.699C2.116,40.497,1.12,36.277,1.15,35.711v-0.743
		L5.391,50.972z M6.601,50.653c0,0.353-0.05,0.627-0.149,0.822l-0.553-0.266l0.134-0.796L6.601,50.653z M7.467,33.35l-0.298-0.557
		L6.856,33.35c0.069,0.106,0.174,0.159,0.313,0.159C7.308,33.509,7.407,33.455,7.467,33.35z M9.543,50.308
		c-0.12,0.229-0.249,0.346-0.388,0.346c-0.07,0-0.14-0.036-0.209-0.107c0-0.106,0.055-0.271,0.165-0.491
		c0.109-0.222,0.194-0.331,0.254-0.331C9.483,49.724,9.543,49.919,9.543,50.308z M12.634,50.786l-0.09,0.478
		c-1.344-3.591-2.016-5.547-2.016-5.867c0-0.229,0.132-0.826,0.396-1.792c0.264-0.965,0.51-1.738,0.739-2.321
		c0.08,0,0.189,0.088,0.329,0.265c0.159,0.23,0.239,0.461,0.239,0.69c0,0.177-0.08,0.792-0.239,1.845
		c-0.16,1.053-0.239,1.667-0.239,1.845c0,0.159,0.109,0.805,0.329,1.938C12.361,49.247,12.545,50.22,12.634,50.786z M15.636,33.111
		v-0.398h-0.448v0.398H15.636z"/>
	<path d="M37.559,49.088c0,0.229-0.06,0.478-0.179,0.743c-0.119,0.266-0.244,0.451-0.373,0.558
		c-0.229-0.407-0.344-0.805-0.344-1.195c0-0.106,0.015-0.327,0.045-0.663l-0.104-15.765c-0.578-0.088-1.299-0.115-2.166-0.08
		c-1.354,0.071-2.071,0.106-2.15,0.106c-0.1,0.372-0.149,0.841-0.149,1.407c0,0.318,0.02,0.814,0.06,1.486
		c0.04,0.672,0.06,1.16,0.06,1.46c0,0.849-0.115,1.496-0.344,1.938h-6.063c0.01-1.132,0.005-2.769-0.015-4.91l0.299-0.504
		c0.318,0.283,0.527,0.646,0.627,1.088c0.12-0.177,0.179-0.469,0.179-0.876c0-0.76-0.159-1.141-0.478-1.141
		c-0.05,0-0.112,0.008-0.187,0.026c-0.074,0.018-0.122,0.026-0.142,0.026c-0.07,0-0.468,0.045-1.195,0.133
		c-0.776,0.089-1.349,0.141-1.717,0.159c-0.189,0.177-0.284,0.478-0.284,0.903c0,3.185,0,4.787,0,4.803
		c-0.02,0.406,0,1.177,0.06,2.308c0.069,1.274,0.104,2.248,0.104,2.92c0,1.521-0.129,2.778-0.388,3.768
		c-0.03-0.195-0.077-0.57-0.142-1.127c-0.064-0.558-0.117-0.933-0.157-1.127l-0.119-9.369c0-0.99,0-1.512,0-1.566
		c0.06-0.707,0.233-1.433,0.522-2.176c0.12-0.301,0.388-0.487,0.807-0.557c0.498-0.088,0.836-0.221,1.015-0.398
		c0.349-0.372,0.627-0.805,0.836-1.301c0.05-0.124,0.393-0.185,1.031-0.185c0.736,0,1.15,0.239,1.239,0.716
		c0.04,0.39,0.084,0.778,0.134,1.168c0.07,0.549,0.194,0.92,0.374,1.114c0.318,0.372,0.742,0.594,1.27,0.664
		c0.119,0.036,0.572,0.053,1.359,0.053c0.209-0.619,0.333-0.983,0.373-1.088c0.169-0.406,0.329-0.672,0.478-0.796
		c0.518-0.46,1.24-0.929,2.166-1.407c0.826-0.424,1.334-0.637,1.523-0.637c0.328,0,0.707,0.177,1.135,0.531
		c0.388,0.318,0.612,1.257,0.672,2.813c0.14,3.804,0.209,6.203,0.209,7.192c0,2.123,0.01,3.911,0.03,5.362
		c0.02,0.991,0.04,1.831,0.06,2.521C37.549,48.751,37.559,49.052,37.559,49.088z M25.507,50.918l-0.149,0.585l-0.179-0.133
		l0.165-0.557L25.507,50.918z M32.183,43.726c0,0.531-0.12,0.796-0.358,0.796c-0.1,0-0.364-0.034-0.792-0.106
		s-0.692-0.107-0.792-0.107c-0.647,0-0.981,0-1,0c-0.448,0.089-0.717,0.346-0.807,0.77c0,1.009,0,2.008,0,2.999
		c-0.01,1.397-0.115,2.238-0.313,2.521c-0.09,0-0.179-0.063-0.269-0.185c-0.12-0.16-0.179-0.355-0.179-0.585v-5.89
		c0.04-0.071,0.214-0.283,0.523-0.637c0.259-0.018,0.727-0.071,1.404-0.159c0.627-0.088,0.98-0.133,1.06-0.133
		C31.376,43.009,31.884,43.248,32.183,43.726z M36.454,50.335c-0.02,0-0.104,0.044-0.254,0.132
		c-0.149,0.089-0.284,0.133-0.403,0.133c-0.398,0-0.647-0.939-0.747-2.813c-0.02-0.213-0.035-1.335-0.045-3.37l-0.134-9.554
		c0-0.124,0.095-0.522,0.284-1.194c0.358,0.106,0.583,0.805,0.672,2.097c0.02,0.336,0.03,1.186,0.03,2.548V48.93
		C36.175,49.495,36.374,49.963,36.454,50.335z"/>
	<path d="M45.414,45.293c0,0.671-0.14,1.353-0.418,2.043c-0.09-0.071-0.185-0.159-0.284-0.266c-0.16-2.583-0.324-7.129-0.493-13.641
		c-1.334-0.265-2.852-0.273-4.555-0.026l1.09,16.137c0.129,0,0.284-0.204,0.463-0.611c0.02-1.628-0.005-3.955-0.075-6.981
		c-0.07-3.361-0.104-5.749-0.104-7.165c0.129,0.053,0.269,0.143,0.418,0.266c0.299,4.688,0.448,8.104,0.448,10.244
		c0,0.372,0.055,1.079,0.164,2.123c0.109,1.043,0.165,1.636,0.165,1.777c0,0.514-0.13,0.929-0.389,1.249
		c-0.219,0.247-0.453,0.372-0.702,0.372c-0.269,0-0.623-0.169-1.061-0.505c-0.05-0.301-0.134-0.583-0.254-0.849
		c-0.129-3.255-0.313-8.102-0.552-14.544c-0.02-0.018-0.125-0.115-0.313-0.292c-0.13-0.106-0.219-0.247-0.269-0.424
		c0.179-0.177,0.408-0.469,0.687-0.876c-0.09-1.805,0.478-2.706,1.703-2.706c0.109,0,0.547,0.213,1.314,0.637
		c0.587,0.336,1.175,0.663,1.762,0.981c0.199,0.213,0.358,0.495,0.478,0.849c0.298,1.61,0.473,3.486,0.522,5.627
		c0.01,1.964,0.025,3.928,0.045,5.892c0.04,0.071,0.084,0.146,0.134,0.225C45.389,44.907,45.414,45.062,45.414,45.293z"/>
	<path d="M59.407,35.737c0,1.363-0.199,2.043-0.598,2.043c-0.159,0-0.301-0.106-0.425-0.318c-0.125-0.213-0.187-0.424-0.187-0.637
		c0-0.442,0.08-0.999,0.239-1.672c0.149-0.601,0.273-0.973,0.373-1.114l-9.169-0.372c-1.105,0-1.887,0.097-2.345,0.292
		c-0.089,0.195-0.177,0.504-0.261,0.929c-0.084,0.425-0.167,0.743-0.246,0.955c-0.12-0.07-0.224-0.225-0.314-0.465
		c-0.089-0.239-0.134-0.482-0.134-0.729c0-0.796,0.219-1.434,0.657-1.91c0.278-0.283,0.552-0.557,0.821-0.823
		c0.149-0.318,0.239-0.725,0.269-1.22c0.647-0.92,2.365-1.381,5.152-1.381c0.219,0,0.807,0.071,1.762,0.213
		c1.085,0.141,1.807,0.274,2.166,0.398c0.179,0.036,0.363,0.071,0.553,0.106c0.239,0.036,0.428,0.124,0.567,0.266
		c0.08,0.071,0.144,0.257,0.194,0.557c0.03,0.23,0.065,0.469,0.105,0.718c0.119,0.159,0.258,0.45,0.418,0.876
		C59.273,34.217,59.407,35.313,59.407,35.737z M50.969,38.392c0.04,4.3,0.025,6.45-0.044,6.45l-0.418-7.006
		c0.07,0,0.165,0.067,0.284,0.198C50.91,38.167,50.969,38.286,50.969,38.392z M50.94,48.212c0.159,0.283,0.154,0.574-0.015,0.876
		l-0.314-0.557C50.76,48.318,50.87,48.212,50.94,48.212z M55.509,37.888c-0.03,0.159-0.129,0.495-0.299,1.009
		c-0.129,0.424-0.194,0.734-0.194,0.928v10.272c-0.05,0.213-0.169,0.461-0.358,0.744c-0.189,0.282-0.354,0.424-0.493,0.424
		c-0.109,0-0.196-0.045-0.261-0.133s-0.137-0.132-0.216-0.132c-0.01-0.514,0.01-1.22,0.06-2.123c0.04-0.762,0.08-1.522,0.12-2.282
		c0.069-1.663,0.044-3.344-0.075-5.043c0.129-0.07,0.333-0.213,0.612-0.424c-0.03-0.124-0.125-0.309-0.284-0.557
		c-0.13-0.195-0.194-0.372-0.194-0.531c0.09-0.159,0.293-0.238,0.612-0.238c-0.01-0.071-0.015-0.159-0.015-0.266
		c0-0.336,0.045-0.69,0.135-1.062c0.099-0.442,0.234-0.743,0.403-0.903C55.241,37.569,55.39,37.675,55.509,37.888z"/>
	<path d="M61.393,43.116c0,3.945-0.09,6.653-0.269,8.121c-0.089,0-0.234-0.239-0.433-0.718c0-0.195-0.025-0.606-0.074-1.234
		c-0.05-0.627-0.075-1.03-0.075-1.207V35.976c0-0.229,0.047-0.424,0.142-0.583c0.095-0.159,0.182-0.301,0.261-0.424
		c0.1,0,0.234,0.239,0.403,0.716C61.378,36.463,61.393,38.94,61.393,43.116z M73.116,35.737c0,0.513-0.129,1.124-0.388,1.832
		c-0.339-0.052-0.508-0.531-0.508-1.433c0-0.548,0.06-1.176,0.179-1.884c-0.02-0.034-0.04-0.124-0.06-0.265
		c-0.01-0.071-0.075-0.106-0.194-0.106l-9.841,0.451c-0.2,0.052-0.538,0.036-1.016-0.053c0-0.052-0.022-0.115-0.067-0.185
		s-0.067-0.213-0.067-0.424c0-0.318,0.139-0.739,0.418-1.261s0.418-0.898,0.418-1.129c0-0.124-0.025-0.247-0.075-0.372
		c0.926-0.478,1.787-0.805,2.584-0.983c1.145-0.247,1.961-0.372,2.449-0.372c0.229,0,0.866,0.071,1.912,0.213
		c1.234,0.177,2.195,0.354,2.882,0.531c0.249,0.567,0.553,1.61,0.911,3.132C72.962,34.792,73.116,35.562,73.116,35.737z
		 M73.116,49.856c0,0.442-0.134,0.912-0.403,1.408c-0.249-0.213-0.373-0.682-0.373-1.408c0-0.052,0-0.12,0-0.198
		c0-0.08,0-0.138,0-0.173c0-0.442-0.04-0.752-0.12-0.929c-0.11-0.247-0.319-0.362-0.627-0.345L64.5,47.998
		c-0.279-0.229-0.418-0.699-0.418-1.407c0-0.424,0.1-1.01,0.299-1.752c0.906-0.372,1.688-0.539,2.345-0.505h3.614v-3.078h-5.958
		c-0.279-0.177-0.418-0.539-0.418-1.088c0-0.372,0.074-0.841,0.224-1.407c0.209-0.778,0.478-1.176,0.807-1.194l4.645-0.213
		c0.229,0,0.821,0.169,1.777,0.504c-0.149,0.301-0.378,0.531-0.687,0.69c-0.448,0.247-0.707,0.406-0.776,0.478
		c0.338,0.92,0.508,1.619,0.508,2.097c0.069,0.071,0.169,0.213,0.299,0.424c0.03,0.213,0.084,0.815,0.164,1.806
		c0.06,0.796,0.149,1.424,0.269,1.884c0.099,0.39,0.487,0.832,1.165,1.327c0.169,0.124,0.344,0.619,0.523,1.486
		C73.036,48.831,73.116,49.432,73.116,49.856z"/>
	<path d="M96.563,42.904c0,1.522-0.496,3.234-1.486,5.135c-0.99,1.901-1.934,2.959-2.83,3.172c-0.029-0.266-0.006-0.434,0.074-0.505
		c0.26-0.195,0.623-0.53,1.09-1.009c0.996-1.327,1.648-2.539,1.957-3.637c0.229-0.849,0.344-2.053,0.344-3.609
		c0-1.079-0.01-1.752-0.029-2.016c-0.09-0.956-0.324-1.689-0.703-2.203c-0.068,0.159-0.104,0.38-0.104,0.664
		c0,0.335,0.057,0.817,0.172,1.447c0.113,0.627,0.172,1.013,0.172,1.155c0,0.796-0.135,1.645-0.404,2.548h-0.238
		c-0.07-1.61-0.154-2.849-0.254-3.716s-0.453-1.938-1.061-3.211c-0.637-1.344-1.234-2.229-1.793-2.654
		c-0.178-0.176-0.422-0.416-0.73-0.716c-0.518-0.495-1.508-0.743-2.973-0.743c-1.713,0-3.047,0.461-4.002,1.381
		c-1.344,1.274-2.305,3.619-2.882,7.033c-0.05,0.159-0.159,0.398-0.329,0.718c-0.159-0.442-0.239-0.805-0.239-1.088
		c0-2.105,0.502-4.194,1.508-6.263c0.338-0.671,0.797-1.344,1.373-2.017c0.518-0.531,1.037-1.07,1.555-1.618
		c0.387-0.39,0.965-0.655,1.732-0.796c0.09-0.018,0.232-0.124,0.432-0.318c0.199-0.195,0.34-0.301,0.418-0.318
		c1.146-0.265,1.863-0.398,2.152-0.398c1.434,0,2.936,0.672,4.51,2.017c0,0.213-0.119,0.522-0.359,0.929
		c0.119,0.424,0.379,1.035,0.777,1.832c0.447,0.867,0.74,1.496,0.881,1.884c0.318,0.885,0.602,1.947,0.852,3.185
		C96.422,40.578,96.563,41.825,96.563,42.904z M91.559,42.134c0,1.821-0.492,3.273-1.479,4.352
		c-0.766,0.866-1.537,1.301-2.314,1.301c-0.646,0-1.389-0.32-2.225-0.956c-0.936-0.725-1.453-1.529-1.553-2.414l0.148-1.619
		c0.07,0.053,0.328,0.487,0.777,1.301h0.447c0.1-0.159,0.15-0.451,0.15-0.876c0-0.159-0.01-0.411-0.031-0.756
		c-0.02-0.346-0.029-0.588-0.029-0.731c0-0.159,0.01-0.291,0.029-0.398c0.479-2.795,1.145-4.183,2.002-4.166h1.016
		c-0.141,0.39-0.328,0.637-0.568,0.743c-0.148,0.052-0.293,0.106-0.432,0.159c-0.439,0.567-0.738,1.036-0.896,1.407
		c-0.199,0.478-0.299,1.035-0.299,1.672c0,0.514,0.01,0.805,0.029,0.876c0.051,0.302,0.229,0.769,0.537,1.407h2.898
		c0.299,0,0.521-0.388,0.672-1.167c0.229-1.097,0.412-1.796,0.553-2.097c0.119,0.141,0.244,0.447,0.373,0.916
		S91.559,41.905,91.559,42.134z M91.663,51.635c-0.141,0.176-0.25,0.266-0.328,0.266c-0.09-0.283-0.135-0.558-0.135-0.822
		c0.068,0,0.164,0.067,0.283,0.198S91.663,51.529,91.663,51.635z"/>
	<path d="M109.957,35.18c-1.295-1.592-2.828-2.389-4.6-2.389c-1.813,0-3.296,0.743-4.451,2.229c-1.434,1.84-2.15,4.68-2.15,8.519
		c0,0.124-0.062,0.349-0.187,0.676c-0.124,0.328-0.187,0.615-0.187,0.864c0,0.265,0.119,0.783,0.358,1.553
		c0.239,0.77,0.482,1.428,0.731,1.977c-0.537-0.318-1.025-1.22-1.463-2.706c-0.398-1.327-0.598-2.443-0.598-3.343
		c0-2.336,0.299-4.556,0.896-6.661c0.188-0.672,0.776-1.769,1.762-3.291c0.08-0.106,0.119-0.336,0.119-0.69
		c0-0.353-0.069-0.601-0.209-0.743c0.18-0.088,0.438-0.213,0.776-0.372c0.12-0.247,0.319-0.567,0.598-0.955
		c0.209-0.195,0.563-0.292,1.061-0.292c0.109,0,0.276,0.036,0.5,0.106c0.225,0.071,0.386,0.106,0.485,0.106s0.538-0.11,1.314-0.331
		c0.776-0.221,1.215-0.331,1.314-0.331c0.129,0,0.463,0.169,1,0.504c0.638,0.39,1.091,0.762,1.359,1.114
		c0.349,0.478,0.702,1.168,1.061,2.07c0.358,0.903,0.537,1.601,0.537,2.097C109.986,35.013,109.978,35.11,109.957,35.18z
		 M110.465,47.548c-0.1-0.159-0.299-0.671-0.598-1.54c-0.249-0.707-0.429-1.062-0.538-1.062c-0.119,0-0.388,0.195-0.806,0.585
		c-0.538,0.476-0.977,0.822-1.314,1.035c-0.598,0.372-1.175,0.557-1.732,0.557c-0.996,0-1.896-0.398-2.703-1.194
		c-0.966-0.956-1.448-2.22-1.448-3.795c0-0.32,0.184-0.973,0.552-1.964c0.429,1.379,0.657,2.105,0.688,2.176
		c0.14,0.372,0.288,0.583,0.448,0.637c0.029,0.018,0.304,0.025,0.821,0.025c0.1,0,0.515-0.075,1.247-0.225
		c0.731-0.15,1.147-0.225,1.247-0.225c0.687,0,1.119,0.034,1.299,0.106c0.09,0.018,0.229,0.124,0.418,0.32
		c0.229,0.229,0.379,0.362,0.448,0.398c0.169,0,0.413,0.052,0.731,0.159c0.219,0.141,0.479,0.424,0.776,0.849
		c0.319,0.478,0.474,0.84,0.464,1.088V47.548z"/>
	<path d="M112.451,43.116c0,3.945-0.089,6.653-0.269,8.121c-0.09,0-0.233-0.239-0.433-0.718c0-0.195-0.025-0.606-0.075-1.234
		c-0.05-0.627-0.074-1.03-0.074-1.207V35.976c0-0.229,0.047-0.424,0.142-0.583c0.095-0.159,0.182-0.301,0.262-0.424
		c0.099,0,0.233,0.239,0.403,0.716C112.437,36.463,112.451,38.94,112.451,43.116z M124.174,35.737c0,0.513-0.13,1.124-0.389,1.832
		c-0.338-0.052-0.508-0.531-0.508-1.433c0-0.548,0.061-1.176,0.18-1.884c-0.021-0.034-0.04-0.124-0.06-0.265
		c-0.01-0.071-0.075-0.106-0.194-0.106l-9.842,0.451c-0.199,0.052-0.537,0.036-1.016-0.053c0-0.052-0.022-0.115-0.066-0.185
		c-0.045-0.071-0.067-0.213-0.067-0.424c0-0.318,0.139-0.739,0.418-1.261c0.278-0.522,0.418-0.898,0.418-1.129
		c0-0.124-0.024-0.247-0.074-0.372c0.926-0.478,1.787-0.805,2.583-0.983c1.146-0.247,1.962-0.372,2.449-0.372
		c0.229,0,0.866,0.071,1.912,0.213c1.234,0.177,2.195,0.354,2.882,0.531c0.249,0.567,0.553,1.61,0.911,3.132
		C124.021,34.792,124.174,35.562,124.174,35.737z M124.174,49.856c0,0.442-0.135,0.912-0.403,1.408
		c-0.249-0.213-0.373-0.682-0.373-1.408c0-0.052,0-0.12,0-0.198c0-0.08,0-0.138,0-0.173c0-0.442-0.04-0.752-0.12-0.929
		c-0.109-0.247-0.318-0.362-0.627-0.345l-7.094-0.213c-0.278-0.229-0.418-0.699-0.418-1.407c0-0.424,0.1-1.01,0.299-1.752
		c0.906-0.372,1.688-0.539,2.345-0.505h3.614v-3.078h-5.959c-0.279-0.177-0.418-0.539-0.418-1.088c0-0.372,0.074-0.841,0.224-1.407
		c0.209-0.778,0.478-1.176,0.807-1.194l4.645-0.213c0.229,0,0.821,0.169,1.777,0.504c-0.149,0.301-0.379,0.531-0.688,0.69
		c-0.448,0.247-0.707,0.406-0.776,0.478c0.338,0.92,0.508,1.619,0.508,2.097c0.069,0.071,0.169,0.213,0.299,0.424
		c0.029,0.213,0.084,0.815,0.164,1.806c0.06,0.796,0.149,1.424,0.269,1.884c0.1,0.39,0.488,0.832,1.165,1.327
		c0.169,0.124,0.344,0.619,0.522,1.486C124.094,48.831,124.174,49.432,124.174,49.856z"/>
	<path d="M143.395,47.999c-0.358-0.744-1.653-3.856-3.883-9.342c-1.772-4.334-2.793-6.502-3.062-6.502
		c-2.32,0-3.963,0.169-4.929,0.504c-0.259,0.089-0.453,0.424-0.582,1.009c-0.09,0.478-0.179,0.965-0.269,1.46
		c-0.11,0.424-0.299,1.07-0.567,1.938l0.089,0.955c0.199-0.283,0.394-0.77,0.583-1.46c0.269-1.026,0.448-1.663,0.537-1.91
		c0.27-0.743,0.617-1.363,1.046-1.858c0.119,0.177,0.219,0.266,0.299,0.266v0.743l-4.6,17.224c-0.149-0.089-0.358-0.116-0.628-0.08
		c-0.408,0.071-0.597,0.107-0.567,0.107c-0.09,0-0.219-0.097-0.388-0.292c-0.26-0.283-0.394-0.424-0.403-0.424v-0.69
		c0-0.176,0.174-0.902,0.522-2.176c0.289-1.025,0.572-2.06,0.852-3.104c0.298-1.114,0.965-3.574,2.001-7.378
		c0.179-0.708,0.358-1.415,0.537-2.123c0.408-1.486,0.797-2.69,1.165-3.609c0.508-1.291,0.956-1.938,1.344-1.938
		c0.189,0,0.847,0.195,1.972,0.583c1.274,0.443,2.25,0.859,2.927,1.247c0.12,0.071,1.146,2.503,3.077,7.298
		c1.961,4.848,2.937,7.485,2.927,7.909V47.999z M128.953,42.347c-0.767,2.458-1.334,4.627-1.702,6.502
		c0.408-0.424,0.677-0.999,0.807-1.725c0.238-1.291,0.497-2.318,0.776-3.078C128.913,43.797,128.953,43.23,128.953,42.347z
		 M130.088,39.002v-0.769c-0.149,0.213-0.349,0.762-0.597,1.645c-0.26,0.939-0.364,1.549-0.313,1.832
		c0.248-0.442,0.465-0.934,0.649-1.473C130.011,39.697,130.098,39.285,130.088,39.002z M137.675,41.788
		c-0.289,0.514-0.612,0.77-0.971,0.77c-0.119,0-0.368-0.071-0.747-0.213c-0.378-0.141-0.617-0.213-0.717-0.213
		s-0.276,0.11-0.53,0.331s-0.431,0.322-0.53,0.305h-0.627l-0.269-0.505c0.338-1.274,0.881-3.123,1.628-5.547
		c0.219,0.124,0.344,0.434,0.373,0.929c0.03,0.619,0.06,0.973,0.09,1.062c0.249,0.602,0.617,1.194,1.104,1.779
		C136.878,40.913,137.277,41.346,137.675,41.788z M138.078,48.583l-0.075,0.505c-0.447-0.815-0.841-1.806-1.18-2.972
		c0.1-0.053,0.189-0.08,0.269-0.08c0.27,0,0.469,0.32,0.598,0.956C137.859,47.892,137.988,48.423,138.078,48.583z"/>
	<path d="M145.456,35.18c0,0.442-0.055,2.344-0.165,5.705c-0.109,3.645-0.188,5.795-0.238,6.45c-0.13-0.071-0.269-0.159-0.418-0.266
		c-0.011-0.194-0.04-0.535-0.09-1.021c-0.05-0.487-0.075-0.81-0.075-0.968c0-0.407,0.05-2.23,0.149-5.469
		c0.109-3.485,0.194-5.608,0.254-6.369c0.27,0.141,0.438,0.407,0.508,0.796C145.431,34.251,145.456,34.633,145.456,35.18z
		 M159.255,37.357c0,4.512-0.095,8.458-0.284,11.836c-0.04,0.655-0.289,0.983-0.746,0.983c-0.558,0-0.837-0.469-0.837-1.408
		c0-0.141,0.005-0.331,0.016-0.569c0.01-0.239,0.015-0.412,0.015-0.519l0.135-9.368c0.049-0.583,0.099-1.168,0.148-1.751
		c0.061-0.76,0.14-1.354,0.239-1.778c0.03,0,0.114,0.08,0.254,0.239c0.169,0.213,0.289,0.346,0.358,0.398v-2.017
		c-0.398-0.07-0.901-0.088-1.508-0.052c-0.996,0.052-1.529,0.08-1.599,0.08c-0.149,1.31-0.224,2.433-0.224,3.37v5.919
		c0,0.159-0.095,0.762-0.284,1.805l-6.765-11.703c-1.862,0.141-2.848,0.115-2.957-0.08c-0.04-0.424,0.069-0.699,0.328-0.823
		c0.18-0.07,0.358-0.15,0.538-0.239c0.179-0.266,0.358-0.539,0.537-0.823c0.229-0.336,0.429-0.531,0.598-0.583
		c0.607-0.195,1.523-0.292,2.748-0.292c0.09,0,0.229,0.106,0.418,0.318s0.339,0.318,0.448,0.318s0.204-0.031,0.283-0.093
		c0.08-0.062,0.135-0.094,0.165-0.094c0.069,0.124,0.134,0.372,0.194,0.743c-0.011,0.213-0.035,0.505-0.075,0.876
		c0.14,0.69,0.413,1.23,0.821,1.619c0.657,0.619,1.075,1.053,1.255,1.301h0.313c0.249-0.778,0.497-1.566,0.746-2.362
		c0.309-0.885,0.622-1.327,0.941-1.327c0.1,0,0.149,0.036,0.149,0.106c0,0.071,0.05,0.106,0.149,0.106s0.393-0.181,0.881-0.544
		c0.487-0.362,0.786-0.544,0.896-0.544c0.786,0,1.304,1.044,1.553,3.132C159.205,34.384,159.255,35.658,159.255,37.357z
		 M147.696,49.83l-0.165,0.585l-0.164-0.133l0.149-0.557L147.696,49.83z M150.802,44.814c-0.199-0.283-0.398-0.574-0.597-0.876
		c-0.309-0.407-0.558-0.583-0.747-0.53c-0.179,0.637-0.269,1.433-0.269,2.388c0,0.177,0.005,0.448,0.015,0.81
		c0.01,0.364,0.015,0.624,0.015,0.783c0,0.955-0.114,1.662-0.343,2.123c-0.1-0.107-0.165-0.461-0.194-1.062
		c-0.04-0.744-0.06-2.3-0.06-4.671c-0.05-0.283-0.194-0.911-0.434-1.884c-0.199-0.762-0.299-1.221-0.299-1.381
		c0-0.513,0.109-0.769,0.329-0.769C148.915,40.276,149.777,41.966,150.802,44.814z M158.448,43.036h-0.209l-0.135,4.485h0.225
		L158.448,43.036z M158.329,48.821v-0.796h-0.225v0.796H158.329z M158.448,42.108v-1.01h-0.209v1.01H158.448z M158.568,37.967
		v-1.884h-0.209v1.884H158.568z"/>
	<g>
		<g id="layer1_1_">
			<path id="path3695_1_" fill="#010101" d="M13.434,19.139L13.434,19.139L13.434,19.139L13.434,19.139L13.434,19.139L13.434,19.139
				L13.434,19.139L13.434,19.139c-0.005,0.015,0.016,0.019,0.023,0.029c0.253-0.513-0.257-0.71-0.654-0.807
				c-1.707-0.02-2.387,2.755-2.372,4.37c0.049,5.39,4.319,9.348,8.099,11.025L1.61,33.682c-1.004-5.161,3.235-15.873,7.623-17.691
				c1.478-0.613,4.061-0.541,4.637,1.702c0.12,0.468,0.098,1.302-0.389,1.468"/>
		</g>
	</g>
</g>
</svg>
