<?xml version="1.0" encoding="utf-8"?>
<!-- Generator: Adobe Illustrator 17.0.0, SVG Export Plug-In . SVG Version: 6.00 Build 0)  -->
<!DOCTYPE svg PUBLIC "-//W3C//DTD SVG 1.1//EN" "http://www.w3.org/Graphics/SVG/1.1/DTD/svg11.dtd">
<svg version="1.1" id="Layer_1" xmlns="http://www.w3.org/2000/svg" xmlns:xlink="http://www.w3.org/1999/xlink" x="0px" y="0px"
	 width="160px" height="80px" viewBox="0 0 160 80" enable-background="new 0 0 160 80" xml:space="preserve">
<g>
	<path d="M22.75,63.563l4.96,4.99l2.02-7.26L22.75,63.563z"/>
	<path d="M61.82,26.553l0.64,3.43l2.46-2.45L61.82,26.553z M61.82,26.553l0.64,3.43l2.46-2.45L61.82,26.553z M69.06,62.203
		l-2.72,4.07h4.78L69.06,62.203z M61.82,26.553l0.64,3.43l2.46-2.45L61.82,26.553z M82.45,62.733c-0.34-0.3-0.74-0.46-1.21-0.46
		h-1.66v3.14h1.66c0.47,0,0.87-0.15,1.21-0.47c0.34-0.31,0.51-0.68,0.51-1.11C82.96,63.413,82.79,63.043,82.45,62.733z
		 M69.06,62.203l-2.72,4.07h4.78L69.06,62.203z M61.82,26.553l0.64,3.43l2.46-2.45L61.82,26.553z M82.45,62.733
		c-0.34-0.3-0.74-0.46-1.21-0.46h-1.66v3.14h1.66c0.47,0,0.87-0.15,1.21-0.47c0.34-0.31,0.51-0.68,0.51-1.11
		C82.96,63.413,82.79,63.043,82.45,62.733z M69.06,62.203l-2.72,4.07h4.78L69.06,62.203z M61.82,26.553l0.64,3.43l2.46-2.45
		L61.82,26.553z M82.45,62.733c-0.34-0.3-0.74-0.46-1.21-0.46h-1.66v3.14h1.66c0.47,0,0.87-0.15,1.21-0.47
		c0.34-0.31,0.51-0.68,0.51-1.11C82.96,63.413,82.79,63.043,82.45,62.733z M69.06,62.203l-2.72,4.07h4.78L69.06,62.203z
		 M61.82,26.553l0.64,3.43l2.46-2.45L61.82,26.553z M82.45,62.733c-0.34-0.3-0.74-0.46-1.21-0.46h-1.66v3.14h1.66
		c0.47,0,0.87-0.15,1.21-0.47c0.34-0.31,0.51-0.68,0.51-1.11C82.96,63.413,82.79,63.043,82.45,62.733z M69.06,62.203l-2.72,4.07
		h4.78L69.06,62.203z M61.82,26.553l0.64,3.43l2.46-2.45L61.82,26.553z M82.45,62.733c-0.34-0.3-0.74-0.46-1.21-0.46h-1.66v3.14
		h1.66c0.47,0,0.87-0.15,1.21-0.47c0.34-0.31,0.51-0.68,0.51-1.11C82.96,63.413,82.79,63.043,82.45,62.733z M69.06,62.203
		l-2.72,4.07h4.78L69.06,62.203z M61.82,26.553l0.64,3.43l2.46-2.45L61.82,26.553z M81.24,62.273h-1.66v3.14h1.66
		c0.47,0,0.87-0.15,1.21-0.47c0.34-0.31,0.51-0.68,0.51-1.11c0-0.42-0.17-0.79-0.51-1.1C82.11,62.433,81.71,62.273,81.24,62.273z
		 M66.34,66.273h4.78l-2.06-4.07L66.34,66.273z M62.46,29.983l2.46-2.45l-3.1-0.98L62.46,29.983z M156.04,70.383
		c-9.06-9.15-18.17-18.26-27.23-27.42c-9.56-9.65-18.97-19.45-28.66-28.96c-8.27-8.11-18.18-9.83-29.03-6.2
		c-6.2,2.07-10.5,6.83-14.99,11.23c-14.95,14.67-29.86,29.37-44.78,44.07c-3.38,3.33-6.71,6.7-10.06,10.05
		c0.08,0.21,0.17,0.41,0.25,0.62c1.72,0,3.44-0.01,5.16,0c8.62,0.08,17.24,0.15,25.85,0.23c1.7,0.02,3.26-0.02,4.65-1.4
		c11.52-11.46,23.11-22.85,34.69-34.25c2.82-2.78,5.69-5.52,8.58-8.31c8.55,8.73,16.87,17.24,25.58,26.13
		c-1.33,0.21-1.93,0.38-2.52,0.38c-11.64-0.09-23.28-0.25-34.91-0.23c-1.35,0.01-2.95,0.7-3.98,1.6c-3.28,2.85-6.35,5.95-9.5,8.94
		c-2.11,2-4.23,3.98-6.34,5.97c0.13,0.22,0.26,0.45,0.39,0.67h109.52C157.6,72.203,156.88,71.233,156.04,70.383z M31.68,60.243
		l-2.83,10.06c-0.03,0.15-0.1,0.28-0.21,0.38c-0.16,0.16-0.36,0.25-0.6,0.26c-0.24,0.01-0.44-0.06-0.6-0.22l-6.83-6.86
		c-0.17-0.17-0.24-0.37-0.21-0.61c0.02-0.23,0.11-0.42,0.27-0.58c0.11-0.1,0.22-0.18,0.34-0.23l9.71-3.14
		c0.31-0.11,0.57-0.06,0.78,0.16C31.71,59.673,31.77,59.933,31.68,60.243z M37.45,60.063c-0.37,0.37-0.73,0.39-1.07,0.05l-4.7-4.72
		c-0.34-0.34-0.32-0.7,0.06-1.08c0.37-0.36,0.72-0.38,1.06-0.04l4.7,4.73C37.84,59.343,37.82,59.693,37.45,60.063z M47.61,53.233
		c-0.38,0.37-0.74,0.39-1.09,0.04l-1.24-1.25c-0.29,0.69-0.69,1.28-1.2,1.79c-0.91,0.9-1.98,1.42-3.22,1.56
		c-1.31,0.14-2.39-0.22-3.25-1.08c-0.85-0.86-1.2-1.94-1.05-3.24c0.15-1.23,0.69-2.29,1.59-3.2c0.55-0.54,1.15-0.94,1.79-1.21
		l-0.16-0.15c-0.35-0.35-0.33-0.72,0.05-1.09c0.38-0.38,0.74-0.39,1.09-0.04l1.08,1.09c0.15,0.15,0.22,0.34,0.21,0.55
		c-0.01,0.22-0.09,0.4-0.24,0.55c-0.13,0.14-0.3,0.21-0.51,0.23c-0.82,0.06-1.57,0.44-2.26,1.12c-0.63,0.62-0.99,1.34-1.1,2.16
		c-0.11,0.87,0.1,1.57,0.63,2.11c0.55,0.55,1.26,0.78,2.14,0.67c0.82-0.1,1.54-0.46,2.16-1.08c0.57-0.56,0.92-1.22,1.04-1.96
		l-0.8-0.81c-0.35-0.35-0.34-0.71,0.04-1.09c0.38-0.37,0.74-0.39,1.09-0.04l3.26,3.28C48.01,52.493,47.99,52.853,47.61,53.233z
		 M49.52,48.063c-0.38,0.37-0.73,0.39-1.07,0.05l-4.7-4.72c-0.34-0.34-0.32-0.7,0.06-1.08c0.37-0.36,0.72-0.38,1.06-0.04l4.7,4.73
		C49.91,47.343,49.89,47.693,49.52,48.063z M57.11,41.593c-0.38,0.37-0.74,0.39-1.09,0.04l-4.92-4.95l-2.95,2.93
		c-0.38,0.38-0.75,0.39-1.09,0.04c-0.35-0.35-0.34-0.71,0.04-1.09l6.81-6.77c0.37-0.37,0.73-0.37,1.07-0.02
		c0.35,0.35,0.34,0.7-0.03,1.07l-2.73,2.72l4.92,4.95C57.49,40.863,57.48,41.223,57.11,41.593z M69.68,28.243
		c-0.05,0.14-0.12,0.25-0.2,0.34c-0.22,0.22-0.49,0.25-0.79,0.1l-2.16-0.66l-3.74,3.71l0.59,3.06c0.05,0.28-0.02,0.52-0.22,0.72
		c-0.15,0.15-0.34,0.23-0.56,0.25c-0.23,0.02-0.41-0.04-0.56-0.18c-0.05-0.06-0.09-0.13-0.12-0.22c-0.42-1.25-0.79-2.86-1.09-4.84
		c-0.26-1.64-0.52-3.28-0.78-4.92c-0.04-0.25,0.04-0.46,0.23-0.65c0.23-0.24,0.5-0.32,0.8-0.27l8.19,2.59
		c0.14,0.03,0.26,0.09,0.35,0.18C69.81,27.643,69.83,27.903,69.68,28.243z M76.91,21.023l-4.3,4.28c-0.15,0.15-0.34,0.23-0.55,0.23
		c-0.22,0.01-0.4-0.05-0.54-0.19l-5.27-5.31c-0.35-0.35-0.34-0.71,0.04-1.09c0.37-0.36,0.73-0.37,1.08-0.02l4.78,4.8l3.74-3.72
		c0.38-0.37,0.73-0.39,1.07-0.06C77.3,20.293,77.28,20.653,76.91,21.023z M74.48,70.953c-0.16,0.07-0.31,0.1-0.46,0.1
		c-0.33,0-0.55-0.18-0.66-0.54l-1.37-2.64h-6.73l-2.2,3.36c-0.18,0.28-0.42,0.42-0.72,0.42c-0.24,0-0.46-0.08-0.65-0.25
		c-0.19-0.16-0.29-0.35-0.29-0.57c0-0.09,0.02-0.18,0.06-0.26c0.73-1.49,1.83-3.27,3.3-5.34c1.21-1.72,2.43-3.44,3.64-5.16
		c0.16-0.22,0.39-0.34,0.68-0.34c0.37,0,0.65,0.14,0.84,0.42l4.98,9.72c0.08,0.14,0.12,0.28,0.12,0.42
		C75.02,70.573,74.84,70.793,74.48,70.953z M83.55,65.963c-0.63,0.6-1.4,0.89-2.31,0.89h-1.66v2.84c0,0.5-0.26,0.74-0.78,0.74
		c-0.53,0-0.8-0.24-0.8-0.74v-8.18c0-0.18,0.08-0.34,0.25-0.48c0.17-0.13,0.35-0.2,0.56-0.2h2.41c0.91,0,1.69,0.29,2.32,0.87
		c0.64,0.58,0.96,1.29,0.96,2.11C84.5,64.653,84.18,65.373,83.55,65.963z M92.48,64.753c0.28,0.14,0.42,0.35,0.42,0.64
		c0,0.26-0.11,0.45-0.32,0.58l-1.88,1.22c0.68,0.26,1.36,0.51,2.04,0.76c0.8,0.31,1.46,0.6,1.98,0.88c0.21,0.12,0.32,0.3,0.32,0.54
		c0,0.2-0.07,0.39-0.22,0.55c-0.15,0.17-0.32,0.25-0.52,0.25c-0.13,0-0.27-0.03-0.4-0.1l-5.1-2.08c-0.32-0.13-0.48-0.36-0.48-0.68
		c0-0.25,0.1-0.44,0.3-0.56l1.98-1.26l-2.3-1.11c-0.26-0.13-0.4-0.33-0.4-0.61c0-0.3,0.13-0.51,0.38-0.64
		c0.95-0.51,1.89-1.01,2.84-1.52c1.13-0.61,2.1-1.07,2.9-1.38c0.08-0.02,0.16-0.04,0.24-0.04c0.21,0,0.4,0.09,0.56,0.25
		c0.16,0.17,0.24,0.35,0.24,0.55c0,0.22-0.09,0.38-0.28,0.5c-0.01,0.02-0.06,0.05-0.14,0.1l-4.28,2.14L92.48,64.753z M107.23,61.883
		c-0.26,0.1-0.61,0.26-1.04,0.46c-0.43,0.21-0.97,0.63-1.61,1.27c-0.57,0.55-1.03,1.05-1.36,1.5l3.08,3.68
		c0.15,0.16,0.22,0.33,0.22,0.5c0,0.19-0.1,0.36-0.3,0.51c-0.2,0.16-0.38,0.23-0.54,0.23c-0.23,0-0.43-0.1-0.6-0.3l-2.73-3.32
		c-0.52,0.8-1.37,1.97-2.53,3.5c-0.12,0.15-0.28,0.22-0.5,0.22c-0.21,0-0.41-0.07-0.59-0.21c-0.18-0.14-0.27-0.3-0.27-0.49
		c0-0.12,0.05-0.26,0.16-0.42l2.7-3.84l-2.22-2.64c-0.12-0.14-0.18-0.3-0.18-0.46c0-0.2,0.09-0.37,0.27-0.52
		c0.18-0.14,0.39-0.22,0.62-0.22c0.17,0,0.36,0.09,0.56,0.26l1.9,2.29c1.55-1.85,2.99-2.96,4.33-3.33c0.1-0.02,0.18-0.04,0.26-0.04
		c0.23,0,0.41,0.08,0.55,0.23c0.14,0.16,0.21,0.33,0.21,0.53C107.62,61.583,107.49,61.783,107.23,61.883z M61.82,26.553l0.64,3.43
		l2.46-2.45L61.82,26.553z M69.06,62.203l-2.72,4.07h4.78L69.06,62.203z M82.45,62.733c-0.34-0.3-0.74-0.46-1.21-0.46h-1.66v3.14
		h1.66c0.47,0,0.87-0.15,1.21-0.47c0.34-0.31,0.51-0.68,0.51-1.11C82.96,63.413,82.79,63.043,82.45,62.733z M61.82,26.553l0.64,3.43
		l2.46-2.45L61.82,26.553z M69.06,62.203l-2.72,4.07h4.78L69.06,62.203z M82.45,62.733c-0.34-0.3-0.74-0.46-1.21-0.46h-1.66v3.14
		h1.66c0.47,0,0.87-0.15,1.21-0.47c0.34-0.31,0.51-0.68,0.51-1.11C82.96,63.413,82.79,63.043,82.45,62.733z M61.82,26.553l0.64,3.43
		l2.46-2.45L61.82,26.553z M69.06,62.203l-2.72,4.07h4.78L69.06,62.203z M82.45,62.733c-0.34-0.3-0.74-0.46-1.21-0.46h-1.66v3.14
		h1.66c0.47,0,0.87-0.15,1.21-0.47c0.34-0.31,0.51-0.68,0.51-1.11C82.96,63.413,82.79,63.043,82.45,62.733z M61.82,26.553l0.64,3.43
		l2.46-2.45L61.82,26.553z M69.06,62.203l-2.72,4.07h4.78L69.06,62.203z M82.45,62.733c-0.34-0.3-0.74-0.46-1.21-0.46h-1.66v3.14
		h1.66c0.47,0,0.87-0.15,1.21-0.47c0.34-0.31,0.51-0.68,0.51-1.11C82.96,63.413,82.79,63.043,82.45,62.733z M61.82,26.553l0.64,3.43
		l2.46-2.45L61.82,26.553z M69.06,62.203l-2.72,4.07h4.78L69.06,62.203z M82.45,62.733c-0.34-0.3-0.74-0.46-1.21-0.46h-1.66v3.14
		h1.66c0.47,0,0.87-0.15,1.21-0.47c0.34-0.31,0.51-0.68,0.51-1.11C82.96,63.413,82.79,63.043,82.45,62.733z M61.82,26.553l0.64,3.43
		l2.46-2.45L61.82,26.553z M69.06,62.203l-2.72,4.07h4.78L69.06,62.203z M61.82,26.553l0.64,3.43l2.46-2.45L61.82,26.553z
		 M61.82,26.553l0.64,3.43l2.46-2.45L61.82,26.553z"/>
</g>
</svg>
