<?xml version="1.0" encoding="utf-8"?>
<!-- Generator: Adobe Illustrator 17.0.0, SVG Export Plug-In . SVG Version: 6.00 Build 0)  -->
<!DOCTYPE svg PUBLIC "-//W3C//DTD SVG 1.1//EN" "http://www.w3.org/Graphics/SVG/1.1/DTD/svg11.dtd">
<svg version="1.1" id="Layer_1" xmlns="http://www.w3.org/2000/svg" xmlns:xlink="http://www.w3.org/1999/xlink" x="0px" y="0px"
	 width="180px" height="180px" viewBox="0 0 180 180" enable-background="new 0 0 180 180" xml:space="preserve">
<g>
	<path d="M22.771,83.467c0.368,0.842,0.552,1.646,0.552,2.411l-0.205,16.625c0,0.734-0.245,1.348-0.736,1.837
		c-0.491,0.49-1.064,0.734-1.719,0.734l-15.835-1.148c-0.655,0-1.242-0.29-1.76-0.872c-0.519-0.581-0.777-1.255-0.777-2.021
		L0.818,73.8c0-0.765,0.205-1.378,0.614-1.837c0.409-0.459,0.955-0.643,1.637-0.551l5.647,0.735c0.682,0.092,1.432,0.321,2.25,0.689
		c0.818,0.367,1.5,0.796,2.046,1.286l8.429,7.394C21.959,81.974,22.403,82.625,22.771,83.467z M19.027,85.717
		c-0.3-0.811-0.736-1.447-1.31-1.906l-6.792-5.695c-0.491-0.397-1.071-0.804-1.739-1.217c-0.669-0.413-1.181-0.666-1.535-0.757
		c-0.382-0.092-0.736,0.092-1.064,0.551c-0.327,0.459-0.491,1.056-0.491,1.791L4.624,98.14c0,0.766,0.205,1.378,0.614,1.837
		s0.941,0.659,1.596,0.597l8.797-0.872c0.655-0.061,1.248-0.391,1.78-0.987c0.532-0.597,0.839-1.247,0.92-1.952l1.023-8.633
		C19.436,87.333,19.327,86.529,19.027,85.717z"/>
	<path d="M28.725,84.087l1.473,15.936l0.286,2.985c0,0.092-0.225,0.223-0.675,0.391c-0.45,0.168-1.003,0.329-1.657,0.481
		l-1.023,0.23c-0.082,0.03-0.232,0.046-0.45,0.046c-0.573,0-1.01-0.199-1.31-0.598c-0.3-0.397-0.423-0.918-0.368-1.562l1.514-16.716
		c0.027-0.765-0.055-1.53-0.246-2.296c-0.219-0.796-0.491-1.347-0.818-1.653c-0.328-0.306-0.491-0.521-0.491-0.643
		c0-0.122,0.109-0.184,0.327-0.184s0.6,0.077,1.146,0.229c0.491,0.153,0.982,0.559,1.473,1.217
		C28.397,82.61,28.669,83.322,28.725,84.087z M25.737,74.305c0.218-0.581,0.58-1.155,1.084-1.722
		c0.504-0.566,1.002-0.941,1.494-1.125c0.082-0.03,0.184-0.069,0.307-0.115c0.123-0.046,0.225-0.069,0.307-0.069
		c0.436,0,0.655,0.26,0.655,0.781c0,0.214-0.041,0.429-0.123,0.643c-0.219,0.582-0.58,1.156-1.084,1.722
		c-0.505,0.567-1.003,0.957-1.494,1.171c-0.219,0.092-0.409,0.138-0.573,0.138c-0.464,0-0.696-0.245-0.696-0.735
		C25.615,74.81,25.656,74.581,25.737,74.305z"/>
	<path d="M53.848,83.031l-1.146,17.865c0,0.734-0.26,1.394-0.778,1.975c-0.519,0.582-1.119,0.903-1.8,0.964l-15.508,1.424
		c-0.573,0.062-1.043-0.092-1.412-0.459s-0.553-0.856-0.553-1.47c0-0.244,0.014-0.413,0.041-0.505l0.205-1.103
		c0.027-0.122,0.068-0.299,0.123-0.528c0.054-0.229,0.136-0.543,0.246-0.941c0.218-0.796,0.354-1.178,0.409-1.147l2.7,0.321
		l11.458,1.378c0.655,0.092,1.193-0.1,1.616-0.574s0.607-1.079,0.553-1.814l-0.818-9.644c-0.055-0.765-0.342-1.431-0.859-1.998
		c-0.519-0.566-1.119-0.896-1.801-0.987l-11.089-1.24c-0.655-0.061-1.242-0.39-1.759-0.987c-0.519-0.597-0.805-1.263-0.859-1.998
		l-0.655-8.404c-0.055-0.735,0.129-1.339,0.552-1.814c0.423-0.474,0.975-0.681,1.657-0.62l16.245,1.562
		c0.682,0.062,1.309,0.36,1.882,0.896c0.573,0.536,0.941,1.171,1.104,1.906c0.082,0.368,0.123,0.659,0.123,0.873
		c0,0.337-0.055,0.505-0.164,0.505c-0.137,0-0.3-0.153-0.491-0.459c-0.301-0.397-0.723-0.704-1.269-0.918
		c-0.546-0.214-1.132-0.321-1.76-0.321c-0.273,0-0.45,0.016-0.532,0.046l-10.68,1.516c-0.71,0.092-1.33,0.452-1.862,1.079
		c-0.532,0.628-0.798,1.371-0.798,2.228c0,0.674,0.198,1.232,0.594,1.676c0.395,0.444,0.906,0.636,1.534,0.574l13.34-1.332
		c0.655,0,1.2,0.237,1.637,0.712C53.711,81.737,53.902,82.327,53.848,83.031z"/>
	<path d="M77.049,104.156c-0.409,0.489-0.955,0.734-1.637,0.734l-16-1.011c-0.655,0-1.242-0.29-1.759-0.872
		c-0.519-0.581-0.777-1.24-0.777-1.975l-1.351-27.509c0-0.735,0.205-1.347,0.614-1.837c0.409-0.489,0.955-0.734,1.637-0.734l16,1.01
		c0.655,0,1.241,0.291,1.759,0.873c0.518,0.582,0.778,1.24,0.778,1.975l1.35,27.509C77.663,103.054,77.458,103.666,77.049,104.156z
		 M73.408,75.866c-0.437-0.489-0.982-0.704-1.637-0.643l-8.634,0.734c-0.682,0.062-1.282,0.375-1.8,0.941
		c-0.519,0.567-0.777,1.233-0.777,1.998L59.208,98.14c-0.055,0.735,0.136,1.348,0.573,1.837c0.437,0.49,0.982,0.705,1.637,0.644
		l8.634-0.735c0.682-0.061,1.282-0.374,1.8-0.941c0.518-0.566,0.777-1.232,0.777-1.998l1.351-19.242
		C74.035,76.969,73.844,76.356,73.408,75.866z"/>
	<path d="M101.068,86.98c0.354,0.796,0.49,1.562,0.408,2.296l-1.35,12.078c-0.082,0.766-0.367,1.47-0.859,2.112
		c-0.49,0.644-1.064,1.072-1.719,1.286c-0.326,0.123-0.627,0.184-0.9,0.184c-0.219,0-0.326-0.061-0.326-0.184
		c0-0.122,0.123-0.306,0.367-0.551c0.709-0.644,1.064-1.684,1.064-3.123c0-0.092-0.008-0.207-0.021-0.345s-0.033-0.299-0.061-0.482
		l-1.186-8.266c-0.109-0.735-0.301-1.6-0.574-2.595c-0.273-0.995-0.559-1.844-0.859-2.549l-0.123-0.321
		c-0.244-0.612-0.648-1.103-1.207-1.47S92.57,84.5,91.943,84.5c-0.219,0-0.369,0.016-0.449,0.046l-4.584,0.827
		c-0.655,0.123-1.248,0.482-1.78,1.08c-0.532,0.597-0.839,1.278-0.921,2.043l-1.269,11.71c-0.027,0.092-0.041,0.292-0.041,0.598
		c-0.055,0.521,0,1.018,0.164,1.492s0.348,0.889,0.552,1.24s0.395,0.636,0.573,0.85c0.177,0.214,0.266,0.337,0.266,0.367
		c0,0.152-0.15,0.229-0.45,0.229c-0.219,0-0.491-0.046-0.818-0.138c-0.628-0.184-1.18-0.604-1.657-1.263
		c-0.478-0.658-0.716-1.355-0.716-2.09l-1.514-27.968c0-0.765,0.211-1.393,0.634-1.883c0.423-0.489,0.961-0.704,1.616-0.643
		l16.491,1.332c0.654,0,1.26,0.284,1.82,0.85c0.559,0.567,0.906,1.233,1.043,1.998l0.369,1.929c0.025,0.092,0.041,0.291,0.041,0.597
		c0,0.705-0.15,1.363-0.451,1.975c-0.301,0.613-0.709,1.102-1.227,1.469l-1.023,0.643c-0.6,0.368-0.9,0.812-0.9,1.332
		c0,0.551,0.287,1.01,0.859,1.377l1.105,0.735C100.25,85.603,100.713,86.184,101.068,86.98z M96.465,76.876
		c-0.559-0.122-1.18-0.184-1.861-0.184l-8.184-0.046c-0.682,0-1.289,0.252-1.821,0.758c-0.532,0.505-0.866,1.141-1.002,1.906
		c-0.082,0.674,0.027,1.225,0.328,1.653c0.3,0.429,0.722,0.643,1.269,0.643c0.218,0,0.354-0.015,0.409-0.046l5.401-1.102
		c0.764-0.153,1.555-0.375,2.373-0.666c0.818-0.291,1.555-0.597,2.211-0.918c0.654-0.322,1.166-0.627,1.533-0.918
		c0.369-0.291,0.484-0.513,0.348-0.666C97.357,77.137,97.023,77,96.465,76.876z"/>
	<path d="M106.92,84.087l1.473,15.936l0.287,2.985c0,0.092-0.226,0.223-0.676,0.391s-1.002,0.329-1.657,0.481l-1.022,0.23
		c-0.082,0.03-0.232,0.046-0.45,0.046c-0.573,0-1.01-0.199-1.31-0.598c-0.301-0.397-0.423-0.918-0.368-1.562l1.514-16.716
		c0.027-0.765-0.055-1.53-0.245-2.296c-0.219-0.796-0.491-1.347-0.818-1.653c-0.327-0.306-0.491-0.521-0.491-0.643
		c0-0.122,0.108-0.184,0.327-0.184c0.218,0,0.6,0.077,1.146,0.229c0.491,0.153,0.982,0.559,1.474,1.217
		C106.593,82.61,106.865,83.322,106.92,84.087z M103.933,74.305c0.218-0.581,0.579-1.155,1.085-1.722
		c0.504-0.566,1.002-0.941,1.493-1.125c0.082-0.03,0.184-0.069,0.307-0.115s0.226-0.069,0.307-0.069c0.437,0,0.655,0.26,0.655,0.781
		c0,0.214-0.041,0.429-0.123,0.643c-0.219,0.582-0.58,1.156-1.084,1.722c-0.505,0.567-1.003,0.957-1.494,1.171
		c-0.219,0.092-0.409,0.138-0.572,0.138c-0.465,0-0.696-0.245-0.696-0.735C103.81,74.81,103.851,74.581,103.933,74.305z"/>
	<path d="M132.289,73.065l0.164,1.837c0.026,0.092,0.04,0.275,0.04,0.551c0,0.643-0.122,0.964-0.368,0.964
		c-0.163,0-0.341-0.138-0.531-0.414c-0.301-0.397-0.724-0.704-1.269-0.918c-0.546-0.214-1.133-0.321-1.76-0.321
		c-0.273,0-0.45,0.016-0.532,0.046l-10.68,1.516c-0.71,0.092-1.33,0.452-1.861,1.079c-0.532,0.628-0.799,1.371-0.799,2.228
		c0,0.674,0.198,1.232,0.594,1.676s0.894,0.62,1.493,0.528l12.89-1.562c0.573-0.061,1.037,0.077,1.392,0.414
		c0.354,0.337,0.532,0.796,0.532,1.377c0,0.276-0.015,0.459-0.041,0.551l-0.205,1.102c-0.055,0.246-0.178,0.751-0.368,1.516
		c-0.191,0.766-0.327,1.133-0.409,1.102l-2.7-0.321l-11.458-1.378c-0.654-0.092-1.193,0.1-1.616,0.574
		c-0.423,0.475-0.607,1.079-0.552,1.814l0.858,9.644c0.055,0.766,0.341,1.439,0.859,2.021c0.519,0.582,1.105,0.919,1.76,1.011
		l10.312,1.378c0.164,0,0.313,0.016,0.45,0.046c0.627,0,1.228-0.122,1.801-0.367c0.572-0.245,1.009-0.566,1.31-0.965
		c0.19-0.275,0.354-0.413,0.49-0.413s0.205,0.138,0.205,0.413c0,0.031-0.068,0.383-0.205,1.057
		c-0.081,0.306-0.218,0.612-0.409,0.918c-0.19,0.307-0.423,0.582-0.695,0.827s-0.566,0.452-0.88,0.62s-0.634,0.268-0.961,0.298
		l-16.572,1.332c-0.683,0-1.228-0.229-1.637-0.688c-0.409-0.46-0.614-1.071-0.614-1.837l1.351-27.509
		c0-0.735,0.252-1.393,0.757-1.975c0.504-0.582,1.098-0.903,1.78-0.964l15.426-1.332c0.682,0,1.275,0.238,1.78,0.712
		C131.914,71.726,132.207,72.33,132.289,73.065z"/>
	<path d="M154.917,74.81l1.514,27.049c0,0.674-0.157,1.217-0.471,1.631c-0.313,0.413-0.743,0.62-1.289,0.62
		c-0.219,0-0.368-0.016-0.45-0.046l-0.981-0.23c-0.437-0.092-0.996-0.26-1.678-0.505c-0.164-0.03-0.396-0.122-0.695-0.275
		l0.204-3.031l1.555-22.273c0-0.765-0.204-1.377-0.613-1.837c-0.409-0.459-0.955-0.688-1.637-0.688l-8.593,0.688
		c-0.655,0.062-1.242,0.383-1.76,0.964c-0.519,0.582-0.805,1.24-0.859,1.975l-1.514,21.309c0,0.797,0.108,1.577,0.327,2.343
		c0.218,0.766,0.518,1.316,0.9,1.653c0.271,0.214,0.409,0.397,0.409,0.551c0,0.184-0.164,0.275-0.491,0.275
		c-0.191,0-0.45-0.046-0.777-0.138c-0.655-0.184-1.215-0.604-1.678-1.263c-0.465-0.658-0.696-1.355-0.696-2.09l-1.514-27.968
		c0-0.765,0.211-1.385,0.634-1.86c0.423-0.474,0.962-0.711,1.617-0.711l15.999,1.01c0.654,0,1.241,0.291,1.76,0.873
		C154.657,73.417,154.917,74.075,154.917,74.81z"/>
	<path d="M175.375,76.372l-1.187-0.138c-0.682-0.092-1.275,0.092-1.78,0.551c-0.505,0.459-0.784,1.072-0.839,1.837l-1.555,21.539
		c-0.055,0.766,0.027,1.531,0.246,2.297c0.218,0.766,0.531,1.331,0.94,1.699c0.272,0.214,0.409,0.397,0.409,0.551
		s-0.137,0.229-0.409,0.229c-0.245,0-0.6-0.061-1.063-0.184c-0.491-0.122-0.969-0.513-1.433-1.171s-0.723-1.37-0.777-2.136
		l-1.596-22.871c0-0.734-0.26-1.416-0.777-2.043c-0.519-0.627-1.104-1.018-1.76-1.171l-1.596-0.368
		c-0.164-0.03-0.307-0.053-0.43-0.069c-0.123-0.015-0.225-0.023-0.307-0.023c-0.464-0.03-0.887,0.023-1.269,0.161
		c-0.383,0.138-0.71,0.314-0.982,0.528c-0.272,0.214-0.498,0.413-0.675,0.597c-0.178,0.184-0.28,0.275-0.307,0.275
		c-0.109,0-0.164-0.122-0.164-0.367c0-0.214,0.067-0.627,0.205-1.24c0.081-0.275,0.218-0.558,0.409-0.85
		c0.19-0.291,0.422-0.558,0.695-0.804c0.272-0.245,0.565-0.451,0.88-0.62c0.313-0.167,0.634-0.268,0.961-0.298l16-1.699
		c0.572-0.061,1.043,0.092,1.411,0.459c0.368,0.367,0.553,0.857,0.553,1.469c0,0.246-0.014,0.414-0.041,0.505l-0.204,1.102
		c-0.164,0.827-0.321,1.47-0.471,1.929c-0.15,0.459-0.267,0.689-0.348,0.689L175.375,76.372z"/>
</g>
</svg>
