<?xml version="1.0" encoding="utf-8"?>
<!-- Generator: Adobe Illustrator 17.0.0, SVG Export Plug-In . SVG Version: 6.00 Build 0)  -->
<!DOCTYPE svg PUBLIC "-//W3C//DTD SVG 1.1//EN" "http://www.w3.org/Graphics/SVG/1.1/DTD/svg11.dtd">
<svg version="1.1" id="Layer_1" xmlns="http://www.w3.org/2000/svg" xmlns:xlink="http://www.w3.org/1999/xlink" x="0px" y="0px"
	 width="160px" height="80px" viewBox="0 0 160 80" enable-background="new 0 0 160 80" xml:space="preserve">
<g>
	<g id="g3247" transform="matrix(0.75086983,0,0,0.75086983,-2.4948221,295.28729)">
		<path id="path3249" inkscape:connector-curvature="0" fill="#010101" d="M63.525-326.221c-1.583-0.393-3.213-0.668-4.625-1.597
			c-1.066-0.702-3.261-2.11-3.261-2.11l3.298-4.218c0,0,1.636,0.894,2.91,1.433c2.622,1.109,5.724,1.977,8.478,0.927
			c1.368-0.521,1.512-2.652,0.349-3.594c-1.308-1.06-3.027-1.116-4.558-1.611c-2.712-0.878-5.793-1.35-7.899-3.371
			c-1.833-1.76-1.799-4.635-1.464-7c0.447-3.164,3.438-5.303,6.367-6.071c4.68-1.226,7.89-0.927,11.978,1.557
			c1.307,0.794,0.909,0.271,2.943,2.442c-0.767,1.109-3.223,3.669-3.223,3.669s-5.047-2.405-6.529-2.509s-3.249-0.238-4.44,0.878
			c-1.52,1.261,0.102,3.239,1.525,3.701c3.874,1.549,8.459,1.514,11.148,4.402c1.567,1.683,2.336,4.061,1.794,6.325
			c-0.534,2.229-1.628,4.608-3.703,5.61c-1.428,0.69-2.886,1.303-4.531,1.397C67.89-325.834,65.66-325.69,63.525-326.221
			L63.525-326.221z"/>
		<path id="path3251" inkscape:connector-curvature="0" fill="#010101" d="M13.032-353.234v26.849c0,0,10.267,0.241,15.324-0.533
			c3.516-0.538,6.633-2.954,8.444-6.087c1.671-2.892,1.703-6.305,1.464-9.5c-0.278-3.713-2.856-7.078-6.18-8.74
			c-2.044-1.022-4.219-1.839-6.529-1.902C21.383-353.263,13.033-353.234,13.032-353.234L13.032-353.234z M22.353-347.413
			c1.845-0.045,3.445-0.029,5.174,0.748c0.923,0.416,1.813,1.125,2.507,2.063c1.124,1.518,1.64,3.44,1.585,5.29
			c-0.063,2.151-1.102,4.384-2.846,5.588c-0.932,0.643-1.934,1.106-3.156,1.287c-1.684,0.249-5.644,0.162-5.644,0.162
			c-0.002-5.043,0.05-10.085,0.127-15.127C20.102-347.403,21.704-347.398,22.353-347.413L22.353-347.413z"/>
		<path id="path3253" inkscape:connector-curvature="0" fill="#010101" d="M43.751-339.818v-13.418h6.516
			c0.064,8.945,0.128,17.89,0.193,26.836c-2.236,0-4.473,0-6.709,0V-339.818L43.751-339.818z"/>
		<path id="path3255" inkscape:connector-curvature="0" fill="#010101" d="M89.655-347.569l-8.298-0.045v-5.628l23.634,0.001
			l0.003,5.649l-8.237,0.049c-0.119,7.004-0.123,14.075-0.041,21.137h-6.875C89.78-333.41,89.717-340.566,89.655-347.569
			L89.655-347.569z"/>
		<path id="path3257" inkscape:connector-curvature="0" fill="#010101" d="M110.127-353.243v26.849h6.726
			c-0.059-2.701-0.061-8.411-0.061-8.411c1.376-0.014,4.072,0.024,4.072,0.024s3.566,5.558,5.403,8.388h8.023
			c-1.582-2.38-6.508-9.025-6.508-9.025s0.333-0.08,1.174-0.72c1.51-1.149,3.046-2.429,3.948-4.126
			c1.696-3.191,1.184-7.537-1.452-10.132c-2-1.97-4.855-2.765-7.617-2.788C119.265-353.221,110.128-353.242,110.127-353.243
			L110.127-353.243z M122.246-347.526c1.708-0.061,3.568,0.618,4.29,2.261c0.748,1.703,0.098,3.925-1.675,4.738
			c-1.565,0.716-3.336,0.749-5.011,0.699c-0.927-0.027-3.01-0.13-3.01-0.13l0.013-7.454
			C116.854-347.412,120.45-347.462,122.246-347.526L122.246-347.526z"/>
		<path id="path3259" inkscape:connector-curvature="0" fill="#010101" d="M139.444-339.818v-13.418c2.295,0,4.59,0,6.885,0v26.835
			c-2.295,0-4.59,0-6.885,0V-339.818L139.444-339.818z"/>
		<path id="path3261" inkscape:connector-curvature="0" fill="#010101" d="M153.113-353.234h6.63c0,0,0.024,7.967,0.061,11.95
			c3.394-4.024,6.699-8.004,9.909-12.018c3.03,0.063,5.771,0.017,8.545,0.046c-1.848,2.26-8.848,10.804-9.671,12.236
			c0.863,1.43,8.89,12.949,10.119,14.581c-4.758,0.02-2.104,0.033-8.547,0.015c-2.133-3.442-4.487-6.589-6.974-9.864
			c-1.105,1.062-2.059,2.01-3.357,3.324c-0.06,2.19,0.019,4.376,0.091,6.564h-6.847c0.014-9.334,0.026-17.266,0.041-26.837
			L153.113-353.234z"/>
		<path id="path3263" inkscape:connector-curvature="0" fill="#010101" d="M191.347-347.416l-8.298-0.199v-5.628h23.658v5.627
			l-7.945,0.2l-0.187,21.01h-7.041L191.347-347.416z"/>
	</g>
	<path id="outline" inkscape:connector-curvature="0" fill="#010101" d="M0,19.727v40.547h160V19.727H0L0,19.727L0,19.727z
		 M3.543,23.293H156.46v33.414H3.543V23.293L3.543,23.293z"/>
</g>
</svg>
