<?xml version="1.0" encoding="UTF-8" standalone="no"?>
<!-- Created with Inkscape (http://www.inkscape.org/) -->

<svg
   xmlns:dc="http://purl.org/dc/elements/1.1/"
   xmlns:cc="http://creativecommons.org/ns#"
   xmlns:rdf="http://www.w3.org/1999/02/22-rdf-syntax-ns#"
   xmlns:svg="http://www.w3.org/2000/svg"
   xmlns="http://www.w3.org/2000/svg"
   xmlns:sodipodi="http://sodipodi.sourceforge.net/DTD/sodipodi-0.dtd"
   xmlns:inkscape="http://www.inkscape.org/namespaces/inkscape"
   version="1.1"
   width="180"
   height="180"
   id="distrikt"
   inkscape:version="0.48.4 r9939"
   sodipodi:docname="distrikt.svg">
  <metadata
     id="metadata3456">
    <rdf:RDF>
      <cc:Work
         rdf:about="">
        <dc:format>image/svg+xml</dc:format>
        <dc:type
           rdf:resource="http://purl.org/dc/dcmitype/StillImage" />
        <dc:title></dc:title>
      </cc:Work>
    </rdf:RDF>
  </metadata>
  <sodipodi:namedview
     pagecolor="#ffffff"
     bordercolor="#666666"
     borderopacity="1"
     objecttolerance="10"
     gridtolerance="10"
     guidetolerance="10"
     inkscape:pageopacity="0"
     inkscape:pageshadow="2"
     inkscape:window-width="1712"
     inkscape:window-height="1060"
     id="namedview3386"
     showgrid="false"
     inkscape:zoom="4.8944444"
     inkscape:cx="90"
     inkscape:cy="90"
     inkscape:window-x="65"
     inkscape:window-y="24"
     inkscape:window-maximized="0"
     inkscape:current-layer="distrikt" />
  <defs
     id="defs3267" />
  <g
     transform="translate(0.0025,-917.36)"
     id="g3243"
     style="fill:#000000">
    <path
       d="m 1.4475,984.92 v 44.88 h 177.1 v -44.88 h -177.1 z m 3.9223,3.9474 h 169.26 v 36.985 H 5.3698 v -36.985 z"
       id="path3245"
       style="text-indent:0;text-align:start;text-transform:none;direction:ltr;block-progression:tb;baseline-shift:baseline;color:#000000;fill-rule:evenodd;enable-background:accumulate"
       inkscape:connector-curvature="0" />
    <g
       transform="matrix(0.75086983,0,0,0.75086983,-2.4948221,295.28729)"
       id="g3247">
      <path
         d="m 71.887,963.57 c -1.7517,-0.43478 -3.5564,-0.73851 -5.1191,-1.7682 -1.1797,-0.77733 -3.6101,-2.3347 -3.6101,-2.3347 l 3.6499,-4.6688 c 0,0 1.8112,0.99007 3.2214,1.5864 2.9025,1.2274 6.3364,2.1884 9.3843,1.0259 1.5141,-0.57747 1.6735,-2.9354 0.38574,-3.9784 -1.4482,-1.173 -3.3504,-1.2346 -5.0453,-1.7834 -3.0024,-0.97224 -6.4123,-1.4941 -8.7431,-3.7312 -2.0295,-1.9479 -1.9908,-5.1302 -1.6206,-7.7483 0.49511,-3.5017 3.8055,-5.8704 7.0482,-6.7197 5.1796,-1.3566 8.7328,-1.0255 13.258,1.7227 1.4471,0.87889 1.0062,0.30031 3.2579,2.7029 -0.84901,1.2265 -3.5683,4.0609 -3.5683,4.0609 0,0 -5.5859,-2.662 -7.227,-2.7774 -1.6411,-0.11546 -3.5965,-0.26258 -4.9147,0.9718 -1.6819,1.3961 0.11259,3.5854 1.6877,4.0972 4.2881,1.7138 9.3631,1.6758 12.34,4.873 1.7348,1.863 2.5863,4.4955 1.986,7.001 -0.59112,2.4672 -1.8017,5.1009 -4.0991,6.2104 -1.5813,0.7637 -3.1942,1.442 -5.0147,1.5464 -2.4252,0.139 -4.8941,0.29815 -7.2573,-0.28841 z"
         id="path3249"
         inkscape:connector-curvature="0" />
      <path
         d="m 15.998,933.67 0,29.718 c 0,0 11.364,0.26727 16.962,-0.59022 3.8916,-0.59612 7.3421,-3.2704 9.3464,-6.7383 1.8497,-3.2006 1.8852,-6.9788 1.62,-10.515 -0.30816,-4.1097 -3.1614,-7.8345 -6.8413,-9.6743 -2.262,-1.1309 -4.67,-2.0349 -7.2267,-2.1054 -4.618,-0.12729 -13.86,-0.0946 -13.86,-0.0946 z m 10.317,6.4425 c 2.0425,-0.05 3.8135,-0.0325 5.7272,0.82823 1.0218,0.45958 2.0066,1.2453 2.7747,2.2833 1.2436,1.6804 1.815,3.8084 1.7544,5.8548 -0.07046,2.381 -1.2195,4.8515 -3.1499,6.1849 -1.0315,0.71246 -2.1406,1.2241 -3.4925,1.4246 -1.8636,0.27639 -6.2468,0.17932 -6.2468,0.17932 -0.0016,-5.5816 0.05499,-11.163 0.14096,-16.744 0,0 1.7732,0.006 2.4918,-0.0115 z"
         id="path3251"
         inkscape:connector-curvature="0" />
      <path
         d="m 50,948.52 v -14.852 h 7.2122 c 0.07121,9.9012 0.14243,19.802 0.21366,29.704 -2.4753,-10e-5 -4.9505,-2.1e-4 -7.4258,-3.1e-4 v -14.852 z"
         id="path3253"
         inkscape:connector-curvature="0" />
      <path
         d="m 100.81,939.94 -9.1846,-0.0501 0,-6.2285 26.16,6.8e-4 0.003,6.2526 -9.1172,0.0542 c -0.13211,7.7529 -0.13619,15.579 -0.0452,23.396 l -7.6096,-2.7e-4 c -0.069,-7.7515 -0.13798,-15.673 -0.20702,-23.425 z"
         id="path3255"
         inkscape:connector-curvature="0" />
      <path
         d="m 123.47,933.66 v 29.718 h 7.4453 c -0.0654,-2.99 -0.0685,-9.3102 -0.0685,-9.3102 1.5232,-0.0164 4.5073,0.0266 4.5073,0.0266 0,0 3.9465,6.1517 5.9803,9.2836 h 8.8795 c -1.7509,-2.6336 -7.2037,-9.9886 -7.2037,-9.9886 0,0 0.36852,-0.088 1.2999,-0.79699 1.6711,-1.2721 3.372,-2.6889 4.3701,-4.5667 1.8773,-3.5321 1.3115,-8.343 -1.6067,-11.215 -2.2144,-2.1796 -5.3743,-3.0609 -8.4312,-3.0859 -5.0571,-0.0414 -15.172,-0.0642 -15.172,-0.0642 z m 13.414,6.3274 c 1.8902,-0.0675 3.9495,0.68436 4.7487,2.5027 0.82836,1.8848 0.10921,4.3454 -1.854,5.2439 -1.7317,0.79258 -3.6921,0.82865 -5.5458,0.77448 -1.0259,-0.03 -3.3317,-0.14363 -3.3317,-0.14363 l 0.0141,-8.2509 c 0,0 3.98,-0.0555 5.9689,-0.12655 z"
         id="path3257"
         inkscape:connector-curvature="0" />
      <path
         d="m 155.92,948.52 v -14.852 c 2.5404,-5e-5 5.0808,-10e-5 7.6212,-1.5e-4 v 29.703 c -2.5404,5e-5 -5.0808,9e-5 -7.6212,1.1e-4 v -14.852 z"
         id="path3259"
         inkscape:connector-curvature="0" />
      <path
         d="m 171.05,933.67 7.3388,0 c 0,0 0.0274,8.8183 0.0683,13.227 3.7565,-4.454 7.4154,-8.8592 10.968,-13.302 3.3543,0.0696 6.3877,0.0188 9.4585,0.0512 -2.0447,2.5024 -9.7938,11.959 -10.705,13.544 0.95548,1.5829 9.8402,14.333 11.2,16.139 -5.2656,0.0221 -2.3285,0.0374 -9.4598,0.0174 -2.3613,-3.8105 -4.9673,-7.2926 -7.7194,-10.918 -1.2231,1.175 -2.2794,2.225 -3.7157,3.6788 -0.0662,2.424 0.0215,4.8442 0.10102,7.2663 h -7.5795 c 0.0157,-10.332 0.0291,-19.111 0.0452,-29.705 z"
         id="path3261"
         inkscape:connector-curvature="0" />
      <path
         d="m 213.37,940.11 -9.1846,-0.22024 0,-6.2285 26.186,0 0,6.2277 -8.7937,0.22102 -0.20706,23.255 -7.7934,0 z"
         id="path3263"
         inkscape:connector-curvature="0" />
    </g>
  </g>
</svg>
