<?xml version="1.0" encoding="utf-8"?>
<!-- Generator: Adobe Illustrator 17.0.0, SVG Export Plug-In . SVG Version: 6.00 Build 0)  -->
<!DOCTYPE svg PUBLIC "-//W3C//DTD SVG 1.1//EN" "http://www.w3.org/Graphics/SVG/1.1/DTD/svg11.dtd">
<svg version="1.1" id="Layer_1" xmlns="http://www.w3.org/2000/svg" xmlns:xlink="http://www.w3.org/1999/xlink" x="0px" y="0px"
	 width="160px" height="80px" viewBox="0 0 160 80" enable-background="new 0 0 160 80" xml:space="preserve">
<g>
	<g>
		<path d="M33.482,36.431c-2.989,2.25-6.691,3.374-11.109,3.374c-2.524,0-4.752-0.406-6.682-1.217l0.056,0.243l-0.445-0.452
			c-2.061-0.95-3.601-2.341-4.621-4.172l-0.306-0.208l-5.457,4.583l2.086-7.674l-5.262-4.944h6.656l2.228-7.661l1.043,4.003
			c2.318-2.662,5.796-3.994,10.434-3.994c6.232,0,9.998,2.333,11.296,6.999l-6.32,0.931c-0.761-2.063-2.422-3.095-4.983-3.095
			c-2.989,0-4.91,1.009-5.764,3.026l2.866,0.102l-3.35,2.974c0.186,3.792,2.248,5.688,6.187,5.688c1.802,0,3.483-0.452,5.044-1.356
			v-1.287h-5.624v-4.729h12.028V36.431z M17.306,26.971L12.1,26.658l-1.531-6.225l-1.618,6.225H3.513l4.328,3.859l-1.949,6.4
			l4.51-3.964l4.065,3.791l-1.392-6.017L17.306,26.971z"/>
		<path d="M51.969,31.005c0,1.113-0.32,2.069-0.96,2.869c-0.64,0.8-1.406,1.2-2.297,1.2H37.854c-0.91,0-1.68-0.394-2.311-1.182
			c-0.631-0.788-0.947-1.75-0.947-2.887V25.58c0-1.136,0.315-2.098,0.947-2.887c0.631-0.788,1.401-1.182,2.311-1.182h10.858
			c0.891,0,1.657,0.4,2.297,1.2c0.641,0.8,0.96,1.756,0.96,2.869V31.005z M49.798,31.005V25.58c0-0.371-0.107-0.689-0.32-0.957
			c-0.213-0.266-0.469-0.4-0.766-0.4H37.826c-0.297,0-0.548,0.134-0.752,0.4c-0.204,0.267-0.306,0.586-0.306,0.957v5.425
			c0,0.904,0.362,1.356,1.086,1.356h10.858c0.297,0,0.552-0.133,0.766-0.4S49.798,31.376,49.798,31.005z"/>
		<path d="M69.315,35.074H53.083V21.511h2.172v10.851H66.06c0.722,0,1.083-0.452,1.083-1.356h2.172V35.074z"/>
		<path d="M86.66,30.995c0,1.139-0.316,2.104-0.947,2.894s-1.4,1.185-2.311,1.185H70.428V21.511h12.974
			c0.91,0,1.68,0.396,2.311,1.186s0.947,1.755,0.947,2.894V30.995z M84.488,31v-5.414c0-0.373-0.105-0.693-0.318-0.96
			c-0.215-0.268-0.469-0.402-0.764-0.402H72.6v8.138h10.806c0.295,0,0.549-0.134,0.764-0.402C84.383,31.693,84.488,31.372,84.488,31
			z"/>
		<path d="M104.033,35.074h-16.26V21.511h16.26v4.069h-2.172c0-0.904-0.353-1.356-1.058-1.356H89.945v2.713h10.858v2.712H89.945
			v2.713h10.858c0.724,0,1.076-0.452,1.058-1.356h2.172V35.074z"/>
		<path d="M121.407,35.074h-2.172V25.58c0-0.371-0.106-0.689-0.319-0.957c-0.213-0.266-0.468-0.4-0.764-0.4h-10.833v10.851h-2.172
			V21.511h13.003c0.909,0,1.68,0.395,2.311,1.182c0.631,0.789,0.946,1.751,0.946,2.887V35.074z"/>
	</g>
	<g>
		<path d="M48.548,60.988H33.072v-4.067l-0.214-0.174l-4.542,3.864l1.74-6.398l-4.385-4.121h5.545l1.856-6.376h5.336v6.637h1.856
			l-1.856,1.594v5.101h10.14V60.988z M38.647,50.933l-4.345-0.262l-1.278-5.217l-1.347,5.217h-4.531l3.606,3.216l-1.621,5.322
			l3.753-3.294l3.389,3.161l-1.158-5.006L38.647,50.933z"/>
		<path d="M64.526,57.337h-13.55V46.034h13.55v3.391h-1.81c0-0.753-0.294-1.13-0.882-1.13h-9.048v2.261h9.048v2.26h-9.048v2.261
			h9.048c0.604,0,0.897-0.377,0.882-1.13h1.81V57.337z"/>
		<path d="M81.408,53.946c0,0.946-0.264,1.749-0.789,2.405c-0.526,0.657-1.168,0.985-1.926,0.985h-9.025
			c-0.758,0-1.4-0.328-1.926-0.985c-0.526-0.656-0.789-1.459-0.789-2.405v-4.521c0-0.946,0.263-1.748,0.789-2.405
			c0.526-0.656,1.167-0.985,1.926-0.985h11.74v3.391h-1.81c0-0.753-0.294-1.13-0.881-1.13h-9.049c-0.604,0-0.905,0.377-0.905,1.13
			v4.521c0,0.753,0.301,1.13,0.905,1.13h9.025c0.604,0,0.905-0.377,0.905-1.13v-1.131h-7.216v-2.26h9.026V53.946z"/>
		<path d="M108.013,55.656c0,1.101-0.356,2.097-1.068,2.984c-1.393,1.758-3.945,2.638-7.659,2.638c-4.441,0-7.258-1.463-8.449-4.389
			l-4.353,3.684l1.738-6.364l-4.387-4.146h5.544l1.856-6.396l0.613,2.365c1.268-1.813,3.672-2.722,7.212-2.722
			c5.427,0,8.232,2.039,8.418,6.115l-5.243,0.174c-0.217-1.004-0.604-1.671-1.16-2c-0.418-0.25-1.106-0.376-2.065-0.376
			c-1.871,0-2.807,0.338-2.807,1.014c0,0.483,1.283,0.957,3.852,1.421c1.948,0.348,3.464,0.753,4.547,1.217
			C106.876,51.841,108.013,53.435,108.013,55.656z M96.898,50.874l-4.385-0.231l-1.253-5.246l-1.354,5.246h-4.449l3.534,3.171
			l-1.63,5.35l3.759-3.305l3.388,3.159l-1.137-5.014L96.898,50.874z M102.676,55.698c0-0.613-1.138-1.169-3.414-1.667
			c-0.631-0.134-1.984-0.412-4.061-0.833l-1.205,1.034l1.45-0.112c0.276,1.256,0.744,2.115,1.404,2.579
			c0.553,0.387,1.382,0.58,2.487,0.58c0.659,0,1.296-0.087,1.91-0.259C102.2,56.752,102.676,56.312,102.676,55.698z"/>
		<path d="M124.896,49.425h-1.81c0-0.753-0.302-1.13-0.905-1.13h-3.619v9.042h-1.81v-9.042h-3.602c-0.601,0-0.9,0.377-0.9,1.13
			h-1.81v-3.391h14.455V49.425z"/>
		<path d="M140.873,57.337h-13.55V46.034h13.55v3.391h-1.81c0-0.753-0.294-1.13-0.882-1.13h-9.049v2.261h9.049v2.26h-9.049v2.261
			h9.049c0.604,0,0.897-0.377,0.882-1.13h1.81V57.337z"/>
		<path d="M156.851,49.425c0,0.947-0.263,1.749-0.789,2.405c-0.525,0.657-1.168,0.985-1.926,0.985h-9.025v4.521h-1.81V46.034h10.835
			c0.758,0,1.4,0.329,1.926,0.985C156.588,47.677,156.851,48.479,156.851,49.425z M155.041,49.425c0-0.753-0.302-1.13-0.905-1.13
			h-9.025v2.261h9.025C154.739,50.556,155.041,50.179,155.041,49.425z"/>
	</g>
</g>
</svg>
