<?xml version="1.0" encoding="UTF-8" standalone="no"?>
<!-- Created with Inkscape (http://www.inkscape.org/) -->

<svg
   xmlns:dc="http://purl.org/dc/elements/1.1/"
   xmlns:cc="http://creativecommons.org/ns#"
   xmlns:rdf="http://www.w3.org/1999/02/22-rdf-syntax-ns#"
   xmlns:svg="http://www.w3.org/2000/svg"
   xmlns="http://www.w3.org/2000/svg"
   version="1.1"
   width="180"
   height="180"
   viewBox="0 0 180 180"
   id="Layer_1"
   xml:space="preserve"><metadata
     id="metadata3059"><rdf:RDF><cc:Work
         rdf:about=""><dc:format>image/svg+xml</dc:format><dc:type
           rdf:resource="http://purl.org/dc/dcmitype/StillImage" /><dc:title></dc:title></cc:Work></rdf:RDF></metadata><defs
     id="defs3057" /><g
     id="g3066"><path
       d="m 2.965858,101.04624 c -0.3385529,0.78127 -0.7291908,1.17191 -1.1719139,1.17191 L 1.5204975,76.670428 H 2.965858 v 24.375812 z m 34.689738,5.74238 c -0.756319,0.26042 -1.290191,0.63804 -1.602701,1.13285 -0.389553,0.65106 -0.638042,1.01674 -0.742212,1.09378 -0.442723,0.31251 -1.276084,0.46985 -2.501168,0.46985 -1.458382,0 -2.956913,-0.76825 -4.493422,-2.30476 -1.247872,-1.25004 -2.290658,-2.76051 -3.124019,-4.5314 -0.338553,-0.70315 -1.420403,-1.71881 -3.242295,-3.048062 -0.05208,-0.338553 -0.156255,-0.845297 -0.312511,-1.522403 -1.432339,-0.703149 -2.36987,-1.627658 -2.812593,-2.774615 -0.625021,-1.614637 -1.171914,-2.617274 -1.64068,-3.007912 -0.20834,-0.208341 -0.651063,-0.312511 -1.328169,-0.312511 -0.443808,0 -0.846382,0.182298 -1.210977,0.546893 -0.546894,0.494808 -0.92451,0.794298 -1.132851,0.898468 v 13.359822 c -0.651063,0.33855 -1.302126,0.6771 -1.953189,1.01674 -0.885447,0.44164 -1.588595,0.663 -2.1094456,0.663 -0.5468932,0 -1.1849352,-0.22136 -1.9141261,-0.663 -0.5468932,-0.33855 -1.1078927,-0.67819 -1.6797433,-1.01674 V 73.153601 c 1.7991049,-1.822977 3.1695932,-2.734465 4.1082094,-2.734465 0.8084036,0 2.1257216,0.651063 3.9519546,1.953189 1.642849,1.171914 2.490317,1.84902 2.543487,2.031318 0.07813,0.495893 0.559914,1.223999 1.447531,2.187573 1.252211,1.380254 1.956445,2.162615 2.1127,2.343828 0.990701,1.614637 2.530466,4.010549 4.617124,7.187738 0.417766,0.755234 0.847467,1.497446 1.29019,2.226637 0.235468,0.390638 0.744383,0.585957 1.525659,0.585957 0.574021,0 1.055807,-0.130213 1.44753,-0.390638 0.157341,-0.10417 0.546894,-0.442723 1.174085,-1.015659 V 73.114538 c 1.527828,-0.781276 2.78438,-1.171914 3.770741,-1.171914 1.191446,0 2.46102,0.390638 3.808721,1.171914 v 33.674082 z m -17.422454,-3.98451 c 0,1.06666 -0.07813,1.69276 -0.234383,1.87615 -0.494808,0.38955 -0.990701,0.76717 -1.484424,1.13285 h -2.070382 v -7.57838 h 2.148509 c 0.05208,0.182298 0.390638,0.976595 1.015659,2.38289 0.415596,0.93536 0.625021,1.66455 0.625021,2.18649 z m 6.601782,-28.750956 c 0.235468,1.171914 0.351574,2.513104 0.351574,4.023571 0,1.692765 -0.144319,3.242295 -0.429702,4.648592 -1.979232,-1.250041 -3.006827,-1.926062 -3.08604,-2.031317 -0.234383,-0.312511 -0.351574,-1.250042 -0.351574,-2.812594 0,-1.197956 0.06511,-1.966211 0.195319,-2.304764 0.156255,-0.442723 0.66517,-0.949467 1.523488,-1.523488 h 1.796935 z M 43.35891,103.11662 c 0,0.39064 -0.182297,0.85289 -0.546893,1.38676 -0.364595,0.53279 -0.546893,0.97009 -0.546893,1.30864 -0.913659,0 -1.576658,-0.20834 -1.992254,-0.62502 l 0.625021,-32.149505 c 1.64068,0.807319 2.461019,1.705786 2.461019,2.695402 v 27.383723 z"
       id="path3045" /><path
       d="M 45.273036,79.951787 44.452697,100.61654 V 79.951787 h 0.820339 z M 72.147844,97.529411 H 57.812516 l -0.35266,2.227722 h 11.325246 c 0.914744,1.093787 1.371574,2.200597 1.371574,3.320427 0,0.80731 -0.312511,1.74376 -0.937531,2.81259 h -19.33658 c -0.131298,-0.33855 -0.417766,-0.70206 -0.859404,-1.09379 -0.807318,-0.65106 -1.225084,-0.98961 -1.250042,-1.01566 V 77.567811 c 1.354212,-1.431255 2.382892,-2.148509 3.086041,-2.148509 h 17.578709 c 0.598978,1.223999 0.898467,2.174551 0.898467,2.851657 0,0.781276 -0.31251,1.718807 -0.937531,2.812593 H 57.460941 v 2.304765 h 13.439032 l 0.429702,2.343827 H 57.812516 l -0.35266,1.992254 c 1.098127,0.31251 2.222296,0.468766 3.371423,0.468766 0.417766,0 0.999382,-0.03255 1.743765,-0.09766 0.745467,-0.06511 1.299956,-0.09766 1.665637,-0.09766 1.489849,0 2.901572,0.429701 4.234081,1.289105 v 3.554806 c -0.966829,0.807318 -2.495742,1.210977 -4.587826,1.210977 -0.260425,0 -0.679276,0 -1.253297,0 -0.550148,0 -0.97985,0 -1.293445,0 -1.541935,0 -2.836466,0.141064 -3.881423,0.422106 v 1.648276 h 14.219223 l 0.46985,1.406296 z M 68.515996,72.88124 H 50.663841 c 0,-0.286468 0.247404,-0.625021 0.742212,-1.015659 0.651063,-0.494808 1.094871,-0.937531 1.329254,-1.328169 h 12.266032 c 0.416681,0 0.976595,0.273447 1.679744,0.82034 0.596808,0.494808 1.209892,1.002637 1.834913,1.523488 z m -2.11053,36.56371 H 53.475349 c 4.062635,-0.33855 7.135654,-0.69121 9.219056,-1.05472 1.588595,-0.28755 2.369871,-0.4297 2.343828,-0.4297 0.911489,0 1.367233,0.49481 1.367233,1.48442 z"
       id="path3047" /><path
       d="m 104.49267,74.99394 c 0,0.991787 -0.3787,1.903275 -1.13285,2.737722 -1.0417,1.199041 -1.77198,2.293913 -2.18866,3.284614 -0.98962,1.042786 -1.979231,2.086658 -2.967762,3.128359 -1.979233,2.293913 -2.968849,4.053954 -2.968849,5.279038 0,0.442723 0.442723,1.186021 1.328169,2.228807 1.171914,1.329254 1.84902,2.1637 2.031318,2.502253 2.188654,3.780508 4.127744,6.360887 5.820504,7.742227 v 7.54691 h -5.429866 c -5.703315,-6.14604 -9.101865,-9.21906 -10.195652,-9.21906 -0.625021,0 -1.90219,0.96466 -3.828252,2.89072 -2.109445,2.10945 -4.21889,4.21889 -6.328335,6.32834 h -5.351741 l -0.62502,-0.58596 v -6.52365 c 1.248956,-0.72919 2.381806,-1.73183 3.39855,-3.007914 0.05208,-0.338553 0.156255,-0.845297 0.31251,-1.523488 0.781276,-0.833361 1.704701,-1.95319 2.77353,-3.359487 0.859404,-1.119829 1.718807,-2.239657 2.578211,-3.359486 0.10417,-0.130213 0.15734,-0.845297 0.15734,-2.148509 0,-1.197957 -0.05317,-1.927148 -0.15734,-2.187573 -2.16153,-2.395913 -4.283997,-5.000166 -6.367399,-7.812759 -0.833361,-1.145872 -1.248957,-2.799573 -1.248957,-4.961103 0,-0.598978 0.02496,-1.23702 0.07704,-1.914126 1.094871,-1.093786 2.291743,-1.640679 3.593869,-1.640679 2.265701,0 4.583486,1.75787 6.953356,5.273612 0.07704,0.338553 0.181213,0.846383 0.312511,1.523488 1.431254,1.64068 2.68238,2.46102 3.750124,2.46102 0.911489,0 2.160445,-0.895212 3.750125,-2.686722 1.587509,-1.791509 2.329721,-3.105571 2.226636,-3.943273 1.484425,-0.183383 2.890721,-1.059063 4.218891,-2.628125 h 3.867319 c 0.0521,0.20834 0.38955,1.003722 1.01566,2.385061 0.41668,0.964659 0.62502,1.694935 0.62502,2.189743 z M 92.070381,74.442707 c -0.10417,0 -0.475276,0.273446 -1.112233,0.82034 -0.639127,0.546893 -1.17951,0.820339 -1.621147,0.820339 -0.520851,0 -1.197957,-0.390638 -2.031318,-1.171914 -1.016744,-0.937531 -1.602701,-1.44536 -1.757871,-1.523488 v -1.875062 c 1.510467,0.234383 2.77353,0.351574 3.789189,0.351574 1.015658,0 1.926062,-0.130213 2.734465,-0.390638 v 2.968849 z m 11.328499,19.531899 -1.01674,0.234383 c -0.8594,-1.015659 -1.84902,-1.783914 -2.967765,-2.304765 V 85.8884 h 2.928705 c 0.0521,0.31251 0.0781,0.652148 0.0781,1.015658 0,0.287553 -0.0195,0.697723 -0.0586,1.23051 -0.0391,0.533872 -0.0586,0.917999 -0.0586,1.152382 0,1.119829 0.36351,1.901105 1.09379,2.343828 v 2.343828 z"
       id="path3049" /><path
       d="m 107.38339,92.295948 c -0.72919,0.72919 -1.35421,1.093786 -1.87615,1.093786 V 74.951621 c 0.26043,0.156255 0.49481,0.299489 0.70315,0.429702 0.49481,0.31251 0.76826,0.572936 0.82034,0.781276 -0.2333,5.729357 -0.11611,11.10714 0.35266,16.133349 z m 32.54014,7.510015 c -0.62502,0.493727 -1.14695,1.327087 -1.56255,2.497917 -0.46876,1.29995 -0.8594,2.10619 -1.17191,2.4187 -0.67711,0.75414 -1.67975,1.58751 -3.00683,2.49791 -1.45947,0.98853 -2.76159,1.69168 -3.90746,2.10619 -0.38956,0.13021 -0.87243,0.20834 -1.44536,0.23547 -0.38956,0 -0.91149,-0.01 -1.56147,-0.026 -0.73028,-0.0347 -1.17192,-0.0521 -1.32926,-0.0521 -0.13021,0 -0.54689,0.025 -1.24895,0.0781 -0.62502,0.025 -1.14696,0.025 -1.56255,0 -0.60007,-0.026 -1.1079,-0.0922 -1.52349,-0.19641 -0.80732,-0.23438 -1.92715,-0.74221 -3.35949,-1.5224 -1.19796,-0.67819 -2.39591,-1.3553 -3.59387,-2.03132 -0.20834,-0.10525 -1.01674,-1.11983 -2.42195,-3.04806 -1.56147,-2.10836 -2.33081,-3.476678 -2.30477,-4.101698 V 72.0609 c 0.57185,-0.442723 1.28911,-0.833361 2.14851,-1.171914 0.75415,-0.31251 1.28911,-0.468765 1.60162,-0.468765 0.72919,0 1.25004,0.06511 1.56255,0.195319 0.57185,0.182297 1.2891,0.664084 2.14742,1.44536 v 23.203896 c 0.025,0.442723 0.0911,0.664085 0.19532,0.664085 0.026,0 0.11177,-0.04557 0.25392,-0.136724 0.14323,-0.09006 0.25391,-0.11068 0.33204,-0.05859 0,0.02604 0.11719,0.481787 0.35157,1.367233 2.94281,3.25531 5.00017,4.88297 6.17208,4.88297 0.85941,0 2.36336,-0.99612 4.51079,-2.988376 2.14851,-1.992254 3.23578,-3.444125 3.26291,-4.356699 V 72.0609 c 0.54689,-0.442723 1.26198,-0.833361 2.14742,-1.171914 0.72919,-0.31251 1.25004,-0.468765 1.56255,-0.468765 0.75415,0 1.28911,0.06511 1.60162,0.195319 0.54689,0.181212 1.26306,0.662999 2.14851,1.44319 v 27.747233 z m -10.00033,-23.6043 c 0,0.41668 -0.16927,3.842358 -0.50783,10.273779 -0.38955,6.824228 -0.58595,10.366012 -0.58595,10.625353 l 1.09378,0.703148 h -9.96127 c 0.59898,-0.311425 0.89847,-0.662999 0.89847,-1.054722 0,-0.104171 -0.0391,-0.247405 -0.11719,-0.429702 -0.1823,-0.260426 -0.35049,-0.520851 -0.50783,-0.781276 -0.20834,-0.390638 -0.29949,-0.845297 -0.27345,-1.367233 V 71.474943 c 1.0417,0.182298 1.71881,0.50783 2.03132,0.976595 0.23438,0.598978 0.46877,1.197957 0.70315,1.796935 0.15625,-0.181213 0.22028,0.10417 0.19532,0.859403 v 17.500582 c 0.57185,0.572936 0.96357,0.92451 1.17191,1.054722 0.33855,0.208341 0.79321,0.312511 1.36723,0.312511 0.49481,0 0.95056,-0.169277 1.36724,-0.50783 0.62502,-0.52085 1.01674,-0.820339 1.17191,-0.898467 V 74.990685 c 1.30213,-0.0011 1.95319,0.403659 1.95319,1.210978 z m 15.58646,18.086538 c 0,0.312511 -0.1823,0.931021 -0.5469,1.855531 -0.36459,0.92451 -0.54689,1.64719 -0.54689,2.169126 -0.43187,0.338552 -0.95272,0.716169 -1.56255,1.13285 V 71.434794 c 0.41668,0.338553 0.86591,0.839872 1.3477,1.503957 0.48179,0.664084 0.82685,1.087275 1.03519,1.269573 0.1823,-0.156255 0.27345,0.143234 0.27345,0.898467 v 19.18141 z"
       id="path3051" /><path
       d="m 174.57312,99.014921 c 0,1.927149 -0.0532,3.035039 -0.15734,3.321509 -0.10417,0.28647 -0.52085,1.05472 -1.24895,2.30476 -0.5469,0.96358 -0.82143,1.69277 -0.82143,2.18758 -0.72919,0.18229 -1.7047,0.58595 -2.9287,1.21097 -0.96466,0.49373 -1.92715,1.00264 -2.89072,1.52349 h -10.97693 c -0.46876,0 -1.42583,-0.52085 -2.87119,-1.56255 -1.44536,-1.0417 -2.88421,-2.21362 -4.31655,-3.51574 0,-0.31251 -0.16276,-1.02217 -0.48829,-2.12898 -0.32553,-1.10681 -0.4883,-1.85553 -0.4883,-2.24617 0,-1.066656 0.44272,-1.978145 1.32925,-2.734464 0.78128,-0.651063 1.57449,-0.976595 2.38181,-0.976595 0.75523,0 1.785,0.600064 3.08713,1.796935 1.17191,1.146957 2.34382,2.279804 3.51465,3.398554 1.43234,1.19795 2.66936,1.79693 3.71215,1.79693 0.46876,0 1.32817,-0.3787 2.57821,-1.13285 1.11874,-0.6771 2.17346,-1.41932 3.16417,-2.22664 -0.18339,-0.677101 -0.62502,-1.438845 -1.32926,-2.285228 -0.70206,-0.846382 -1.39327,-1.399786 -2.07038,-1.660211 -2.13549,-0.781276 -4.1668,-1.171914 -6.09287,-1.171914 -0.10525,-0.364595 -0.41776,-0.703148 -0.93753,-1.015659 -2.60425,-0.364595 -4.67572,-1.406296 -6.21223,-3.125103 -1.51046,-1.64068 -2.2657,-3.64487 -2.2657,-6.015825 0,-1.64068 0.69013,-3.579763 2.07038,-5.820506 0.0521,-0.286468 0.15734,-0.677106 0.31251,-1.171914 0.44273,-0.234383 0.7433,-0.533872 0.89847,-0.898468 0.44272,-0.07813 1.13285,-0.390638 2.07038,-0.937531 0.72811,-0.442723 1.47032,-0.872425 2.22664,-1.289105 0.31251,-0.156255 0.78128,-0.247404 1.4063,-0.273447 0.44272,-0.02604 1.02868,-0.02604 1.75787,0 0.88436,0.05209 1.40629,0.07813 1.56255,0.07813 2.10836,0 3.63293,0.06511 4.57046,0.195319 0.18122,0.31251 0.51977,0.664085 1.01566,1.054723 0.31251,0 0.7433,0.01411 1.28911,0.03906 0.36351,0.02604 0.663,0.09115 0.89738,0.195319 0.0521,0.02604 0.58596,0.364596 1.6027,1.015659 0.65106,0.416681 1.14587,0.625021 1.48443,0.625021 0.15625,0.546893 0.59897,1.576658 1.32816,3.08604 0.65107,1.328169 0.9766,2.187573 0.9766,2.578211 0,1.302126 -0.62502,2.343827 -1.87615,3.125103 -0.83444,0.546894 -1.5224,0.82034 -2.07038,0.82034 -0.3646,0 -1.86855,-1.02868 -4.51078,-3.08604 -2.64441,-2.05736 -4.14728,-3.08604 -4.51187,-3.08604 -0.41777,0 -1.0493,0.260425 -1.8946,0.781276 -0.84638,0.520851 -1.60812,1.080765 -2.28523,1.679743 v 1.679744 c 1.06775,0.468765 1.92715,1.263062 2.57821,2.382891 0.85941,0.286468 2.39592,0.585957 4.60953,0.898468 1.92715,0.260425 3.39964,0.638042 4.41421,1.13285 4.26989,2.00419 6.40646,5.155336 6.40646,9.452354 z m -7.93103,-27.96968 -0.50783,1.171914 h -9.92221 l 0.46877,-1.679743 9.96127,0.507829 z m -3.98451,29.687399 c -2.39591,-0.59898 -4.1017,-0.898465 -5.11736,-0.898465 l -0.46876,-2.539146 h 3.20214 c 0.41668,0 0.84638,0.169276 1.28911,0.507829 0.65106,0.547978 1.01566,0.846382 1.09378,0.898467 v 2.031315 z m -0.8594,-15.820835 h -1.64068 v -1.171914 h 1.64068 v 1.171914 z m 14.25937,6.134101 h -0.78236 V 89.44429 h 0.78236 v 1.601616 z m 2.42195,10.546144 h -1.64068 v -6.015829 h 1.64068 v 6.015829 z"
       id="path3053" /></g></svg>