<?xml version="1.0" encoding="utf-8"?>
<!-- Generator: Adobe Illustrator 17.0.0, SVG Export Plug-In . SVG Version: 6.00 Build 0)  -->
<!DOCTYPE svg PUBLIC "-//W3C//DTD SVG 1.1//EN" "http://www.w3.org/Graphics/SVG/1.1/DTD/svg11.dtd">
<svg version="1.1"
	 id="robot" xmlns:dc="http://purl.org/dc/elements/1.1/" xmlns:cc="http://creativecommons.org/ns#" xmlns:svg="http://www.w3.org/2000/svg" xmlns:sodipodi="http://sodipodi.sourceforge.net/DTD/sodipodi-0.dtd" xmlns:rdf="http://www.w3.org/1999/02/22-rdf-syntax-ns#" xmlns:inkscape="http://www.inkscape.org/namespaces/inkscape" sodipodi:docname="robot.svg" inkscape:version="0.48.3.1 r9886"
	 xmlns="http://www.w3.org/2000/svg" xmlns:xlink="http://www.w3.org/1999/xlink" x="0px" y="0px" width="180px" height="180px"
	 viewBox="0 0 180 180" enable-background="new 0 0 180 180" xml:space="preserve">
<g id="layer1" transform="translate(0,-872.36218)" inkscape:label="Layer 1" inkscape:groupmode="layer">
	<path id="path5604" d="M169.357,950.985h1.528c0.672,0,1.213,0.548,1.213,1.23v3.689c0,0.681-0.541,1.23-1.213,1.23h-1.528
		c-0.672,0-1.213-0.548-1.213-1.23v-3.689C168.143,951.534,168.685,950.985,169.357,950.985z"/>
	<path id="path5602" d="M132.976,950.985h1.528c0.672,0,1.213,0.548,1.213,1.23v3.689c0,0.681-0.541,1.23-1.213,1.23h-1.528
		c-0.672,0-1.213-0.548-1.213-1.23v-3.689C131.763,951.534,132.304,950.985,132.976,950.985z"/>
	<path id="path5600" d="M152.005,935.362c-1.402,0-2.55,0.991-2.55,2.2c0,0.817,0.53,1.526,1.298,1.902v3.91h-9.611
		c-2.005,0-3.621,1.432-3.621,3.218v12.902c0,1.786,1.615,3.218,3.621,3.218h21.714c2.005,0,3.621-1.432,3.621-3.218v-12.902
		c0-1.786-1.615-3.218-3.621-3.218h-9.611v-3.91c0.768-0.376,1.298-1.086,1.298-1.902
		C154.545,936.353,153.407,935.362,152.005,935.362z M141.105,946.89h4.256v5.437h-4.256V946.89z M158.118,946.89h4.256v5.437
		h-4.256V946.89z M143.427,956.641h17.146v2.892h-17.146V956.641z"/>
	<path id="path5592" d="M135.921,964.625c-0.679,0-1.232,0.548-1.232,1.23v22.278c0,0.681,0.553,1.23,1.232,1.23h32.054
		c0.679,0,1.232-0.548,1.232-1.23v-22.278c0-0.681-0.553-1.23-1.232-1.23H135.921z M145.929,967.526
		c2.333-0.061,4.58,0.987,5.876,2.805c1.728-2.425,5.152-3.481,8.208-2.363c3.473,1.271,5.159,4.859,3.763,8.022
		c-1.338,3.032-11.942,10.596-11.942,10.596l-0.028,0.019l-0.028-0.019c0,0-10.595-7.564-11.933-10.596
		c-1.395-3.162,0.281-6.751,3.753-8.022C144.362,967.688,145.152,967.546,145.929,967.526z"/>
	<path id="path5588" d="M171.913,966.97h1.03c0.672,0,1.213,0.548,1.213,1.23v17.414c0,0.681-0.541,1.23-1.213,1.23h-1.03
		c-0.672,0-1.213-0.548-1.213-1.23V968.2C170.7,967.519,171.241,966.97,171.913,966.97z"/>
	<path id="path5586" d="M131.027,966.97h1.03c0.672,0,1.213,0.548,1.213,1.23v17.414c0,0.681-0.541,1.23-1.213,1.23h-1.03
		c-0.672,0-1.213-0.548-1.213-1.23V968.2C129.814,967.519,130.355,966.97,131.027,966.97z"/>
	<path id="path5584" d="M126.213,971.022h1.03c0.672,0,1.213,0.548,1.213,1.23v9.311c0,0.681-0.541,1.23-1.213,1.23h-1.03
		c-0.672,0-1.213-0.548-1.213-1.23v-9.311C125,971.57,125.541,971.022,126.213,971.022z"/>
	<path id="rect5354" d="M176.757,971.022h1.03c0.672,0,1.213,0.548,1.213,1.23v9.311c0,0.681-0.541,1.23-1.213,1.23h-1.03
		c-0.672,0-1.213-0.548-1.213-1.23v-9.311C175.544,971.57,176.085,971.022,176.757,971.022z"/>
</g>
<g>
	<path d="M17.608,91.872v-8.575H5.592v8.575H0.808V69.839h17.384v4.288h4.2v4.883h-4.2v3.692h4.2v9.17H17.608z M17.608,74.722H5.592
		v3.692h12.017V74.722z"/>
	<path d="M43.392,87.584v4.288H30.208v-4.288h-4.2V74.126h4.2v-4.288h13.184v4.288h4.2v13.458H43.392z M42.809,74.722H30.792v12.267
		h12.017V74.722z"/>
	<path d="M68.592,87.584v4.288H51.208V69.839h17.384v4.288h4.2v4.883h-4.2v3.692h4.2v4.883H68.592z M68.008,74.722H55.992v3.692
		h12.017V74.722z M68.008,83.297H55.992v3.692h12.017V83.297z"/>
	<path d="M93.792,87.584v4.288H80.608v-4.288h-4.2V74.126h4.2v-4.288h13.184v4.288h4.199v13.458H93.792z M93.208,74.722H81.192
		v12.267h12.016V74.722z"/>
	<path d="M114.792,74.722v17.15h-4.784v-17.15h-8.399v-4.883h21.583v4.883H114.792z"/>
	<path d="M17.608,117.393v-8.575H5.592v8.575H0.808V95.359h4.784v8.575h12.017v-8.575h4.783v22.033H17.608z"/>
	<path d="M26.008,117.393V95.359h21.583v4.883h-16.8v3.692h12.6v4.883h-12.6v3.692h16.8v4.883H26.008z"/>
	<path d="M68.008,117.393v-8.575H55.992v8.575h-4.784V99.647h4.2v-4.288h13.184v4.288h4.2v17.745H68.008z M68.008,100.242H55.992
		v3.692h12.017V100.242z"/>
	<path d="M93.208,117.393v-8.575H81.192v8.575h-4.784V95.359h17.384v4.288h4.199v4.883h-4.199v3.691h4.199v9.171H93.208z
		 M93.208,100.242H81.192v3.692h12.016V100.242z"/>
	<path d="M114.792,100.242v17.15h-4.784v-17.15h-8.399v-4.883h21.583v4.883H114.792z"/>
</g>
</svg>
