<?xml version="1.0" encoding="utf-8"?>
<!-- Generator: Adobe Illustrator 17.0.0, SVG Export Plug-In . SVG Version: 6.00 Build 0)  -->
<!DOCTYPE svg PUBLIC "-//W3C//DTD SVG 1.1//EN" "http://www.w3.org/Graphics/SVG/1.1/DTD/svg11.dtd">
<svg version="1.1" id="Layer_1" xmlns="http://www.w3.org/2000/svg" xmlns:xlink="http://www.w3.org/1999/xlink" x="0px" y="0px"
	 width="160px" height="80px" viewBox="0 0 160 80" enable-background="new 0 0 160 80" xml:space="preserve">
<g>
	<g>
		<path d="M15.046,76.45c-0.017,0.065,0.321,0.643,0.207,1.065c-0.08,0.297-0.247,0.529-0.498,0.697
			c-0.251,0.167-0.554,0.206-0.911,0.113c-0.417-0.11-0.788-0.69-0.809-0.696c-0.061-0.016-0.63,0.317-1.048,0.208
			c-0.417-0.11-0.789-0.696-0.808-0.701c-0.06-0.016-0.632,0.322-1.049,0.213c-0.418-0.11-0.789-0.701-0.807-0.706
			c-0.06-0.016-0.632,0.327-1.05,0.217c-0.418-0.11-0.789-0.706-0.805-0.711c-0.059-0.016-0.634,0.332-1.052,0.222
			c-0.418-0.11-0.789-0.712-0.804-0.715c-0.059-0.016-0.636,0.337-1.053,0.227c-0.356-0.094-0.6-0.282-0.731-0.567
			c-0.131-0.285-0.155-0.587-0.069-0.904c0.122-0.451,0.726-0.839,0.736-0.873c0.022-0.073-0.304-0.702-0.177-1.152
			c0.089-0.316,0.264-0.563,0.523-0.74c0.259-0.177,0.565-0.214,0.919-0.111c0.415,0.12,0.775,0.758,0.78,0.759
			c0.022,0.006,0.359-0.208,0.362-0.216c0.022-0.065-0.3-0.692-0.174-1.118c0.13-0.443,0.741-0.813,0.752-0.845
			c0.023-0.072-0.292-0.695-0.162-1.119c0.135-0.441,0.75-0.804,0.761-0.836c0.024-0.071-0.285-0.697-0.15-1.121
			c0.14-0.44,0.759-0.794,0.77-0.828c0.009-0.025-0.174-0.379-0.179-0.381c-0.06-0.018-0.661,0.324-1.072,0.191
			c-0.411-0.133-0.747-0.785-0.754-0.787c-0.055-0.018-0.663,0.329-1.073,0.196c-0.411-0.133-0.74-0.788-0.752-0.792
			c-0.021-0.007-0.367,0.195-0.371,0.209c-0.022,0.074,0.279,0.695,0.137,1.143c-0.137,0.431-0.761,0.815-0.772,0.853
			c-0.021,0.073,0.287,0.691,0.149,1.141c-0.133,0.433-0.752,0.824-0.763,0.862c-0.021,0.074,0.295,0.688,0.162,1.14
			c-0.128,0.435-0.743,0.833-0.753,0.871c-0.02,0.074,0.302,0.685,0.175,1.138c-0.123,0.436-0.734,0.842-0.744,0.88
			c-0.019,0.074,0.31,0.682,0.187,1.137c-0.086,0.32-0.257,0.572-0.513,0.757c-0.256,0.185-0.561,0.232-0.918,0.138
			c-0.356-0.093-0.599-0.284-0.729-0.575c-0.13-0.29-0.152-0.597-0.064-0.921c0.124-0.46,0.73-0.856,0.742-0.894
			c0.022-0.076-0.303-0.706-0.178-1.148c0.129-0.459,0.74-0.847,0.751-0.885c0.023-0.076-0.295-0.709-0.166-1.149
			c0.134-0.457,0.749-0.838,0.761-0.876c0.024-0.076-0.287-0.712-0.153-1.15c0.139-0.455,0.758-0.829,0.771-0.867
			c0.025-0.075-0.279-0.715-0.14-1.151c0.144-0.453,0.767-0.821,0.78-0.858c0.026-0.075-0.269-0.726-0.119-1.177
			c0.105-0.317,0.292-0.562,0.56-0.731c0.268-0.169,0.576-0.195,0.925-0.077c0.409,0.138,0.741,0.802,0.743,0.803
			c0.021,0.007,0.369-0.197,0.372-0.205c0.026-0.066-0.263-0.723-0.11-1.168c0.107-0.313,0.296-0.552,0.566-0.716
			c0.269-0.164,0.577-0.185,0.925-0.063c0.407,0.143,0.729,0.803,0.736,0.806c0.055,0.019,0.668-0.313,1.076-0.17
			c0.347,0.122,0.575,0.329,0.686,0.62c0.11,0.292,0.11,0.597-0.001,0.919c-0.144,0.419-0.777,0.79-0.784,0.814
			c-0.006,0.022,0.173,0.382,0.175,0.383c0.054,0.018,0.663-0.316,1.073-0.177c0.349,0.118,0.579,0.321,0.694,0.609
			c0.114,0.288,0.118,0.591,0.012,0.911c-0.138,0.417-0.762,0.781-0.772,0.813c-0.021,0.069,0.285,0.678,0.147,1.112
			c-0.133,0.418-0.757,0.8-0.763,0.822c-0.006,0.021,0.182,0.375,0.185,0.376c0.055,0.017,0.655-0.326,1.067-0.196
			c0.412,0.129,0.758,0.763,0.767,0.766c0.022,0.007,0.362-0.194,0.365-0.201c0.022-0.062-0.286-0.694-0.149-1.125
			c0.096-0.302,0.276-0.534,0.538-0.696c0.262-0.16,0.569-0.183,0.919-0.069c0.41,0.134,0.75,0.766,0.76,0.769
			c0.022,0.007,0.363-0.188,0.366-0.194c0.023-0.06-0.28-0.691-0.14-1.115c0.099-0.298,0.281-0.527,0.543-0.681
			c0.263-0.155,0.57-0.173,0.918-0.055c0.409,0.138,0.742,0.769,0.753,0.772c0.022,0.007,0.365-0.182,0.367-0.187
			c0.023-0.059-0.278-0.68-0.139-1.082c0.106-0.309,0.292-0.539,0.557-0.689c0.264-0.15,0.569-0.164,0.917-0.042
			c0.347,0.122,0.577,0.324,0.692,0.602c0.115,0.28,0.12,0.572,0.015,0.877c-0.136,0.397-0.759,0.739-0.767,0.763
			c-0.02,0.064,0.285,0.659,0.148,1.072c-0.096,0.291-0.276,0.517-0.539,0.678c-0.262,0.16-0.569,0.186-0.919,0.073
			c-0.411-0.133-0.741-0.754-0.762-0.762c-0.022-0.008-0.362,0.181-0.365,0.19c-0.02,0.066,0.291,0.661,0.157,1.082
			c-0.094,0.295-0.272,0.526-0.534,0.692c-0.261,0.167-0.568,0.196-0.919,0.087c-0.412-0.128-0.749-0.752-0.769-0.759
			c-0.022-0.007-0.361,0.188-0.364,0.198c-0.02,0.068,0.296,0.663,0.166,1.09c-0.092,0.3-0.269,0.536-0.529,0.707
			c-0.26,0.172-0.567,0.207-0.919,0.101c-0.414-0.124-0.759-0.75-0.776-0.755c-0.022-0.007-0.36,0.194-0.363,0.205
			c-0.019,0.069,0.302,0.666,0.174,1.099c-0.123,0.417-0.736,0.809-0.741,0.83c-0.005,0.021,0.191,0.368,0.194,0.369
			c0.055,0.016,0.646-0.336,1.061-0.215c0.415,0.12,0.773,0.74,0.785,0.744c0.058,0.016,0.645-0.33,1.059-0.21
			c0.415,0.12,0.773,0.735,0.786,0.739c0.058,0.017,0.643-0.325,1.058-0.205c0.354,0.102,0.595,0.291,0.724,0.563
			c0.13,0.273,0.151,0.565,0.063,0.876C15.656,76.048,15.052,76.425,15.046,76.45z"/>
		<path d="M20.835,59.086c-0.023,0.062,0.253,0.671,0.096,1.077c-0.11,0.286-0.301,0.502-0.571,0.649
			c-0.269,0.147-0.577,0.157-0.921,0.026c-0.404-0.153-0.703-0.789-0.724-0.798c-0.022-0.009-0.37,0.163-0.374,0.172
			c-0.023,0.065,0.258,0.673,0.104,1.086c-0.109,0.29-0.298,0.511-0.567,0.664c-0.269,0.153-0.576,0.167-0.922,0.04
			c-0.405-0.148-0.718-0.79-0.731-0.795c-0.056-0.021-0.667,0.283-1.072,0.135c-0.406-0.149-0.718-0.796-0.729-0.8
			c-0.056-0.021-0.668,0.288-1.074,0.14c-0.406-0.149-0.718-0.801-0.727-0.805c-0.055-0.02-0.67,0.293-1.076,0.145
			c-0.406-0.149-0.717-0.807-0.725-0.81c-0.055-0.02-0.673,0.298-1.078,0.15c-0.406-0.149-0.717-0.812-0.723-0.815
			c-0.054-0.02-0.674,0.303-1.08,0.155c-0.346-0.127-0.569-0.342-0.67-0.648c-0.101-0.306-0.09-0.622,0.032-0.949
			c0.159-0.424,0.793-0.746,0.808-0.782c0.01-0.026-0.153-0.393-0.157-0.395c-0.058-0.021-0.68,0.3-1.084,0.147
			c-0.344-0.13-0.564-0.349-0.661-0.658c-0.096-0.309-0.081-0.628,0.046-0.957c0.165-0.426,0.805-0.747,0.82-0.783
			c0.03-0.073-0.228-0.732-0.058-1.156c0.176-0.441,0.823-0.762,0.839-0.798c0.031-0.073-0.22-0.734-0.046-1.156
			c0.181-0.439,0.832-0.752,0.847-0.788c0.032-0.072-0.212-0.736-0.033-1.157c0.186-0.436,0.84-0.743,0.856-0.778
			c0.033-0.072-0.204-0.738-0.02-1.157c0.141-0.322,0.353-0.554,0.636-0.698c0.282-0.143,0.592-0.139,0.927,0.011
			c0.395,0.176,0.663,0.867,0.665,0.868c0.02,0.009,0.386-0.161,0.39-0.169c0.032-0.063-0.198-0.735-0.012-1.147
			c0.143-0.317,0.357-0.544,0.64-0.682c0.283-0.138,0.592-0.129,0.926,0.025c0.392,0.18,0.651,0.867,0.657,0.87
			c0.053,0.024,0.694-0.248,1.087-0.068c0.392,0.18,0.652,0.861,0.66,0.865c0.053,0.024,0.692-0.243,1.085-0.063
			c0.393,0.181,0.653,0.856,0.662,0.86c0.054,0.025,0.69-0.238,1.082-0.058c0.393,0.181,0.653,0.85,0.664,0.855
			c0.054,0.025,0.688-0.234,1.081-0.053c0.392,0.18,0.654,0.845,0.666,0.85c0.055,0.025,0.686-0.229,1.078-0.048
			c0.334,0.154,0.545,0.376,0.631,0.667c0.087,0.291,0.064,0.584-0.07,0.881c-0.175,0.386-0.832,0.68-0.839,0.696
			c-0.008,0.019,0.14,0.383,0.144,0.385c0.054,0.024,0.681-0.231,1.075-0.055c0.336,0.15,0.549,0.37,0.64,0.657
			c0.091,0.288,0.073,0.579-0.057,0.873c-0.168,0.384-0.817,0.672-0.827,0.696c-0.025,0.061,0.23,0.679,0.06,1.079
			c-0.164,0.386-0.81,0.682-0.819,0.705c-0.025,0.062,0.238,0.676,0.072,1.078c-0.16,0.387-0.802,0.69-0.811,0.714
			c-0.024,0.062,0.246,0.673,0.084,1.078C21.483,58.751,20.844,59.062,20.835,59.086z M19.209,58.762
			c0.022,0.008,0.373-0.163,0.375-0.168c0.026-0.057-0.244-0.692-0.086-1.087c0.164-0.41,0.801-0.704,0.811-0.728
			c0.027-0.063-0.236-0.695-0.074-1.087c0.168-0.408,0.809-0.695,0.819-0.719c0.028-0.063-0.228-0.697-0.062-1.088
			c0.172-0.405,0.816-0.685,0.827-0.71c0.01-0.022-0.141-0.38-0.148-0.383c-0.061-0.025-0.679,0.24-1.076,0.069
			c-0.396-0.171-0.673-0.828-0.686-0.833c-0.055-0.024-0.681,0.245-1.078,0.074c-0.397-0.171-0.673-0.834-0.684-0.839
			c-0.055-0.024-0.683,0.25-1.08,0.079s-0.672-0.839-0.681-0.843c-0.054-0.023-0.685,0.255-1.082,0.084s-0.671-0.845-0.679-0.848
			c-0.054-0.023-0.688,0.26-1.084,0.089c-0.397-0.171-0.67-0.85-0.677-0.853c-0.053-0.023-0.69,0.264-1.086,0.094
			c-0.397-0.171-0.663-0.852-0.675-0.858c-0.02-0.009-0.383,0.159-0.389,0.172c-0.029,0.071,0.214,0.716,0.03,1.147
			c-0.177,0.416-0.834,0.739-0.848,0.774c-0.028,0.071,0.222,0.714,0.043,1.147c-0.172,0.417-0.825,0.747-0.839,0.784
			c-0.027,0.071,0.23,0.711,0.056,1.147c-0.167,0.419-0.821,0.766-0.83,0.793c-0.007,0.022,0.153,0.396,0.154,0.397
			c0.052,0.021,0.682-0.292,1.084-0.133c0.402,0.158,0.698,0.83,0.704,0.832c0.054,0.021,0.68-0.287,1.082-0.128
			c0.402,0.158,0.698,0.824,0.706,0.827c0.055,0.021,0.678-0.282,1.08-0.123c0.402,0.158,0.699,0.819,0.708,0.823
			c0.055,0.021,0.676-0.277,1.078-0.118c0.402,0.158,0.699,0.813,0.71,0.818c0.056,0.022,0.674-0.272,1.076-0.113
			c0.402,0.158,0.7,0.808,0.712,0.813c0.056,0.022,0.672-0.267,1.074-0.109S19.198,58.758,19.209,58.762z"/>
		<path d="M26.612,45.989c-0.028,0.06,0.197,0.689,0.008,1.08c-0.133,0.275-0.34,0.471-0.617,0.588
			c-0.277,0.117-0.583,0.098-0.915-0.06c-0.39-0.186-0.647-0.822-0.666-0.832c-0.057-0.027-0.677,0.192-1.067,0.006
			s-0.646-0.827-0.664-0.836c-0.057-0.027-0.679,0.197-1.069,0.011c-0.391-0.186-0.645-0.833-0.663-0.841
			c-0.056-0.027-0.681,0.201-1.071,0.016c-0.39-0.186-0.644-0.838-0.66-0.846c-0.055-0.027-0.683,0.206-1.074,0.02
			c-0.39-0.186-0.643-0.843-0.658-0.85c-0.055-0.026-0.686,0.21-1.076,0.025c-0.332-0.158-0.537-0.388-0.614-0.692
			c-0.077-0.303-0.044-0.603,0.098-0.897c0.202-0.418,0.867-0.685,0.883-0.716c0.035-0.068-0.169-0.744,0.038-1.16
			c0.146-0.292,0.363-0.501,0.65-0.626c0.287-0.124,0.594-0.103,0.923,0.063c0.385,0.195,0.621,0.886,0.627,0.889
			c0.02,0.01,0.391-0.137,0.395-0.144c0.033-0.059-0.167-0.732,0.034-1.127c0.21-0.409,0.878-0.657,0.894-0.687
			c0.035-0.065-0.159-0.735,0.047-1.126c0.214-0.407,0.885-0.647,0.902-0.677c0.036-0.065-0.151-0.736,0.06-1.126
			c0.219-0.404,0.891-0.636,0.909-0.667c0.013-0.023-0.099-0.403-0.105-0.407c-0.056-0.03-0.697,0.172-1.075-0.035
			c-0.379-0.207-0.594-0.883-0.607-0.89c-0.053-0.029-0.699,0.176-1.078-0.031c-0.379-0.207-0.59-0.886-0.605-0.894
			c-0.02-0.011-0.396,0.123-0.403,0.136c-0.035,0.068,0.146,0.733-0.076,1.145c-0.214,0.397-0.898,0.657-0.916,0.691
			c-0.034,0.068,0.155,0.731-0.063,1.145c-0.21,0.399-0.891,0.667-0.908,0.701c-0.034,0.068,0.163,0.729-0.051,1.146
			c-0.206,0.402-0.883,0.677-0.9,0.711c-0.033,0.068,0.171,0.728-0.038,1.146c-0.201,0.404-0.876,0.686-0.892,0.721
			c-0.032,0.069,0.179,0.726-0.025,1.147c-0.144,0.297-0.358,0.511-0.643,0.644c-0.285,0.134-0.594,0.122-0.927-0.037
			c-0.332-0.158-0.536-0.39-0.61-0.699c-0.075-0.307-0.039-0.612,0.106-0.913c0.206-0.426,0.875-0.7,0.893-0.735
			c0.036-0.07-0.168-0.747,0.036-1.156c0.211-0.424,0.883-0.691,0.901-0.725c0.037-0.07-0.159-0.748,0.049-1.155
			c0.216-0.422,0.89-0.681,0.909-0.715c0.037-0.069-0.151-0.751,0.062-1.155c0.221-0.42,0.898-0.671,0.917-0.705
			c0.038-0.069-0.142-0.752,0.075-1.154c0.225-0.417,0.905-0.661,0.924-0.695c0.039-0.069-0.13-0.762,0.101-1.177
			c0.162-0.291,0.39-0.495,0.685-0.612c0.294-0.116,0.602-0.083,0.922,0.097c0.376,0.212,0.579,0.924,0.582,0.926
			c0.019,0.011,0.399-0.124,0.403-0.131c0.037-0.06-0.124-0.758,0.108-1.166c0.163-0.287,0.393-0.486,0.688-0.597
			c0.295-0.11,0.601-0.073,0.92,0.111c0.374,0.216,0.567,0.924,0.573,0.927c0.05,0.029,0.714-0.182,1.088,0.034
			c0.319,0.184,0.504,0.43,0.559,0.736c0.054,0.307-0.003,0.606-0.171,0.901c-0.219,0.384-0.91,0.631-0.921,0.652
			c-0.01,0.02,0.1,0.407,0.102,0.408c0.049,0.028,0.71-0.186,1.086,0.027c0.376,0.212,0.583,0.908,0.589,0.911
			c0.02,0.011,0.395-0.116,0.399-0.123c0.035-0.056-0.133-0.742,0.092-1.137c0.158-0.278,0.383-0.469,0.674-0.574
			c0.291-0.104,0.596-0.063,0.914,0.121c0.374,0.216,0.571,0.907,0.581,0.913c0.052,0.03,0.706-0.169,1.081,0.048
			c0.374,0.216,0.572,0.902,0.584,0.909c0.052,0.03,0.704-0.164,1.078,0.052c0.319,0.184,0.507,0.426,0.566,0.723
			c0.059,0.298,0.009,0.588-0.152,0.87c-0.21,0.368-0.892,0.6-0.9,0.615c-0.009,0.019,0.104,0.394,0.108,0.397
			c0.051,0.029,0.7-0.167,1.076,0.045c0.321,0.181,0.512,0.419,0.576,0.713c0.065,0.296,0.018,0.583-0.138,0.865
			c-0.203,0.366-0.876,0.593-0.888,0.615c-0.031,0.059,0.167,0.697-0.04,1.079c-0.199,0.368-0.869,0.602-0.881,0.625
			c-0.03,0.059,0.174,0.695-0.028,1.08c-0.195,0.37-0.863,0.612-0.874,0.635c-0.03,0.059,0.182,0.693-0.016,1.08
			c-0.191,0.373-0.856,0.622-0.867,0.644c-0.029,0.06,0.19,0.691-0.004,1.08C27.285,45.711,26.623,45.967,26.612,45.989z
			 M25.887,43.782c0.021,0.01,0.387-0.127,0.389-0.132c0.031-0.054-0.179-0.711,0.015-1.089c0.201-0.392,0.863-0.626,0.875-0.649
			c0.033-0.06-0.171-0.713,0.027-1.089c0.205-0.39,0.869-0.616,0.882-0.639c0.033-0.06-0.163-0.715,0.039-1.088
			c0.209-0.388,0.875-0.605,0.889-0.629c0.012-0.021-0.103-0.391-0.112-0.396c-0.058-0.031-0.687,0.154-1.066-0.053
			s-0.599-0.862-0.617-0.872c-0.055-0.03-0.689,0.158-1.068-0.049c-0.38-0.207-0.598-0.867-0.615-0.877
			c-0.055-0.03-0.691,0.163-1.071-0.044c-0.379-0.207-0.593-0.87-0.612-0.881c-0.021-0.012-0.393,0.116-0.398,0.127
			c-0.033,0.065,0.155,0.717-0.061,1.116c-0.208,0.385-0.886,0.634-0.901,0.663c-0.033,0.064,0.163,0.715-0.049,1.117
			c-0.203,0.387-0.879,0.644-0.893,0.673c-0.032,0.064,0.171,0.713-0.036,1.118c-0.199,0.389-0.877,0.662-0.886,0.683
			c-0.009,0.02,0.118,0.399,0.121,0.4c0.051,0.026,0.698-0.212,1.084-0.017c0.386,0.195,0.621,0.874,0.631,0.88
			c0.053,0.027,0.696-0.207,1.082-0.012c0.385,0.195,0.622,0.869,0.634,0.875c0.054,0.027,0.694-0.202,1.079-0.007
			C25.636,43.107,25.876,43.777,25.887,43.782z"/>
		<path d="M35.505,30.05c-0.034,0.057,0.124,0.706-0.106,1.075c-0.162,0.26-0.389,0.437-0.682,0.531
			c-0.292,0.094-0.596,0.047-0.91-0.146c-0.368-0.225-0.544-0.906-0.563-0.918c-0.02-0.013-0.394,0.091-0.399,0.099
			c-0.035,0.059,0.129,0.709-0.099,1.086c-0.16,0.265-0.387,0.447-0.68,0.546c-0.292,0.1-0.597,0.056-0.913-0.132
			c-0.371-0.221-0.559-0.909-0.57-0.916c-0.052-0.031-0.708,0.153-1.078-0.068c-0.372-0.222-0.558-0.915-0.568-0.921
			c-0.051-0.031-0.71,0.158-1.081-0.063c-0.371-0.221-0.556-0.92-0.565-0.925c-0.05-0.03-0.713,0.163-1.084-0.059
			c-0.371-0.221-0.555-0.925-0.562-0.93c-0.05-0.03-0.716,0.167-1.086-0.054c-0.371-0.221-0.554-0.931-0.56-0.934
			c-0.05-0.03-0.719,0.172-1.089-0.049c-0.316-0.189-0.496-0.442-0.538-0.76s0.027-0.627,0.207-0.925
			c0.234-0.387,0.917-0.585,0.939-0.618c0.015-0.023-0.077-0.415-0.081-0.417c-0.053-0.031-0.723,0.168-1.092-0.057
			c-0.314-0.192-0.49-0.448-0.527-0.769s0.037-0.632,0.222-0.931c0.241-0.388,0.93-0.583,0.951-0.616
			c0.043-0.066-0.088-0.761,0.157-1.146c0.255-0.4,0.95-0.595,0.972-0.628c0.044-0.066-0.079-0.762,0.17-1.145
			c0.259-0.398,0.957-0.585,0.979-0.617c0.045-0.065-0.071-0.763,0.183-1.144c0.264-0.394,0.964-0.574,0.986-0.607
			c0.045-0.065-0.063-0.763,0.196-1.141c0.199-0.29,0.451-0.48,0.755-0.568c0.304-0.088,0.608-0.027,0.91,0.183
			c0.355,0.246,0.49,0.975,0.492,0.977c0.018,0.012,0.409-0.086,0.415-0.094c0.043-0.057-0.057-0.759,0.203-1.131
			c0.2-0.285,0.453-0.469,0.757-0.553c0.304-0.083,0.606-0.017,0.906,0.196c0.352,0.25,0.478,0.974,0.484,0.978
			c0.047,0.033,0.729-0.116,1.081,0.135c0.352,0.25,0.48,0.969,0.487,0.973c0.048,0.034,0.726-0.111,1.078,0.139
			c0.352,0.25,0.482,0.963,0.49,0.969c0.048,0.034,0.723-0.107,1.075,0.143s0.483,0.958,0.493,0.965
			c0.049,0.034,0.72-0.103,1.072,0.148c0.352,0.25,0.485,0.953,0.496,0.96c0.049,0.035,0.717-0.098,1.069,0.152
			c0.3,0.213,0.465,0.471,0.495,0.773c0.031,0.303-0.046,0.587-0.234,0.854c-0.244,0.348-0.945,0.514-0.954,0.529
			c-0.011,0.018,0.066,0.403,0.07,0.406c0.048,0.034,0.713-0.101,1.067,0.145c0.302,0.21,0.47,0.466,0.506,0.765
			c0.036,0.3-0.037,0.583-0.219,0.849c-0.237,0.346-0.928,0.509-0.942,0.531c-0.036,0.056,0.1,0.71-0.142,1.072
			c-0.233,0.349-0.923,0.52-0.936,0.541c-0.036,0.056,0.108,0.709-0.13,1.073c-0.229,0.351-0.916,0.529-0.93,0.551
			c-0.035,0.056,0.116,0.707-0.118,1.074C36.204,29.842,35.518,30.028,35.505,30.05z M33.968,29.43
			c0.02,0.012,0.397-0.091,0.4-0.095c0.036-0.051-0.111-0.725,0.117-1.084c0.237-0.372,0.918-0.543,0.932-0.565
			c0.038-0.057-0.103-0.727,0.129-1.082c0.241-0.369,0.924-0.533,0.939-0.554c0.039-0.057-0.095-0.728,0.142-1.082
			c0.245-0.366,0.929-0.522,0.945-0.544c0.014-0.02-0.067-0.4-0.074-0.404c-0.055-0.036-0.712,0.11-1.07-0.131
			c-0.358-0.241-0.507-0.939-0.518-0.947c-0.05-0.034-0.715,0.114-1.073-0.127c-0.359-0.242-0.506-0.945-0.516-0.952
			c-0.049-0.033-0.718,0.119-1.076-0.123s-0.504-0.95-0.512-0.956c-0.049-0.033-0.721,0.124-1.079-0.118
			c-0.358-0.242-0.502-0.955-0.509-0.96c-0.048-0.033-0.724,0.128-1.082-0.114c-0.358-0.242-0.501-0.961-0.506-0.965
			c-0.048-0.033-0.727,0.132-1.085-0.109c-0.358-0.242-0.493-0.961-0.503-0.969c-0.018-0.013-0.406,0.085-0.414,0.097
			c-0.042,0.065,0.076,0.744-0.184,1.134c-0.251,0.376-0.957,0.571-0.977,0.604c-0.041,0.064,0.085,0.743-0.171,1.136
			c-0.247,0.378-0.95,0.581-0.97,0.614c-0.04,0.065,0.093,0.742-0.158,1.137c-0.242,0.381-0.949,0.6-0.963,0.625
			c-0.011,0.02,0.077,0.418,0.078,0.418c0.047,0.03,0.724-0.16,1.089,0.071c0.365,0.23,0.532,0.945,0.538,0.949
			c0.049,0.031,0.721-0.155,1.087,0.075c0.365,0.23,0.533,0.94,0.54,0.944c0.05,0.031,0.718-0.151,1.084,0.08
			c0.366,0.23,0.535,0.934,0.543,0.94c0.05,0.031,0.715-0.146,1.081,0.084s0.536,0.929,0.546,0.935
			c0.051,0.032,0.712-0.142,1.078,0.089c0.365,0.23,0.538,0.924,0.549,0.931c0.051,0.032,0.71-0.137,1.075,0.093
			C33.781,28.734,33.957,29.424,33.968,29.43z"/>
		<path d="M32.469,10.719c-0.049,0.066,0.032,0.762-0.236,1.126c-0.206,0.28-0.462,0.46-0.767,0.539
			c-0.305,0.08-0.606,0.012-0.905-0.205c-0.298-0.216-0.453-0.486-0.464-0.809c-0.012-0.324,0.082-0.621,0.28-0.891
			c0.271-0.368,0.99-0.53,1.014-0.563c0.045-0.063-0.038-0.753,0.249-1.133c0.276-0.366,0.996-0.519,1.02-0.552
			c0.046-0.062-0.029-0.753,0.261-1.13c0.28-0.363,1.002-0.508,1.027-0.541c0.047-0.062-0.021-0.754,0.274-1.128
			c0.284-0.36,1.008-0.498,1.033-0.53c0.047-0.061-0.012-0.754,0.287-1.125c0.287-0.356,1.009-0.482,1.039-0.519
			c0.053-0.065,0.007-0.767,0.3-1.122c0.213-0.258,0.479-0.422,0.797-0.49c0.317-0.068,0.617,0.017,0.899,0.253
			c0.283,0.237,0.418,0.516,0.41,0.838c-0.009,0.323-0.118,0.611-0.329,0.867c-0.3,0.364-1.011,0.476-1.036,0.505
			c-0.051,0.06-0.003,0.764-0.287,1.116c-0.296,0.367-1.005,0.487-1.03,0.516c-0.05,0.06,0.006,0.763-0.275,1.119
			c-0.281,0.356-0.995,0.491-1.023,0.527c-0.051,0.065,0.015,0.762-0.262,1.121c-0.277,0.359-0.99,0.502-1.017,0.538
			c-0.05,0.066,0.023,0.762-0.249,1.123C33.208,10.532,32.497,10.683,32.469,10.719z M45.606,15.653
			c-0.043,0.053,0.041,0.729-0.215,1.062c-0.188,0.243-0.432,0.397-0.733,0.462c-0.3,0.065-0.598-0.013-0.891-0.236
			c-0.344-0.261-0.455-0.962-0.467-0.971c-0.048-0.037-0.718,0.07-1.062-0.191c-0.344-0.261-0.453-0.968-0.463-0.975
			c-0.048-0.036-0.721,0.075-1.065-0.187c-0.344-0.262-0.452-0.973-0.461-0.98c-0.047-0.036-0.724,0.079-1.068-0.182
			c-0.344-0.262-0.449-0.978-0.457-0.984c-0.047-0.036-0.727,0.083-1.071-0.178c-0.344-0.262-0.447-0.983-0.454-0.988
			c-0.046-0.035-0.731,0.087-1.075-0.174c-0.293-0.223-0.444-0.493-0.451-0.814c-0.007-0.32,0.089-0.611,0.29-0.871
			c0.274-0.356,0.987-0.49,1.013-0.524c0.05-0.064-0.017-0.758,0.261-1.111c0.203-0.257,0.462-0.423,0.774-0.494
			c0.311-0.071,0.612,0.009,0.899,0.239c0.337,0.27,0.424,0.995,0.43,1c0.046,0.036,0.731-0.071,1.069,0.199
			c0.337,0.27,0.426,0.99,0.434,0.996c0.046,0.037,0.728-0.066,1.066,0.203c0.337,0.27,0.428,0.984,0.437,0.992
			c0.047,0.037,0.725-0.062,1.063,0.208c0.337,0.27,0.43,0.979,0.44,0.987c0.047,0.037,0.722-0.058,1.059,0.212
			c0.337,0.27,0.432,0.974,0.444,0.983c0.047,0.038,0.718-0.054,1.056,0.216c0.288,0.23,0.436,0.5,0.445,0.807
			c0.011,0.309-0.08,0.584-0.27,0.824C46.314,15.528,45.622,15.633,45.606,15.653z"/>
	</g>
</g>
<g>
	<g>
		<path d="M109.72,13.641c-0.045-0.052-0.725-0.092-1.006-0.406c-0.217-0.241-0.326-0.512-0.33-0.814
			c-0.004-0.302,0.128-0.578,0.401-0.825c0.32-0.291,1.03-0.274,1.04-0.283c0.045-0.041,0.06-0.719,0.38-1.01
			c0.319-0.291,1.034-0.27,1.044-0.279c0.044-0.04,0.056-0.723,0.376-1.014c0.32-0.291,1.039-0.268,1.047-0.275
			c0.044-0.04,0.053-0.727,0.372-1.018c0.32-0.291,1.044-0.265,1.051-0.271c0.043-0.039,0.049-0.731,0.369-1.022
			c0.319-0.291,1.049-0.262,1.055-0.267c0.043-0.039,0.046-0.735,0.365-1.026c0.32-0.291,1.054-0.259,1.058-0.263
			c0.043-0.039,0.042-0.739,0.361-1.03c0.32-0.291,1.058-0.256,1.062-0.259c0.042-0.038,0.039-0.743,0.358-1.034
			c0.272-0.248,0.564-0.348,0.879-0.299c0.314,0.048,0.589,0.204,0.826,0.467c0.307,0.342,0.319,1.079,0.347,1.109
			c0.052,0.057,0.746,0.117,1.06,0.475c0.221,0.252,0.341,0.541,0.358,0.866c0.016,0.324-0.115,0.606-0.393,0.847
			c-0.327,0.283-1.065,0.231-1.069,0.234c-0.043,0.038-0.056,0.74-0.383,1.023c-0.326,0.283-1.06,0.233-1.065,0.238
			c-0.044,0.038-0.059,0.736-0.386,1.019c-0.326,0.283-1.049,0.232-1.061,0.242c-0.017,0.015-0.025,0.411-0.016,0.42
			c0.05,0.055,0.733,0.112,1.033,0.462c0.29,0.337,0.278,1.066,0.301,1.092c0.048,0.055,0.73,0.119,1.028,0.473
			c0.285,0.34,0.265,1.068,0.288,1.094c0.048,0.055,0.729,0.127,1.022,0.485c0.282,0.344,0.248,1.064,0.275,1.097
			c0.018,0.022,0.413,0.061,0.417,0.057c0.048-0.041,0.087-0.731,0.422-1.004c0.335-0.273,1.066-0.199,1.071-0.203
			c0.045-0.036,0.084-0.736,0.419-1.008c0.335-0.273,1.071-0.196,1.074-0.199c0.045-0.036,0.081-0.74,0.416-1.012
			c0.285-0.232,0.583-0.315,0.894-0.25c0.31,0.065,0.577,0.236,0.797,0.511c0.287,0.357,0.257,1.093,0.283,1.125
			c0.049,0.06,0.737,0.157,1.03,0.532c0.206,0.263,0.308,0.557,0.307,0.882c-0.002,0.324-0.149,0.598-0.44,0.823
			c-0.342,0.264-1.075,0.171-1.08,0.175c-0.045,0.035-0.098,0.735-0.44,0.999c-0.342,0.264-1.07,0.174-1.076,0.179
			c-0.046,0.036-0.101,0.731-0.443,0.995c-0.342,0.264-1.066,0.178-1.073,0.183c-0.046,0.036-0.105,0.727-0.447,0.991
			c-0.342,0.264-1.061,0.181-1.069,0.187c-0.047,0.036-0.108,0.722-0.45,0.987c-0.342,0.264-1.057,0.184-1.066,0.191
			c-0.047,0.036-0.111,0.718-0.453,0.982c-0.342,0.264-1.052,0.187-1.063,0.196c-0.048,0.037-0.115,0.714-0.457,0.978
			c-0.342,0.264-1.048,0.191-1.059,0.2c-0.048,0.037-0.118,0.71-0.46,0.974c-0.291,0.225-0.588,0.305-0.889,0.243
			c-0.302-0.063-0.547-0.214-0.736-0.455c-0.269-0.344-0.208-1.039-0.223-1.059c-0.042-0.054-0.717-0.132-0.98-0.459
			c-0.202-0.252-0.297-0.529-0.283-0.831c0.013-0.301,0.161-0.569,0.447-0.801c0.335-0.273,1.043-0.215,1.054-0.224
			c0.047-0.038,0.101-0.714,0.436-0.987c0.335-0.272,1.047-0.212,1.057-0.22c0.047-0.038,0.097-0.718,0.432-0.991
			s1.052-0.209,1.061-0.216c0.046-0.037,0.094-0.723,0.429-0.995c0.335-0.273,1.051-0.201,1.064-0.211
			c0.018-0.014,0.041-0.407,0.032-0.418c-0.05-0.061-0.734-0.143-1.013-0.482c-0.289-0.353-0.255-1.062-0.275-1.087
			c-0.046-0.058-0.737-0.136-1.018-0.471c-0.293-0.35-0.267-1.06-0.287-1.085c-0.047-0.057-0.738-0.128-1.024-0.461
			c-0.297-0.346-0.278-1.055-0.3-1.082c-0.017-0.02-0.412-0.044-0.417-0.04c-0.047,0.043-0.067,0.728-0.393,1.011
			c-0.327,0.283-1.046,0.243-1.054,0.25c-0.045,0.039-0.07,0.724-0.397,1.007c-0.327,0.283-1.041,0.246-1.051,0.254
			c-0.045,0.039-0.074,0.72-0.4,1.003c-0.327,0.283-1.036,0.249-1.047,0.258c-0.046,0.04-0.077,0.716-0.404,0.999
			c-0.278,0.241-0.57,0.338-0.874,0.292c-0.306-0.046-0.559-0.185-0.762-0.415C109.715,14.36,109.736,13.661,109.72,13.641z"/>
		<path d="M130.489,17.957c-0.045-0.064-0.742-0.198-1.023-0.574c-0.197-0.265-0.29-0.554-0.276-0.869
			c0.013-0.315,0.165-0.583,0.46-0.806c0.293-0.222,0.594-0.295,0.902-0.219s0.568,0.256,0.778,0.538
			c0.273,0.367,0.217,1.101,0.242,1.133c0.047,0.061,0.73,0.182,1.01,0.567c0.269,0.37,0.205,1.103,0.229,1.135
			c0.046,0.062,0.729,0.191,1.004,0.578c0.265,0.373,0.192,1.105,0.216,1.138c0.046,0.062,0.726,0.199,0.997,0.589
			c0.261,0.376,0.18,1.107,0.203,1.14c0.045,0.063,0.724,0.207,0.99,0.6c0.256,0.378,0.168,1.109,0.19,1.142
			c0.044,0.063,0.722,0.215,0.983,0.611c0.252,0.381,0.155,1.111,0.178,1.144c0.043,0.064,0.719,0.223,0.976,0.622
			c0.181,0.28,0.256,0.583,0.225,0.905c-0.032,0.322-0.203,0.581-0.514,0.778c-0.311,0.198-0.618,0.243-0.922,0.139
			c-0.305-0.105-0.546-0.296-0.725-0.573c-0.254-0.393-0.146-1.104-0.166-1.136c-0.041-0.066-0.725-0.231-0.974-0.608
			c-0.258-0.391-0.158-1.103-0.178-1.134c-0.042-0.065-0.728-0.223-0.981-0.597c-0.263-0.388-0.17-1.101-0.191-1.132
			c-0.043-0.065-0.73-0.215-0.988-0.586c-0.267-0.385-0.183-1.099-0.204-1.13c-0.044-0.065-0.733-0.207-0.994-0.575
			c-0.272-0.382-0.195-1.097-0.217-1.128c-0.045-0.064-0.735-0.199-1.001-0.564C130.442,18.703,130.511,17.988,130.489,17.957z
			 M119.668,25.929c-0.039-0.056-0.712-0.156-0.962-0.493c-0.193-0.259-0.278-0.538-0.253-0.839
			c0.024-0.301,0.181-0.562,0.475-0.784c0.345-0.261,1.05-0.179,1.061-0.188c0.048-0.036,0.126-0.71,0.471-0.97
			c0.344-0.26,1.054-0.175,1.064-0.183c0.048-0.036,0.123-0.714,0.467-0.975c0.345-0.261,1.058-0.172,1.067-0.179
			c0.047-0.036,0.119-0.718,0.464-0.979c0.345-0.261,1.063-0.169,1.071-0.174c0.047-0.035,0.116-0.723,0.461-0.983
			c0.345-0.261,1.067-0.165,1.074-0.17c0.047-0.035,0.113-0.727,0.458-0.988c0.294-0.222,0.593-0.297,0.897-0.225
			c0.304,0.072,0.561,0.247,0.767,0.523c0.268,0.359,0.207,1.086,0.229,1.116c0.045,0.059,0.723,0.173,0.997,0.55
			c0.264,0.362,0.195,1.088,0.217,1.118c0.045,0.06,0.722,0.182,0.991,0.56c0.26,0.365,0.182,1.09,0.204,1.12
			c0.044,0.06,0.72,0.19,0.985,0.571c0.255,0.368,0.17,1.092,0.191,1.122c0.043,0.061,0.717,0.198,0.978,0.582
			c0.183,0.271,0.262,0.567,0.234,0.884c-0.027,0.319-0.194,0.58-0.5,0.785c-0.306,0.205-0.611,0.259-0.915,0.165
			c-0.304-0.093-0.545-0.274-0.727-0.541c-0.257-0.38-0.16-1.086-0.179-1.115c-0.041-0.063-0.723-0.205-0.975-0.568
			c-0.262-0.377-0.173-1.084-0.192-1.113c-0.042-0.062-0.726-0.197-0.982-0.558c-0.266-0.374-0.184-1.081-0.204-1.111
			c-0.015-0.022-0.408-0.084-0.413-0.081c-0.05,0.038-0.13,0.723-0.481,0.975c-0.351,0.252-1.068,0.143-1.076,0.149
			c-0.048,0.034-0.133,0.719-0.484,0.971c-0.351,0.252-1.063,0.147-1.072,0.153c-0.048,0.035-0.136,0.714-0.487,0.966
			s-1.059,0.15-1.069,0.158c-0.049,0.035-0.14,0.71-0.49,0.962c-0.351,0.252-1.047,0.149-1.066,0.162
			c-0.02,0.013-0.068,0.398-0.062,0.407c0.041,0.055,0.704,0.158,0.96,0.517c0.246,0.346,0.157,1.054,0.173,1.076
			c0.04,0.055,0.703,0.165,0.954,0.527c0.242,0.349,0.145,1.056,0.161,1.078c0.039,0.055,0.701,0.173,0.948,0.538
			c0.238,0.351,0.133,1.057,0.148,1.079c0.038,0.055,0.698,0.181,0.941,0.548c0.234,0.354,0.121,1.059,0.136,1.081
			c0.038,0.056,0.696,0.189,0.935,0.558c0.168,0.26,0.232,0.545,0.19,0.852c-0.042,0.306-0.218,0.558-0.529,0.756
			c-0.311,0.198-0.613,0.251-0.907,0.162c-0.295-0.089-0.525-0.263-0.691-0.52c-0.236-0.365-0.111-1.052-0.125-1.073
			c-0.036-0.057-0.702-0.195-0.933-0.545c-0.24-0.362-0.123-1.051-0.137-1.072c-0.037-0.057-0.704-0.188-0.939-0.534
			c-0.244-0.36-0.135-1.049-0.149-1.07c-0.038-0.057-0.706-0.18-0.945-0.524c-0.248-0.357-0.147-1.048-0.161-1.069
			c-0.038-0.056-0.708-0.172-0.951-0.514c-0.252-0.354-0.159-1.046-0.173-1.067c-0.039-0.056-0.71-0.164-0.957-0.503
			C119.597,26.641,119.683,25.949,119.668,25.929z"/>
		<path d="M128.782,39.618c-0.034-0.059-0.697-0.229-0.923-0.601c-0.159-0.262-0.212-0.541-0.159-0.837
			c0.052-0.297,0.234-0.542,0.548-0.735c0.368-0.227,1.061-0.08,1.073-0.088c0.052-0.032,0.194-0.693,0.562-0.92
			c0.367-0.226,1.064-0.076,1.076-0.083c0.051-0.031,0.191-0.698,0.559-0.924s1.069-0.072,1.079-0.078
			c0.051-0.031,0.188-0.702,0.556-0.929c0.368-0.227,1.073-0.068,1.081-0.074c0.05-0.031,0.185-0.707,0.553-0.933
			s1.077-0.065,1.084-0.069c0.05-0.031,0.183-0.712,0.55-0.938c0.368-0.227,1.081-0.061,1.087-0.065
			c0.049-0.03,0.18-0.716,0.548-0.943c0.313-0.193,0.618-0.239,0.916-0.136c0.298,0.102,0.537,0.302,0.718,0.599
			c0.235,0.387,0.112,1.118,0.127,1.14c0.013,0.019,0.406,0.121,0.407,0.121c0.048-0.028,0.185-0.719,0.556-0.941
			c0.315-0.189,0.621-0.231,0.919-0.123c0.298,0.108,0.536,0.313,0.715,0.615c0.233,0.393,0.099,1.117,0.12,1.151
			c0.04,0.066,0.707,0.259,0.943,0.669c0.228,0.396,0.086,1.118,0.107,1.152c0.039,0.066,0.704,0.267,0.936,0.68
			c0.224,0.398,0.074,1.118,0.094,1.153c0.038,0.067,0.701,0.275,0.928,0.69c0.219,0.401,0.062,1.12,0.082,1.155
			c0.038,0.067,0.697,0.282,0.921,0.701c0.157,0.294,0.206,0.601,0.147,0.92c-0.059,0.318-0.251,0.562-0.577,0.733
			c-0.383,0.201-1.081-0.021-1.093-0.015c-0.02,0.01-0.116,0.398-0.109,0.411c0.038,0.067,0.691,0.284,0.908,0.702
			c0.152,0.293,0.196,0.598,0.133,0.913c-0.064,0.315-0.259,0.556-0.587,0.723c-0.385,0.196-1.083-0.026-1.09-0.023
			c-0.052,0.027-0.235,0.699-0.62,0.895c-0.385,0.196-1.079-0.022-1.087-0.018c-0.052,0.027-0.238,0.694-0.623,0.89
			c-0.385,0.196-1.076-0.018-1.085-0.013c-0.053,0.027-0.24,0.689-0.625,0.885c-0.385,0.196-1.072-0.014-1.083-0.008
			c-0.053,0.027-0.243,0.684-0.628,0.88c-0.385,0.196-1.068-0.01-1.08-0.003c-0.054,0.027-0.246,0.68-0.63,0.876
			c-0.385,0.196-1.064-0.006-1.078,0.001c-0.054,0.028-0.248,0.675-0.633,0.871c-0.328,0.167-0.634,0.191-0.918,0.075
			c-0.285-0.117-0.501-0.318-0.649-0.604c-0.193-0.372,0-1.036-0.011-1.058c-0.03-0.061-0.684-0.269-0.888-0.652
			c-0.144-0.27-0.181-0.552-0.112-0.845c0.069-0.293,0.264-0.528,0.588-0.703c0.38-0.206,1.063-0.02,1.077-0.028
			c0.053-0.029,0.232-0.681,0.612-0.887c0.38-0.206,1.067-0.016,1.079-0.023c0.053-0.029,0.23-0.686,0.61-0.892
			c0.38-0.206,1.074-0.014,1.081-0.018c0.02-0.011,0.115-0.394,0.112-0.4c-0.028-0.059-0.692-0.27-0.9-0.65
			c-0.215-0.394-0.048-1.08-0.062-1.107c-0.034-0.063-0.694-0.262-0.906-0.639c-0.22-0.391-0.06-1.08-0.074-1.106
			c-0.035-0.063-0.697-0.254-0.913-0.629c-0.224-0.389-0.071-1.078-0.087-1.105c-0.013-0.023-0.395-0.117-0.4-0.113
			c-0.054,0.033-0.204,0.697-0.577,0.915c-0.373,0.218-1.068,0.049-1.079,0.056c-0.052,0.03-0.207,0.693-0.58,0.91
			c-0.373,0.218-1.064,0.053-1.076,0.061c-0.052,0.031-0.21,0.688-0.583,0.906c-0.318,0.185-0.622,0.227-0.912,0.126
			c-0.292-0.101-0.518-0.29-0.682-0.566C128.639,40.313,128.795,39.639,128.782,39.618z M135.999,37.295
			c-0.02,0.011-0.102,0.397-0.096,0.407c0.038,0.062,0.695,0.238,0.922,0.632c0.219,0.38,0.069,1.087,0.085,1.115
			c0.036,0.061,0.692,0.246,0.915,0.643c0.215,0.382,0.057,1.088,0.073,1.115c0.036,0.062,0.689,0.254,0.908,0.653
			c0.21,0.384,0.05,1.098,0.061,1.117c0.011,0.019,0.394,0.13,0.397,0.129c0.051-0.027,0.225-0.695,0.605-0.901
			c0.38-0.206,1.078-0.004,1.086-0.008c0.052-0.028,0.223-0.7,0.602-0.906c0.38-0.206,1.082,0,1.089-0.004
			c0.051-0.028,0.22-0.705,0.6-0.91c0.38-0.206,1.089,0.002,1.091,0.001c0.019-0.011,0.11-0.403,0.106-0.411
			c-0.031-0.064-0.703-0.292-0.92-0.688c-0.225-0.411-0.065-1.112-0.083-1.145c-0.036-0.069-0.706-0.283-0.927-0.676
			c-0.229-0.408-0.077-1.111-0.095-1.144c-0.037-0.068-0.709-0.275-0.935-0.666c-0.234-0.405-0.089-1.108-0.108-1.142
			c-0.014-0.024-0.403-0.127-0.407-0.125c-0.053,0.032-0.193,0.716-0.566,0.934c-0.373,0.217-1.084,0.034-1.09,0.038
			c-0.05,0.029-0.196,0.711-0.569,0.929c-0.373,0.217-1.08,0.038-1.087,0.042c-0.05,0.03-0.198,0.707-0.572,0.924
			C136.71,37.466,136.014,37.287,135.999,37.295z"/>
		<path d="M136.417,53.818c-0.03-0.059-0.662-0.271-0.853-0.663c-0.134-0.275-0.161-0.557-0.081-0.849
			c0.08-0.29,0.284-0.518,0.614-0.681c0.387-0.191,1.046,0.001,1.066-0.009c0.057-0.028,0.268-0.651,0.655-0.842
			c0.387-0.191,1.05,0.005,1.068-0.004c0.056-0.028,0.266-0.655,0.653-0.847c0.387-0.191,1.053,0.009,1.07,0.001
			c0.056-0.027,0.263-0.66,0.651-0.851c0.387-0.191,1.057,0.013,1.073,0.005c0.055-0.027,0.261-0.664,0.649-0.856
			c0.387-0.191,1.06,0.017,1.075,0.01c0.055-0.027,0.259-0.669,0.646-0.86c0.33-0.163,0.638-0.181,0.923-0.054
			c0.286,0.128,0.501,0.339,0.644,0.633c0.203,0.419,0.001,1.105,0.016,1.138c0.032,0.069,0.69,0.329,0.888,0.749
			c0.14,0.296,0.169,0.596,0.09,0.899c-0.079,0.302-0.287,0.531-0.621,0.686c-0.392,0.182-1.081-0.061-1.086-0.059
			c-0.02,0.01-0.135,0.392-0.132,0.399c0.026,0.063,0.679,0.322,0.864,0.726c0.192,0.418-0.027,1.097-0.014,1.128
			c0.03,0.069,0.675,0.33,0.856,0.736c0.187,0.42-0.039,1.097-0.026,1.128c0.029,0.069,0.672,0.337,0.848,0.746
			c0.182,0.422-0.052,1.095-0.039,1.128c0.01,0.025,0.38,0.172,0.385,0.17c0.057-0.026,0.286-0.678,0.683-0.847
			c0.398-0.169,1.079,0.102,1.085,0.099c0.053-0.023,0.284-0.683,0.681-0.852c0.398-0.169,1.076,0.109,1.087,0.104
			c0.021-0.008,0.149-0.388,0.143-0.401c-0.032-0.071-0.666-0.34-0.852-0.771c-0.179-0.416,0.04-1.114,0.024-1.149
			c-0.032-0.069-0.67-0.333-0.861-0.761c-0.184-0.414,0.028-1.113,0.011-1.149c-0.033-0.069-0.674-0.325-0.869-0.751
			c-0.189-0.411,0.015-1.113-0.002-1.148c-0.033-0.069-0.677-0.317-0.878-0.742c-0.193-0.408,0.003-1.113-0.014-1.148
			c-0.034-0.068-0.68-0.309-0.885-0.731c-0.144-0.296-0.18-0.597-0.108-0.905c0.072-0.306,0.272-0.542,0.603-0.705
			c0.33-0.163,0.638-0.179,0.926-0.047c0.288,0.133,0.506,0.349,0.651,0.649c0.208,0.427,0.009,1.121,0.025,1.157
			c0.033,0.072,0.691,0.332,0.886,0.745c0.203,0.43-0.003,1.122,0.013,1.158c0.032,0.072,0.687,0.339,0.877,0.755
			c0.198,0.431-0.016,1.122,0,1.158c0.031,0.073,0.683,0.346,0.869,0.765c0.193,0.433-0.028,1.122-0.013,1.158
			c0.03,0.073,0.679,0.354,0.861,0.775c0.188,0.436-0.041,1.122-0.026,1.158c0.03,0.073,0.679,0.371,0.862,0.809
			c0.129,0.308,0.148,0.616,0.057,0.919c-0.091,0.304-0.307,0.525-0.647,0.665c-0.4,0.164-1.085-0.118-1.087-0.117
			c-0.02,0.009-0.15,0.39-0.146,0.399c0.024,0.067,0.672,0.373,0.849,0.809c0.125,0.308,0.139,0.612,0.043,0.912
			c-0.095,0.301-0.314,0.519-0.656,0.655c-0.401,0.159-1.078-0.128-1.084-0.126c-0.054,0.022-0.299,0.676-0.7,0.835
			c-0.342,0.136-0.65,0.129-0.925-0.019c-0.274-0.147-0.475-0.379-0.602-0.694c-0.166-0.41,0.068-1.106,0.057-1.129
			c-0.01-0.021-0.381-0.175-0.383-0.174c-0.053,0.021-0.294,0.673-0.693,0.837c-0.341,0.14-0.648,0.139-0.923-0.004
			c-0.275-0.142-0.477-0.368-0.607-0.678c-0.169-0.404,0.062-1.089,0.049-1.119c-0.029-0.066-0.66-0.324-0.84-0.741
			c-0.174-0.403,0.047-1.098,0.037-1.119c-0.01-0.02-0.383-0.163-0.386-0.162c-0.053,0.023-0.281,0.674-0.677,0.847
			c-0.396,0.173-1.072-0.077-1.08-0.073c-0.021,0.009-0.146,0.384-0.143,0.391c0.024,0.061,0.67,0.335,0.849,0.748
			c0.126,0.291,0.142,0.584,0.05,0.877c-0.092,0.294-0.309,0.511-0.648,0.655c-0.398,0.169-1.068-0.085-1.077-0.081
			c-0.021,0.009-0.151,0.38-0.149,0.386c0.023,0.06,0.664,0.337,0.836,0.748c0.121,0.289,0.133,0.58,0.037,0.87
			c-0.097,0.291-0.316,0.504-0.656,0.644c-0.4,0.164-1.063-0.093-1.074-0.088c-0.022,0.009-0.156,0.376-0.154,0.381
			c0.021,0.059,0.655,0.331,0.815,0.725c0.123,0.302,0.134,0.598,0.032,0.884c-0.101,0.287-0.322,0.498-0.665,0.634
			c-0.342,0.136-0.648,0.134-0.917-0.002c-0.269-0.136-0.465-0.353-0.586-0.651c-0.158-0.389,0.088-1.055,0.078-1.079
			c-0.026-0.061-0.647-0.31-0.815-0.711c-0.119-0.283-0.131-0.571-0.038-0.864c0.093-0.293,0.307-0.513,0.646-0.658
			c0.398-0.169,1.055,0.083,1.075,0.074c0.022-0.009,0.154-0.374,0.15-0.383c-0.028-0.063-0.653-0.308-0.827-0.711
			c-0.123-0.285-0.14-0.575-0.052-0.872c0.088-0.296,0.3-0.519,0.638-0.668c0.395-0.174,1.059,0.075,1.078,0.067
			c0.021-0.009,0.149-0.378,0.145-0.388c-0.029-0.063-0.659-0.305-0.839-0.711c-0.128-0.287-0.149-0.579-0.065-0.88
			c0.084-0.3,0.293-0.526,0.628-0.678c0.394-0.178,1.063,0.067,1.08,0.06c0.021-0.009,0.144-0.382,0.139-0.392
			c-0.03-0.064-0.664-0.303-0.851-0.712c-0.181-0.394,0.026-1.091,0.016-1.109c-0.01-0.019-0.385-0.152-0.388-0.15
			c-0.052,0.024-0.268,0.675-0.66,0.857s-1.067-0.05-1.079-0.044c-0.055,0.025-0.271,0.67-0.662,0.852
			c-0.392,0.182-1.063-0.045-1.077-0.039c-0.055,0.026-0.273,0.665-0.665,0.847c-0.334,0.155-0.639,0.171-0.915,0.051
			c-0.278-0.121-0.484-0.326-0.621-0.617C136.22,54.52,136.428,53.841,136.417,53.818z"/>
		<path d="M155.134,63.551c-0.029-0.077-0.657-0.387-0.817-0.81c-0.123-0.326-0.135-0.637-0.036-0.936
			c0.099-0.3,0.319-0.516,0.663-0.648c0.343-0.132,0.653-0.117,0.932,0.05c0.278,0.166,0.477,0.407,0.596,0.719
			c0.162,0.428-0.093,1.12-0.078,1.157c0.028,0.072,0.652,0.378,0.816,0.825c0.157,0.43-0.106,1.119-0.091,1.157
			c0.027,0.072,0.648,0.386,0.807,0.834c0.153,0.432-0.118,1.119-0.104,1.157c0.027,0.072,0.644,0.392,0.797,0.844
			c0.147,0.433-0.131,1.117-0.117,1.155c0.026,0.073,0.639,0.4,0.788,0.853c0.143,0.435-0.144,1.109-0.13,1.155
			c0.026,0.08,0.64,0.424,0.779,0.863c0.101,0.32,0.093,0.632-0.022,0.936c-0.116,0.303-0.349,0.509-0.701,0.617
			c-0.352,0.109-0.661,0.07-0.926-0.112c-0.266-0.183-0.449-0.432-0.549-0.748c-0.142-0.45,0.15-1.108,0.139-1.144
			c-0.023-0.075-0.639-0.418-0.78-0.848c-0.147-0.448,0.138-1.109,0.126-1.145c-0.023-0.075-0.644-0.411-0.789-0.839
			c-0.146-0.43,0.129-1.103,0.114-1.146c-0.027-0.078-0.648-0.403-0.799-0.83c-0.151-0.427,0.117-1.104,0.101-1.147
			c-0.028-0.078-0.652-0.395-0.808-0.82S155.15,63.594,155.134,63.551z M143.852,71.898c-0.021-0.065-0.634-0.363-0.774-0.759
			c-0.102-0.289-0.098-0.578,0.011-0.866c0.109-0.288,0.336-0.495,0.682-0.62c0.407-0.147,1.056,0.14,1.069,0.136
			c0.057-0.02,0.331-0.64,0.737-0.787c0.406-0.146,1.059,0.145,1.07,0.141c0.056-0.02,0.329-0.645,0.736-0.792
			c0.407-0.147,1.062,0.15,1.072,0.146c0.056-0.02,0.327-0.651,0.734-0.797s1.065,0.154,1.074,0.151
			c0.055-0.02,0.325-0.656,0.732-0.802s1.068,0.159,1.076,0.156c0.055-0.02,0.324-0.661,0.73-0.807
			c0.346-0.125,0.655-0.105,0.928,0.064c0.272,0.167,0.464,0.407,0.573,0.716c0.15,0.424-0.125,1.096-0.111,1.137
			c0.027,0.076,0.645,0.397,0.79,0.823c0.106,0.311,0.103,0.617-0.007,0.918c-0.11,0.3-0.34,0.509-0.69,0.625
			c-0.41,0.136-1.065-0.185-1.073-0.183c-0.055,0.019-0.338,0.652-0.748,0.789s-1.062-0.181-1.072-0.177
			c-0.056,0.019-0.34,0.647-0.75,0.784c-0.41,0.136-1.059-0.176-1.07-0.172c-0.056,0.019-0.342,0.642-0.752,0.779
			c-0.41,0.136-1.056-0.171-1.068-0.167c-0.057,0.019-0.344,0.637-0.753,0.774c-0.41,0.136-1.053-0.167-1.066-0.162
			c-0.057,0.019-0.346,0.632-0.756,0.769c-0.349,0.116-0.656,0.094-0.92-0.065c-0.265-0.159-0.446-0.384-0.545-0.674
			C143.573,72.558,143.86,71.922,143.852,71.898z"/>
	</g>
</g>
<g>
	<path id="rightEar" inkscape:connector-curvature="0" fill="#010101" d="M108.633,21.733h2.906c1.279,0,2.308,1.15,2.308,2.579
		v7.737c0,1.429-1.029,2.579-2.308,2.579h-2.906c-1.279,0-2.308-1.15-2.308-2.579v-7.737
		C106.326,22.883,107.355,21.733,108.633,21.733z"/>
	<path id="leftEar" inkscape:connector-curvature="0" fill="#010101" d="M48.46,21.733h2.906c1.279,0,2.308,1.15,2.308,2.579v7.737
		c0,1.429-1.029,2.579-2.308,2.579H48.46c-1.279,0-2.308-1.15-2.308-2.579v-7.737C46.152,22.883,47.182,21.733,48.46,21.733z"/>
	<path id="head" inkscape:connector-curvature="0" fill="#010101" d="M80.007,0.243c-2.185,0-3.974,1.518-3.974,3.371
		c0,1.251,0.826,2.338,2.024,2.915v5.991h-14.98c-3.125-0.001-5.643,2.194-5.643,4.93v19.769c0,2.737,2.518,4.931,5.643,4.931
		h33.844c3.126,0,5.643-2.194,5.643-4.931V17.449c0-2.737-2.518-4.931-5.643-4.931H81.942v-5.99
		c1.198-0.576,2.024-1.663,2.024-2.915C83.966,1.761,82.192,0.243,80.007,0.243z M63.018,17.906h6.633v8.331h-6.633V17.906z
		 M89.536,17.906h6.633v8.331h-6.633V17.906z M66.638,32.846h26.723v4.431H66.638V32.846z"/>
	<path id="body" inkscape:connector-curvature="0" fill="#010101" d="M52.56,44.298c-1.163,0-2.109,0.786-2.109,1.763v31.934
		c0,0.977,0.947,1.763,2.109,1.763h54.88c1.163,0,2.109-0.786,2.109-1.763V46.061c0-0.977-0.947-1.763-2.109-1.763
		C107.44,44.298,52.56,44.298,52.56,44.298z M67.083,46.391c0.096-0.008,0.193,0,0.292,0c1.577,0,2.856,1.085,2.856,2.424
		c0,1.338-1.279,2.424-2.856,2.424c-1.577,0-2.856-1.085-2.856-2.424C64.519,47.56,65.643,46.515,67.083,46.391z M73.379,46.391
		c0.096-0.008,0.193,0,0.292,0c1.577,0,2.856,1.085,2.856,2.424c0,1.338-1.279,2.424-2.856,2.424s-2.856-1.085-2.856-2.424
		C70.815,47.56,71.939,46.515,73.379,46.391z M85.776,46.391c0.096-0.008,0.193,0,0.292,0c1.577,0,2.856,1.085,2.856,2.424
		c0,1.338-1.279,2.424-2.856,2.424c-1.577,0-2.856-1.085-2.856-2.424C83.213,47.56,84.337,46.515,85.776,46.391z M92.073,46.391
		c0.096-0.008,0.193,0,0.292,0c1.577,0,2.856,1.085,2.856,2.424c0,1.338-1.279,2.424-2.856,2.424s-2.856-1.085-2.856-2.424
		C89.509,47.56,90.633,46.515,92.073,46.391z M60.852,51.679c0.096-0.008,0.193,0,0.292,0c1.577,0,2.856,1.085,2.856,2.424
		c0,1.338-1.279,2.424-2.856,2.424c-1.577,0-2.856-1.085-2.856-2.424C58.288,52.848,59.412,51.803,60.852,51.679z M67.148,51.679
		c0.096-0.008,0.193,0,0.292,0c1.577,0,2.856,1.085,2.856,2.424c0,1.338-1.279,2.424-2.856,2.424c-1.577,0-2.856-1.085-2.856-2.424
		C64.584,52.848,65.708,51.803,67.148,51.679z M73.428,51.679c0.096-0.008,0.193,0,0.292,0c1.577,0,2.856,1.085,2.856,2.424
		c0,1.338-1.279,2.424-2.856,2.424s-2.856-1.085-2.856-2.424C70.864,52.848,71.988,51.803,73.428,51.679z M79.707,51.679
		c0.096-0.008,0.193,0,0.292,0c1.577,0,2.856,1.085,2.856,2.424c0,1.338-1.279,2.424-2.856,2.424c-1.577,0-2.856-1.085-2.856-2.424
		C77.144,52.848,78.268,51.803,79.707,51.679z M85.988,51.679c0.096-0.008,0.193,0,0.292,0c1.577,0,2.856,1.085,2.856,2.424
		c0,1.338-1.279,2.424-2.856,2.424c-1.577,0-2.856-1.085-2.856-2.424C83.424,52.848,84.547,51.803,85.988,51.679z M92.268,51.679
		c0.096-0.008,0.193,0,0.292,0c1.577,0,2.856,1.085,2.856,2.424c0,1.338-1.279,2.424-2.856,2.424c-1.577,0-2.856-1.085-2.856-2.424
		C89.704,52.848,90.827,51.803,92.268,51.679z M98.563,51.679c0.096-0.008,0.193,0,0.292,0c1.577,0,2.856,1.085,2.856,2.424
		c0,1.338-1.279,2.424-2.856,2.424s-2.856-1.085-2.856-2.424C95.999,52.848,97.123,51.803,98.563,51.679z M60.852,56.967
		c0.096-0.008,0.193,0,0.292,0c1.577,0,2.856,1.085,2.856,2.424c0,1.338-1.279,2.424-2.856,2.424c-1.577,0-2.856-1.085-2.856-2.424
		C58.288,58.136,59.412,57.091,60.852,56.967z M67.148,56.967c0.096-0.008,0.193,0,0.292,0c1.577,0,2.856,1.085,2.856,2.424
		c0,1.338-1.279,2.424-2.856,2.424c-1.577,0-2.856-1.085-2.856-2.424C64.584,58.136,65.708,57.091,67.148,56.967z M73.428,56.967
		c0.096-0.008,0.193,0,0.292,0c1.577,0,2.856,1.085,2.856,2.424c0,1.338-1.279,2.424-2.856,2.424s-2.856-1.085-2.856-2.424
		C70.864,58.136,71.988,57.091,73.428,56.967z M79.707,56.967c0.096-0.008,0.193,0,0.292,0c1.577,0,2.856,1.085,2.856,2.424
		c0,1.338-1.279,2.424-2.856,2.424c-1.577,0-2.856-1.085-2.856-2.424C77.144,58.136,78.268,57.091,79.707,56.967z M85.988,56.967
		c0.096-0.008,0.193,0,0.292,0c1.577,0,2.856,1.085,2.856,2.424c0,1.338-1.279,2.424-2.856,2.424c-1.577,0-2.856-1.085-2.856-2.424
		C83.424,58.136,84.547,57.091,85.988,56.967z M92.268,56.967c0.096-0.008,0.193,0,0.292,0c1.577,0,2.856,1.085,2.856,2.424
		c0,1.338-1.279,2.424-2.856,2.424c-1.577,0-2.856-1.085-2.856-2.424C89.704,58.136,90.827,57.091,92.268,56.967z M98.563,56.967
		c0.096-0.008,0.193,0,0.292,0c1.577,0,2.856,1.085,2.856,2.424c0,1.338-1.279,2.424-2.856,2.424s-2.856-1.085-2.856-2.424
		C95.999,58.136,97.123,57.091,98.563,56.967z M67.083,62.255c0.096-0.009,0.193,0,0.292,0c1.577,0,2.856,1.085,2.856,2.424
		c0,1.338-1.279,2.424-2.856,2.424c-1.577,0-2.856-1.085-2.856-2.424C64.519,63.424,65.643,62.379,67.083,62.255z M73.379,62.255
		c0.096-0.009,0.193,0,0.292,0c1.577,0,2.856,1.085,2.856,2.424c0,1.338-1.279,2.424-2.856,2.424s-2.856-1.085-2.856-2.424
		C70.815,63.424,71.939,62.379,73.379,62.255z M79.659,62.255c0.096-0.009,0.193,0,0.292,0c1.577,0,2.856,1.085,2.856,2.424
		c0,1.338-1.279,2.424-2.856,2.424s-2.856-1.085-2.856-2.424C77.095,63.424,78.219,62.379,79.659,62.255z M85.939,62.255
		c0.096-0.009,0.193,0,0.292,0c1.577,0,2.856,1.085,2.856,2.424c0,1.338-1.279,2.424-2.856,2.424c-1.577,0-2.856-1.085-2.856-2.424
		C83.375,63.424,84.499,62.379,85.939,62.255z M92.219,62.255c0.096-0.009,0.193,0,0.292,0c1.577,0,2.856,1.085,2.856,2.424
		c0,1.338-1.279,2.424-2.856,2.424s-2.856-1.085-2.856-2.424C89.655,63.424,90.778,62.379,92.219,62.255z M73.314,67.543
		c0.096-0.009,0.193,0,0.292,0c1.577,0,2.856,1.085,2.856,2.424s-1.279,2.424-2.856,2.424s-2.856-1.085-2.856-2.424
		C70.75,68.712,71.874,67.667,73.314,67.543z M79.61,67.543c0.096-0.009,0.193,0,0.292,0c1.577,0,2.856,1.085,2.856,2.424
		s-1.279,2.424-2.856,2.424c-1.577,0-2.856-1.085-2.856-2.424C77.046,68.712,78.17,67.667,79.61,67.543z M85.89,67.543
		c0.096-0.009,0.193,0,0.292,0c1.577,0,2.856,1.085,2.856,2.424s-1.279,2.424-2.856,2.424c-1.577,0-2.856-1.085-2.856-2.424
		C83.326,68.712,84.45,67.667,85.89,67.543z M79.545,72.83c0.096-0.009,0.193,0,0.292,0c1.577,0,2.856,1.085,2.856,2.424
		s-1.279,2.424-2.856,2.424c-1.577,0-2.856-1.085-2.856-2.424C76.981,74,78.105,72.955,79.545,72.83z"/>
	<path id="leftArm" inkscape:connector-curvature="0" fill="#010101" d="M44.198,45.91h1.761c1.149,0,2.075,0.89,2.075,1.995v28.247
		c0,1.105-0.925,1.995-2.075,1.995h-1.761c-1.149,0-2.075-0.89-2.075-1.995V47.905C42.123,46.8,43.048,45.91,44.198,45.91z"/>
	<path id="leftHand" inkscape:connector-curvature="0" fill="#010101" d="M35.601,52.357h1.761c1.149,0,2.075,0.901,2.075,2.021
		v15.3c0,1.12-0.925,2.021-2.075,2.021h-1.761c-1.149,0-2.075-0.901-2.075-2.021v-15.3C33.527,53.258,34.452,52.357,35.601,52.357z"
		/>
	<path id="rightArm" inkscape:connector-curvature="0" fill="#010101" d="M114.042,45.91h1.761c1.149,0,2.075,0.89,2.075,1.995
		v28.247c0,1.105-0.925,1.995-2.075,1.995h-1.761c-1.149,0-2.075-0.89-2.075-1.995V47.905C111.967,46.8,112.892,45.91,114.042,45.91
		z"/>
	<path id="rightHand" inkscape:connector-curvature="0" fill="#010101" d="M122.638,52.357h1.761c1.149,0,2.075,0.901,2.075,2.021
		v15.3c0,1.12-0.925,2.021-2.075,2.021h-1.761c-1.149,0-2.075-0.901-2.075-2.021v-15.3
		C120.563,53.258,121.488,52.357,122.638,52.357z"/>
</g>
</svg>
