<?xml version="1.0" encoding="utf-8"?>
<!-- Generator: Adobe Illustrator 17.0.0, SVG Export Plug-In . SVG Version: 6.00 Build 0)  -->
<!DOCTYPE svg PUBLIC "-//W3C//DTD SVG 1.1//EN" "http://www.w3.org/Graphics/SVG/1.1/DTD/svg11.dtd">
<svg version="1.1" id="Layer_1" xmlns="http://www.w3.org/2000/svg" xmlns:xlink="http://www.w3.org/1999/xlink" x="0px" y="0px"
	 width="160px" height="80px" viewBox="0 0 160 80" enable-background="new 0 0 160 80" xml:space="preserve">
<path d="M151.924,42.248c0.939-1.043,2.065-1.043,3.333-0.13c0.117-1.336-0.164-3.193-0.821-5.571s-2.511-5.31-5.539-8.764
	c2.159-0.782,3.239-2.281,3.239-4.431c0-2.639-1.69-3.942-5.093-3.942h-7.464v0.912c0.61,0.13,1.056,0.261,1.338,0.424
	c0.422,0.195,0.634,0.586,0.634,1.173v4.105c-0.704,1.043-1.103,1.596-1.174,1.596c0.493,0.586,0.868,1.108,1.174,1.564v4.496
	c0,0.586-0.211,1.01-0.634,1.173c-0.54,0.163-0.986,0.261-1.338,0.326v0.88h7.135v-0.945c-0.54-0.098-0.939-0.195-1.22-0.326
	c-0.399-0.261-0.587-0.652-0.587-1.238v-5.18l0.422,0.033c1.526,2.281,3.403,3.812,5.656,4.626
	C153.214,33.81,153.543,36.905,151.924,42.248z M144.906,20.713h0.751c1.103,0,1.807,0.13,2.065,0.424
	c0.516,0.521,0.751,1.336,0.751,2.443c0,1.368-0.235,2.346-0.751,2.932c-0.305,0.391-1.009,0.554-2.112,0.554h-0.704V20.713z"/>
<path d="M137.677,21.951c-0.775-1.14-1.713-1.955-2.863-2.476c-0.868-0.391-1.737-0.619-2.652-0.619
	c-1.103,0-2.089,0.228-2.957,0.652c-1.807,0.814-3.075,2.378-3.826,4.561c-0.258,0.88-0.446,1.596-0.516,2.118
	c-0.657,0.912-1.033,1.401-1.15,1.433c0.493,0.489,0.845,0.977,1.15,1.401c0.235,1.173,0.399,1.955,0.516,2.281
	c0.798,2.15,2.065,3.616,3.849,4.431c0.845,0.391,1.831,0.586,2.934,0.586c1.08,0,2.042-0.228,2.934-0.684
	c0.845-0.456,1.596-1.075,2.253-1.922c0.986-1.238,1.596-2.834,1.831-4.789c0.634-0.912,1.033-1.368,1.127-1.433
	c-0.469-0.521-0.845-0.977-1.127-1.401C139.015,24.525,138.522,23.157,137.677,21.951z M133.711,20.713
	c0.821,0.814,1.385,2.15,1.619,4.072c0.094,0.88,0.141,1.857,0.141,2.867c0,1.075-0.047,2.02-0.188,2.9
	c-0.258,1.955-0.798,3.258-1.666,4.007c-0.446,0.358-0.939,0.554-1.455,0.554c-0.704,0-1.291-0.163-1.737-0.521
	c-0.446-0.424-0.798-0.977-1.056-1.662c-0.516-1.271-0.798-3.03-0.798-5.278c0-2.411,0.305-4.268,0.892-5.604
	s1.479-1.987,2.699-1.987C132.748,20.062,133.241,20.257,133.711,20.713z"/>
<path d="M132.162,30.519l2.136-2.834l-2.136-3.128l-2.159,3.128L132.162,30.519z"/>
<path d="M117.68,21.788c0-0.228,0.047-0.521,0.164-0.749c0.07-0.261,0.376-0.456,0.868-0.586c0.117-0.033,0.469-0.065,1.033-0.13
	V19.41h-7.417v0.912c0.634,0.13,1.103,0.261,1.361,0.424c0.422,0.195,0.634,0.619,0.634,1.173v4.105
	c-0.516,0.782-0.868,1.271-1.056,1.466c-0.469-0.521-0.845-0.977-1.127-1.401c-0.164-1.564-0.657-2.932-1.502-4.138
	c-0.775-1.14-1.713-1.955-2.863-2.476c-0.845-0.391-1.737-0.619-2.676-0.619c-1.056,0-2.042,0.228-2.934,0.652
	c-1.807,0.814-3.051,2.378-3.826,4.561c-0.282,0.88-0.446,1.596-0.516,2.118c-0.657,0.912-1.056,1.401-1.15,1.433
	c0.493,0.489,0.868,0.977,1.15,1.401c0.235,1.173,0.376,1.955,0.516,2.281c0.775,2.15,2.065,3.616,3.849,4.431
	c0.868,0.391,1.831,0.586,2.91,0.586s2.065-0.228,2.934-0.684c0.892-0.456,1.643-1.075,2.277-1.922
	c0.986-1.238,1.596-2.834,1.831-4.789c0.469-0.684,0.798-1.108,1.009-1.303c0.469,0.521,0.868,1.075,1.174,1.564v4.496
	c0,0.586-0.211,1.01-0.634,1.173c-0.54,0.163-1.009,0.261-1.361,0.326v0.88h12.298l0.235-5.343h-0.681
	c-0.211,0.521-0.329,0.847-0.422,0.945c-0.493,0.749-0.868,1.238-1.15,1.433c-0.188,0.228-0.587,0.391-1.22,0.521
	c-0.446,0.065-0.939,0.098-1.408,0.098c-0.986,0-1.619-0.13-1.901-0.391c-0.258-0.228-0.399-0.847-0.399-1.857v-2.248
	c0.634-1.01,0.986-1.531,1.103-1.596c-0.469-0.521-0.821-1.043-1.103-1.531V21.788z M106.649,20.713
	c0.868,0.814,1.385,2.15,1.619,4.072c0.117,0.88,0.164,1.857,0.164,2.867c0,1.075-0.047,2.02-0.164,2.9
	c-0.282,1.955-0.821,3.258-1.69,4.007c-0.446,0.358-0.939,0.554-1.479,0.554c-0.704,0-1.291-0.163-1.713-0.521
	c-0.446-0.424-0.798-0.977-1.056-1.662c-0.516-1.271-0.798-3.03-0.798-5.278c0-2.411,0.305-4.268,0.892-5.604
	c0.563-1.336,1.479-1.987,2.676-1.987C105.687,20.062,106.227,20.257,106.649,20.713z"/>
<path d="M105.1,30.519l2.159-2.834l-2.159-3.128l-2.136,3.128L105.1,30.519z"/>
<path d="M97.425,19.149h-0.821l-0.587,0.749c-1.08-0.749-2.253-1.14-3.521-1.14c-2.136,0-3.873,0.814-5.187,2.476
	c-1.033,1.303-1.69,2.834-1.972,4.626c-0.681,1.075-1.056,1.596-1.174,1.629c0.493,0.586,0.868,1.108,1.15,1.564
	c0.07,0.782,0.235,1.499,0.446,2.215c0.563,1.662,1.455,2.932,2.676,3.844c1.08,0.782,2.347,1.205,3.779,1.205
	c0.798,0,1.502-0.13,2.089-0.391c1.666-0.652,2.934-2.052,3.779-4.235l-0.821-0.619c-0.422,0.912-1.033,1.727-1.878,2.411
	c-0.704,0.586-1.479,0.88-2.347,0.88c-1.244,0-2.206-0.554-2.91-1.727c-0.399-0.652-0.681-1.303-0.821-1.987
	c-0.141-0.652-0.235-1.205-0.282-1.596c0.657-0.977,1.056-1.499,1.174-1.596c-0.493-0.521-0.868-1.043-1.174-1.564
	c0.235-4.007,1.432-5.962,3.591-5.962c1.784,0,3.145,1.759,4.06,5.31h0.821L97.425,19.149z"/>
<path d="M83.038,21.039c0.117-0.293,0.376-0.456,0.868-0.586c0.117,0,0.469-0.033,1.056-0.13V19.41H71.89v0.912
	c0.305,0.098,0.516,0.163,0.657,0.261c0.376,0.13,0.657,0.293,0.821,0.456c0.446,0.424,0.657,1.531,0.657,3.323v6.32L66.914,19.41
	h-4.882v0.912c0.422,0.13,0.845,0.456,1.291,1.01c0.399,0.489,0.587,1.173,0.587,2.02v7.852c0,1.857-0.211,2.932-0.634,3.323
	c-0.376,0.358-0.798,0.554-1.244,0.586v0.945h5.703v-0.945c-0.305-0.098-0.516-0.195-0.657-0.261
	c-0.376-0.13-0.634-0.261-0.821-0.424c-0.446-0.456-0.657-1.531-0.657-3.29v-7.754l8.191,12.673h1.925V24.232
	c0-1.824,0.235-2.965,0.657-3.323c0.329-0.358,0.728-0.521,1.22-0.586c0.54,0.13,0.986,0.261,1.338,0.424
	c0.399,0.163,0.587,0.554,0.587,1.173v4.105c-0.634,1.043-1.009,1.564-1.103,1.596c0.469,0.521,0.821,1.043,1.103,1.531v4.528
	c0,0.586-0.188,1.01-0.587,1.173c-0.141,0.098-0.376,0.163-0.704,0.163l-0.775,0.098v0.945h7.511v-0.88
	c-0.634-0.098-1.103-0.228-1.455-0.358c-0.399-0.228-0.634-0.619-0.634-1.205v-4.431c0.704-1.01,1.103-1.531,1.174-1.564
	c-0.469-0.554-0.868-1.108-1.174-1.596v-4.235C82.874,21.528,82.921,21.267,83.038,21.039z"/>
<path d="M60.155,21.104c0.164-0.456,0.775-0.684,1.831-0.782V19.41h-7.088v0.912c0.141,0.033,0.352,0.098,0.61,0.13
	c0.845,0.293,1.267,0.782,1.267,1.466v4.626h-5.633v-4.724c0-0.619,0.164-1.043,0.563-1.238c0.399-0.13,0.821-0.228,1.314-0.261
	V19.41h-7.229v0.912c0.117,0,0.352,0.065,0.657,0.13c0.868,0.261,1.314,0.749,1.314,1.466v4.105
	c-0.704,1.043-1.08,1.596-1.174,1.596c0.469,0.586,0.892,1.108,1.174,1.564v4.528c0,0.586-0.211,1.01-0.61,1.205
	c-0.258,0.098-0.728,0.195-1.361,0.261v0.88h7.229v-0.88c-0.563-0.098-0.986-0.228-1.291-0.358
	c-0.399-0.228-0.587-0.619-0.587-1.205V28.5h5.633v5.18c0,0.586-0.211,1.01-0.61,1.173c-0.117,0.098-0.329,0.163-0.634,0.163
	l-0.634,0.098v0.945h7.088v-0.88c-0.587-0.098-1.033-0.228-1.361-0.358c-0.399-0.228-0.587-0.619-0.587-1.205v-4.431
	c0.704-1.01,1.08-1.531,1.174-1.564c-0.469-0.554-0.868-1.108-1.174-1.596v-4.235C60.037,21.56,60.084,21.3,60.155,21.104z"/>
<path d="M45.533,19.149h-0.845l-0.563,0.749c-1.103-0.749-2.277-1.14-3.544-1.14c-2.136,0-3.873,0.814-5.187,2.476
	c-1.033,1.303-1.69,2.834-1.972,4.626c-0.681,1.075-1.056,1.596-1.15,1.629c0.469,0.586,0.845,1.108,1.15,1.564
	c0.07,0.782,0.211,1.499,0.446,2.215c0.54,1.662,1.432,2.932,2.652,3.844c1.103,0.782,2.347,1.205,3.802,1.205
	c0.775,0,1.479-0.13,2.089-0.391c1.666-0.652,2.887-2.052,3.755-4.235l-0.821-0.619c-0.422,0.912-1.033,1.727-1.878,2.411
	c-0.681,0.586-1.455,0.88-2.324,0.88c-1.267,0-2.23-0.554-2.91-1.727c-0.422-0.652-0.681-1.303-0.845-1.987
	c-0.141-0.652-0.235-1.205-0.282-1.596c0.681-0.977,1.056-1.499,1.15-1.596c-0.469-0.521-0.845-1.043-1.15-1.564
	c0.235-4.007,1.432-5.962,3.591-5.962c1.784,0,3.168,1.759,4.06,5.31h0.821L45.533,19.149z"/>
<path d="M20.865,19.41v-4.17H4.718v5.995h0.939c0.211-0.782,0.446-1.401,0.704-1.89c0.493-0.945,1.15-1.499,1.948-1.596
	c0.587-0.098,1.22-0.163,1.878-0.163h0.54v5.962c-0.141,0.228-0.446,0.586-0.915,1.075c-0.516,0.521-0.845,0.847-1.009,0.88
	c0.164,0.098,0.493,0.391,1.009,0.912c0.469,0.521,0.775,0.88,0.915,1.075v8.568h4.225V27.49c0.141-0.195,0.446-0.586,0.939-1.108
	c0.446-0.521,0.775-0.782,0.915-0.88c-0.141-0.033-0.469-0.326-0.915-0.814c-0.493-0.521-0.798-0.912-0.939-1.14v-5.962h0.54
	c0.657,0,1.267,0.033,1.878,0.098c0.775,0.163,1.432,0.684,1.925,1.662c0.235,0.456,0.376,0.782,0.422,0.977
	c0.094,0.293,0.164,0.586,0.235,0.912h0.915V20.42c0.07,0.033,0.164,0.033,0.258,0.033c0.681,0.195,1.08,0.456,1.197,0.782
	c0.07,0.293,0.094,0.521,0.094,0.684v4.105c-0.704,1.043-1.08,1.596-1.174,1.596c0.493,0.586,0.868,1.108,1.174,1.564v4.496
	l-0.117,0.749c-0.07,0.163-0.235,0.326-0.469,0.424c-0.235,0.13-0.681,0.228-1.385,0.326v0.88h12.486l0.258-5.213h-0.681
	c-0.211,0.619-0.376,1.108-0.563,1.466c-0.399,0.586-0.657,0.912-0.798,0.945c-0.329,0.13-0.634,0.261-0.868,0.293
	c-0.516,0.195-1.291,0.293-2.3,0.293c-0.939,0-1.526-0.13-1.76-0.358c-0.305-0.261-0.422-0.88-0.422-1.824v-3.681h1.361
	c0.775,0,1.338,0.261,1.713,0.749c0.352,0.456,0.587,1.173,0.704,2.118h0.704v-6.776h-0.704c-0.141,0.977-0.376,1.727-0.751,2.183
	c-0.376,0.489-0.915,0.717-1.666,0.717h-1.361v-5.734h1.901c0.798,0,1.314,0,1.596,0.033c0.282,0.098,0.516,0.163,0.751,0.195
	c0.329,0.065,0.563,0.261,0.775,0.521c0.282,0.456,0.54,1.043,0.728,1.694h0.704V19.41H20.865z"/>
<path d="M113.579,47.624c0.282,0.065,0.516,0.228,0.681,0.456c0.258,0.424,0.469,0.912,0.657,1.499h0.587v-3.747h-10.163v0.814
	c0.117,0.033,0.305,0.065,0.54,0.13c0.61,0.163,0.939,0.391,1.033,0.684c0.07,0.228,0.094,0.424,0.094,0.554v3.519
	c-0.563,0.88-0.915,1.368-1.009,1.433c0.399,0.424,0.751,0.88,1.009,1.303v3.909l-0.117,0.619c-0.07,0.13-0.188,0.261-0.376,0.358
	c-0.235,0.13-0.61,0.228-1.174,0.261v0.814h10.749l0.211-4.463h-0.587c-0.164,0.489-0.329,0.945-0.493,1.238
	c-0.329,0.489-0.54,0.782-0.681,0.782c-0.282,0.163-0.54,0.261-0.751,0.326c-0.446,0.163-1.103,0.261-1.995,0.261
	c-0.798,0-1.314-0.13-1.526-0.391c-0.235-0.195-0.352-0.749-0.352-1.564v-3.193h1.174c0.704,0,1.174,0.228,1.479,0.652
	c0.329,0.391,0.54,1.043,0.634,1.89h0.61v-5.897h-0.61c-0.117,0.814-0.352,1.466-0.657,1.89c-0.329,0.391-0.798,0.586-1.455,0.586
	h-1.174v-4.887h1.643c0.704,0,1.15,0,1.361,0.033C113.18,47.526,113.391,47.591,113.579,47.624z"/>
<path d="M75.182,45.832l-2.629,9.578l-2.934-9.578h-5.21v0.814c0.258,0.065,0.446,0.098,0.516,0.13
	c0.258,0.033,0.469,0.195,0.681,0.424c0.352,0.293,0.516,0.88,0.516,1.694v7.135c0,0.814-0.047,1.466-0.117,1.955
	c-0.141,0.717-0.516,1.14-1.15,1.303c-0.282,0.098-0.446,0.13-0.516,0.13v0.814h5.422v-0.814c-0.258-0.065-0.422-0.163-0.563-0.261
	c-0.329-0.098-0.587-0.228-0.728-0.358c-0.376-0.358-0.54-1.303-0.54-2.802v-8.536l3.192,11.24c0.211,0.619,0.329,1.075,0.376,1.336
	h1.502l3.403-12.413v14.237c0.258,0.033,0.61,0.424,1.056,1.14c0.188,0.228,0.329,0.521,0.422,0.847
	c0.094,0.293,0.164,0.619,0.258,0.912h0.61V47.884c0-0.163,0.023-0.358,0.117-0.619c0.117-0.358,0.61-0.554,1.502-0.619v-0.814
	H75.182z"/>
<path d="M81.472,46.646c0.117,0.033,0.329,0.065,0.61,0.13c0.751,0.163,1.103,0.586,1.103,1.238v3.519
	c-0.587,0.88-0.915,1.336-0.986,1.368c0.399,0.489,0.751,0.912,0.986,1.336v7.624c0.563,0.065,1.033,0.424,1.432,1.075
	c0.422,0.619,0.681,1.238,0.821,1.824h0.61V53.944h0.915c0.775,0,1.502-0.098,2.136-0.326c2.112-0.489,3.168-1.922,3.168-4.235
	c0-2.346-1.479-3.551-4.459-3.551h-6.337V46.646z M86.048,47.2h0.657c0.845,0,1.432,0.163,1.784,0.424
	c0.422,0.424,0.634,1.205,0.634,2.346c0,1.043-0.235,1.792-0.728,2.313c-0.329,0.358-1.009,0.521-2.042,0.521h-0.305V47.2z"/>
<path d="M93.395,46.646c0.563,0.13,0.986,0.228,1.22,0.391c0.352,0.163,0.516,0.489,0.516,0.977v3.519
	c-0.587,0.88-0.939,1.368-1.033,1.433c0.422,0.424,0.775,0.88,1.033,1.303v3.909c0,0.554-0.164,0.88-0.516,0.977
	c-0.516,0.163-0.892,0.261-1.22,0.261v0.814h10.609l0.235-4.626h-0.587c-0.188,0.456-0.305,0.717-0.352,0.814
	c-0.446,0.652-0.775,1.043-1.009,1.238c-0.164,0.195-0.516,0.391-1.056,0.456c-0.399,0.033-0.821,0.065-1.22,0.065
	c-0.868,0-1.408-0.098-1.619-0.293c-0.235-0.228-0.352-0.749-0.352-1.629v-1.922c0.54-0.88,0.845-1.336,0.915-1.368
	c-0.376-0.456-0.681-0.945-0.915-1.368v-3.714c0-0.195,0.023-0.424,0.094-0.684c0.094-0.163,0.329-0.326,0.751-0.424
	c0.117-0.033,0.446-0.065,0.939-0.13v-0.814h-6.431V46.646z"/>
<path d="M40.563,44.398c0.516-0.065,1.056-0.13,1.643-0.13h0.469v5.18c-0.117,0.195-0.376,0.521-0.775,0.912
	c-0.469,0.456-0.775,0.717-0.915,0.749c0.141,0.098,0.446,0.326,0.915,0.814c0.399,0.391,0.657,0.717,0.775,0.88v7.428h3.638v-7.428
	c0.141-0.163,0.399-0.489,0.798-0.945c0.422-0.424,0.681-0.652,0.821-0.749c-0.141-0.033-0.399-0.261-0.821-0.717
	c-0.399-0.424-0.657-0.749-0.798-0.945v-5.18h0.493c0.54,0,1.056,0.033,1.549,0.098c0.704,0.13,1.291,0.586,1.713,1.433
	c0.211,0.358,0.329,0.652,0.352,0.847c0.047,0.228,0.141,0.521,0.211,0.814h0.775v-5.213H37.465v5.213h0.821
	c0.164-0.717,0.376-1.271,0.587-1.662C39.319,45.017,39.882,44.528,40.563,44.398z"/>
<path d="M58.025,52.347h-1.197v-4.887h1.713c0.657,0,1.103,0,1.361,0.033c0.211,0.033,0.422,0.098,0.634,0.13
	c0.282,0.065,0.493,0.228,0.634,0.456c0.282,0.424,0.493,0.912,0.657,1.499h0.587v-3.747H52.228v0.814
	c0.141,0.033,0.352,0.065,0.634,0.13c0.563,0.163,0.892,0.391,1.009,0.684c0.047,0.228,0.047,0.424,0.047,0.554v3.519
	c-0.563,0.88-0.892,1.368-0.986,1.433c0.446,0.424,0.751,0.88,0.986,1.303v3.909l-0.07,0.619c-0.094,0.13-0.235,0.261-0.399,0.358
	c-0.211,0.13-0.61,0.228-1.22,0.261v0.814H63l0.235-4.463h-0.563c-0.164,0.489-0.352,0.945-0.493,1.238
	c-0.376,0.489-0.61,0.782-0.728,0.782c-0.282,0.163-0.54,0.261-0.751,0.326c-0.422,0.163-1.08,0.261-1.972,0.261
	c-0.775,0-1.291-0.13-1.526-0.391c-0.258-0.195-0.376-0.749-0.376-1.564v-3.193h1.197c0.681,0,1.174,0.228,1.479,0.652
	c0.329,0.391,0.516,1.043,0.634,1.89h0.587v-5.897h-0.587c-0.141,0.814-0.352,1.466-0.681,1.89
	C59.151,52.152,58.682,52.347,58.025,52.347z"/>
</svg>
