<?xml version="1.0" encoding="utf-8"?>
<!-- Generator: Adobe Illustrator 17.0.0, SVG Export Plug-In . SVG Version: 6.00 Build 0)  -->
<!DOCTYPE svg PUBLIC "-//W3C//DTD SVG 1.1//EN" "http://www.w3.org/Graphics/SVG/1.1/DTD/svg11.dtd">
<svg version="1.1" id="Layer_1" xmlns="http://www.w3.org/2000/svg" xmlns:xlink="http://www.w3.org/1999/xlink" x="0px" y="0px"
	 width="160px" height="80px" viewBox="0 0 160 80" enable-background="new 0 0 160 80" xml:space="preserve">
<g>
	<g>
		<path d="M56.578,8.769L48.114,31.08h-8.426L33.97,17.344L28.253,31.08h-8.575l-1.931-5.202l-0.411-0.297l-7.271,4.935l2.782-8.235
			L5.83,17.01h8.614l-3.081-8.241h8.798l2.933,8.538h2.858l3.526-8.538h9.245l4.898,12.436l4.27-12.436H56.578z M26.583,18.124
			l-6.953-0.371l-2.044-6.645l-2.157,6.645h-7.25l5.783,4.158l-2.599,6.83l6.012-4.231l5.417,4.032l-1.852-6.414L26.583,18.124z
			 M24.61,20.528l-0.328,0.232l0.109,0.296L24.61,20.528z"/>
		<path d="M83.591,26.402h-2.896v-5.791H63.359v5.791h-2.896V16.267c0-1.188,0.421-2.208,1.263-3.063
			c0.841-0.854,1.855-1.281,3.044-1.281h14.515c1.188,0,2.203,0.427,3.044,1.281c0.842,0.854,1.263,1.875,1.263,3.063V26.402z
			 M80.696,17.716v-1.448c0-0.396-0.143-0.736-0.427-1.021c-0.284-0.284-0.623-0.427-1.019-0.427H64.767
			c-0.396,0-0.729,0.143-1.001,0.427c-0.271,0.285-0.407,0.625-0.407,1.021v1.448H80.696z"/>
		<path d="M109.117,26.402H87.475V11.924h2.896v11.583h14.407c0.963,0,1.444-0.482,1.444-1.448h2.896V26.402z"/>
		<path d="M134.645,26.402h-21.643V11.924h2.896v11.583h14.407c0.963,0,1.444-0.482,1.444-1.448h2.896V26.402z"/>
	</g>
	<g>
		<path d="M79.95,42.617c0,1.188-0.426,2.209-1.281,3.063c-0.854,0.854-1.873,1.281-3.062,1.281H61.129
			c-1.213,0-2.24-0.421-3.081-1.263c-0.842-0.841-1.262-1.868-1.262-3.081v-5.791c0-1.213,0.42-2.24,1.262-3.081
			c0.841-0.842,1.868-1.263,3.081-1.263h14.478c1.188,0,2.208,0.427,3.062,1.281c0.855,0.854,1.281,1.874,1.281,3.063V42.617z
			 M77.055,42.617v-5.791c0-0.396-0.143-0.736-0.428-1.021c-0.285-0.284-0.625-0.427-1.021-0.427H61.092
			c-0.396,0-0.73,0.143-1.002,0.427c-0.272,0.285-0.408,0.626-0.408,1.021v5.791c0,0.965,0.482,1.447,1.448,1.447h14.478
			c0.396,0,0.735-0.142,1.021-0.427C76.913,43.353,77.055,43.013,77.055,42.617z"/>
		<path d="M105.515,36.826h-2.896c0-0.966-0.469-1.448-1.41-1.448H86.73v2.896h14.441v2.896H86.73v5.792h-2.895V32.482h21.68V36.826
			z"/>
	</g>
	<g>
		<path d="M65.838,71.231H41.077v-5.21l-0.344-0.223l-7.267,4.95l2.784-8.196l-7.017-5.279h8.873l2.97-8.167h8.538v8.501h2.97
			l-2.97,2.041v6.534h16.223V71.231z M49.997,58.35l-6.952-0.335L41,51.334l-2.155,6.682h-7.25l5.771,4.119l-2.594,6.817
			l6.006-4.219l5.423,4.048l-1.854-6.412L49.997,58.35z"/>
		<path d="M72.618,66.554h-2.896V52.076h2.896V66.554z"/>
		<path d="M99.594,62.211c0,1.213-0.421,2.24-1.263,3.081c-0.841,0.842-1.868,1.263-3.081,1.263H80.81
			c-1.213,0-2.241-0.421-3.082-1.263c-0.842-0.841-1.263-1.868-1.263-3.081v-5.792c0-1.212,0.421-2.239,1.263-3.081
			c0.841-0.841,1.868-1.262,3.082-1.262h18.784v4.343h-2.896c0-0.965-0.471-1.447-1.411-1.447H80.81
			c-0.965,0-1.449,0.482-1.449,1.447v5.792c0,0.965,0.483,1.447,1.449,1.447h14.44c0.966,0,1.448-0.482,1.448-1.447v-1.448H85.154
			v-2.896h14.44V62.211z"/>
		<path d="M125.157,66.554h-2.896v-5.792h-15.889v5.792h-2.896V52.076h2.896v5.791h15.889v-5.791h2.896V66.554z"/>
		<path d="M152.17,56.419h-2.896c0-0.965-0.482-1.447-1.448-1.447h-5.791v11.583h-2.896V54.971h-5.762
			c-0.96,0-1.44,0.482-1.44,1.447h-2.896v-4.343h23.128V56.419z"/>
	</g>
</g>
</svg>
