<?xml version="1.0" encoding="utf-8"?>
<!-- Generator: Adobe Illustrator 17.0.0, SVG Export Plug-In . SVG Version: 6.00 Build 0)  -->
<!DOCTYPE svg PUBLIC "-//W3C//DTD SVG 1.1//EN" "http://www.w3.org/Graphics/SVG/1.1/DTD/svg11.dtd">
<svg version="1.1" id="Layer_1" xmlns="http://www.w3.org/2000/svg" xmlns:xlink="http://www.w3.org/1999/xlink" x="0px" y="0px"
	 width="160px" height="80px" viewBox="0 0 160 80" enable-background="new 0 0 160 80" xml:space="preserve">
<g>
	<g>
		<path d="M7.47,33.35c-0.06,0.11-0.16,0.16-0.3,0.16c-0.14,0-0.25-0.05-0.31-0.16l0.31-0.56L7.47,33.35z"/>
		<rect x="15.19" y="32.71" width="0.45" height="0.4"/>
		<path d="M26.88,33.23c-0.61-0.11-1.16-0.15-1.62-0.04c-0.69,0.17-1.46,0.34-2.3,0.5c0.03-0.27,0.12-0.47,0.26-0.61
			c0.37-0.01,0.94-0.07,1.72-0.15c0.73-0.09,1.12-0.14,1.19-0.14c0.02,0,0.07-0.01,0.15-0.02c0.07-0.02,0.13-0.03,0.18-0.03
			C26.67,32.74,26.81,32.9,26.88,33.23z"/>
		<path d="M33.24,32.75c-0.32,0.36-0.68,0.62-1.07,0.79c0.02-0.29,0.06-0.54,0.12-0.75C32.34,32.79,32.66,32.78,33.24,32.75z"/>
		<path d="M1.15,34.97v0.74c-0.03,0.57,0.97,4.79,2.99,12.66c0.13,0.57,0.26,1.13,0.38,1.7c0.22,0.69,0.51,0.99,0.87,0.9L1.15,34.97
			z M6.03,50.41l-0.13,0.8l0.55,0.26c0.1-0.19,0.15-0.46,0.15-0.82L6.03,50.41z M9.37,49.72c-0.06,0-0.15,0.11-0.26,0.34
			C9,50.28,8.95,50.44,8.95,50.55c0.07,0.07,0.14,0.1,0.21,0.1c0.13,0,0.26-0.11,0.38-0.34C9.54,49.92,9.48,49.72,9.37,49.72z
			 M12.08,47.87c-0.22-1.14-0.33-1.78-0.33-1.94c0-0.18,0.08-0.79,0.24-1.85c0.16-1.05,0.24-1.66,0.24-1.84
			c0-0.23-0.08-0.46-0.24-0.69c-0.14-0.18-0.25-0.27-0.33-0.27c-0.23,0.59-0.47,1.36-0.74,2.32c-0.26,0.97-0.39,1.57-0.39,1.8
			c0,0.32,0.67,2.27,2.01,5.86l0.09-0.47C12.55,50.22,12.36,49.25,12.08,47.87z"/>
		<path d="M35.86,48.93V38.31c0-1.36-0.01-2.21-0.03-2.54c-0.09-1.3-0.32-2-0.68-2.1c-0.18,0.67-0.28,1.07-0.28,1.19L35,44.42
			c0.01,2.03,0.03,3.15,0.05,3.37c0.1,1.87,0.35,2.81,0.75,2.81c0.12,0,0.25-0.04,0.4-0.13c0.15-0.09,0.23-0.14,0.25-0.14
			C36.37,49.96,36.17,49.49,35.86,48.93z M30.66,43.01c-0.08,0-0.43,0.05-1.06,0.13c-0.68,0.09-1.14,0.14-1.4,0.16
			c-0.31,0.36-0.49,0.57-0.53,0.64v5.89c0,0.23,0.06,0.42,0.18,0.58c0.09,0.13,0.18,0.19,0.27,0.19c0.2-0.28,0.3-1.12,0.31-2.52v-3
			c0.09-0.42,0.36-0.68,0.81-0.77h1c0.1,0,0.36,0.03,0.79,0.11c0.43,0.07,0.69,0.1,0.79,0.1c0.24,0,0.36-0.26,0.36-0.79
			C31.88,43.25,31.38,43.01,30.66,43.01z M25.34,50.81l-0.16,0.56l0.18,0.13l0.15-0.58L25.34,50.81z"/>
		<path d="M45.41,45.29c0,0.67-0.14,1.36-0.41,2.05c-0.09-0.08-0.19-0.16-0.29-0.27c-0.16-2.58-0.32-7.13-0.49-13.64l0.02-0.1
			c0.15,0.03,0.31,0.06,0.46,0.09c0.26,1.53,0.41,3.29,0.46,5.29c0.01,1.97,0.02,3.93,0.04,5.89c0.04,0.08,0.09,0.15,0.14,0.23
			C45.39,44.91,45.41,45.06,45.41,45.29z"/>
		<path d="M55.06,37.57c-0.17,0.16-0.3,0.46-0.4,0.9c-0.09,0.38-0.14,0.73-0.14,1.07c0,0.1,0.01,0.19,0.02,0.26
			c-0.32,0-0.52,0.08-0.61,0.24c0,0.16,0.06,0.34,0.19,0.53c0.16,0.25,0.25,0.43,0.28,0.56c-0.27,0.21-0.48,0.35-0.61,0.42
			c0.12,1.7,0.15,3.38,0.08,5.04c-0.04,0.76-0.08,1.52-0.12,2.29c-0.05,0.9-0.07,1.61-0.06,2.12c0.08,0,0.15,0.04,0.21,0.13
			c0.07,0.09,0.16,0.13,0.26,0.13c0.14,0,0.31-0.14,0.5-0.42c0.19-0.28,0.31-0.53,0.36-0.74V39.83c0-0.2,0.06-0.51,0.19-0.93
			c0.17-0.52,0.27-0.85,0.3-1.01C55.39,37.67,55.24,37.57,55.06,37.57z M50.94,48.21c-0.07,0-0.18,0.11-0.33,0.32l0.31,0.56
			C51.09,48.79,51.1,48.5,50.94,48.21z M50.97,38.39c0-0.1-0.06-0.22-0.18-0.36c-0.12-0.13-0.21-0.19-0.28-0.19l0.42,7
			C50.99,44.84,51.01,42.69,50.97,38.39z M46.81,33.8c-0.12-0.02-0.24-0.04-0.36-0.06c-0.07,0.27-0.11,0.58-0.11,0.91
			c0,0.25,0.05,0.49,0.13,0.73c0.09,0.24,0.2,0.39,0.32,0.46c0.08-0.21,0.16-0.53,0.24-0.95c0.09-0.43,0.18-0.74,0.27-0.93
			c0.05-0.02,0.11-0.05,0.17-0.07C47.25,33.87,47.03,33.84,46.81,33.8z"/>
		<path d="M72.88,48.05c-0.18-0.87-0.35-1.36-0.52-1.49c-0.68-0.49-1.07-0.93-1.17-1.32c-0.12-0.46-0.2-1.09-0.26-1.89
			c-0.08-0.99-0.14-1.59-0.17-1.8c-0.13-0.21-0.23-0.36-0.3-0.43c0-0.48-0.17-1.17-0.51-2.09c0.07-0.08,0.33-0.24,0.78-0.48
			c0.31-0.16,0.54-0.39,0.69-0.69c-0.96-0.34-1.55-0.51-1.78-0.51L65,37.57c-0.33,0.01-0.6,0.41-0.81,1.19
			c-0.15,0.57-0.23,1.04-0.23,1.41c0,0.55,0.14,0.91,0.42,1.09h5.96v3.07h-3.61c-0.66-0.03-1.44,0.14-2.35,0.51
			c-0.2,0.74-0.3,1.33-0.3,1.75c0,0.71,0.14,1.18,0.42,1.41l7.09,0.21c0.31-0.02,0.52,0.1,0.63,0.35c0.08,0.17,0.12,0.48,0.12,0.92
			v0.38c0,0.72,0.12,1.19,0.37,1.4c0.27-0.49,0.41-0.96,0.41-1.4C73.12,49.43,73.04,48.83,72.88,48.05z M61.35,35.69
			c-0.17-0.48-0.31-0.72-0.41-0.72c-0.07,0.12-0.16,0.26-0.26,0.42c-0.09,0.16-0.14,0.36-0.14,0.59v12.1c0,0.18,0.03,0.58,0.08,1.2
			c0.05,0.63,0.07,1.04,0.07,1.24c0.2,0.48,0.34,0.72,0.43,0.72c0.18-1.47,0.27-4.18,0.27-8.12C61.39,38.94,61.38,36.46,61.35,35.69
			z"/>
		<path d="M72.65,33.43c-0.36-1.52-0.66-2.57-0.91-3.13c-0.64-0.17-1.51-0.33-2.61-0.49c0,0,0,0-0.01-0.01
			c-2.28-1.39-5.02-1.87-7.66-2.59c-5.99-1.61-0.77-4.37,0.07-2.27c3.26-1.35-3.78-3.1-4.02-3.07c-4.03,0.59-5.45,3.72-7.79,6.56
			c-0.47,0.57-0.92,1.02-1.34,1.37c-0.12,0.1-0.24,0.19-0.35,0.27c-0.6,0.43-1.15,0.67-1.67,0.77c-0.28,0.05-0.55,0.05-0.81,0.02
			c-0.11-0.02-0.21-0.04-0.31-0.06c-2.64-0.66-3.16-5.45,0.23-2.8c3.63-6.07-19.03,0.98-19.18-2.83c-0.1-2.42,2.84-0.72,3.23-0.26
			c0.56-0.28,0.64-0.66,0.52-1.08c-1.17-3.93-7.45-1.48-9.13,0.38c-1.31,1.98-2.86,3.75-4.65,5.32c-0.26,0.15-0.52,0.29-0.78,0.41
			c-0.89,0.39-1.77,0.55-2.61,0.5c-0.77-0.06-1.53-0.3-2.26-0.74c-2.36-1.37,1.22-3.73,2.68-1.7c2.22-2.56-4.58-3.63-5.29-3.64
			c-3.53-0.05-4.2,0.29-6.62,2.14C0.75,27.16-0.69,30,0.75,31c0.17,0.12,0.33,0.23,0.47,0.33c-0.31,0.41-0.47,1.09-0.47,2.02
			c0,0.3,0.1,0.62,0.29,0.96c0.26-0.15,0.82-0.22,1.66-0.22c1.63,0,2.54,0.07,2.75,0.22c0.3,0.19,0.58,1,0.84,2.44
			c0.47,2.54,1.03,4.98,1.68,7.32h0.47c0.63-2.35,1.02-3.87,1.18-4.56c0.43-1.86,0.71-3.46,0.84-4.79c1.06,0.09,2.21,0.1,3.4,0.05
			c0.74,2.91,1.43,5.92,2.08,9.04c0.13,0.33,0.27,0.5,0.41,0.5c0.13-0.16,0.22-0.25,0.27-0.26c0.42-1.81,0.83-3.61,1.23-5.42
			c0.39-1.8,0.57-3.19,0.52-4.16c0.01-0.02,0.02-0.04,0.03-0.06c1.4-0.17,2.77-0.39,4.02-0.62c-0.06,0.27-0.1,0.54-0.12,0.81v1.56
			l0.12,9.37c0.04,0.2,0.09,0.57,0.15,1.13c0.07,0.56,0.11,0.93,0.14,1.13c0.26-0.99,0.39-2.25,0.39-3.77c0-0.67-0.03-1.65-0.1-2.92
			c-0.06-1.13-0.08-1.9-0.06-2.31v-4.8c0-0.11,0.01-0.21,0.02-0.3c0.03-0.27,0.12-0.47,0.26-0.61c0.37-0.01,0.94-0.07,1.72-0.15
			c0.73-0.09,1.12-0.14,1.19-0.14c0.02,0,0.07-0.01,0.15-0.02c0.07-0.02,0.13-0.03,0.18-0.03c0.21,0,0.35,0.16,0.42,0.49
			c0.04,0.17,0.06,0.39,0.06,0.65c0,0.41-0.06,0.7-0.18,0.88c-0.1-0.45-0.31-0.81-0.62-1.09l-0.3,0.5c0.02,2.14,0.02,3.78,0.01,4.91
			h6.06c0.23-0.44,0.35-1.09,0.35-1.93c0-0.3-0.02-0.79-0.06-1.46c-0.04-0.68-0.06-1.17-0.06-1.49c0-0.24,0.01-0.46,0.03-0.66
			c0.02-0.29,0.06-0.54,0.12-0.75c0.05,0,0.37-0.01,0.95-0.04c0.32-0.02,0.72-0.04,1.2-0.06c0.86-0.04,1.59-0.01,2.16,0.08
			l0.11,15.76c-0.03,0.34-0.05,0.56-0.05,0.66c0,0.39,0.12,0.79,0.35,1.2c0.13-0.11,0.25-0.29,0.37-0.56
			c0.12-0.26,0.18-0.51,0.18-0.74c0-0.04-0.01-0.34-0.03-0.9c-0.02-0.69-0.04-1.53-0.06-2.52c-0.02-1.46-0.03-3.24-0.03-5.37
			c0-0.99-0.07-3.38-0.21-7.19c-0.01-0.28-0.03-0.54-0.05-0.78c0.75,0.02,1.48,0.08,2.21,0.17c-0.02,0.25-0.02,0.52-0.01,0.82
			c-0.28,0.41-0.51,0.7-0.69,0.88c0.05,0.18,0.14,0.32,0.27,0.42c0.19,0.18,0.3,0.28,0.32,0.3c0.23,6.44,0.42,11.29,0.55,14.54
			c0.12,0.27,0.2,0.55,0.25,0.85c0.44,0.34,0.79,0.5,1.06,0.5c0.25,0,0.49-0.12,0.7-0.37c0.26-0.32,0.39-0.73,0.39-1.25
			c0-0.14-0.05-0.73-0.16-1.77c-0.11-1.05-0.17-1.75-0.17-2.13c0-2.14-0.14-5.55-0.44-10.24c-0.15-0.12-0.29-0.21-0.42-0.27
			c0,1.42,0.03,3.81,0.1,7.17c0.07,3.02,0.1,5.35,0.08,6.98c-0.18,0.41-0.34,0.61-0.47,0.61L39.66,33.4
			c1.71-0.24,3.23-0.24,4.56,0.03l0.02-0.1c0.15,0.03,0.31,0.06,0.46,0.09c0.02,0,0.04,0.01,0.06,0.01c0.1,0.02,0.21,0.04,0.31,0.06
			c0.27,0.05,0.53,0.1,0.8,0.15c0.19,0.03,0.38,0.07,0.58,0.1c0.12,0.02,0.24,0.04,0.36,0.06c0.22,0.04,0.44,0.07,0.66,0.09
			c0.01,0,0.01,0,0.01,0c2.2,0.31,4.37,0.25,6.52-0.04h0.04l4.77,0.19c-0.1,0.14-0.23,0.51-0.37,1.11
			c-0.16,0.68-0.24,1.23-0.24,1.67c0,0.22,0.06,0.43,0.18,0.64c0.13,0.21,0.27,0.32,0.43,0.32c0.4,0,0.6-0.68,0.6-2.04
			c0-0.37-0.1-1.24-0.3-2.61c0.69,0.1,1.37,0.32,2.05,0.48c-0.01,0.02-0.01,0.04-0.01,0.06c0,0.21,0.03,0.35,0.07,0.42
			c0.05,0.07,0.07,0.14,0.07,0.19c0.48,0.09,0.81,0.1,1.01,0.05l9.84-0.45c0.12,0,0.19,0.04,0.2,0.11c0.02,0.14,0.04,0.23,0.06,0.26
			c-0.12,0.71-0.18,1.34-0.18,1.89c0,0.9,0.17,1.38,0.51,1.43c0.26-0.71,0.39-1.32,0.39-1.83C73.12,35.56,72.96,34.79,72.65,33.43z
			 M7.17,33.51c-0.14,0-0.25-0.05-0.31-0.16l0.31-0.56l0.3,0.56C7.41,33.46,7.31,33.51,7.17,33.51z M15.64,33.11h-0.45v-0.4h0.45
			V33.11z"/>
	</g>
	<g>
		<path d="M91.48,51.28c-0.12-0.13-0.21-0.2-0.28-0.2c0,0.26,0.05,0.54,0.13,0.82c0.08,0,0.19-0.09,0.33-0.27
			C91.66,51.53,91.6,51.41,91.48,51.28z M91.36,41.09c-0.12-0.47-0.25-0.78-0.37-0.92c-0.14,0.3-0.32,1-0.55,2.1
			c-0.15,0.78-0.37,1.17-0.67,1.17h-2.9c-0.31-0.64-0.49-1.11-0.54-1.41c-0.02-0.07-0.03-0.36-0.03-0.88c0-0.63,0.1-1.19,0.3-1.67
			c0.16-0.37,0.46-0.84,0.9-1.41c0.14-0.05,0.28-0.1,0.43-0.16c0.24-0.1,0.43-0.35,0.57-0.74h-1.02c-0.86-0.02-1.52,1.37-2,4.17
			c-0.02,0.1-0.03,0.24-0.03,0.4c0,0.14,0.01,0.38,0.03,0.73c0.02,0.34,0.03,0.59,0.03,0.75c0,0.43-0.05,0.72-0.15,0.88h-0.45
			c-0.45-0.82-0.7-1.25-0.77-1.3l-0.15,1.62c0.1,0.88,0.62,1.69,1.55,2.41c0.84,0.64,1.58,0.96,2.23,0.96c0.77,0,1.54-0.44,2.31-1.3
			c0.99-1.08,1.48-2.54,1.48-4.36C91.56,41.9,91.49,41.56,91.36,41.09z M91.36,41.09c-0.12-0.47-0.25-0.78-0.37-0.92
			c-0.14,0.3-0.32,1-0.55,2.1c-0.15,0.78-0.37,1.17-0.67,1.17h-2.9c-0.31-0.64-0.49-1.11-0.54-1.41c-0.02-0.07-0.03-0.36-0.03-0.88
			c0-0.63,0.1-1.19,0.3-1.67c0.16-0.37,0.46-0.84,0.9-1.41c0.14-0.05,0.28-0.1,0.43-0.16c0.24-0.1,0.43-0.35,0.57-0.74h-1.02
			c-0.86-0.02-1.52,1.37-2,4.17c-0.02,0.1-0.03,0.24-0.03,0.4c0,0.14,0.01,0.38,0.03,0.73c0.02,0.34,0.03,0.59,0.03,0.75
			c0,0.43-0.05,0.72-0.15,0.88h-0.45c-0.45-0.82-0.7-1.25-0.77-1.3l-0.15,1.62c0.1,0.88,0.62,1.69,1.55,2.41
			c0.84,0.64,1.58,0.96,2.23,0.96c0.77,0,1.54-0.44,2.31-1.3c0.99-1.08,1.48-2.54,1.48-4.36C91.56,41.9,91.49,41.56,91.36,41.09z
			 M83.2,32.77c-0.38,0.44-0.71,0.88-0.97,1.32c0.34-0.07,0.76-0.73,1.24-1.6C83.38,32.59,83.29,32.68,83.2,32.77z M91.36,41.09
			c-0.12-0.47-0.25-0.78-0.37-0.92c-0.14,0.3-0.32,1-0.55,2.1c-0.15,0.78-0.37,1.17-0.67,1.17h-2.9c-0.31-0.64-0.49-1.11-0.54-1.41
			c-0.02-0.07-0.03-0.36-0.03-0.88c0-0.63,0.1-1.19,0.3-1.67c0.16-0.37,0.46-0.84,0.9-1.41c0.14-0.05,0.28-0.1,0.43-0.16
			c0.24-0.1,0.43-0.35,0.57-0.74h-1.02c-0.86-0.02-1.52,1.37-2,4.17c-0.02,0.1-0.03,0.24-0.03,0.4c0,0.14,0.01,0.38,0.03,0.73
			c0.02,0.34,0.03,0.59,0.03,0.75c0,0.43-0.05,0.72-0.15,0.88h-0.45c-0.45-0.82-0.7-1.25-0.77-1.3l-0.15,1.62
			c0.1,0.88,0.62,1.69,1.55,2.41c0.84,0.64,1.58,0.96,2.23,0.96c0.77,0,1.54-0.44,2.31-1.3c0.99-1.08,1.48-2.54,1.48-4.36
			C91.56,41.9,91.49,41.56,91.36,41.09z"/>
		<path d="M110,44.39c-0.3-0.43-0.56-0.71-0.78-0.85c-0.31-0.11-0.56-0.16-0.73-0.16c-0.07-0.03-0.22-0.17-0.44-0.4
			c-0.19-0.19-0.33-0.3-0.42-0.32c-0.18-0.07-0.61-0.1-1.3-0.1c-0.1,0-0.52,0.07-1.25,0.22c-0.73,0.15-1.15,0.23-1.25,0.23
			c-0.51,0-0.79-0.01-0.82-0.03c-0.16-0.05-0.3-0.26-0.44-0.63c-0.04-0.08-0.26-0.8-0.69-2.18c-0.32,0.87-0.5,1.47-0.54,1.82
			c-0.01,0.05-0.01,0.1-0.01,0.14c0,1.58,0.48,2.84,1.44,3.8c0.81,0.79,1.71,1.19,2.71,1.19c0.55,0,1.13-0.18,1.73-0.55
			c0.34-0.22,0.77-0.56,1.31-1.04c0.42-0.39,0.69-0.58,0.81-0.58c0.11,0,0.29,0.35,0.54,1.06c0.3,0.87,0.49,1.38,0.59,1.54v-2.07
			C110.47,45.23,110.32,44.87,110,44.39z"/>
		<path d="M123.94,48.05c-0.18-0.87-0.36-1.36-0.53-1.49c-0.67-0.49-1.06-0.93-1.16-1.32c-0.12-0.46-0.21-1.09-0.27-1.89
			c-0.08-0.99-0.13-1.59-0.16-1.8c-0.13-0.21-0.23-0.36-0.3-0.43c0-0.48-0.17-1.17-0.51-2.09c0.07-0.08,0.33-0.24,0.77-0.48
			c0.31-0.16,0.54-0.39,0.69-0.69c-0.24-0.08-0.45-0.16-0.65-0.22c-0.58-0.19-0.96-0.29-1.12-0.29l-4.65,0.22
			c-0.33,0.01-0.6,0.41-0.81,1.19c-0.15,0.57-0.22,1.04-0.22,1.41c0,0.55,0.14,0.91,0.42,1.09h5.96v3.07h-3.62
			c-0.65-0.03-1.44,0.14-2.34,0.51c-0.2,0.74-0.3,1.33-0.3,1.75c0,0.71,0.14,1.18,0.42,1.41l7.09,0.21c0.31-0.02,0.52,0.1,0.63,0.35
			c0.08,0.17,0.12,0.48,0.12,0.92v0.38c0,0.72,0.12,1.19,0.37,1.4c0.27-0.49,0.4-0.96,0.4-1.4
			C124.17,49.43,124.09,48.83,123.94,48.05z M121.82,37.64c-0.58-0.19-0.96-0.29-1.12-0.29l-4.65,0.22
			c-0.33,0.01-0.6,0.41-0.81,1.19c-0.15,0.57-0.22,1.04-0.22,1.41c0,0.55,0.14,0.91,0.42,1.09h5.96l0.12-0.14
			c0-0.48-0.17-1.17-0.51-2.09c0.07-0.08,0.33-0.24,0.77-0.48c0.31-0.16,0.54-0.39,0.69-0.69C122.23,37.78,122.02,37.7,121.82,37.64
			z M112.41,35.69c-0.02-0.06-0.04-0.12-0.06-0.17c-0.07-0.18-0.13-0.32-0.19-0.41c-0.06-0.09-0.12-0.14-0.16-0.14
			c-0.08,0.12-0.16,0.26-0.26,0.42c-0.09,0.16-0.14,0.36-0.14,0.59v12.1c0,0.18,0.02,0.58,0.07,1.2c0.05,0.63,0.08,1.04,0.08,1.24
			c0.2,0.48,0.34,0.72,0.43,0.72c0.18-1.47,0.27-4.18,0.27-8.12C112.45,38.94,112.44,36.46,112.41,35.69z"/>
		<path d="M132.36,32.79c-0.02,0.02-0.03,0.04-0.05,0.06c0.04,0.01,0.08,0.02,0.12,0.03C132.4,32.85,132.38,32.82,132.36,32.79z
			 M136.48,40.49c-0.49-0.59-0.86-1.18-1.1-1.78c-0.03-0.09-0.06-0.45-0.09-1.07c-0.03-0.49-0.16-0.8-0.38-0.92
			c-0.74,2.42-1.29,4.27-1.63,5.54l0.27,0.51h0.63c0.1,0.01,0.28-0.09,0.53-0.31c0.25-0.22,0.43-0.33,0.53-0.33
			c0.1,0,0.34,0.07,0.72,0.21c0.38,0.15,0.63,0.22,0.74,0.22c0.36,0,0.69-0.26,0.98-0.77C137.28,41.35,136.88,40.91,136.48,40.49z
			 M137.69,46.99c-0.13-0.63-0.33-0.95-0.6-0.95c-0.08,0-0.17,0.02-0.27,0.08c0.34,1.16,0.74,2.15,1.18,2.97l0.08-0.51
			C137.99,48.42,137.86,47.89,137.69,46.99z"/>
		<path d="M148.22,39.75c-0.22,0-0.33,0.25-0.33,0.76c0,0.16,0.1,0.62,0.3,1.39c0.24,0.97,0.38,1.6,0.43,1.88
			c0,2.37,0.02,3.93,0.06,4.67c0.03,0.6,0.1,0.96,0.2,1.06c0.23-0.46,0.34-1.17,0.34-2.12c0-0.16-0.01-0.42-0.02-0.78
			c-0.01-0.37-0.01-0.64-0.01-0.81c0-0.96,0.09-1.75,0.27-2.39c0.19-0.06,0.44,0.12,0.75,0.53c0.19,0.3,0.39,0.59,0.59,0.87
			C149.78,41.97,148.91,40.28,148.22,39.75z M147.52,49.73l-0.15,0.55l0.16,0.14l0.17-0.59L147.52,49.73z"/>
		<path d="M132.43,32.88c-0.04-0.01-0.08-0.02-0.12-0.03c0.02-0.02,0.03-0.04,0.05-0.06C132.38,32.82,132.4,32.85,132.43,32.88z"/>
		<path d="M158.5,26.17c-2.66-1.86-3.4-2.2-7.27-2.14c-0.49,0-8.26,1.05-5.81,3.64c1.59-2.02,5.49,0.34,2.95,1.69
			c-0.34,0.18-0.68,0.32-1.05,0.44c-0.07,0.03-0.14,0.05-0.21,0.07c-1.65,0.48-3.51,0.34-4.94-0.68c-1.95-1.54-3.65-3.32-5.11-5.32
			c-1.84-1.86-8.72-4.38-10.02-0.38c-0.14,0.42-0.05,0.8,0.57,1.08c0.35-0.38,3.65-2.21,3.54,0.26c-0.15,3.52-24.74-2.78-21.06,2.83
			c4.88-3.48,2.42,5.61-2.92,1.99c-0.55-0.38-1.13-0.89-1.74-1.56c-2.67-2.96-4.23-5.99-8.55-6.56c0.07,0.01-8.02,1.71-4.41,3.07
			c1.08-2.45,5.53-0.04,2.23,1.62c-2.38,1.19-5.43,1.28-7.96,2.06c-1.29,0.4-2.39,2.63-3.27,4.21c-0.48,0.87-0.9,1.53-1.24,1.6
			h-0.01c-0.15,0.23-0.28,0.47-0.4,0.7c-1,2.07-1.51,4.16-1.51,6.26c0,0.28,0.08,0.65,0.24,1.09c0.17-0.32,0.28-0.56,0.33-0.72
			c0.58-3.41,1.54-5.76,2.88-7.03c0.96-0.92,2.29-1.38,4.01-1.38c1.46,0,2.45,0.24,2.97,0.74c0.31,0.3,0.55,0.54,0.73,0.72
			c0.56,0.42,1.16,1.31,1.79,2.65c0.61,1.27,0.96,2.34,1.06,3.21c0.1,0.87,0.19,2.11,0.26,3.72h0.24c0.26-0.91,0.4-1.76,0.4-2.55
			c0-0.14-0.06-0.53-0.17-1.16c-0.12-0.63-0.17-1.11-0.17-1.44c0-0.29,0.03-0.51,0.1-0.67c0.38,0.52,0.61,1.25,0.7,2.21
			c0.02,0.26,0.03,0.93,0.03,2.01c0,1.56-0.11,2.76-0.34,3.61c-0.31,1.1-0.96,2.31-1.96,3.64c-0.47,0.48-0.83,0.81-1.09,1.01
			c-0.08,0.07-0.1,0.24-0.07,0.5c0.89-0.21,1.84-1.27,2.83-3.17c0.99-1.9,1.48-3.61,1.48-5.14c0-1.07-0.14-2.32-0.41-3.73
			c-0.25-1.24-0.54-2.3-0.86-3.19c-0.14-0.38-0.43-1.01-0.88-1.88c-0.4-0.8-0.65-1.41-0.77-1.83c0.03-0.05,0.06-0.1,0.08-0.15
			c1.09,0.22,2.17,0.46,3.25,0.71c1.5,0.34,2.19,0.11,3.05-0.14c-0.96,1.48-1.53,2.55-1.71,3.21c-0.6,2.1-0.9,4.32-0.9,6.66
			c0,0.9,0.2,2.02,0.6,3.34c0.44,1.49,0.92,2.39,1.46,2.71c-0.25-0.55-0.49-1.21-0.73-1.98s-0.36-1.29-0.36-1.55
			c0-0.25,0.07-0.54,0.19-0.86c0.12-0.33,0.19-0.56,0.19-0.68c0-0.58,0.02-1.13,0.06-1.67V41.8c0.18-2.97,0.88-5.23,2.09-6.78
			c1.15-1.49,2.63-2.23,4.45-2.23c0.36,0,0.72,0.03,1.06,0.11c0.12,0.02,0.24,0.04,0.36,0.08c1.18,0.32,2.24,1.05,3.18,2.2
			c0.02-0.07,0.03-0.17,0.02-0.29c0-0.29-0.06-0.66-0.19-1.1c0.55,0.08,1.16,0.1,1.81,0.04h0.04c0.04,0,0.07-0.01,0.11-0.01h0.04
			c0.04,0,0.07,0,0.11-0.01h0.03c0.01,0,0.01,0,0.02,0c0.02,0,0.04,0,0.06-0.01c0.07,0.01,0.14,0,0.21-0.02
			c0,0.15,0.02,0.25,0.06,0.31c0.04,0.07,0.07,0.14,0.07,0.19c0.05,0.01,0.09,0.02,0.14,0.02h0.03v0.01
			c0.38,0.06,0.66,0.06,0.84,0.02l9.84-0.45c0.12,0,0.19,0.04,0.2,0.11c0.02,0.14,0.04,0.23,0.06,0.26
			c-0.12,0.71-0.18,1.34-0.18,1.89c0,0.9,0.17,1.38,0.51,1.43c0.25-0.71,0.38-1.32,0.38-1.83c0-0.18-0.15-0.95-0.46-2.31
			c-0.1-0.44-0.2-0.83-0.3-1.19c3.63,1.8,5.5,0.99,7.15,0.66c-0.19,0.59-0.38,1.24-0.58,1.97c-0.18,0.7-0.35,1.41-0.53,2.12
			c-1.04,3.8-1.71,6.26-2,7.38c-0.28,1.04-0.57,2.08-0.86,3.1c-0.34,1.27-0.52,2-0.52,2.18v0.69c0.01,0,0.14,0.14,0.4,0.42
			c0.17,0.2,0.3,0.29,0.39,0.29c0,0,0.19-0.03,0.57-0.1c0.27-0.04,0.48-0.01,0.63,0.08l4.6-17.23v-0.74c-0.06,0-0.14-0.06-0.23-0.18
			c-0.04-0.01-0.08-0.02-0.12-0.03c-0.41,0.49-0.74,1.09-1,1.8c-0.09,0.25-0.27,0.89-0.53,1.91c-0.19,0.69-0.39,1.18-0.59,1.46
			l-0.09-0.95c0.27-0.87,0.46-1.52,0.57-1.94c0.09-0.5,0.18-0.98,0.27-1.46c0.09-0.42,0.21-0.71,0.37-0.87
			c0.32-0.04,0.64-0.02,0.98,0.05c0.01,0,0.01,0,0.02,0c0.02-0.02,0.03-0.04,0.05-0.06c0.02,0.03,0.04,0.06,0.07,0.09
			c1.82,0.4,3.44,0.67,4.95,0.82c0.51,1.08,1.22,2.73,2.13,4.96c2.23,5.48,3.53,8.6,3.89,9.34v-1.64c0-0.43-0.97-3.06-2.93-7.91
			c-0.78-1.93-1.41-3.48-1.89-4.64c2.14,0.14,4.12,0.04,6.27-0.27c-0.06,0.94-0.13,2.97-0.23,6.07c-0.1,3.24-0.15,5.06-0.15,5.47
			c0,0.16,0.02,0.48,0.07,0.97c0.06,0.48,0.08,0.83,0.09,1.02c0.15,0.11,0.29,0.19,0.42,0.27c0.05-0.66,0.13-2.81,0.24-6.45
			c0.11-3.37,0.17-5.27,0.17-5.71c0-0.55-0.03-0.93-0.08-1.14c-0.04-0.22-0.11-0.4-0.22-0.54c0.98-0.15,1.99-0.33,3.08-0.56
			l6.7,11.59c0.19-1.05,0.28-1.65,0.28-1.81V36.8c0-0.94,0.08-2.06,0.23-3.37c0.07,0,0.6-0.03,1.59-0.08
			c0.61-0.04,1.11-0.02,1.51,0.05v2.02c-0.07-0.05-0.19-0.18-0.36-0.4c-0.14-0.16-0.22-0.24-0.25-0.24
			c-0.1,0.43-0.18,1.02-0.24,1.78c-0.05,0.58-0.1,1.17-0.15,1.75l-0.13,9.37c0,0.11-0.01,0.28-0.02,0.52
			c-0.01,0.24-0.01,0.43-0.01,0.57c0,0.94,0.28,1.41,0.84,1.41c0.45,0,0.7-0.33,0.74-0.99c0.19-3.38,0.29-7.32,0.29-11.83
			c0-1.7-0.05-2.98-0.16-3.82c-0.09-0.77-0.22-1.4-0.38-1.89c0.38-0.31,0.53-0.75,0.68-1.41C160,27.54,159.19,26.82,158.5,26.17z
			 M128.83,44.05c-0.28,0.76-0.53,1.78-0.77,3.07c-0.13,0.73-0.4,1.3-0.81,1.73c0.37-1.87,0.94-4.03,1.7-6.48
			C128.95,43.24,128.91,43.8,128.83,44.05z M130.09,39c0.01,0.28-0.08,0.7-0.26,1.24c-0.19,0.54-0.4,1.03-0.65,1.47
			c-0.05-0.28,0.05-0.89,0.31-1.83c0.25-0.89,0.45-1.43,0.6-1.65V39z M154.53,32.61c-0.25,0.79-0.49,1.58-0.74,2.36h-0.32
			c-0.18-0.25-0.59-0.68-1.25-1.3c-0.31-0.29-0.54-0.67-0.69-1.14c0.68,0.12,1.52,0.26,1.61,0.16c0.51-0.04,0.97-0.08,1.4-0.12
			C154.54,32.58,154.54,32.6,154.53,32.61z M158.33,48.82h-0.23v-0.8h0.23V48.82z M158.33,47.52h-0.23l0.14-4.48h0.21L158.33,47.52z
			 M158.45,42.11h-0.21V41.1h0.21V42.11z M158.57,37.97h-0.21v-1.89h0.21V37.97z"/>
	</g>
</g>
</svg>
