<?xml version="1.0" encoding="utf-8"?>
<!-- Generator: Adobe Illustrator 16.0.4, SVG Export Plug-In . SVG Version: 6.00 Build 0)  -->
<!DOCTYPE svg PUBLIC "-//W3C//DTD SVG 1.1//EN" "http://www.w3.org/Graphics/SVG/1.1/DTD/svg11.dtd">
<svg version="1.1" id="Layer_1" xmlns="http://www.w3.org/2000/svg" xmlns:xlink="http://www.w3.org/1999/xlink" x="0px" y="0px"
	 width="180px" height="180px" viewBox="0 0 180 180" enable-background="new 0 0 180 180" xml:space="preserve">
<g>
	<path d="M86.204,0.031c2.584,0,5.168,0,7.753,0c0.121,0.04,0.242,0.114,0.365,0.116c2.688,0.038,5.354,0.339,8.015,0.691
		c5.206,0.689,10.305,1.851,15.3,3.461c5.024,1.619,9.868,3.662,14.533,6.137c3.473,1.842,6.814,3.894,10.008,6.18
		c4.619,3.306,8.954,6.954,12.822,11.125c1.66,1.79,3.298,3.606,4.851,5.488c4.65,5.648,8.496,11.811,11.613,18.431
		c2.029,4.312,3.694,8.758,5.019,13.334c1.029,3.561,1.841,7.172,2.394,10.836c0.418,2.783,0.81,5.572,0.856,8.396
		c0.011,0.633,0.102,1.265,0.155,1.896c0,2.531,0,5.062,0,7.591c-0.041,0.176-0.115,0.352-0.116,0.526
		c-0.007,2.689-0.304,5.351-0.658,8.01c-0.558,4.182-1.426,8.297-2.583,12.35c-1.225,4.291-2.764,8.465-4.613,12.528
		c-1.842,4.042-3.96,7.93-6.385,11.647c-4.171,6.398-9.046,12.202-14.691,17.359c-2.621,2.394-5.353,4.646-8.23,6.717
		c-5.625,4.049-11.633,7.423-18.041,10.073c-6.299,2.605-12.804,4.493-19.534,5.605c-3.047,0.503-6.109,0.861-9.191,1.058
		c-0.631,0.039-1.258,0.144-1.887,0.219c-2.585,0-5.169,0-7.753,0c-0.095-0.039-0.188-0.105-0.284-0.112
		c-1.522-0.126-3.047-0.235-4.57-0.366c-5.043-0.43-9.997-1.361-14.879-2.685c-7.373-1.999-14.374-4.9-21.004-8.692
		c-6.871-3.933-13.112-8.699-18.728-14.271c-1.714-1.701-3.343-3.494-4.923-5.321c-4.679-5.409-8.621-11.321-11.871-17.695
		c-2.397-4.699-4.356-9.577-5.894-14.622c-1.113-3.647-1.981-7.355-2.614-11.115c-0.605-3.595-0.952-7.221-1.188-10.858
		c-0.008-0.119-0.09-0.236-0.138-0.354c0-2.529,0-5.06,0-7.591c0.099-0.675,0.222-1.348,0.291-2.027
		c0.174-1.733,0.311-3.471,0.486-5.204c0.358-3.53,1.025-7.008,1.869-10.449c1.91-7.794,4.812-15.207,8.714-22.219
		c3.94-7.083,8.756-13.525,14.441-19.298c1.996-2.026,4.11-3.948,6.276-5.793C38.341,15.89,45.115,11.6,52.458,8.219
		C57.916,5.706,63.567,3.75,69.424,2.39c5.377-1.248,10.811-2.067,16.335-2.242C85.908,0.143,86.055,0.071,86.204,0.031z
		 M107.169,3.347c8.431,3.601,15.241,9.159,20.384,16.779c-0.204,0.241-0.379,0.443-0.549,0.649
		c-0.942,1.141-1.921,2.256-2.821,3.428c-3.532,4.588-6.727,9.413-9.835,14.294c-3.962,6.222-7.658,12.594-10.93,19.209
		c-3.178,6.425-5.969,13-7.805,19.948c-0.91,3.443-1.518,6.933-1.613,10.5c-0.01,0.39,0.02,0.78,0.033,1.287
		c1.604-0.146,3.129-0.133,4.579-0.458c1.606-0.361,3.235-0.715,4.743-1.479c0.872-0.442,0.812-0.359,0.823-1.222
		c0.035-2.75,0.3-5.482,0.82-8.179c0.961-4.973,2.421-9.811,4.128-14.573c3.154-8.803,6.994-17.298,11.502-25.492
		c2.297-4.176,4.788-8.232,7.572-12.103c0.484-0.673,1.003-1.32,1.505-1.979c0.095,0.069,0.152,0.092,0.177,0.134
		c0.108,0.185,0.213,0.373,0.311,0.564c3.517,6.963,5.128,14.338,4.836,22.138c-0.124,3.294-0.591,6.532-1.433,9.716
		c-3.734,14.143-14.022,25.514-27.771,30.71c-0.326,0.123-0.635,0.291-0.956,0.424c-0.425,0.176-0.597,0.496-0.612,0.943
		c-0.028,0.887-0.092,1.772-0.109,2.658c-0.064,3.21,0.165,6.399,0.729,9.56c0.914,5.125,2.416,10.091,4.155,14.984
		c2.699,7.586,5.934,14.941,9.649,22.086c3.385,6.506,7.145,12.769,11.751,18.501c2.021,2.519,3.98,5.084,5.969,7.628
		c0.18,0.229,0.369,0.447,0.548,0.662c28.734-17.774,47.774-53.498,39.482-93.113C168.495,33.638,137.915,8.926,107.169,3.347z
		 M85.447,90.228c-0.034,0.227-0.075,0.407-0.085,0.588c-0.093,1.773-0.159,3.547-0.275,5.319c-0.143,2.174-0.394,4.336-0.917,6.46
		c-0.777,3.15-2.023,6.126-3.381,9.054c-3.862,8.324-8.066,16.472-12.68,24.408c-4.276,7.356-8.811,14.542-14,21.297
		c-0.456,0.593-0.911,1.188-1.344,1.753c0.039,0.11,0.048,0.164,0.075,0.209c0.054,0.093,0.115,0.183,0.176,0.271
		c5.6,8.195,13.078,13.955,22.429,17.279c0.377,0.134,0.778,0.212,1.175,0.273c3.428,0.539,6.88,0.868,10.345,0.968
		c3.52,0.1,7.045,0.067,10.557-0.25c5.041-0.456,10.021-1.253,14.924-2.54c7.133-1.872,13.911-4.618,20.372-8.165
		c0.13-0.071,0.229-0.195,0.354-0.305c-0.16-0.211-0.286-0.383-0.419-0.551c-2.147-2.729-4.324-5.435-6.435-8.188
		c-3.486-4.551-6.783-9.236-9.914-14.04c-4.703-7.219-9.113-14.605-12.943-22.33c-2.585-5.21-4.91-10.529-6.679-16.078
		c-1.466-4.6-2.621-9.262-2.722-14.126c-0.01-0.496-0.082-0.991-0.129-1.526C91.064,90.021,88.297,89.839,85.447,90.228z
		 M50.458,155.099c0.129-0.17,0.247-0.313,0.353-0.466c2.003-2.899,4.084-5.748,5.989-8.709c3.22-5.007,5.973-10.274,8.457-15.686
		c3.239-7.053,5.933-14.301,7.825-21.833c1.221-4.861,2.098-9.779,2.201-14.809c0.006-0.314,0.001-0.63,0.001-0.946
		c-1.355,0.029-6.264,2.357-9.676,4.606c-7.091,4.677-12.449,10.868-16.061,18.557C42.948,129.861,44.965,145.361,50.458,155.099z
		 M108.377,30.025c-0.269-0.14-0.472-0.258-0.685-0.355c-5.755-2.611-11.513-5.215-17.261-7.839
		c-0.488-0.223-0.887-0.208-1.367,0.011c-4.916,2.247-9.841,4.473-14.763,6.707c-1.023,0.465-2.045,0.936-3.154,1.441
		c0.312,0.364,0.573,0.664,0.83,0.969c1.906,2.263,3.883,4.472,5.701,6.803c3.048,3.91,5.606,8.155,8.244,12.346
		c0.958,1.522,2.039,2.972,3.113,4.417c0.803,1.081,1.052,1.082,1.846,0.007c0.989-1.34,1.968-2.696,2.849-4.108
		c1.951-3.127,3.88-6.267,5.997-9.287c2.507-3.575,5.292-6.926,8.034-10.314C107.959,30.575,108.148,30.32,108.377,30.025z
		 M43.199,15.06c0.058,0.143,0.068,0.2,0.099,0.24c1.892,2.448,3.735,4.935,5.69,7.33c1.994,2.442,3.867,4.969,5.625,7.58
		c4.837,7.185,8.886,14.796,12.269,22.768c2.98,7.021,5.426,14.212,6.999,21.688c0.983,4.677,1.495,9.396,1.437,14.178
		c-0.011,0.922,0.153,1.846,0.24,2.809c1.674-0.436,3.267-0.891,4.878-1.258c1.629-0.371,3.279-0.656,4.936-0.98
		c0-0.425,0.017-0.8-0.003-1.173c-0.1-1.934-0.178-3.87-0.324-5.801c-0.211-2.797-0.623-5.569-1.62-8.204
		c-0.903-2.388-1.841-4.77-2.913-7.085c-4.31-9.306-9.107-18.356-14.369-27.163c-3.688-6.173-7.605-12.189-11.999-17.886
		c-2.283-2.961-4.617-5.884-6.931-8.823c-0.097-0.123-0.217-0.229-0.369-0.388C45.613,13.622,44.4,14.345,43.199,15.06z"/>
	<path fill-rule="evenodd" clip-rule="evenodd" d="M108.373,149.436c-0.928,0.42-1.755,0.797-2.582,1.172
		c-5.143,2.33-10.285,4.66-15.423,6.996c-0.382,0.174-0.706,0.246-1.135,0.052c-5.843-2.671-11.696-5.318-17.546-7.974
		c-0.139-0.062-0.269-0.148-0.47-0.262c0.748-0.855,1.438-1.671,2.158-2.461c4.185-4.595,7.659-9.707,10.921-14.973
		c1.475-2.377,2.929-4.768,4.686-6.955c0.202-0.251,0.422-0.488,0.65-0.715c0.091-0.089,0.225-0.137,0.361-0.216
		c0.862,0.615,1.434,1.476,1.99,2.319c1.26,1.906,2.471,3.847,3.674,5.79c2.947,4.767,6.216,9.3,9.786,13.619
		C106.4,146.988,107.342,148.164,108.373,149.436z"/>
</g>
</svg>
